<?xml version="1.0" encoding="UTF-8" standalone="no"?>
<svg
   width="100%"
   height="100%"
   viewBox="0 0 1312 1642"
   version="1.1" />
    <path
   d="m 528.5,84.5 c -3.19661,-31.987315 38.32609,-35.30762 67,-45.5 37.62941,-22.241276 101.10036,21.807908 33,20.5 -34.59541,3.146646 -66.81733,19.070108 -100,25 z m 103,123 c 26.56929,-46.25399 49.06512,35.18813 54,66 -3.5846,47.75121 -55.10022,-0.91009 -46,-36 -5.38327,-9.39824 -3.95686,-20.22886 -8,-30 z m -227,91 c -2.40577,-39.29873 60.78665,-37.58117 87,-57 37.86892,-18.49467 80.19182,-26.62631 120.5,-39 2.57712,32.29621 28.99649,74.36052 16.5,100 -51.9069,16.68741 -103.4123,30.96494 -153,51 -26.07947,8.78243 -64.89731,36.04002 -64.5,-9 -0.58025,-15.76982 -8.72026,-29.61922 -6.5,-46 z m 292,156 c 4.23456,-31.16179 60.20669,-40.59735 88.24484,-38.39925 38.04271,10.1506 52.94194,-23.61945 88.74841,-20.60012 36.93679,-2.36868 71.19579,-7.2563 103.00675,14.99937 33.0429,43.92997 -40.03068,42.66398 -73.20905,41 -37.08205,9.3845 -67.30249,-12.89649 -100.79095,0 -30.05821,12.28376 -73.47593,25.31875 -104,13 -2.93992,-2.7367 -1.81527,-6.5669 -2,-10 z m 18,76 c 4.54918,-16.57885 56.86428,-22.91132 79.73635,-35 46.2651,-1.43942 94.66338,-26.27421 137.26365,-8 31.23995,-27.62847 103.8785,23.8617 54.5,39 -45.26812,-17.37194 -76.88457,23.16409 -128.5,17 -42.85272,12.772 -88.91744,-1.68463 -128.5575,15.564 -17.78323,6.09834 -7.37021,-20.42493 -14.4425,-28.564 z m -371,-94 c -4.83645,-62.22476 -3.81477,-128.78976 18,-188 6.12041,-19.62618 18.50568,-41.14341 29.16863,-62.03437 22.18111,-25.29131 37.8459,-59.37299 64.83137,-72.96563 18.56051,-21.792663 59.57793,-44.486058 69,-41 -5.8232,26.476604 -52.83262,30.27213 -21.2775,43.22787 C 476.97232,154.95131 502.24632,225.73999 463.5,246.5 440.56241,248.98365 419.16704,265.07598 398.59925,274.864 357.90664,298.31328 418.06675,376.26324 382.5,396 c -49.04007,34.79963 3.12086,14.62337 26,0.5 39.09497,-22.65624 85.89222,-38.10727 131,-54 36.61069,-13.0589 77.5485,-24.85303 116,-35 44.08225,-10.5488 91.24159,-19.54195 136,-25 30.39951,-10.59778 50.11092,2.1178 23,-22 -11.60969,-32.79329 -34.32624,-83.15391 27.24831,-65.06264 37.5595,5.03278 49.6971,-13.60757 4.75169,-11.93736 -37.60523,9.70503 -133.7627,-28.85844 -96,36 28.49617,39.99356 14.57947,74.53014 -40,67 -26.31566,-7.86038 -20.91384,-56.45718 -34.79125,-84.69962 -2.0458,-41.60981 92.66805,1.08454 52.79125,-53.30038 -9.38035,-27.50479 -39.47947,-65.540033 -8,-86.5 -38.07181,6.172563 -76.38314,-36.803306 -18,-23.5 39.88473,13.786542 79.6876,14.913933 120,28 8.37751,11.368052 42.55765,51.42968 24,47 -25.76311,-45.920463 0.42623,47.29319 -50,20 -28.2186,-9.04029 -60.71433,-30.4191 -58,-64 -37.59762,-16.73112 -0.47346,34.55251 2,54 14.46557,26.19185 0.58986,51.08092 33,31 26.21732,-14.71742 111.35018,21.28026 89.31775,-27.60675 20.90185,17.88509 37.79847,47.63739 67.68225,55.60675 53.26031,-16.2517 15.53221,49.67397 40,43.26365 -0.56956,-53.7588 18.65114,28.52303 -16,32.73635 14.7345,34.85025 27.6539,75.56557 26,112.5 -16.81648,-12.67941 -5.75221,38.36606 -42,12.5 -86.12142,-2.27092 -172.21205,12.78961 -255,30.5 -14.97252,-43.78665 -56.53317,-24.34178 -27,13.5 5.1304,42.30511 21.03901,90.82251 73,62 47.97165,-8.22353 95.32543,-22.5698 142.99975,-23.5 -49.93938,15.08389 -106.23636,16.14846 -156.62775,34.42663 -55.97426,-3.17954 -23.40679,54.04714 -15.372,86.07337 41.48805,-0.0265 79.86388,-16.76242 120,-20 61.11661,-12.04432 124.04779,-19.93497 188,-15 -51.38439,8.30591 -107.82724,6.56488 -161,18 -53.31106,7.87486 -103.146,22.12264 -155,33 -10.35318,-40.51243 -17.18397,-82.73473 -33,-121 -7.79307,-27.54043 -5.52386,-89.01029 -38,-83 -40.9575,12.7804 -82.66782,26.8509 -123,45 -6.68483,26.35503 43.51497,75.52689 -1,74 -23.58434,-7.01223 -41.38436,-38.16409 -75,-37 -29.0409,-2.0604 45.21895,43.61887 12,46 -14.77819,-25.21236 -31.61894,-37.85131 -53,-55 -19.2531,-3.84714 -37.89486,-12.64122 -38,-35 z m 188,38 c 8.2666,-30.37061 78.18209,-43.28566 101,-38 7.66463,33.8486 19.05922,63.1878 24,98 3.21083,20.69937 18.30101,54.805 11,69 -15.06311,-54.81179 -27.85122,-108.38467 -41,-164 -28.17275,-0.57245 -56.94073,16.14552 -84,26 -3.39939,25.28644 10.72066,90.12495 -8,27 1.7691,-6.58745 -5.31165,-11.21093 -3,-18 z m 20,24 c -20.81282,-36.0578 52.30887,-52.65862 68,-40 17.37967,58.51287 32.13162,115.76619 47,175 -5.11429,23.27257 -15.94596,-47.95572 -23,-65 -19.94678,-28.36277 -6.83313,-104.55976 -43,-107 -28.91561,1.25803 -47.40256,26.03052 -47,45 l -2,-5 z m 233,107 c 2.70753,-15.62116 67.83143,-34.68165 62,0 2.23758,24.03554 25.13458,60.10639 6.99463,73.99225 C 793.25333,693.33762 876.26634,655.58461 839.5,621.5 c 1.0644,-40.90747 -32.26361,-12.95786 -55,-16 z m -82,27 c -12.09962,-21.35251 68.3259,-39.39332 56,-20 -46.34719,0.0165 -55.32569,32.73329 -32.39138,73.04012 5.13497,15.77714 54.44939,-7.42485 15.39138,15.95988 -34.36433,26.16686 -30.7019,-51.3911 -39,-69 z m 27,99 c 9.97979,-28.86658 89.59249,-10.94885 28,2.5 -7.53517,-2.01151 -26.00237,10.36788 -28,-2.5 z m 193,-2 c 0.1831,-21.23479 74.37006,-17.27328 23,-3.5 l -14,2.5 z m -63,-11 c 1.14791,-16.11155 11.66876,-39.26968 16,1 13.00419,26.59303 18.29188,60.93805 6,54 -2.2356,38.37635 -21.83545,-52.87489 -22,-55 z m -106,43 c -63.14218,-8.09947 82.59571,-33.11587 20,-4 -7.40686,1.11029 -12.07477,5.55508 -20,4 z m 59,-31 c -23.90211,-40.6122 68.69878,-38.97699 16,-11 8.25999,30.4919 4.82828,62.80314 1,67 -9.73721,-18.63062 -16.58031,-36.65623 -17,-56 z m -66,62 c -11.96267,-26.89302 86.91237,-22.52877 36,-6 -11.43297,7.39975 -23.1709,6.00567 -36,6 z m 176,-327 c -43.41406,-5.37461 26.29286,-5.76405 41.01359,-4.93044 72.24941,31.65604 -19.38474,-93.36776 46.76021,-59.05856 33.6112,-3.02432 68.8307,24.46117 83.2262,43.489 25.1993,39.01302 33.0995,84.8174 27,131.23635 1.0952,49.32828 -14.9325,96.68339 -25.5,143.26365 -20.4886,23.85829 -10.6158,49.01821 -1.5,76 12.3998,38.62492 34.2705,105.61786 -29,99 -17.7472,-36.79455 -5.6448,-54.39138 28,-64 -44.6379,12.43947 -64.725,-8.35689 -66,-54 -17.022,-70.55504 -37.73766,-136.21093 -53,-206 44.2552,4.91532 60.2431,-14.7231 35.5,-54 5.5583,-55.67352 -36.78829,-48.60743 -79.23635,-51 h -3.73635 z m -131,351 c -41.16625,22.21919 -54.32457,-12.71022 -7,-13 20.38999,-11.18129 34.1711,14.92163 7,13 z m 68,-224 c 14.87559,-34.07028 142.5948,-15.35061 67,-5 39.31347,-10.12976 32.62305,42.3194 43.68263,65.80125 9.30327,24.02128 -12.74323,45.31641 11.31737,32.19875 25.5666,43.07946 -65.00274,3.42175 -64.189,47.42875 -11.93229,40.50839 69.07208,-42.70226 74.189,4.3076 -12.14733,10.77546 -73.38369,7.35024 -67.603,31.52103 -0.98665,13.98278 43.72935,-28.91252 69.603,-17.25738 19.2559,33.05646 -83.63403,10.71516 -63,48 5.44619,-26.43241 110.8259,-24.47021 54,-7 -35.6572,11.39982 -26.54274,20.0347 8,11 46.8264,-4.66867 20.4837,51.23664 -24,40 -39.06919,22.25724 -52.75645,-19.62506 -58,-43 -4.01733,-34.50167 -17.96149,-66.05683 -24,-100 -8.42449,-36.51125 -21.22224,-70.79284 -27,-108 z m -98,259 c -7.77068,-33.00629 99.61029,-13.81094 25,-2 -8.35104,-4.52329 -17.36848,8.91218 -25,2 z m 83,1 c 9.18083,-5.88419 9.15905,-11.65501 10,-29 6.84596,42.77089 46.16723,7.23544 37,-10 12.82682,-24.09232 39.02558,62.02446 -12,48 -13.04768,3.42977 -34.35666,13.02512 -35,-9 z m -77,26 c 25.62952,-33.22011 83.57906,-3.42408 16,2 -3.06907,4.3442 -15.84146,5.44437 -16,-2 z m 162,10 c 3.21422,-38.85807 66.82423,-22.53004 95,-38 28.1628,-5.40762 35.5742,56.5572 -1,51.5 -24.15791,2.24262 46.3185,-33.0449 1,-44.5 -28.8867,14.35954 -102.83822,3.29658 -80.5,50 54.60867,-11.75564 -14.69402,31.60966 -10.5,-5 z m -241,-207 c 3.80006,-18.87385 13.95759,45.56842 21,63 9.60928,37.36289 18.9428,71.92844 27,112 24.91967,22.11701 -17.78625,54.9719 -7,36 14.07634,-26.06348 -16.95421,-73.61066 -17,-109 -8.71489,-33.77199 -17.79535,-67.21018 -24,-102 z m -114,-87 c -13.27695,-45.76533 6.64762,-36.49895 9,1 10.53721,28.1775 12.95539,56.56895 22,86 8.20835,31.71838 20.22449,69.32547 26,96 9.63856,36.57297 17.67913,70.49892 27,106 31.21834,23.33928 72.39243,-15.69719 48,-53 -12.35155,-53.97142 -28.19982,-110.01939 -39,-166 19.82147,23.35593 19.43957,63.73998 29,94 8.97003,31.59594 16.46497,62.34836 22,96 18.6084,23.56029 -17.75647,41.06722 -42,42 -45.25082,20.91098 -30.41447,-56.58503 -47.9515,-82.82713 C 614.52959,782.67809 615.67771,769.00278 608.5,728.5 c -9.8937,-31.53513 -19.08836,-62.26731 -24,-95 -4.38448,-12.94759 -6.75719,-25.79765 -10,-39 z m 252,331 c -25.68825,-38.10544 71.92145,-65.46319 77,-26 22.03739,40.80796 -40.87421,34.36417 -63.5,48 -9.81756,-1.17392 -9.60008,-14.93234 -13.5,-22 z m 136,17 c 7.53723,-33.50125 47.3058,2.4175 66,-29.5 35.1494,5.34203 17.8243,63.13744 37,88.5 12.4721,33.305 -53.983,30.8731 -75,21 -25.32407,-31.00452 -11.12169,-65.11891 -28,-80 z m -170,34 c 14.10785,-28.14572 68.73704,-20.47346 95,-36 44.46071,-18.2749 53.17325,16.79641 60,53 17.09058,27.0185 -4.85445,68.331 -13,47 15.48477,-25.5824 0.88166,-74.63646 -18,-95 -37.94623,7.31344 -77.30368,18.0855 -115,30 9.4291,26.7175 -0.0648,98.8891 44,83.5 77.80186,-21.5007 -51.79393,50.067 -37,-14.5 -6.08375,-22.8511 -12.69786,-43.7517 -16,-68 z m 274,-34 c -30.2839,-39.29621 54.9085,-55.76882 48,-11 5.8263,32.72559 37.4662,85.4569 -16,85 -25.1677,1.6622 -14.3015,-28.52217 4.6988,-11.3512 33.6712,-6.82131 5.628,-82.5923 -13.6988,-92.1488 -33.0887,-13.67476 -7.3047,48.8615 -23,29.5 z m -78,92 c -6.18561,-22.8042 33.8334,20.6439 0,0 z m -288,95 c 21.66759,-26.94 69.11757,-20.748 102,-34 39.08371,-9.1117 83.45949,-20.0021 120,-28 41.55614,-9.9655 85.7263,-19.7789 127,-29 29.7295,-13.8809 95.6457,-3.2816 86.0648,-46.84708 -4.6763,-68.20499 16.3291,6.28384 20.9352,27.84708 -15.0194,25.9677 -36.9983,63.3126 -50,97 -8.4115,10.7376 -1.28,-20.1434 -17,9 -10.6554,-13.6749 19.2562,-58.294 13,-80 -50.9119,-2.4131 -22.7947,67.9692 -49,88 3.634,-22.7249 10.4061,-115.4504 -13,-53 0.3296,26.3498 -19.2489,95.7664 -14.9913,30.3575 22.081,-37.8756 -28.42272,-70.2813 -26.0087,-18.3575 1.5598,31.4353 -7.89235,78.2269 -10.5,23 8.39915,-35.8282 -18.38167,-65.0387 -14.29664,-12.757 11.90493,29.5567 -18.01203,81.9393 -18.5872,26.0156 12.56161,-49.6432 -12.42105,-56.4377 -51.35251,-40.2586 -53.70874,-3.0523 -43.8306,44.0738 -34.26365,83 -19.9899,14.884 -0.95777,-109.2133 -40,-60 -2.53605,23.2392 27.55041,60.9172 5.63712,72.8312 C 818.21269,1161.1271 835.2418,1090.018 785.5,1114.5 c -16.73778,26.5322 -45.64803,4.1583 -85,15 z m -249,-251 c -0.31371,-24.88245 39.8094,-20.29259 32,-57 8.86599,-73.86371 21.71749,-143.98176 27,-219 -17.87567,-32.86065 32.83288,-54.6338 29,-14 12.79623,50.69489 24.08971,99.63153 37,150 8.53303,32.3972 15.4503,69.23852 24.92663,102.628 10.68592,23.96032 1.34801,84.73798 27.07337,89.372 23.4874,-5.112 -9.5035,-59.37529 -11.90188,-88.60137 C 609.62798,801.02771 597.57144,762.22179 588.5,722.5 c -10.50366,-34.84112 -15.23662,-67.85329 -23,-103 -15.62596,-62.87653 13.26163,2.4597 15,32 5.78482,24.95132 16.33387,70.03389 23,102.73635 15.64451,51.38089 24.47301,106.10139 40,158.26365 61.15248,-13.45368 -38.61163,31.59234 28,19 29.37976,-5.52991 85.44157,-42.49426 81,12 10.66326,35.95161 17.13843,68.578 26.14275,104.8537 35.12567,38.3821 -83.97855,53.6164 -56.14275,45.1463 49.10058,-7.9083 52.32912,-43.7635 37,-86 -7.16245,-21.93471 -25.47186,-91.15343 -13.5,-32 6.03033,36.2412 10.80695,78.8538 -8,22 -0.44057,-24.51814 -25.79719,-86.30705 -12.91863,-25.50675 3.94884,16.69695 25.68307,89.52345 -3.08137,52.50675 -8.36983,-17.4405 -14.33194,-80.68593 -28.5,-65.5273 7.81477,28.88843 17.66432,54.9663 19.68512,85.2548 C 687.03339,1048.9084 672.56021,923.11512 671.5,980.5 c 7.95218,20.3259 26.58288,106.1732 -2,54 -6.37509,-33.1824 -38.34423,-99.2672 -19,-33 9.23924,25.2249 9.35719,83.7416 51,58 24.32329,-20.1979 92.09778,-9.976 29,7 -28.72804,1.1899 -82.64823,42.2772 -81,-13.5 -15.45739,-25.9299 -5.83974,-78.81379 -38.20905,-85.5 -13.26661,16.75785 10.4637,61.3875 13.74105,89.17 -0.76255,37.4192 23.77781,68.0536 54.468,72.83 -27.14221,12.4724 -67.27747,43.148 -16,22.5 29.21963,3.8248 64.31981,-27.4904 87,-10.5 17.84386,28.445 35.59787,70.5047 -16,71 -31.14527,8.4971 -62.92155,15.8044 -91,31 -33.91236,11.8485 -46.43245,-15.0801 -70,-31 -16.47893,-26.7125 -67.3159,-11.5798 -56,-58 3.92526,-42.2507 -22.01905,-79.2797 -25,-121 -17.59479,-45.75264 -26.32999,-94.65302 -39,-142 l -2,-11 z m -48,315 c -1.63949,-7.2791 -2.42718,-83.1867 32,-59 61.60955,8.1766 55.11994,70.0556 56,118 -5.34599,40.4562 34.17289,118.2232 -25,124 -17.05866,-11.3608 -4.98591,-53.5273 -11,-77 -26.87726,-44.3633 29.18533,-115.1473 -25,-128.5 9.75959,-39.4126 -32.50862,16.798 -27,22.5 z m -323,202 c -4.064429,-23.657 23.15147,-45.3319 31.67087,-68.0025 21.1507,-30.8521 37.36982,-65.2594 61.32913,-92.9975 51.40894,-5.4258 8.59857,-51.8117 11,-85 13.3862,-32.0067 57.99081,-18.9539 48.21539,-69.0113 -7.97626,-38.5231 10.66579,-64.6981 24.92848,-88.4252 8.61231,-39.23501 14.5022,-82.01046 18.85613,-123.5635 -6.13316,-33.86784 -4.33288,-66.8268 -23,-98 -22.55466,-37.904 -7.36123,-77.84445 2.098,-117.59075 10.59267,-45.9541 21.89114,-91.28343 32.902,-136.40925 5.77462,-44.72312 69.22767,-62.9744 96,-23 34.26758,37.116 43.45298,94.35735 39.40238,147.02188 -11.6029,38.47505 -22.49971,76.94128 -26.40238,117.71447 -8.41932,18.75073 -1.79171,64.12366 -19,65.26365 -23.74661,-33.82916 -32.33528,53.37728 -15,35 20.63522,-18.6813 64.6296,1.77394 58,-39 2.21265,-44.4673 14.73472,-90.2195 18.5,-135 8.4801,-16.63155 8.40027,-122.51929 24,-70 -10.41627,66.03179 -20.67218,132.95216 -29,201 -18.94728,30.57426 4.06784,62.11208 3.5,57 -9.20369,45.10499 -17.03736,92.16606 -26,137 -20.27047,13.9056 3.31276,-56.73046 0.5,-77 7.19677,-22.65463 14.09107,-66.21419 -23.5,-42 -28.4229,-52.77787 -29.55004,32.02417 -35,60 -2.4876,40.95114 -25.30734,101.9283 -10.26284,127.4542 32.94924,-14.3857 114.89042,18.9295 43.26284,22.5458 -54.32303,-4.2347 -73.57032,32.2845 -74,83 -9.80423,21.7741 52.75961,-20.3409 68,18 27.62559,19.7113 3.14835,78.64 32.0595,109.6512 18.77776,8.8194 -17.47464,-65.094 -1.0595,-85.6512 -4.23378,-56.5531 42.35642,-12.0964 32,25 -11.38815,38.2708 15.25042,120.0004 -14,131 -10.22629,-31.3118 -26.10215,-60.4679 -37,-92 -40.52583,-12.6594 -67.49049,-6.3252 -55.73635,-56 -33.29097,-8.7629 10.01615,51.4513 -36.26365,47 -35.38024,14.4916 3.12229,86.3248 -2.64887,129.5113 3.7216,30.2082 3.01031,61.8089 12.64887,90.4887 43.48281,-5.935 85.84626,-24.8079 132,-21 42.75045,-5.0185 101.16926,-12.5611 62,-64 -16.65585,-60.1291 3.19111,1.897 19.61513,24.4575 23.1418,41.8325 -26.78763,45.8909 -55.61513,50.5425 -34.63039,5.9693 -65.56548,16.221 -99.73635,21 -30.05293,5.4431 -60.93706,20.3809 -87.26365,-1 -33.91894,-17.7352 -62.08478,-33.8769 -95,-52 -32.45226,-16.9845 -55.47041,-28.3433 -87,-46 -8.892536,-1.8996 -13.1581,-12.391 -20,-17 z m 587,-138 c -69.59083,1.7994 18.94793,-20.9329 44,-27 47.15031,-12.3142 95.64424,-27.5111 144,-37 36.6398,-12.5931 77.89573,-20.4651 117,-30 42.8682,-10.327 81.2305,-24.3874 125.76,-29.1512 -14.3094,21.4866 -97.2311,20.5672 -58.76,53.1512 6.8154,23.9518 27.4731,41.6517 39,67 12.433,23.7657 50.4399,52.0744 30.0887,84.3913 -18.4712,11.1881 -79.567,3.8247 -53.0887,35.6087 18.1014,30.2342 40.0655,57.9767 53,87 25.1242,23.2161 -8.7213,51.4568 -33,54 -40.5618,12.5757 -79.94105,22.0918 -120.5,33 -55.71687,-37.1958 26.43285,-23.367 36.23635,-45 3.43095,-20.6897 -20.20136,-72.119 8.26365,-24 1.9577,17.3065 39.8081,31.6548 13,7 -13.64841,-59.7152 8.9993,-42.9737 25.7364,-5 31.1007,-6.4834 58.8771,-21.9778 33.2636,-53 -33.2927,-46.2381 -66.203,-91.6268 -99,-140 -50.76946,28.4515 -6.28405,-46.5302 -33,-45 -16.44232,31.5718 -12.40561,57.6739 15,68 15.29756,29.7907 0.50677,33.4991 25,46 17.59425,45.818 -12.36602,4.8605 -35,-1 18.1609,-32.1623 -20.15457,-56.1502 -46.5,-52 1.68414,70.9844 10.48274,139.1734 18.5,210 30.5297,58.5602 -30.51895,39.8025 -62,19 -39.0336,-13.2983 -71.63623,-29.3824 -113,-45 -29.4899,-10.1348 -58.18419,-19.3426 -52.62325,-51.7762 8.64095,-23.3639 27.24015,-41.0711 41.62325,-62.2238 -10.59946,-15.0321 -44.78703,-34.2351 0,-40 -2.36858,-39.134 -31.75093,-51.2245 -56,-73 l -1,-2 z m 310,-546 c 11.34902,1.47391 4.72763,11.3255 0,0 z"
  />
</svg>
