<?xml version="1.0" encoding="UTF-8" standalone="no"?>
<svg
   id="Ebene_2"
   viewBox="0 0 1155.12 550.41"
   version="1.1"
   sodipodi:docname="sternenlabor_logo_star.svg"
   inkscape:version="1.3.2 (091e20e, 2023-11-25)"
   xmlns:inkscape="http://www.inkscape.org/namespaces/inkscape"
   xmlns:sodipodi="http://sodipodi.sourceforge.net/DTD/sodipodi-0.dtd"
   xmlns="http://www.w3.org/2000/svg"
   xmlns:svg="http://www.w3.org/2000/svg">
  <sodipodi:namedview
     id="namedview17"
     pagecolor="#505050"
     bordercolor="#eeeeee"
     borderopacity="1"
     inkscape:showpageshadow="0"
     inkscape:pageopacity="0"
     inkscape:pagecheckerboard="0"
     inkscape:deskcolor="#505050"
     inkscape:zoom="0.4287713"
     inkscape:cx="578.39692"
     inkscape:cy="275.20499"
     inkscape:window-width="1560"
     inkscape:window-height="833"
     inkscape:window-x="0"
     inkscape:window-y="38"
     inkscape:window-maximized="0"
     inkscape:current-layer="Ebene_2" />
  <defs
     id="defs1">
    <style
       id="style1">.cls-1{fill:#5d5d5d;}.cls-1,.cls-2,.cls-3,.cls-4,.cls-5{stroke-width:0px;}.cls-2{fill:#da3771;}.cls-3{fill:#a5c84d;}.cls-4{fill:#ef7b1e;}.cls-5{fill:#007ab2;}</style>
  </defs>
  <path
     id="path17"
     style="fill:#000000"
     class="cls-4"
     d="m 450.78,318.26 c -2.73,9.54 -4.11,20.33 2.63,29.25 9.14,12.12 25.85,14.93 37.31,6.29 L 634.93,245.29 623.88,212.08 492.47,310.65 c -3.82,2.89 -3.09,-0.3 -3.09,-0.3 l 19.26,-59.08 -28.09,-21.14 -29.77,88.14 z m 209.83,32.61 c 8.12,5.56 19.9,10.24 30.52,6.73 14.4,-4.79 22.44,-19.6 17.95,-33.11 L 652.19,154.79 H 617.3 l 51.54,154.49 c 1.51,4.49 -1.29,3.79 -1.29,3.79 l -52.61,-38.17 -27.62,20.78 73.28,55.18 z M 427.03,110.18 c -9.57,0.3 -20.01,2.23 -26.7,11.22 -9.06,12.17 -7.56,28.63 3.36,36.76 L 540.26,260.28 568,239.43 444.46,146.88 c -3.65,-2.72 -0.48,-3.75 -0.48,-3.75 h 53.19 l 10.95,-32.97 h -81.1 z M 608.2,23.33 c -3.26,-8.88 -9.37,-18.11 -20.09,-21.8 -14.54,-5 -32.19,2.52 -38.09,18.75 l -50.42,152.91 28,21.06 47.64,-144.07 c 1.5,-4.19 5.74,-1.3 5.74,-1.3 l 17.53,49.64 h 34.77 L 608.2,23.32 Z m 136.13,139.26 c 7.33,-5.95 14.37,-13.75 14.37,-24.94 0,-15.17 -10.79,-27.48 -24.1,-27.48 H 567.4 l -10.96,32.97 h 152.79 c 4.44,0 2.13,2.55 2.13,2.55 l -39.86,30.52 11.1,33.32 61.71,-46.94 z" />
</svg>
