<?xml version="1.0" encoding="UTF-8" standalone="no"?>
<svg
   id="Ebene_2"
   viewBox="0 0 1155.12 550.41"
   version="1.1"
   sodipodi:docname="sternenlabor_logo_text.svg"
   inkscape:version="1.3.2 (091e20e, 2023-11-25)"
   xmlns:inkscape="http://www.inkscape.org/namespaces/inkscape"
   xmlns:sodipodi="http://sodipodi.sourceforge.net/DTD/sodipodi-0.dtd"
   xmlns="http://www.w3.org/2000/svg"
   xmlns:svg="http://www.w3.org/2000/svg">
  <sodipodi:namedview
     id="namedview17"
     pagecolor="#505050"
     bordercolor="#eeeeee"
     borderopacity="1"
     inkscape:showpageshadow="0"
     inkscape:pageopacity="0"
     inkscape:pagecheckerboard="0"
     inkscape:deskcolor="#505050"
     inkscape:zoom="0.4287713"
     inkscape:cx="578.39692"
     inkscape:cy="275.20499"
     inkscape:window-width="1560"
     inkscape:window-height="833"
     inkscape:window-x="0"
     inkscape:window-y="38"
     inkscape:window-maximized="0"
     inkscape:current-layer="Ebene_2" />
  <defs
     id="defs1">
    <style
       id="style1">.cls-1{fill:#5d5d5d;}.cls-1,.cls-2,.cls-3,.cls-4,.cls-5{stroke-width:0px;}.cls-2{fill:#da3771;}.cls-3{fill:#a5c84d;}.cls-4{fill:#ef7b1e;}.cls-5{fill:#007ab2;}</style>
  </defs>
  <path
     id="path12"
     style="fill:#000000"
     class="cls-1"
     d="m 1149.26,496.21 c -3.91,5.07 -9.56,8.19 -16.95,9.35 l 20.76,34.54 c 0.63,1.06 0.95,2.22 0.95,3.49 0,2.33 -1.16,4.17 -3.48,5.55 -1.38,0.84 -2.59,1.27 -3.65,1.27 -2.12,0 -3.91,-1.17 -5.39,-3.49 l -24.09,-40.1 -0.47,-0.79 h -22.19 v 36.14 c 0,2.12 -0.59,3.75 -1.75,4.91 -1.16,1.16 -2.8,1.74 -4.91,1.74 -2.11,0 -3.75,-0.58 -4.91,-1.74 -1.16,-1.16 -1.74,-2.8 -1.74,-4.91 v -94.14 c 0,-2.11 0.58,-3.75 1.74,-4.91 1.17,-1.16 2.8,-1.75 4.91,-1.75 h 37.09 c 9.71,0 17.14,2.57 22.26,7.69 5.13,5.13 7.69,12.55 7.69,22.27 v 4.76 c 0,8.34 -1.95,15.05 -5.86,20.13 z m -7.45,-24.89 c 0,-5.91 -1.26,-10.16 -3.8,-12.75 -2.54,-2.59 -6.81,-3.88 -12.83,-3.88 h -30.43 v 38.03 h 30.43 c 6.02,0 10.3,-1.27 12.83,-3.81 2.54,-2.53 3.8,-6.81 3.8,-12.83 z m -162.32,68.87 c -5.76,-5.76 -8.63,-14.71 -8.63,-26.86 v -36.61 c 0,-12.15 2.9,-21.11 8.72,-26.86 5.8,-5.76 14.74,-8.58 26.78,-8.48 h 19.02 c 12.15,0 21.1,2.88 26.87,8.64 5.75,5.76 8.63,14.72 8.63,26.86 v 36.45 c 0,12.15 -2.88,21.11 -8.63,26.86 -5.77,5.76 -14.71,8.63 -26.87,8.63 h -19.02 c -12.15,0 -21.1,-2.88 -26.86,-8.63 z m 45.88,-4.67 c 5.8,0 10.27,-0.69 13.39,-2.07 3.12,-1.37 5.37,-3.62 6.74,-6.73 1.37,-3.11 2.06,-7.58 2.06,-13.39 v -36.45 c 0,-5.7 -0.68,-10.14 -2.06,-13.31 -1.37,-3.17 -3.64,-5.44 -6.82,-6.82 -3.17,-1.37 -7.61,-2.06 -13.31,-2.06 h -19.02 c -5.7,-0.1 -10.14,0.53 -13.31,1.9 -3.17,1.37 -5.44,3.64 -6.81,6.82 -1.38,3.17 -2.06,7.6 -2.06,13.31 v 36.61 c 0,5.81 0.68,10.28 2.06,13.39 1.37,3.12 3.61,5.36 6.73,6.73 3.11,1.37 7.58,2.07 13.39,2.07 z m -71.61,-21.88 v 5.39 c 0,9.72 -2.56,17.11 -7.69,22.18 -5.12,5.07 -12.55,7.61 -22.26,7.61 h -43.42 c -2.11,0 -3.75,-0.58 -4.91,-1.74 -1.16,-1.16 -1.74,-2.8 -1.74,-4.91 v -94.14 c 0,-2.11 0.58,-3.75 1.74,-4.91 1.16,-1.16 2.8,-1.75 4.91,-1.75 h 41.36 c 8.34,0 14.79,2.22 19.33,6.66 4.54,4.44 6.82,10.78 6.82,19.02 v 4.27 c 0,3.39 -0.59,6.5 -1.75,9.35 -1.16,2.86 -2.8,5.23 -4.91,7.13 8.34,4.86 12.52,13.47 12.52,25.83 z M 887.04,484 h 39.62 c 2.75,-0.32 4.75,-1.6 6.02,-3.88 1.26,-2.27 1.9,-5.2 1.9,-8.8 v -4.27 c 0,-4.54 -0.95,-7.74 -2.85,-9.59 -1.9,-1.85 -5.23,-2.77 -9.98,-2.77 h -34.71 z m 53.41,29.64 c 0,-5.91 -1.26,-10.12 -3.8,-12.6 -2.53,-2.48 -6.81,-3.72 -12.83,-3.72 h -36.77 v 38.2 h 36.77 c 5.91,0 10.16,-1.27 12.76,-3.81 2.59,-2.54 3.88,-6.76 3.88,-12.68 v -5.39 z m -83.9,29.01 c 0,2.53 -1.43,4.38 -4.28,5.55 -0.95,0.42 -2.01,0.63 -3.17,0.63 -2.53,0 -4.38,-1.42 -5.55,-4.28 l -8.56,-20.76 H 785.7 l -8.24,20.76 c -1.16,2.86 -3.01,4.28 -5.55,4.28 -1.06,0 -2.06,-0.21 -3.01,-0.63 -2.96,-1.06 -4.44,-2.91 -4.44,-5.55 0,-1.17 0.21,-2.22 0.63,-3.17 l 37.72,-92.87 c 1.59,-3.48 4.07,-5.23 7.46,-5.23 h 0.31 c 3.49,0.21 5.82,1.96 6.98,5.23 l 38.35,92.87 c 0.42,0.95 0.64,2.01 0.64,3.17 z m -65.61,-32.17 h 38.67 L 809.8,462.46 Z m -102.39,31.69 v -94.14 c 0,-4.44 2.22,-6.66 6.65,-6.66 4.43,0 6.66,2.22 6.66,6.66 v 87.48 h 43.9 c 4.44,0 6.65,2.22 6.65,6.65 0,4.43 -2.22,6.65 -6.65,6.65 H 695.2 c -4.44,0 -6.65,-2.22 -6.65,-6.65 z m -24.9,-99.05 c 1.16,1.16 1.74,2.8 1.74,4.91 v 94.14 c 0,2.12 -0.58,3.75 -1.74,4.91 -1.16,1.16 -2.8,1.74 -4.91,1.74 -1.26,0 -2.42,-0.32 -3.48,-0.95 -1.06,-0.64 -2.12,-1.64 -3.17,-3.01 l -60.38,-77.81 v 75.12 c 0,2.12 -0.59,3.75 -1.75,4.91 -1.17,1.16 -2.8,1.74 -4.91,1.74 -2.11,0 -3.75,-0.58 -4.91,-1.74 -1.16,-1.16 -1.74,-2.8 -1.74,-4.91 v -94.14 c 0,-2.11 0.58,-3.75 1.74,-4.91 1.16,-1.16 2.8,-1.75 4.91,-1.75 1.27,0 2.41,0.32 3.41,0.95 1,0.63 2.08,1.64 3.25,3.01 l 60.38,77.81 v -75.12 c 0,-2.11 0.58,-3.75 1.74,-4.91 1.16,-1.16 2.8,-1.75 4.91,-1.75 2.11,0 3.75,0.59 4.91,1.75 z m -105.44,94.14 c 1.16,1.16 1.74,2.8 1.74,4.91 0,2.11 -0.58,3.75 -1.74,4.91 -1.16,1.16 -2.8,1.74 -4.91,1.74 h -56.9 c -2.11,0 -3.75,-0.58 -4.91,-1.74 -1.16,-1.16 -1.74,-2.8 -1.74,-4.91 v -94.14 c 0,-2.11 0.58,-3.75 1.74,-4.91 1.16,-1.16 2.8,-1.75 4.91,-1.75 h 56.9 c 2.11,0 3.75,0.59 4.91,1.75 1.16,1.16 1.74,2.8 1.74,4.91 0,2.11 -0.58,3.75 -1.74,4.91 -1.16,1.16 -2.8,1.74 -4.91,1.74 h -50.24 v 33.28 h 31.54 c 2.11,0 3.75,0.58 4.91,1.74 1.16,1.17 1.74,2.8 1.74,4.91 0,2.11 -0.58,3.75 -1.74,4.91 -1.16,1.16 -2.8,1.74 -4.91,1.74 h -31.54 v 34.24 h 50.24 c 2.11,0 3.75,0.58 4.91,1.74 z m -93.52,-94.14 c 1.16,1.16 1.74,2.8 1.74,4.91 v 94.14 c 0,2.12 -0.58,3.75 -1.74,4.91 -1.16,1.16 -2.8,1.74 -4.91,1.74 -1.27,0 -2.43,-0.32 -3.49,-0.95 -1.06,-0.64 -2.12,-1.64 -3.17,-3.01 l -60.38,-77.81 v 75.12 c 0,2.12 -0.58,3.75 -1.74,4.91 -1.16,1.16 -2.8,1.74 -4.91,1.74 -2.11,0 -3.75,-0.58 -4.91,-1.74 -1.16,-1.16 -1.74,-2.8 -1.74,-4.91 v -94.14 c 0,-2.11 0.58,-3.75 1.74,-4.91 1.16,-1.16 2.8,-1.75 4.91,-1.75 1.27,0 2.4,0.32 3.41,0.95 1,0.63 2.09,1.64 3.25,3.01 l 60.38,77.81 v -75.12 c 0,-2.11 0.58,-3.75 1.74,-4.91 1.16,-1.16 2.8,-1.75 4.91,-1.75 2.11,0 3.75,0.59 4.91,1.75 z m -109.46,53.09 c -3.91,5.07 -9.56,8.19 -16.96,9.35 l 20.76,34.54 c 0.63,1.06 0.95,2.22 0.95,3.49 0,2.33 -1.16,4.17 -3.48,5.55 -1.37,0.84 -2.59,1.27 -3.64,1.27 -2.12,0 -3.91,-1.17 -5.39,-3.49 l -24.09,-40.1 -0.47,-0.79 h -22.19 v 36.14 c 0,2.12 -0.58,3.75 -1.74,4.91 -1.16,1.16 -2.8,1.74 -4.91,1.74 -2.11,0 -3.75,-0.58 -4.91,-1.74 -1.16,-1.16 -1.74,-2.8 -1.74,-4.91 v -94.14 c 0,-2.11 0.58,-3.75 1.74,-4.91 1.16,-1.16 2.8,-1.75 4.91,-1.75 h 37.09 c 9.72,0 17.14,2.57 22.27,7.69 5.12,5.13 7.68,12.55 7.68,22.27 v 4.76 c 0,8.34 -1.95,15.05 -5.86,20.13 z m -7.45,-24.89 c 0,-5.91 -1.27,-10.16 -3.8,-12.75 -2.53,-2.59 -6.81,-3.88 -12.84,-3.88 h -30.43 v 38.03 h 30.43 c 6.02,0 10.3,-1.27 12.84,-3.81 2.54,-2.53 3.8,-6.81 3.8,-12.83 z m -80.55,65.94 c 1.16,1.16 1.74,2.8 1.74,4.91 0,2.11 -0.58,3.75 -1.74,4.91 -1.16,1.16 -2.8,1.74 -4.91,1.74 h -56.9 c -2.12,0 -3.75,-0.58 -4.91,-1.74 -1.16,-1.16 -1.74,-2.8 -1.74,-4.91 v -94.14 c 0,-2.11 0.58,-3.75 1.74,-4.91 1.16,-1.16 2.8,-1.75 4.91,-1.75 h 56.9 c 2.11,0 3.75,0.59 4.91,1.75 1.16,1.16 1.74,2.8 1.74,4.91 0,2.11 -0.58,3.75 -1.74,4.91 -1.16,1.16 -2.8,1.74 -4.91,1.74 h -50.24 v 33.28 h 31.54 c 2.11,0 3.75,0.58 4.91,1.74 1.16,1.17 1.74,2.8 1.74,4.91 0,2.11 -0.58,3.75 -1.74,4.91 -1.16,1.16 -2.8,1.74 -4.91,1.74 h -31.54 v 34.24 h 50.24 c 2.11,0 3.75,0.58 4.91,1.74 z m -135.5,4.91 v -87.33 h -30.74 c -4.44,0 -6.66,-2.22 -6.66,-6.65 0,-4.43 2.22,-6.66 6.66,-6.66 h 74.8 c 4.44,0 6.66,2.22 6.66,6.66 0,4.44 -2.22,6.65 -6.66,6.65 h -30.75 v 87.33 c 0,2.12 -0.58,3.75 -1.74,4.91 -1.16,1.16 -2.8,1.74 -4.91,1.74 -4.44,0 -6.66,-2.22 -6.66,-6.65 z M 9.48,543.36 c -5.02,-3.64 -8.16,-9.27 -9.43,-16.88 -0.21,-2.22 0.26,-3.93 1.43,-5.15 1.16,-1.21 2.85,-1.83 5.07,-1.83 2.22,0 3.7,0.5 4.76,1.51 1.05,1.01 1.8,2.67 2.22,4.99 0.74,3.59 2.4,6.08 4.99,7.45 2.59,1.37 6.63,2.07 12.12,2.07 h 22.82 c 4.65,0 8.22,-0.53 10.7,-1.59 2.48,-1.06 4.25,-2.82 5.31,-5.31 1.05,-2.48 1.58,-6 1.58,-10.54 0,-6.76 -1.27,-11.41 -3.8,-13.94 -2.54,-2.54 -7.13,-3.8 -13.79,-3.8 H 33.81 c -9.93,0 -17.33,-2.43 -22.19,-7.29 -4.86,-4.86 -7.29,-12.31 -7.29,-22.35 0,-10.04 2.4,-17.3 7.21,-22.1 4.8,-4.81 12.17,-7.22 22.11,-7.22 h 18.86 c 16.69,0 26.31,6.98 28.84,20.93 0.32,2.22 -0.11,3.93 -1.27,5.15 -1.16,1.22 -2.91,1.83 -5.23,1.83 -2.11,0 -3.7,-0.53 -4.76,-1.59 -1.06,-1.05 -1.74,-2.7 -2.06,-4.91 -0.85,-3.06 -2.43,-5.17 -4.75,-6.34 -2.33,-1.16 -5.92,-1.74 -10.78,-1.74 H 33.64 c -4.33,0 -7.63,0.48 -9.91,1.42 -2.27,0.95 -3.86,2.56 -4.75,4.84 -0.9,2.27 -1.35,5.52 -1.35,9.74 0,4.22 0.47,7.64 1.43,9.91 0.95,2.28 2.56,3.91 4.84,4.91 2.27,1 5.57,1.5 9.9,1.5 h 19.65 c 10.46,0 18.23,2.54 23.3,7.61 5.07,5.07 7.61,12.89 7.61,23.45 0,10.56 -2.53,18.2 -7.61,23.22 -5.07,5.02 -12.84,7.52 -23.3,7.52 H 30.63 c -9.09,0 -16.14,-1.83 -21.15,-5.47 z" />
</svg>
