%TF.GenerationSoftware,KiCad,Pcbnew,8.0.4*%
%TF.CreationDate,2024-10-03T21:36:24+02:00*%
%TF.ProjectId,Midi Stick,4d696469-2053-4746-9963-6b2e6b696361,2.0*%
%TF.SameCoordinates,Original*%
%TF.FileFunction,Drillmap*%
%TF.FilePolarity,Positive*%
%FSLAX45Y45*%
G04 Gerber Fmt 4.5, Leading zero omitted, Abs format (unit mm)*
G04 Created by KiCad (PCBNEW 8.0.4) date 2024-10-03 21:36:24*
%MOMM*%
%LPD*%
G01*
G04 APERTURE LIST*
%ADD10C,0.050000*%
%ADD11C,0.200000*%
%ADD12C,0.100000*%
G04 APERTURE END LIST*
D10*
X13288260Y-7365260D02*
X7593260Y-7365237D01*
X13289011Y-5374106D02*
X13288260Y-7365260D01*
X7593260Y-5374010D02*
X13289011Y-5374106D01*
X7593260Y-7365237D02*
X7593260Y-5374010D01*
D11*
D12*
X10135760Y-5742760D02*
X10160760Y-5767760D01*
X10160760Y-5742760D02*
X10135760Y-5767760D01*
X10180810Y-6132760D02*
X10205810Y-6157760D01*
X10205810Y-6132760D02*
X10180810Y-6157760D01*
X10365760Y-5762760D02*
X10390760Y-5787760D01*
X10390760Y-5762760D02*
X10365760Y-5787760D01*
X10415760Y-6427710D02*
X10440760Y-6452710D01*
X10440760Y-6427710D02*
X10415760Y-6452710D01*
X10444537Y-5997810D02*
X10469537Y-6022810D01*
X10469537Y-5997810D02*
X10444537Y-6022810D01*
X10610710Y-6172760D02*
X10635710Y-6197760D01*
X10635710Y-6172760D02*
X10610710Y-6197760D01*
X11580760Y-6105260D02*
X11605760Y-6130260D01*
X11605760Y-6105260D02*
X11580760Y-6130260D01*
X12228260Y-5540260D02*
X12253260Y-5565260D01*
X12253260Y-5540260D02*
X12228260Y-5565260D01*
X10283260Y-6087760D02*
G75*
G02*
X10258260Y-6087760I-12500J0D01*
G01*
X10258260Y-6087760D02*
G75*
G02*
X10283260Y-6087760I12500J0D01*
G01*
X10283260Y-6225260D02*
G75*
G02*
X10258260Y-6225260I-12500J0D01*
G01*
X10258260Y-6225260D02*
G75*
G02*
X10283260Y-6225260I12500J0D01*
G01*
X10283260Y-6362760D02*
G75*
G02*
X10258260Y-6362760I-12500J0D01*
G01*
X10258260Y-6362760D02*
G75*
G02*
X10283260Y-6362760I12500J0D01*
G01*
X10420760Y-6087760D02*
G75*
G02*
X10395760Y-6087760I-12500J0D01*
G01*
X10395760Y-6087760D02*
G75*
G02*
X10420760Y-6087760I12500J0D01*
G01*
X10420760Y-6225260D02*
G75*
G02*
X10395760Y-6225260I-12500J0D01*
G01*
X10395760Y-6225260D02*
G75*
G02*
X10420760Y-6225260I12500J0D01*
G01*
X10420760Y-6362760D02*
G75*
G02*
X10395760Y-6362760I-12500J0D01*
G01*
X10395760Y-6362760D02*
G75*
G02*
X10420760Y-6362760I12500J0D01*
G01*
X10558260Y-6087760D02*
G75*
G02*
X10533260Y-6087760I-12500J0D01*
G01*
X10533260Y-6087760D02*
G75*
G02*
X10558260Y-6087760I12500J0D01*
G01*
X10558260Y-6225260D02*
G75*
G02*
X10533260Y-6225260I-12500J0D01*
G01*
X10533260Y-6225260D02*
G75*
G02*
X10558260Y-6225260I12500J0D01*
G01*
X10558260Y-6362760D02*
G75*
G02*
X10533260Y-6362760I-12500J0D01*
G01*
X10533260Y-6362760D02*
G75*
G02*
X10558260Y-6362760I12500J0D01*
G01*
X7695760Y-5605260D02*
X7695760Y-5635260D01*
X7680760Y-5620260D02*
X7710760Y-5620260D01*
X7713260Y-7232760D02*
X7713260Y-7262760D01*
X7698260Y-7247760D02*
X7728260Y-7247760D01*
X7725760Y-6365260D02*
X7725760Y-6395260D01*
X7710760Y-6380260D02*
X7740760Y-6380260D01*
X7733260Y-6975260D02*
X7733260Y-7005260D01*
X7718260Y-6990260D02*
X7748260Y-6990260D01*
X7753260Y-6110260D02*
X7753260Y-6140260D01*
X7738260Y-6125260D02*
X7768260Y-6125260D01*
X7753260Y-6242760D02*
X7753260Y-6272760D01*
X7738260Y-6257760D02*
X7768260Y-6257760D01*
X7840760Y-6607760D02*
X7840760Y-6637760D01*
X7825760Y-6622760D02*
X7855760Y-6622760D01*
X7915760Y-6522760D02*
X7915760Y-6552760D01*
X7900760Y-6537760D02*
X7930760Y-6537760D01*
X7928260Y-5602760D02*
X7928260Y-5632760D01*
X7913260Y-5617760D02*
X7943260Y-5617760D01*
X8003260Y-7120260D02*
X8003260Y-7150260D01*
X7988260Y-7135260D02*
X8018260Y-7135260D01*
X8018260Y-6775260D02*
X8018260Y-6805260D01*
X8003260Y-6790260D02*
X8033260Y-6790260D01*
X8035760Y-6880260D02*
X8035760Y-6910260D01*
X8020760Y-6895260D02*
X8050760Y-6895260D01*
X8070760Y-5995260D02*
X8070760Y-6025260D01*
X8055760Y-6010260D02*
X8085760Y-6010260D01*
X8073260Y-6692760D02*
X8073260Y-6722760D01*
X8058260Y-6707760D02*
X8088260Y-6707760D01*
X8143260Y-6902760D02*
X8143260Y-6932760D01*
X8128260Y-6917760D02*
X8158260Y-6917760D01*
X8268260Y-7052760D02*
X8268260Y-7082760D01*
X8253260Y-7067760D02*
X8283260Y-7067760D01*
X8353260Y-6705260D02*
X8353260Y-6735260D01*
X8338260Y-6720260D02*
X8368260Y-6720260D01*
X8368260Y-5980260D02*
X8368260Y-6010260D01*
X8353260Y-5995260D02*
X8383260Y-5995260D01*
X8368260Y-6115260D02*
X8368260Y-6145260D01*
X8353260Y-6130260D02*
X8383260Y-6130260D01*
X8368260Y-6595260D02*
X8368260Y-6625260D01*
X8353260Y-6610260D02*
X8383260Y-6610260D01*
X8458260Y-6865260D02*
X8458260Y-6895260D01*
X8443260Y-6880260D02*
X8473260Y-6880260D01*
X8488260Y-6027760D02*
X8488260Y-6057760D01*
X8473260Y-6042760D02*
X8503260Y-6042760D01*
X8513260Y-6354260D02*
X8513260Y-6384260D01*
X8498260Y-6369260D02*
X8528260Y-6369260D01*
X8578260Y-6354260D02*
X8578260Y-6384260D01*
X8563260Y-6369260D02*
X8593260Y-6369260D01*
X8615760Y-5475260D02*
X8615760Y-5505260D01*
X8600760Y-5490260D02*
X8630760Y-5490260D01*
X8730760Y-5577760D02*
X8730760Y-5607760D01*
X8715760Y-5592760D02*
X8745760Y-5592760D01*
X8820760Y-7127760D02*
X8820760Y-7157760D01*
X8805760Y-7142760D02*
X8835760Y-7142760D01*
X8843260Y-6660260D02*
X8843260Y-6690260D01*
X8828260Y-6675260D02*
X8858260Y-6675260D01*
X8873260Y-6217760D02*
X8873260Y-6247760D01*
X8858260Y-6232760D02*
X8888260Y-6232760D01*
X8933260Y-7200260D02*
X8933260Y-7230260D01*
X8918260Y-7215260D02*
X8948260Y-7215260D01*
X8940760Y-6485260D02*
X8940760Y-6515260D01*
X8925760Y-6500260D02*
X8955760Y-6500260D01*
X8945760Y-6075260D02*
X8945760Y-6105260D01*
X8930760Y-6090260D02*
X8960760Y-6090260D01*
X9013260Y-6217760D02*
X9013260Y-6247760D01*
X8998260Y-6232760D02*
X9028260Y-6232760D01*
X9015760Y-7122760D02*
X9015760Y-7152760D01*
X9000760Y-7137760D02*
X9030760Y-7137760D01*
X9033260Y-6660260D02*
X9033260Y-6690260D01*
X9018260Y-6675260D02*
X9048260Y-6675260D01*
X9218260Y-6505260D02*
X9218260Y-6535260D01*
X9203260Y-6520260D02*
X9233260Y-6520260D01*
X9270760Y-6072760D02*
X9270760Y-6102760D01*
X9255760Y-6087760D02*
X9285760Y-6087760D01*
X9380760Y-7007760D02*
X9380760Y-7037760D01*
X9365760Y-7022760D02*
X9395760Y-7022760D01*
X9388260Y-6480260D02*
X9388260Y-6510260D01*
X9373260Y-6495260D02*
X9403260Y-6495260D01*
X9388260Y-6545260D02*
X9388260Y-6575260D01*
X9373260Y-6560260D02*
X9403260Y-6560260D01*
X9388260Y-6610260D02*
X9388260Y-6640260D01*
X9373260Y-6625260D02*
X9403260Y-6625260D01*
X9388260Y-7072760D02*
X9388260Y-7102760D01*
X9373260Y-7087760D02*
X9403260Y-7087760D01*
X9388260Y-7140260D02*
X9388260Y-7170260D01*
X9373260Y-7155260D02*
X9403260Y-7155260D01*
X9439760Y-6181760D02*
X9439760Y-6211760D01*
X9424760Y-6196760D02*
X9454760Y-6196760D01*
X9445760Y-5980260D02*
X9445760Y-6010260D01*
X9430760Y-5995260D02*
X9460760Y-5995260D01*
X9550760Y-6410260D02*
X9550760Y-6440260D01*
X9535760Y-6425260D02*
X9565760Y-6425260D01*
X9565760Y-6047760D02*
X9565760Y-6077760D01*
X9550760Y-6062760D02*
X9580760Y-6062760D01*
X9615760Y-5967760D02*
X9615760Y-5997760D01*
X9600760Y-5982760D02*
X9630760Y-5982760D01*
X9645760Y-6315260D02*
X9645760Y-6345260D01*
X9630760Y-6330260D02*
X9660760Y-6330260D01*
X9688260Y-5640260D02*
X9688260Y-5670260D01*
X9673260Y-5655260D02*
X9703260Y-5655260D01*
X9725760Y-6652760D02*
X9725760Y-6682760D01*
X9710760Y-6667760D02*
X9740760Y-6667760D01*
X9775760Y-6812760D02*
X9775760Y-6842760D01*
X9760760Y-6827760D02*
X9790760Y-6827760D01*
X9775760Y-6985260D02*
X9775760Y-7015260D01*
X9760760Y-7000260D02*
X9790760Y-7000260D01*
X9785886Y-6015239D02*
X9785886Y-6045239D01*
X9770886Y-6030239D02*
X9800886Y-6030239D01*
X9808260Y-5645260D02*
X9808260Y-5675260D01*
X9793260Y-5660260D02*
X9823260Y-5660260D01*
X9810260Y-5842760D02*
X9810260Y-5872760D01*
X9795260Y-5857760D02*
X9825260Y-5857760D01*
X9940760Y-6812760D02*
X9940760Y-6842760D01*
X9925760Y-6827760D02*
X9955760Y-6827760D01*
X9940760Y-6987760D02*
X9940760Y-7017760D01*
X9925760Y-7002760D02*
X9955760Y-7002760D01*
X9965760Y-6230260D02*
X9965760Y-6260260D01*
X9950760Y-6245260D02*
X9980760Y-6245260D01*
X9973260Y-5870260D02*
X9973260Y-5900260D01*
X9958260Y-5885260D02*
X9988260Y-5885260D01*
X10063260Y-6617760D02*
X10063260Y-6647760D01*
X10048260Y-6632760D02*
X10078260Y-6632760D01*
X10105760Y-6992760D02*
X10105760Y-7022760D01*
X10090760Y-7007760D02*
X10120760Y-7007760D01*
X10145760Y-6810260D02*
X10145760Y-6840260D01*
X10130760Y-6825260D02*
X10160760Y-6825260D01*
X10159845Y-6649260D02*
X10159845Y-6679260D01*
X10144845Y-6664260D02*
X10174845Y-6664260D01*
X10239830Y-6647674D02*
X10239830Y-6677674D01*
X10224830Y-6662674D02*
X10254830Y-6662674D01*
X10330760Y-6649260D02*
X10330760Y-6679260D01*
X10315760Y-6664260D02*
X10345760Y-6664260D01*
X10523260Y-5725260D02*
X10523260Y-5755260D01*
X10508260Y-5740260D02*
X10538260Y-5740260D01*
X10598260Y-5725260D02*
X10598260Y-5755260D01*
X10583260Y-5740260D02*
X10613260Y-5740260D01*
X10608260Y-5422760D02*
X10608260Y-5452760D01*
X10593260Y-5437760D02*
X10623260Y-5437760D01*
X10695760Y-7007760D02*
X10695760Y-7037760D01*
X10680760Y-7022760D02*
X10710760Y-7022760D01*
X10735760Y-5692760D02*
X10735760Y-5722760D01*
X10720760Y-5707760D02*
X10750760Y-5707760D01*
X10770760Y-6575260D02*
X10770760Y-6605260D01*
X10755760Y-6590260D02*
X10785760Y-6590260D01*
X10773260Y-6902760D02*
X10773260Y-6932760D01*
X10758260Y-6917760D02*
X10788260Y-6917760D01*
X10808260Y-6825260D02*
X10808260Y-6855260D01*
X10793260Y-6840260D02*
X10823260Y-6840260D01*
X10872760Y-5777760D02*
X10872760Y-5807760D01*
X10857760Y-5792760D02*
X10887760Y-5792760D01*
X10873260Y-6030260D02*
X10873260Y-6060260D01*
X10858260Y-6045260D02*
X10888260Y-6045260D01*
X10878260Y-6772760D02*
X10878260Y-6802760D01*
X10863260Y-6787760D02*
X10893260Y-6787760D01*
X10885760Y-6392760D02*
X10885760Y-6422760D01*
X10870760Y-6407760D02*
X10900760Y-6407760D01*
X10927303Y-6191803D02*
X10927303Y-6221803D01*
X10912303Y-6206803D02*
X10942303Y-6206803D01*
X10938260Y-6345260D02*
X10938260Y-6375260D01*
X10923260Y-6360260D02*
X10953260Y-6360260D01*
X10955760Y-5867760D02*
X10955760Y-5897760D01*
X10940760Y-5882760D02*
X10970760Y-5882760D01*
X10958301Y-5967681D02*
X10958301Y-5997681D01*
X10943301Y-5982681D02*
X10973301Y-5982681D01*
X10968760Y-5777760D02*
X10968760Y-5807760D01*
X10953760Y-5792760D02*
X10983760Y-5792760D01*
X11008260Y-6815260D02*
X11008260Y-6845260D01*
X10993260Y-6830260D02*
X11023260Y-6830260D01*
X11033260Y-5805260D02*
X11033260Y-5835260D01*
X11018260Y-5820260D02*
X11048260Y-5820260D01*
X11038260Y-5970260D02*
X11038260Y-6000260D01*
X11023260Y-5985260D02*
X11053260Y-5985260D01*
X11062010Y-6291510D02*
X11062010Y-6321510D01*
X11047010Y-6306510D02*
X11077010Y-6306510D01*
X11110760Y-7085260D02*
X11110760Y-7115260D01*
X11095760Y-7100260D02*
X11125760Y-7100260D01*
X11138576Y-6724010D02*
X11138576Y-6754010D01*
X11123576Y-6739010D02*
X11153576Y-6739010D01*
X11143260Y-6580260D02*
X11143260Y-6610260D01*
X11128260Y-6595260D02*
X11158260Y-6595260D01*
X11178260Y-6482760D02*
X11178260Y-6512760D01*
X11163260Y-6497760D02*
X11193260Y-6497760D01*
X11203260Y-5967760D02*
X11203260Y-5997760D01*
X11188260Y-5982760D02*
X11218260Y-5982760D01*
X11203260Y-6037760D02*
X11203260Y-6067760D01*
X11188260Y-6052760D02*
X11218260Y-6052760D01*
X11230760Y-6272760D02*
X11230760Y-6302760D01*
X11215760Y-6287760D02*
X11245760Y-6287760D01*
X11248260Y-6482760D02*
X11248260Y-6512760D01*
X11233260Y-6497760D02*
X11263260Y-6497760D01*
X11410760Y-5772760D02*
X11410760Y-5802760D01*
X11395760Y-5787760D02*
X11425760Y-5787760D01*
X11493260Y-6555260D02*
X11493260Y-6585260D01*
X11478260Y-6570260D02*
X11508260Y-6570260D01*
X11550760Y-6287760D02*
X11550760Y-6317760D01*
X11535760Y-6302760D02*
X11565760Y-6302760D01*
X11555760Y-6852760D02*
X11555760Y-6882760D01*
X11540760Y-6867760D02*
X11570760Y-6867760D01*
X11568260Y-5780260D02*
X11568260Y-5810260D01*
X11553260Y-5795260D02*
X11583260Y-5795260D01*
X11683260Y-7107760D02*
X11683260Y-7137760D01*
X11668260Y-7122760D02*
X11698260Y-7122760D01*
X11720760Y-6250260D02*
X11720760Y-6280260D01*
X11705760Y-6265260D02*
X11735760Y-6265260D01*
X11833260Y-6537760D02*
X11833260Y-6567760D01*
X11818260Y-6552760D02*
X11848260Y-6552760D01*
X11838260Y-6717760D02*
X11838260Y-6747760D01*
X11823260Y-6732760D02*
X11853260Y-6732760D01*
X11883260Y-7105260D02*
X11883260Y-7135260D01*
X11868260Y-7120260D02*
X11898260Y-7120260D01*
X11890760Y-5440260D02*
X11890760Y-5470260D01*
X11875760Y-5455260D02*
X11905760Y-5455260D01*
X11898260Y-5657760D02*
X11898260Y-5687760D01*
X11883260Y-5672760D02*
X11913260Y-5672760D01*
X12105760Y-6797760D02*
X12105760Y-6827760D01*
X12090760Y-6812760D02*
X12120760Y-6812760D01*
X12143260Y-6392760D02*
X12143260Y-6422760D01*
X12128260Y-6407760D02*
X12158260Y-6407760D01*
X12145760Y-6560260D02*
X12145760Y-6590260D01*
X12130760Y-6575260D02*
X12160760Y-6575260D01*
X12163260Y-5445260D02*
X12163260Y-5475260D01*
X12148260Y-5460260D02*
X12178260Y-5460260D01*
X12173260Y-5735260D02*
X12173260Y-5765260D01*
X12158260Y-5750260D02*
X12188260Y-5750260D01*
X12183748Y-6228248D02*
X12183748Y-6258248D01*
X12168748Y-6243248D02*
X12198748Y-6243248D01*
X12265760Y-6062760D02*
X12265760Y-6092760D01*
X12250760Y-6077760D02*
X12280760Y-6077760D01*
X12270760Y-6228248D02*
X12270760Y-6258248D01*
X12255760Y-6243248D02*
X12285760Y-6243248D01*
X12338260Y-6937760D02*
X12338260Y-6967760D01*
X12323260Y-6952760D02*
X12353260Y-6952760D01*
X12623260Y-5439095D02*
X12623260Y-5469095D01*
X12608260Y-5454095D02*
X12638260Y-5454095D01*
X12688260Y-6945260D02*
X12688260Y-6975260D01*
X12673260Y-6960260D02*
X12703260Y-6960260D01*
X12775760Y-5697760D02*
X12775760Y-5727760D01*
X12760760Y-5712760D02*
X12790760Y-5712760D01*
X12813260Y-6227760D02*
X12813260Y-6257760D01*
X12798260Y-6242760D02*
X12828260Y-6242760D01*
X12888260Y-6445260D02*
X12888260Y-6475260D01*
X12873260Y-6460260D02*
X12903260Y-6460260D01*
X12893260Y-6227760D02*
X12893260Y-6257760D01*
X12878260Y-6242760D02*
X12908260Y-6242760D01*
X12913260Y-5907760D02*
X12913260Y-5937760D01*
X12898260Y-5922760D02*
X12928260Y-5922760D01*
X12918260Y-7072760D02*
X12918260Y-7102760D01*
X12903260Y-7087760D02*
X12933260Y-7087760D01*
X12920760Y-6752760D02*
X12920760Y-6782760D01*
X12905760Y-6767760D02*
X12935760Y-6767760D01*
X13095760Y-6547760D02*
X13095760Y-6577760D01*
X13080760Y-6562760D02*
X13110760Y-6562760D01*
X13098260Y-5715260D02*
X13098260Y-5745260D01*
X13083260Y-5730260D02*
X13113260Y-5730260D01*
X13103260Y-6042760D02*
X13103260Y-6072760D01*
X13088260Y-6057760D02*
X13118260Y-6057760D01*
X13133260Y-6910260D02*
X13133260Y-6940260D01*
X13118260Y-6925260D02*
X13148260Y-6925260D01*
X7803973Y-5958885D02*
X7803973Y-5916458D01*
X7761547Y-5916458D01*
X7761547Y-5958885D01*
X7803973Y-5958885D01*
X7822760Y-5907671D02*
X7742760Y-5907671D01*
X7742760Y-5967671D02*
G75*
G02*
X7742760Y-5907671I0J30000D01*
G01*
X7742760Y-5967671D02*
X7822760Y-5967671D01*
X7822760Y-5967671D02*
G75*
G03*
X7822760Y-5907671I0J30000D01*
G01*
X7803973Y-6822885D02*
X7803973Y-6780458D01*
X7761547Y-6780458D01*
X7761547Y-6822885D01*
X7803973Y-6822885D01*
X7822760Y-6771671D02*
X7742760Y-6771671D01*
X7742760Y-6831671D02*
G75*
G02*
X7742760Y-6771671I0J30000D01*
G01*
X7742760Y-6831671D02*
X7822760Y-6831671D01*
X7822760Y-6831671D02*
G75*
G03*
X7822760Y-6771671I0J30000D01*
G01*
X8221973Y-5958885D02*
X8221973Y-5916458D01*
X8179547Y-5916458D01*
X8179547Y-5958885D01*
X8221973Y-5958885D01*
X8255760Y-5907671D02*
X8145760Y-5907671D01*
X8145760Y-5967671D02*
G75*
G02*
X8145760Y-5907671I0J30000D01*
G01*
X8145760Y-5967671D02*
X8255760Y-5967671D01*
X8255760Y-5967671D02*
G75*
G03*
X8255760Y-5907671I0J30000D01*
G01*
X8221973Y-6822885D02*
X8221973Y-6780458D01*
X8179547Y-6780458D01*
X8179547Y-6822885D01*
X8221973Y-6822885D01*
X8255760Y-6771671D02*
X8145760Y-6771671D01*
X8145760Y-6831671D02*
G75*
G02*
X8145760Y-6771671I0J30000D01*
G01*
X8145760Y-6831671D02*
X8255760Y-6831671D01*
X8255760Y-6831671D02*
G75*
G03*
X8255760Y-6771671I0J30000D01*
G01*
X10480760Y-5588320D02*
X10516320Y-5552760D01*
X10480760Y-5517200D01*
X10445200Y-5552760D01*
X10480760Y-5588320D01*
X10733260Y-5585820D02*
X10768820Y-5550260D01*
X10733260Y-5514700D01*
X10697700Y-5550260D01*
X10733260Y-5585820D01*
X10988260Y-5585820D02*
X11023820Y-5550260D01*
X10988260Y-5514700D01*
X10952700Y-5550260D01*
X10988260Y-5585820D01*
X11242260Y-5585820D02*
X11277820Y-5550260D01*
X11242260Y-5514700D01*
X11206700Y-5550260D01*
X11242260Y-5585820D01*
X11496260Y-5585820D02*
X11531820Y-5550260D01*
X11496260Y-5514700D01*
X11460700Y-5550260D01*
X11496260Y-5585820D01*
X11750260Y-5585820D02*
X11785820Y-5550260D01*
X11750260Y-5514700D01*
X11714700Y-5550260D01*
X11750260Y-5585820D01*
X12004260Y-5585820D02*
X12039820Y-5550260D01*
X12004260Y-5514700D01*
X11968700Y-5550260D01*
X12004260Y-5585820D01*
X12360370Y-5948608D02*
X12441650Y-6029888D01*
X12441650Y-5948608D02*
X12360370Y-6029888D01*
X12441650Y-5989248D02*
G75*
G02*
X12360370Y-5989248I-40640J0D01*
G01*
X12360370Y-5989248D02*
G75*
G02*
X12441650Y-5989248I40640J0D01*
G01*
X12360370Y-6202608D02*
X12441650Y-6283888D01*
X12441650Y-6202608D02*
X12360370Y-6283888D01*
X12441650Y-6243248D02*
G75*
G02*
X12360370Y-6243248I-40640J0D01*
G01*
X12360370Y-6243248D02*
G75*
G02*
X12441650Y-6243248I40640J0D01*
G01*
X12360370Y-6456608D02*
X12441650Y-6537888D01*
X12441650Y-6456608D02*
X12360370Y-6537888D01*
X12441650Y-6497248D02*
G75*
G02*
X12360370Y-6497248I-40640J0D01*
G01*
X12360370Y-6497248D02*
G75*
G02*
X12441650Y-6497248I40640J0D01*
G01*
X12360370Y-6710608D02*
X12441650Y-6791888D01*
X12441650Y-6710608D02*
X12360370Y-6791888D01*
X12441650Y-6751248D02*
G75*
G02*
X12360370Y-6751248I-40640J0D01*
G01*
X12360370Y-6751248D02*
G75*
G02*
X12441650Y-6751248I40640J0D01*
G01*
X12614370Y-5948608D02*
X12695650Y-6029888D01*
X12695650Y-5948608D02*
X12614370Y-6029888D01*
X12695650Y-5989248D02*
G75*
G02*
X12614370Y-5989248I-40640J0D01*
G01*
X12614370Y-5989248D02*
G75*
G02*
X12695650Y-5989248I40640J0D01*
G01*
X12614370Y-6202608D02*
X12695650Y-6283888D01*
X12695650Y-6202608D02*
X12614370Y-6283888D01*
X12695650Y-6243248D02*
G75*
G02*
X12614370Y-6243248I-40640J0D01*
G01*
X12614370Y-6243248D02*
G75*
G02*
X12695650Y-6243248I40640J0D01*
G01*
X12614370Y-6456608D02*
X12695650Y-6537888D01*
X12695650Y-6456608D02*
X12614370Y-6537888D01*
X12695650Y-6497248D02*
G75*
G02*
X12614370Y-6497248I-40640J0D01*
G01*
X12614370Y-6497248D02*
G75*
G02*
X12695650Y-6497248I40640J0D01*
G01*
X12614370Y-6710608D02*
X12695650Y-6791888D01*
X12695650Y-6710608D02*
X12614370Y-6791888D01*
X12695650Y-6751248D02*
G75*
G02*
X12614370Y-6751248I-40640J0D01*
G01*
X12614370Y-6751248D02*
G75*
G02*
X12695650Y-6751248I40640J0D01*
G01*
X12428260Y-5490260D02*
X12528260Y-5590260D01*
X12528260Y-5490260D02*
X12428260Y-5590260D01*
X12478260Y-5490260D02*
X12478260Y-5590260D01*
X12428260Y-5540260D02*
X12528260Y-5540260D01*
D11*
X7851537Y-7679244D02*
X7851537Y-7479244D01*
X7851537Y-7479244D02*
X7899156Y-7479244D01*
X7899156Y-7479244D02*
X7927727Y-7488768D01*
X7927727Y-7488768D02*
X7946775Y-7507815D01*
X7946775Y-7507815D02*
X7956299Y-7526863D01*
X7956299Y-7526863D02*
X7965822Y-7564958D01*
X7965822Y-7564958D02*
X7965822Y-7593529D01*
X7965822Y-7593529D02*
X7956299Y-7631625D01*
X7956299Y-7631625D02*
X7946775Y-7650672D01*
X7946775Y-7650672D02*
X7927727Y-7669720D01*
X7927727Y-7669720D02*
X7899156Y-7679244D01*
X7899156Y-7679244D02*
X7851537Y-7679244D01*
X8051537Y-7679244D02*
X8051537Y-7545910D01*
X8051537Y-7584006D02*
X8061061Y-7564958D01*
X8061061Y-7564958D02*
X8070584Y-7555434D01*
X8070584Y-7555434D02*
X8089632Y-7545910D01*
X8089632Y-7545910D02*
X8108680Y-7545910D01*
X8175346Y-7679244D02*
X8175346Y-7545910D01*
X8175346Y-7479244D02*
X8165822Y-7488768D01*
X8165822Y-7488768D02*
X8175346Y-7498291D01*
X8175346Y-7498291D02*
X8184870Y-7488768D01*
X8184870Y-7488768D02*
X8175346Y-7479244D01*
X8175346Y-7479244D02*
X8175346Y-7498291D01*
X8299156Y-7679244D02*
X8280108Y-7669720D01*
X8280108Y-7669720D02*
X8270584Y-7650672D01*
X8270584Y-7650672D02*
X8270584Y-7479244D01*
X8403918Y-7679244D02*
X8384870Y-7669720D01*
X8384870Y-7669720D02*
X8375346Y-7650672D01*
X8375346Y-7650672D02*
X8375346Y-7479244D01*
X8632489Y-7679244D02*
X8632489Y-7479244D01*
X8632489Y-7479244D02*
X8699156Y-7622101D01*
X8699156Y-7622101D02*
X8765823Y-7479244D01*
X8765823Y-7479244D02*
X8765823Y-7679244D01*
X8946775Y-7679244D02*
X8946775Y-7574482D01*
X8946775Y-7574482D02*
X8937251Y-7555434D01*
X8937251Y-7555434D02*
X8918204Y-7545910D01*
X8918204Y-7545910D02*
X8880108Y-7545910D01*
X8880108Y-7545910D02*
X8861061Y-7555434D01*
X8946775Y-7669720D02*
X8927727Y-7679244D01*
X8927727Y-7679244D02*
X8880108Y-7679244D01*
X8880108Y-7679244D02*
X8861061Y-7669720D01*
X8861061Y-7669720D02*
X8851537Y-7650672D01*
X8851537Y-7650672D02*
X8851537Y-7631625D01*
X8851537Y-7631625D02*
X8861061Y-7612577D01*
X8861061Y-7612577D02*
X8880108Y-7603053D01*
X8880108Y-7603053D02*
X8927727Y-7603053D01*
X8927727Y-7603053D02*
X8946775Y-7593529D01*
X9042013Y-7545910D02*
X9042013Y-7745910D01*
X9042013Y-7555434D02*
X9061061Y-7545910D01*
X9061061Y-7545910D02*
X9099156Y-7545910D01*
X9099156Y-7545910D02*
X9118204Y-7555434D01*
X9118204Y-7555434D02*
X9127727Y-7564958D01*
X9127727Y-7564958D02*
X9137251Y-7584006D01*
X9137251Y-7584006D02*
X9137251Y-7641148D01*
X9137251Y-7641148D02*
X9127727Y-7660196D01*
X9127727Y-7660196D02*
X9118204Y-7669720D01*
X9118204Y-7669720D02*
X9099156Y-7679244D01*
X9099156Y-7679244D02*
X9061061Y-7679244D01*
X9061061Y-7679244D02*
X9042013Y-7669720D01*
X9222965Y-7660196D02*
X9232489Y-7669720D01*
X9232489Y-7669720D02*
X9222965Y-7679244D01*
X9222965Y-7679244D02*
X9213442Y-7669720D01*
X9213442Y-7669720D02*
X9222965Y-7660196D01*
X9222965Y-7660196D02*
X9222965Y-7679244D01*
X9222965Y-7555434D02*
X9232489Y-7564958D01*
X9232489Y-7564958D02*
X9222965Y-7574482D01*
X9222965Y-7574482D02*
X9213442Y-7564958D01*
X9213442Y-7564958D02*
X9222965Y-7555434D01*
X9222965Y-7555434D02*
X9222965Y-7574482D01*
D12*
X7565760Y-7995260D02*
X7590760Y-8020260D01*
X7590760Y-7995260D02*
X7565760Y-8020260D01*
D11*
X7889632Y-7899244D02*
X7908680Y-7899244D01*
X7908680Y-7899244D02*
X7927727Y-7908768D01*
X7927727Y-7908768D02*
X7937251Y-7918291D01*
X7937251Y-7918291D02*
X7946775Y-7937339D01*
X7946775Y-7937339D02*
X7956299Y-7975434D01*
X7956299Y-7975434D02*
X7956299Y-8023053D01*
X7956299Y-8023053D02*
X7946775Y-8061148D01*
X7946775Y-8061148D02*
X7937251Y-8080196D01*
X7937251Y-8080196D02*
X7927727Y-8089720D01*
X7927727Y-8089720D02*
X7908680Y-8099244D01*
X7908680Y-8099244D02*
X7889632Y-8099244D01*
X7889632Y-8099244D02*
X7870584Y-8089720D01*
X7870584Y-8089720D02*
X7861061Y-8080196D01*
X7861061Y-8080196D02*
X7851537Y-8061148D01*
X7851537Y-8061148D02*
X7842013Y-8023053D01*
X7842013Y-8023053D02*
X7842013Y-7975434D01*
X7842013Y-7975434D02*
X7851537Y-7937339D01*
X7851537Y-7937339D02*
X7861061Y-7918291D01*
X7861061Y-7918291D02*
X7870584Y-7908768D01*
X7870584Y-7908768D02*
X7889632Y-7899244D01*
X8042013Y-8080196D02*
X8051537Y-8089720D01*
X8051537Y-8089720D02*
X8042013Y-8099244D01*
X8042013Y-8099244D02*
X8032489Y-8089720D01*
X8032489Y-8089720D02*
X8042013Y-8080196D01*
X8042013Y-8080196D02*
X8042013Y-8099244D01*
X8127727Y-7918291D02*
X8137251Y-7908768D01*
X8137251Y-7908768D02*
X8156299Y-7899244D01*
X8156299Y-7899244D02*
X8203918Y-7899244D01*
X8203918Y-7899244D02*
X8222965Y-7908768D01*
X8222965Y-7908768D02*
X8232489Y-7918291D01*
X8232489Y-7918291D02*
X8242013Y-7937339D01*
X8242013Y-7937339D02*
X8242013Y-7956387D01*
X8242013Y-7956387D02*
X8232489Y-7984958D01*
X8232489Y-7984958D02*
X8118203Y-8099244D01*
X8118203Y-8099244D02*
X8242013Y-8099244D01*
X8422965Y-7899244D02*
X8327727Y-7899244D01*
X8327727Y-7899244D02*
X8318203Y-7994482D01*
X8318203Y-7994482D02*
X8327727Y-7984958D01*
X8327727Y-7984958D02*
X8346775Y-7975434D01*
X8346775Y-7975434D02*
X8394394Y-7975434D01*
X8394394Y-7975434D02*
X8413442Y-7984958D01*
X8413442Y-7984958D02*
X8422965Y-7994482D01*
X8422965Y-7994482D02*
X8432489Y-8013529D01*
X8432489Y-8013529D02*
X8432489Y-8061148D01*
X8432489Y-8061148D02*
X8422965Y-8080196D01*
X8422965Y-8080196D02*
X8413442Y-8089720D01*
X8413442Y-8089720D02*
X8394394Y-8099244D01*
X8394394Y-8099244D02*
X8346775Y-8099244D01*
X8346775Y-8099244D02*
X8327727Y-8089720D01*
X8327727Y-8089720D02*
X8318203Y-8080196D01*
X8556299Y-7899244D02*
X8575346Y-7899244D01*
X8575346Y-7899244D02*
X8594394Y-7908768D01*
X8594394Y-7908768D02*
X8603918Y-7918291D01*
X8603918Y-7918291D02*
X8613442Y-7937339D01*
X8613442Y-7937339D02*
X8622965Y-7975434D01*
X8622965Y-7975434D02*
X8622965Y-8023053D01*
X8622965Y-8023053D02*
X8613442Y-8061148D01*
X8613442Y-8061148D02*
X8603918Y-8080196D01*
X8603918Y-8080196D02*
X8594394Y-8089720D01*
X8594394Y-8089720D02*
X8575346Y-8099244D01*
X8575346Y-8099244D02*
X8556299Y-8099244D01*
X8556299Y-8099244D02*
X8537251Y-8089720D01*
X8537251Y-8089720D02*
X8527727Y-8080196D01*
X8527727Y-8080196D02*
X8518204Y-8061148D01*
X8518204Y-8061148D02*
X8508680Y-8023053D01*
X8508680Y-8023053D02*
X8508680Y-7975434D01*
X8508680Y-7975434D02*
X8518204Y-7937339D01*
X8518204Y-7937339D02*
X8527727Y-7918291D01*
X8527727Y-7918291D02*
X8537251Y-7908768D01*
X8537251Y-7908768D02*
X8556299Y-7899244D01*
X8708680Y-8099244D02*
X8708680Y-7965910D01*
X8708680Y-7984958D02*
X8718204Y-7975434D01*
X8718204Y-7975434D02*
X8737251Y-7965910D01*
X8737251Y-7965910D02*
X8765823Y-7965910D01*
X8765823Y-7965910D02*
X8784870Y-7975434D01*
X8784870Y-7975434D02*
X8794394Y-7994482D01*
X8794394Y-7994482D02*
X8794394Y-8099244D01*
X8794394Y-7994482D02*
X8803918Y-7975434D01*
X8803918Y-7975434D02*
X8822965Y-7965910D01*
X8822965Y-7965910D02*
X8851537Y-7965910D01*
X8851537Y-7965910D02*
X8870585Y-7975434D01*
X8870585Y-7975434D02*
X8880108Y-7994482D01*
X8880108Y-7994482D02*
X8880108Y-8099244D01*
X8975346Y-8099244D02*
X8975346Y-7965910D01*
X8975346Y-7984958D02*
X8984870Y-7975434D01*
X8984870Y-7975434D02*
X9003918Y-7965910D01*
X9003918Y-7965910D02*
X9032489Y-7965910D01*
X9032489Y-7965910D02*
X9051537Y-7975434D01*
X9051537Y-7975434D02*
X9061061Y-7994482D01*
X9061061Y-7994482D02*
X9061061Y-8099244D01*
X9061061Y-7994482D02*
X9070585Y-7975434D01*
X9070585Y-7975434D02*
X9089632Y-7965910D01*
X9089632Y-7965910D02*
X9118204Y-7965910D01*
X9118204Y-7965910D02*
X9137251Y-7975434D01*
X9137251Y-7975434D02*
X9146775Y-7994482D01*
X9146775Y-7994482D02*
X9146775Y-8099244D01*
X9537251Y-7889720D02*
X9365823Y-8146863D01*
X9794394Y-7899244D02*
X9813442Y-7899244D01*
X9813442Y-7899244D02*
X9832489Y-7908768D01*
X9832489Y-7908768D02*
X9842013Y-7918291D01*
X9842013Y-7918291D02*
X9851537Y-7937339D01*
X9851537Y-7937339D02*
X9861061Y-7975434D01*
X9861061Y-7975434D02*
X9861061Y-8023053D01*
X9861061Y-8023053D02*
X9851537Y-8061148D01*
X9851537Y-8061148D02*
X9842013Y-8080196D01*
X9842013Y-8080196D02*
X9832489Y-8089720D01*
X9832489Y-8089720D02*
X9813442Y-8099244D01*
X9813442Y-8099244D02*
X9794394Y-8099244D01*
X9794394Y-8099244D02*
X9775347Y-8089720D01*
X9775347Y-8089720D02*
X9765823Y-8080196D01*
X9765823Y-8080196D02*
X9756299Y-8061148D01*
X9756299Y-8061148D02*
X9746775Y-8023053D01*
X9746775Y-8023053D02*
X9746775Y-7975434D01*
X9746775Y-7975434D02*
X9756299Y-7937339D01*
X9756299Y-7937339D02*
X9765823Y-7918291D01*
X9765823Y-7918291D02*
X9775347Y-7908768D01*
X9775347Y-7908768D02*
X9794394Y-7899244D01*
X9946775Y-8080196D02*
X9956299Y-8089720D01*
X9956299Y-8089720D02*
X9946775Y-8099244D01*
X9946775Y-8099244D02*
X9937251Y-8089720D01*
X9937251Y-8089720D02*
X9946775Y-8080196D01*
X9946775Y-8080196D02*
X9946775Y-8099244D01*
X10080108Y-7899244D02*
X10099156Y-7899244D01*
X10099156Y-7899244D02*
X10118204Y-7908768D01*
X10118204Y-7908768D02*
X10127728Y-7918291D01*
X10127728Y-7918291D02*
X10137251Y-7937339D01*
X10137251Y-7937339D02*
X10146775Y-7975434D01*
X10146775Y-7975434D02*
X10146775Y-8023053D01*
X10146775Y-8023053D02*
X10137251Y-8061148D01*
X10137251Y-8061148D02*
X10127728Y-8080196D01*
X10127728Y-8080196D02*
X10118204Y-8089720D01*
X10118204Y-8089720D02*
X10099156Y-8099244D01*
X10099156Y-8099244D02*
X10080108Y-8099244D01*
X10080108Y-8099244D02*
X10061061Y-8089720D01*
X10061061Y-8089720D02*
X10051537Y-8080196D01*
X10051537Y-8080196D02*
X10042013Y-8061148D01*
X10042013Y-8061148D02*
X10032489Y-8023053D01*
X10032489Y-8023053D02*
X10032489Y-7975434D01*
X10032489Y-7975434D02*
X10042013Y-7937339D01*
X10042013Y-7937339D02*
X10051537Y-7918291D01*
X10051537Y-7918291D02*
X10061061Y-7908768D01*
X10061061Y-7908768D02*
X10080108Y-7899244D01*
X10270585Y-7899244D02*
X10289632Y-7899244D01*
X10289632Y-7899244D02*
X10308680Y-7908768D01*
X10308680Y-7908768D02*
X10318204Y-7918291D01*
X10318204Y-7918291D02*
X10327728Y-7937339D01*
X10327728Y-7937339D02*
X10337251Y-7975434D01*
X10337251Y-7975434D02*
X10337251Y-8023053D01*
X10337251Y-8023053D02*
X10327728Y-8061148D01*
X10327728Y-8061148D02*
X10318204Y-8080196D01*
X10318204Y-8080196D02*
X10308680Y-8089720D01*
X10308680Y-8089720D02*
X10289632Y-8099244D01*
X10289632Y-8099244D02*
X10270585Y-8099244D01*
X10270585Y-8099244D02*
X10251537Y-8089720D01*
X10251537Y-8089720D02*
X10242013Y-8080196D01*
X10242013Y-8080196D02*
X10232489Y-8061148D01*
X10232489Y-8061148D02*
X10222966Y-8023053D01*
X10222966Y-8023053D02*
X10222966Y-7975434D01*
X10222966Y-7975434D02*
X10232489Y-7937339D01*
X10232489Y-7937339D02*
X10242013Y-7918291D01*
X10242013Y-7918291D02*
X10251537Y-7908768D01*
X10251537Y-7908768D02*
X10270585Y-7899244D01*
X10432489Y-8099244D02*
X10470585Y-8099244D01*
X10470585Y-8099244D02*
X10489632Y-8089720D01*
X10489632Y-8089720D02*
X10499156Y-8080196D01*
X10499156Y-8080196D02*
X10518204Y-8051625D01*
X10518204Y-8051625D02*
X10527728Y-8013529D01*
X10527728Y-8013529D02*
X10527728Y-7937339D01*
X10527728Y-7937339D02*
X10518204Y-7918291D01*
X10518204Y-7918291D02*
X10508680Y-7908768D01*
X10508680Y-7908768D02*
X10489632Y-7899244D01*
X10489632Y-7899244D02*
X10451537Y-7899244D01*
X10451537Y-7899244D02*
X10432489Y-7908768D01*
X10432489Y-7908768D02*
X10422966Y-7918291D01*
X10422966Y-7918291D02*
X10413442Y-7937339D01*
X10413442Y-7937339D02*
X10413442Y-7984958D01*
X10413442Y-7984958D02*
X10422966Y-8004006D01*
X10422966Y-8004006D02*
X10432489Y-8013529D01*
X10432489Y-8013529D02*
X10451537Y-8023053D01*
X10451537Y-8023053D02*
X10489632Y-8023053D01*
X10489632Y-8023053D02*
X10508680Y-8013529D01*
X10508680Y-8013529D02*
X10518204Y-8004006D01*
X10518204Y-8004006D02*
X10527728Y-7984958D01*
X10642013Y-7984958D02*
X10622966Y-7975434D01*
X10622966Y-7975434D02*
X10613442Y-7965910D01*
X10613442Y-7965910D02*
X10603918Y-7946863D01*
X10603918Y-7946863D02*
X10603918Y-7937339D01*
X10603918Y-7937339D02*
X10613442Y-7918291D01*
X10613442Y-7918291D02*
X10622966Y-7908768D01*
X10622966Y-7908768D02*
X10642013Y-7899244D01*
X10642013Y-7899244D02*
X10680109Y-7899244D01*
X10680109Y-7899244D02*
X10699156Y-7908768D01*
X10699156Y-7908768D02*
X10708680Y-7918291D01*
X10708680Y-7918291D02*
X10718204Y-7937339D01*
X10718204Y-7937339D02*
X10718204Y-7946863D01*
X10718204Y-7946863D02*
X10708680Y-7965910D01*
X10708680Y-7965910D02*
X10699156Y-7975434D01*
X10699156Y-7975434D02*
X10680109Y-7984958D01*
X10680109Y-7984958D02*
X10642013Y-7984958D01*
X10642013Y-7984958D02*
X10622966Y-7994482D01*
X10622966Y-7994482D02*
X10613442Y-8004006D01*
X10613442Y-8004006D02*
X10603918Y-8023053D01*
X10603918Y-8023053D02*
X10603918Y-8061148D01*
X10603918Y-8061148D02*
X10613442Y-8080196D01*
X10613442Y-8080196D02*
X10622966Y-8089720D01*
X10622966Y-8089720D02*
X10642013Y-8099244D01*
X10642013Y-8099244D02*
X10680109Y-8099244D01*
X10680109Y-8099244D02*
X10699156Y-8089720D01*
X10699156Y-8089720D02*
X10708680Y-8080196D01*
X10708680Y-8080196D02*
X10718204Y-8061148D01*
X10718204Y-8061148D02*
X10718204Y-8023053D01*
X10718204Y-8023053D02*
X10708680Y-8004006D01*
X10708680Y-8004006D02*
X10699156Y-7994482D01*
X10699156Y-7994482D02*
X10680109Y-7984958D01*
X10794394Y-7899244D02*
X10794394Y-7937339D01*
X10870585Y-7899244D02*
X10870585Y-7937339D01*
X11165823Y-8175434D02*
X11156299Y-8165910D01*
X11156299Y-8165910D02*
X11137251Y-8137339D01*
X11137251Y-8137339D02*
X11127728Y-8118291D01*
X11127728Y-8118291D02*
X11118204Y-8089720D01*
X11118204Y-8089720D02*
X11108680Y-8042101D01*
X11108680Y-8042101D02*
X11108680Y-8004006D01*
X11108680Y-8004006D02*
X11118204Y-7956387D01*
X11118204Y-7956387D02*
X11127728Y-7927815D01*
X11127728Y-7927815D02*
X11137251Y-7908768D01*
X11137251Y-7908768D02*
X11156299Y-7880196D01*
X11156299Y-7880196D02*
X11165823Y-7870672D01*
X11270585Y-7984958D02*
X11251537Y-7975434D01*
X11251537Y-7975434D02*
X11242013Y-7965910D01*
X11242013Y-7965910D02*
X11232489Y-7946863D01*
X11232489Y-7946863D02*
X11232489Y-7937339D01*
X11232489Y-7937339D02*
X11242013Y-7918291D01*
X11242013Y-7918291D02*
X11251537Y-7908768D01*
X11251537Y-7908768D02*
X11270585Y-7899244D01*
X11270585Y-7899244D02*
X11308680Y-7899244D01*
X11308680Y-7899244D02*
X11327728Y-7908768D01*
X11327728Y-7908768D02*
X11337251Y-7918291D01*
X11337251Y-7918291D02*
X11346775Y-7937339D01*
X11346775Y-7937339D02*
X11346775Y-7946863D01*
X11346775Y-7946863D02*
X11337251Y-7965910D01*
X11337251Y-7965910D02*
X11327728Y-7975434D01*
X11327728Y-7975434D02*
X11308680Y-7984958D01*
X11308680Y-7984958D02*
X11270585Y-7984958D01*
X11270585Y-7984958D02*
X11251537Y-7994482D01*
X11251537Y-7994482D02*
X11242013Y-8004006D01*
X11242013Y-8004006D02*
X11232489Y-8023053D01*
X11232489Y-8023053D02*
X11232489Y-8061148D01*
X11232489Y-8061148D02*
X11242013Y-8080196D01*
X11242013Y-8080196D02*
X11251537Y-8089720D01*
X11251537Y-8089720D02*
X11270585Y-8099244D01*
X11270585Y-8099244D02*
X11308680Y-8099244D01*
X11308680Y-8099244D02*
X11327728Y-8089720D01*
X11327728Y-8089720D02*
X11337251Y-8080196D01*
X11337251Y-8080196D02*
X11346775Y-8061148D01*
X11346775Y-8061148D02*
X11346775Y-8023053D01*
X11346775Y-8023053D02*
X11337251Y-8004006D01*
X11337251Y-8004006D02*
X11327728Y-7994482D01*
X11327728Y-7994482D02*
X11308680Y-7984958D01*
X11584870Y-8099244D02*
X11584870Y-7899244D01*
X11670585Y-8099244D02*
X11670585Y-7994482D01*
X11670585Y-7994482D02*
X11661061Y-7975434D01*
X11661061Y-7975434D02*
X11642013Y-7965910D01*
X11642013Y-7965910D02*
X11613442Y-7965910D01*
X11613442Y-7965910D02*
X11594394Y-7975434D01*
X11594394Y-7975434D02*
X11584870Y-7984958D01*
X11794394Y-8099244D02*
X11775347Y-8089720D01*
X11775347Y-8089720D02*
X11765823Y-8080196D01*
X11765823Y-8080196D02*
X11756299Y-8061148D01*
X11756299Y-8061148D02*
X11756299Y-8004006D01*
X11756299Y-8004006D02*
X11765823Y-7984958D01*
X11765823Y-7984958D02*
X11775347Y-7975434D01*
X11775347Y-7975434D02*
X11794394Y-7965910D01*
X11794394Y-7965910D02*
X11822966Y-7965910D01*
X11822966Y-7965910D02*
X11842013Y-7975434D01*
X11842013Y-7975434D02*
X11851537Y-7984958D01*
X11851537Y-7984958D02*
X11861061Y-8004006D01*
X11861061Y-8004006D02*
X11861061Y-8061148D01*
X11861061Y-8061148D02*
X11851537Y-8080196D01*
X11851537Y-8080196D02*
X11842013Y-8089720D01*
X11842013Y-8089720D02*
X11822966Y-8099244D01*
X11822966Y-8099244D02*
X11794394Y-8099244D01*
X11975347Y-8099244D02*
X11956299Y-8089720D01*
X11956299Y-8089720D02*
X11946775Y-8070672D01*
X11946775Y-8070672D02*
X11946775Y-7899244D01*
X12127728Y-8089720D02*
X12108680Y-8099244D01*
X12108680Y-8099244D02*
X12070585Y-8099244D01*
X12070585Y-8099244D02*
X12051537Y-8089720D01*
X12051537Y-8089720D02*
X12042013Y-8070672D01*
X12042013Y-8070672D02*
X12042013Y-7994482D01*
X12042013Y-7994482D02*
X12051537Y-7975434D01*
X12051537Y-7975434D02*
X12070585Y-7965910D01*
X12070585Y-7965910D02*
X12108680Y-7965910D01*
X12108680Y-7965910D02*
X12127728Y-7975434D01*
X12127728Y-7975434D02*
X12137251Y-7994482D01*
X12137251Y-7994482D02*
X12137251Y-8013529D01*
X12137251Y-8013529D02*
X12042013Y-8032577D01*
X12213442Y-8089720D02*
X12232490Y-8099244D01*
X12232490Y-8099244D02*
X12270585Y-8099244D01*
X12270585Y-8099244D02*
X12289632Y-8089720D01*
X12289632Y-8089720D02*
X12299156Y-8070672D01*
X12299156Y-8070672D02*
X12299156Y-8061148D01*
X12299156Y-8061148D02*
X12289632Y-8042101D01*
X12289632Y-8042101D02*
X12270585Y-8032577D01*
X12270585Y-8032577D02*
X12242013Y-8032577D01*
X12242013Y-8032577D02*
X12222966Y-8023053D01*
X12222966Y-8023053D02*
X12213442Y-8004006D01*
X12213442Y-8004006D02*
X12213442Y-7994482D01*
X12213442Y-7994482D02*
X12222966Y-7975434D01*
X12222966Y-7975434D02*
X12242013Y-7965910D01*
X12242013Y-7965910D02*
X12270585Y-7965910D01*
X12270585Y-7965910D02*
X12289632Y-7975434D01*
X12365823Y-8175434D02*
X12375347Y-8165910D01*
X12375347Y-8165910D02*
X12394394Y-8137339D01*
X12394394Y-8137339D02*
X12403918Y-8118291D01*
X12403918Y-8118291D02*
X12413442Y-8089720D01*
X12413442Y-8089720D02*
X12422966Y-8042101D01*
X12422966Y-8042101D02*
X12422966Y-8004006D01*
X12422966Y-8004006D02*
X12413442Y-7956387D01*
X12413442Y-7956387D02*
X12403918Y-7927815D01*
X12403918Y-7927815D02*
X12394394Y-7908768D01*
X12394394Y-7908768D02*
X12375347Y-7880196D01*
X12375347Y-7880196D02*
X12365823Y-7870672D01*
D12*
X7590760Y-8271760D02*
G75*
G02*
X7565760Y-8271760I-12500J0D01*
G01*
X7565760Y-8271760D02*
G75*
G02*
X7590760Y-8271760I12500J0D01*
G01*
D11*
X7889632Y-8163244D02*
X7908680Y-8163244D01*
X7908680Y-8163244D02*
X7927727Y-8172768D01*
X7927727Y-8172768D02*
X7937251Y-8182291D01*
X7937251Y-8182291D02*
X7946775Y-8201339D01*
X7946775Y-8201339D02*
X7956299Y-8239434D01*
X7956299Y-8239434D02*
X7956299Y-8287053D01*
X7956299Y-8287053D02*
X7946775Y-8325148D01*
X7946775Y-8325148D02*
X7937251Y-8344196D01*
X7937251Y-8344196D02*
X7927727Y-8353720D01*
X7927727Y-8353720D02*
X7908680Y-8363244D01*
X7908680Y-8363244D02*
X7889632Y-8363244D01*
X7889632Y-8363244D02*
X7870584Y-8353720D01*
X7870584Y-8353720D02*
X7861061Y-8344196D01*
X7861061Y-8344196D02*
X7851537Y-8325148D01*
X7851537Y-8325148D02*
X7842013Y-8287053D01*
X7842013Y-8287053D02*
X7842013Y-8239434D01*
X7842013Y-8239434D02*
X7851537Y-8201339D01*
X7851537Y-8201339D02*
X7861061Y-8182291D01*
X7861061Y-8182291D02*
X7870584Y-8172768D01*
X7870584Y-8172768D02*
X7889632Y-8163244D01*
X8042013Y-8344196D02*
X8051537Y-8353720D01*
X8051537Y-8353720D02*
X8042013Y-8363244D01*
X8042013Y-8363244D02*
X8032489Y-8353720D01*
X8032489Y-8353720D02*
X8042013Y-8344196D01*
X8042013Y-8344196D02*
X8042013Y-8363244D01*
X8127727Y-8182291D02*
X8137251Y-8172768D01*
X8137251Y-8172768D02*
X8156299Y-8163244D01*
X8156299Y-8163244D02*
X8203918Y-8163244D01*
X8203918Y-8163244D02*
X8222965Y-8172768D01*
X8222965Y-8172768D02*
X8232489Y-8182291D01*
X8232489Y-8182291D02*
X8242013Y-8201339D01*
X8242013Y-8201339D02*
X8242013Y-8220387D01*
X8242013Y-8220387D02*
X8232489Y-8248958D01*
X8232489Y-8248958D02*
X8118203Y-8363244D01*
X8118203Y-8363244D02*
X8242013Y-8363244D01*
X8422965Y-8163244D02*
X8327727Y-8163244D01*
X8327727Y-8163244D02*
X8318203Y-8258482D01*
X8318203Y-8258482D02*
X8327727Y-8248958D01*
X8327727Y-8248958D02*
X8346775Y-8239434D01*
X8346775Y-8239434D02*
X8394394Y-8239434D01*
X8394394Y-8239434D02*
X8413442Y-8248958D01*
X8413442Y-8248958D02*
X8422965Y-8258482D01*
X8422965Y-8258482D02*
X8432489Y-8277529D01*
X8432489Y-8277529D02*
X8432489Y-8325148D01*
X8432489Y-8325148D02*
X8422965Y-8344196D01*
X8422965Y-8344196D02*
X8413442Y-8353720D01*
X8413442Y-8353720D02*
X8394394Y-8363244D01*
X8394394Y-8363244D02*
X8346775Y-8363244D01*
X8346775Y-8363244D02*
X8327727Y-8353720D01*
X8327727Y-8353720D02*
X8318203Y-8344196D01*
X8556299Y-8163244D02*
X8575346Y-8163244D01*
X8575346Y-8163244D02*
X8594394Y-8172768D01*
X8594394Y-8172768D02*
X8603918Y-8182291D01*
X8603918Y-8182291D02*
X8613442Y-8201339D01*
X8613442Y-8201339D02*
X8622965Y-8239434D01*
X8622965Y-8239434D02*
X8622965Y-8287053D01*
X8622965Y-8287053D02*
X8613442Y-8325148D01*
X8613442Y-8325148D02*
X8603918Y-8344196D01*
X8603918Y-8344196D02*
X8594394Y-8353720D01*
X8594394Y-8353720D02*
X8575346Y-8363244D01*
X8575346Y-8363244D02*
X8556299Y-8363244D01*
X8556299Y-8363244D02*
X8537251Y-8353720D01*
X8537251Y-8353720D02*
X8527727Y-8344196D01*
X8527727Y-8344196D02*
X8518204Y-8325148D01*
X8518204Y-8325148D02*
X8508680Y-8287053D01*
X8508680Y-8287053D02*
X8508680Y-8239434D01*
X8508680Y-8239434D02*
X8518204Y-8201339D01*
X8518204Y-8201339D02*
X8527727Y-8182291D01*
X8527727Y-8182291D02*
X8537251Y-8172768D01*
X8537251Y-8172768D02*
X8556299Y-8163244D01*
X8708680Y-8363244D02*
X8708680Y-8229910D01*
X8708680Y-8248958D02*
X8718204Y-8239434D01*
X8718204Y-8239434D02*
X8737251Y-8229910D01*
X8737251Y-8229910D02*
X8765823Y-8229910D01*
X8765823Y-8229910D02*
X8784870Y-8239434D01*
X8784870Y-8239434D02*
X8794394Y-8258482D01*
X8794394Y-8258482D02*
X8794394Y-8363244D01*
X8794394Y-8258482D02*
X8803918Y-8239434D01*
X8803918Y-8239434D02*
X8822965Y-8229910D01*
X8822965Y-8229910D02*
X8851537Y-8229910D01*
X8851537Y-8229910D02*
X8870585Y-8239434D01*
X8870585Y-8239434D02*
X8880108Y-8258482D01*
X8880108Y-8258482D02*
X8880108Y-8363244D01*
X8975346Y-8363244D02*
X8975346Y-8229910D01*
X8975346Y-8248958D02*
X8984870Y-8239434D01*
X8984870Y-8239434D02*
X9003918Y-8229910D01*
X9003918Y-8229910D02*
X9032489Y-8229910D01*
X9032489Y-8229910D02*
X9051537Y-8239434D01*
X9051537Y-8239434D02*
X9061061Y-8258482D01*
X9061061Y-8258482D02*
X9061061Y-8363244D01*
X9061061Y-8258482D02*
X9070585Y-8239434D01*
X9070585Y-8239434D02*
X9089632Y-8229910D01*
X9089632Y-8229910D02*
X9118204Y-8229910D01*
X9118204Y-8229910D02*
X9137251Y-8239434D01*
X9137251Y-8239434D02*
X9146775Y-8258482D01*
X9146775Y-8258482D02*
X9146775Y-8363244D01*
X9537251Y-8153720D02*
X9365823Y-8410863D01*
X9794394Y-8163244D02*
X9813442Y-8163244D01*
X9813442Y-8163244D02*
X9832489Y-8172768D01*
X9832489Y-8172768D02*
X9842013Y-8182291D01*
X9842013Y-8182291D02*
X9851537Y-8201339D01*
X9851537Y-8201339D02*
X9861061Y-8239434D01*
X9861061Y-8239434D02*
X9861061Y-8287053D01*
X9861061Y-8287053D02*
X9851537Y-8325148D01*
X9851537Y-8325148D02*
X9842013Y-8344196D01*
X9842013Y-8344196D02*
X9832489Y-8353720D01*
X9832489Y-8353720D02*
X9813442Y-8363244D01*
X9813442Y-8363244D02*
X9794394Y-8363244D01*
X9794394Y-8363244D02*
X9775347Y-8353720D01*
X9775347Y-8353720D02*
X9765823Y-8344196D01*
X9765823Y-8344196D02*
X9756299Y-8325148D01*
X9756299Y-8325148D02*
X9746775Y-8287053D01*
X9746775Y-8287053D02*
X9746775Y-8239434D01*
X9746775Y-8239434D02*
X9756299Y-8201339D01*
X9756299Y-8201339D02*
X9765823Y-8182291D01*
X9765823Y-8182291D02*
X9775347Y-8172768D01*
X9775347Y-8172768D02*
X9794394Y-8163244D01*
X9946775Y-8344196D02*
X9956299Y-8353720D01*
X9956299Y-8353720D02*
X9946775Y-8363244D01*
X9946775Y-8363244D02*
X9937251Y-8353720D01*
X9937251Y-8353720D02*
X9946775Y-8344196D01*
X9946775Y-8344196D02*
X9946775Y-8363244D01*
X10080108Y-8163244D02*
X10099156Y-8163244D01*
X10099156Y-8163244D02*
X10118204Y-8172768D01*
X10118204Y-8172768D02*
X10127728Y-8182291D01*
X10127728Y-8182291D02*
X10137251Y-8201339D01*
X10137251Y-8201339D02*
X10146775Y-8239434D01*
X10146775Y-8239434D02*
X10146775Y-8287053D01*
X10146775Y-8287053D02*
X10137251Y-8325148D01*
X10137251Y-8325148D02*
X10127728Y-8344196D01*
X10127728Y-8344196D02*
X10118204Y-8353720D01*
X10118204Y-8353720D02*
X10099156Y-8363244D01*
X10099156Y-8363244D02*
X10080108Y-8363244D01*
X10080108Y-8363244D02*
X10061061Y-8353720D01*
X10061061Y-8353720D02*
X10051537Y-8344196D01*
X10051537Y-8344196D02*
X10042013Y-8325148D01*
X10042013Y-8325148D02*
X10032489Y-8287053D01*
X10032489Y-8287053D02*
X10032489Y-8239434D01*
X10032489Y-8239434D02*
X10042013Y-8201339D01*
X10042013Y-8201339D02*
X10051537Y-8182291D01*
X10051537Y-8182291D02*
X10061061Y-8172768D01*
X10061061Y-8172768D02*
X10080108Y-8163244D01*
X10270585Y-8163244D02*
X10289632Y-8163244D01*
X10289632Y-8163244D02*
X10308680Y-8172768D01*
X10308680Y-8172768D02*
X10318204Y-8182291D01*
X10318204Y-8182291D02*
X10327728Y-8201339D01*
X10327728Y-8201339D02*
X10337251Y-8239434D01*
X10337251Y-8239434D02*
X10337251Y-8287053D01*
X10337251Y-8287053D02*
X10327728Y-8325148D01*
X10327728Y-8325148D02*
X10318204Y-8344196D01*
X10318204Y-8344196D02*
X10308680Y-8353720D01*
X10308680Y-8353720D02*
X10289632Y-8363244D01*
X10289632Y-8363244D02*
X10270585Y-8363244D01*
X10270585Y-8363244D02*
X10251537Y-8353720D01*
X10251537Y-8353720D02*
X10242013Y-8344196D01*
X10242013Y-8344196D02*
X10232489Y-8325148D01*
X10232489Y-8325148D02*
X10222966Y-8287053D01*
X10222966Y-8287053D02*
X10222966Y-8239434D01*
X10222966Y-8239434D02*
X10232489Y-8201339D01*
X10232489Y-8201339D02*
X10242013Y-8182291D01*
X10242013Y-8182291D02*
X10251537Y-8172768D01*
X10251537Y-8172768D02*
X10270585Y-8163244D01*
X10432489Y-8363244D02*
X10470585Y-8363244D01*
X10470585Y-8363244D02*
X10489632Y-8353720D01*
X10489632Y-8353720D02*
X10499156Y-8344196D01*
X10499156Y-8344196D02*
X10518204Y-8315625D01*
X10518204Y-8315625D02*
X10527728Y-8277529D01*
X10527728Y-8277529D02*
X10527728Y-8201339D01*
X10527728Y-8201339D02*
X10518204Y-8182291D01*
X10518204Y-8182291D02*
X10508680Y-8172768D01*
X10508680Y-8172768D02*
X10489632Y-8163244D01*
X10489632Y-8163244D02*
X10451537Y-8163244D01*
X10451537Y-8163244D02*
X10432489Y-8172768D01*
X10432489Y-8172768D02*
X10422966Y-8182291D01*
X10422966Y-8182291D02*
X10413442Y-8201339D01*
X10413442Y-8201339D02*
X10413442Y-8248958D01*
X10413442Y-8248958D02*
X10422966Y-8268006D01*
X10422966Y-8268006D02*
X10432489Y-8277529D01*
X10432489Y-8277529D02*
X10451537Y-8287053D01*
X10451537Y-8287053D02*
X10489632Y-8287053D01*
X10489632Y-8287053D02*
X10508680Y-8277529D01*
X10508680Y-8277529D02*
X10518204Y-8268006D01*
X10518204Y-8268006D02*
X10527728Y-8248958D01*
X10642013Y-8248958D02*
X10622966Y-8239434D01*
X10622966Y-8239434D02*
X10613442Y-8229910D01*
X10613442Y-8229910D02*
X10603918Y-8210863D01*
X10603918Y-8210863D02*
X10603918Y-8201339D01*
X10603918Y-8201339D02*
X10613442Y-8182291D01*
X10613442Y-8182291D02*
X10622966Y-8172768D01*
X10622966Y-8172768D02*
X10642013Y-8163244D01*
X10642013Y-8163244D02*
X10680109Y-8163244D01*
X10680109Y-8163244D02*
X10699156Y-8172768D01*
X10699156Y-8172768D02*
X10708680Y-8182291D01*
X10708680Y-8182291D02*
X10718204Y-8201339D01*
X10718204Y-8201339D02*
X10718204Y-8210863D01*
X10718204Y-8210863D02*
X10708680Y-8229910D01*
X10708680Y-8229910D02*
X10699156Y-8239434D01*
X10699156Y-8239434D02*
X10680109Y-8248958D01*
X10680109Y-8248958D02*
X10642013Y-8248958D01*
X10642013Y-8248958D02*
X10622966Y-8258482D01*
X10622966Y-8258482D02*
X10613442Y-8268006D01*
X10613442Y-8268006D02*
X10603918Y-8287053D01*
X10603918Y-8287053D02*
X10603918Y-8325148D01*
X10603918Y-8325148D02*
X10613442Y-8344196D01*
X10613442Y-8344196D02*
X10622966Y-8353720D01*
X10622966Y-8353720D02*
X10642013Y-8363244D01*
X10642013Y-8363244D02*
X10680109Y-8363244D01*
X10680109Y-8363244D02*
X10699156Y-8353720D01*
X10699156Y-8353720D02*
X10708680Y-8344196D01*
X10708680Y-8344196D02*
X10718204Y-8325148D01*
X10718204Y-8325148D02*
X10718204Y-8287053D01*
X10718204Y-8287053D02*
X10708680Y-8268006D01*
X10708680Y-8268006D02*
X10699156Y-8258482D01*
X10699156Y-8258482D02*
X10680109Y-8248958D01*
X10794394Y-8163244D02*
X10794394Y-8201339D01*
X10870585Y-8163244D02*
X10870585Y-8201339D01*
X11165823Y-8439434D02*
X11156299Y-8429910D01*
X11156299Y-8429910D02*
X11137251Y-8401339D01*
X11137251Y-8401339D02*
X11127728Y-8382291D01*
X11127728Y-8382291D02*
X11118204Y-8353720D01*
X11118204Y-8353720D02*
X11108680Y-8306101D01*
X11108680Y-8306101D02*
X11108680Y-8268006D01*
X11108680Y-8268006D02*
X11118204Y-8220387D01*
X11118204Y-8220387D02*
X11127728Y-8191815D01*
X11127728Y-8191815D02*
X11137251Y-8172768D01*
X11137251Y-8172768D02*
X11156299Y-8144196D01*
X11156299Y-8144196D02*
X11165823Y-8134672D01*
X11251537Y-8363244D02*
X11289632Y-8363244D01*
X11289632Y-8363244D02*
X11308680Y-8353720D01*
X11308680Y-8353720D02*
X11318204Y-8344196D01*
X11318204Y-8344196D02*
X11337251Y-8315625D01*
X11337251Y-8315625D02*
X11346775Y-8277529D01*
X11346775Y-8277529D02*
X11346775Y-8201339D01*
X11346775Y-8201339D02*
X11337251Y-8182291D01*
X11337251Y-8182291D02*
X11327728Y-8172768D01*
X11327728Y-8172768D02*
X11308680Y-8163244D01*
X11308680Y-8163244D02*
X11270585Y-8163244D01*
X11270585Y-8163244D02*
X11251537Y-8172768D01*
X11251537Y-8172768D02*
X11242013Y-8182291D01*
X11242013Y-8182291D02*
X11232489Y-8201339D01*
X11232489Y-8201339D02*
X11232489Y-8248958D01*
X11232489Y-8248958D02*
X11242013Y-8268006D01*
X11242013Y-8268006D02*
X11251537Y-8277529D01*
X11251537Y-8277529D02*
X11270585Y-8287053D01*
X11270585Y-8287053D02*
X11308680Y-8287053D01*
X11308680Y-8287053D02*
X11327728Y-8277529D01*
X11327728Y-8277529D02*
X11337251Y-8268006D01*
X11337251Y-8268006D02*
X11346775Y-8248958D01*
X11584870Y-8363244D02*
X11584870Y-8163244D01*
X11670585Y-8363244D02*
X11670585Y-8258482D01*
X11670585Y-8258482D02*
X11661061Y-8239434D01*
X11661061Y-8239434D02*
X11642013Y-8229910D01*
X11642013Y-8229910D02*
X11613442Y-8229910D01*
X11613442Y-8229910D02*
X11594394Y-8239434D01*
X11594394Y-8239434D02*
X11584870Y-8248958D01*
X11794394Y-8363244D02*
X11775347Y-8353720D01*
X11775347Y-8353720D02*
X11765823Y-8344196D01*
X11765823Y-8344196D02*
X11756299Y-8325148D01*
X11756299Y-8325148D02*
X11756299Y-8268006D01*
X11756299Y-8268006D02*
X11765823Y-8248958D01*
X11765823Y-8248958D02*
X11775347Y-8239434D01*
X11775347Y-8239434D02*
X11794394Y-8229910D01*
X11794394Y-8229910D02*
X11822966Y-8229910D01*
X11822966Y-8229910D02*
X11842013Y-8239434D01*
X11842013Y-8239434D02*
X11851537Y-8248958D01*
X11851537Y-8248958D02*
X11861061Y-8268006D01*
X11861061Y-8268006D02*
X11861061Y-8325148D01*
X11861061Y-8325148D02*
X11851537Y-8344196D01*
X11851537Y-8344196D02*
X11842013Y-8353720D01*
X11842013Y-8353720D02*
X11822966Y-8363244D01*
X11822966Y-8363244D02*
X11794394Y-8363244D01*
X11975347Y-8363244D02*
X11956299Y-8353720D01*
X11956299Y-8353720D02*
X11946775Y-8334672D01*
X11946775Y-8334672D02*
X11946775Y-8163244D01*
X12127728Y-8353720D02*
X12108680Y-8363244D01*
X12108680Y-8363244D02*
X12070585Y-8363244D01*
X12070585Y-8363244D02*
X12051537Y-8353720D01*
X12051537Y-8353720D02*
X12042013Y-8334672D01*
X12042013Y-8334672D02*
X12042013Y-8258482D01*
X12042013Y-8258482D02*
X12051537Y-8239434D01*
X12051537Y-8239434D02*
X12070585Y-8229910D01*
X12070585Y-8229910D02*
X12108680Y-8229910D01*
X12108680Y-8229910D02*
X12127728Y-8239434D01*
X12127728Y-8239434D02*
X12137251Y-8258482D01*
X12137251Y-8258482D02*
X12137251Y-8277529D01*
X12137251Y-8277529D02*
X12042013Y-8296577D01*
X12213442Y-8353720D02*
X12232490Y-8363244D01*
X12232490Y-8363244D02*
X12270585Y-8363244D01*
X12270585Y-8363244D02*
X12289632Y-8353720D01*
X12289632Y-8353720D02*
X12299156Y-8334672D01*
X12299156Y-8334672D02*
X12299156Y-8325148D01*
X12299156Y-8325148D02*
X12289632Y-8306101D01*
X12289632Y-8306101D02*
X12270585Y-8296577D01*
X12270585Y-8296577D02*
X12242013Y-8296577D01*
X12242013Y-8296577D02*
X12222966Y-8287053D01*
X12222966Y-8287053D02*
X12213442Y-8268006D01*
X12213442Y-8268006D02*
X12213442Y-8258482D01*
X12213442Y-8258482D02*
X12222966Y-8239434D01*
X12222966Y-8239434D02*
X12242013Y-8229910D01*
X12242013Y-8229910D02*
X12270585Y-8229910D01*
X12270585Y-8229910D02*
X12289632Y-8239434D01*
X12365823Y-8439434D02*
X12375347Y-8429910D01*
X12375347Y-8429910D02*
X12394394Y-8401339D01*
X12394394Y-8401339D02*
X12403918Y-8382291D01*
X12403918Y-8382291D02*
X12413442Y-8353720D01*
X12413442Y-8353720D02*
X12422966Y-8306101D01*
X12422966Y-8306101D02*
X12422966Y-8268006D01*
X12422966Y-8268006D02*
X12413442Y-8220387D01*
X12413442Y-8220387D02*
X12403918Y-8191815D01*
X12403918Y-8191815D02*
X12394394Y-8172768D01*
X12394394Y-8172768D02*
X12375347Y-8144196D01*
X12375347Y-8144196D02*
X12365823Y-8134672D01*
D12*
X7575760Y-8520760D02*
X7575760Y-8550760D01*
X7560760Y-8535760D02*
X7590760Y-8535760D01*
D11*
X7889632Y-8427244D02*
X7908680Y-8427244D01*
X7908680Y-8427244D02*
X7927727Y-8436768D01*
X7927727Y-8436768D02*
X7937251Y-8446291D01*
X7937251Y-8446291D02*
X7946775Y-8465339D01*
X7946775Y-8465339D02*
X7956299Y-8503434D01*
X7956299Y-8503434D02*
X7956299Y-8551053D01*
X7956299Y-8551053D02*
X7946775Y-8589149D01*
X7946775Y-8589149D02*
X7937251Y-8608196D01*
X7937251Y-8608196D02*
X7927727Y-8617720D01*
X7927727Y-8617720D02*
X7908680Y-8627244D01*
X7908680Y-8627244D02*
X7889632Y-8627244D01*
X7889632Y-8627244D02*
X7870584Y-8617720D01*
X7870584Y-8617720D02*
X7861061Y-8608196D01*
X7861061Y-8608196D02*
X7851537Y-8589149D01*
X7851537Y-8589149D02*
X7842013Y-8551053D01*
X7842013Y-8551053D02*
X7842013Y-8503434D01*
X7842013Y-8503434D02*
X7851537Y-8465339D01*
X7851537Y-8465339D02*
X7861061Y-8446291D01*
X7861061Y-8446291D02*
X7870584Y-8436768D01*
X7870584Y-8436768D02*
X7889632Y-8427244D01*
X8042013Y-8608196D02*
X8051537Y-8617720D01*
X8051537Y-8617720D02*
X8042013Y-8627244D01*
X8042013Y-8627244D02*
X8032489Y-8617720D01*
X8032489Y-8617720D02*
X8042013Y-8608196D01*
X8042013Y-8608196D02*
X8042013Y-8627244D01*
X8118203Y-8427244D02*
X8242013Y-8427244D01*
X8242013Y-8427244D02*
X8175346Y-8503434D01*
X8175346Y-8503434D02*
X8203918Y-8503434D01*
X8203918Y-8503434D02*
X8222965Y-8512958D01*
X8222965Y-8512958D02*
X8232489Y-8522482D01*
X8232489Y-8522482D02*
X8242013Y-8541530D01*
X8242013Y-8541530D02*
X8242013Y-8589149D01*
X8242013Y-8589149D02*
X8232489Y-8608196D01*
X8232489Y-8608196D02*
X8222965Y-8617720D01*
X8222965Y-8617720D02*
X8203918Y-8627244D01*
X8203918Y-8627244D02*
X8146775Y-8627244D01*
X8146775Y-8627244D02*
X8127727Y-8617720D01*
X8127727Y-8617720D02*
X8118203Y-8608196D01*
X8365822Y-8427244D02*
X8384870Y-8427244D01*
X8384870Y-8427244D02*
X8403918Y-8436768D01*
X8403918Y-8436768D02*
X8413442Y-8446291D01*
X8413442Y-8446291D02*
X8422965Y-8465339D01*
X8422965Y-8465339D02*
X8432489Y-8503434D01*
X8432489Y-8503434D02*
X8432489Y-8551053D01*
X8432489Y-8551053D02*
X8422965Y-8589149D01*
X8422965Y-8589149D02*
X8413442Y-8608196D01*
X8413442Y-8608196D02*
X8403918Y-8617720D01*
X8403918Y-8617720D02*
X8384870Y-8627244D01*
X8384870Y-8627244D02*
X8365822Y-8627244D01*
X8365822Y-8627244D02*
X8346775Y-8617720D01*
X8346775Y-8617720D02*
X8337251Y-8608196D01*
X8337251Y-8608196D02*
X8327727Y-8589149D01*
X8327727Y-8589149D02*
X8318203Y-8551053D01*
X8318203Y-8551053D02*
X8318203Y-8503434D01*
X8318203Y-8503434D02*
X8327727Y-8465339D01*
X8327727Y-8465339D02*
X8337251Y-8446291D01*
X8337251Y-8446291D02*
X8346775Y-8436768D01*
X8346775Y-8436768D02*
X8365822Y-8427244D01*
X8556299Y-8427244D02*
X8575346Y-8427244D01*
X8575346Y-8427244D02*
X8594394Y-8436768D01*
X8594394Y-8436768D02*
X8603918Y-8446291D01*
X8603918Y-8446291D02*
X8613442Y-8465339D01*
X8613442Y-8465339D02*
X8622965Y-8503434D01*
X8622965Y-8503434D02*
X8622965Y-8551053D01*
X8622965Y-8551053D02*
X8613442Y-8589149D01*
X8613442Y-8589149D02*
X8603918Y-8608196D01*
X8603918Y-8608196D02*
X8594394Y-8617720D01*
X8594394Y-8617720D02*
X8575346Y-8627244D01*
X8575346Y-8627244D02*
X8556299Y-8627244D01*
X8556299Y-8627244D02*
X8537251Y-8617720D01*
X8537251Y-8617720D02*
X8527727Y-8608196D01*
X8527727Y-8608196D02*
X8518204Y-8589149D01*
X8518204Y-8589149D02*
X8508680Y-8551053D01*
X8508680Y-8551053D02*
X8508680Y-8503434D01*
X8508680Y-8503434D02*
X8518204Y-8465339D01*
X8518204Y-8465339D02*
X8527727Y-8446291D01*
X8527727Y-8446291D02*
X8537251Y-8436768D01*
X8537251Y-8436768D02*
X8556299Y-8427244D01*
X8708680Y-8627244D02*
X8708680Y-8493910D01*
X8708680Y-8512958D02*
X8718204Y-8503434D01*
X8718204Y-8503434D02*
X8737251Y-8493910D01*
X8737251Y-8493910D02*
X8765823Y-8493910D01*
X8765823Y-8493910D02*
X8784870Y-8503434D01*
X8784870Y-8503434D02*
X8794394Y-8522482D01*
X8794394Y-8522482D02*
X8794394Y-8627244D01*
X8794394Y-8522482D02*
X8803918Y-8503434D01*
X8803918Y-8503434D02*
X8822965Y-8493910D01*
X8822965Y-8493910D02*
X8851537Y-8493910D01*
X8851537Y-8493910D02*
X8870585Y-8503434D01*
X8870585Y-8503434D02*
X8880108Y-8522482D01*
X8880108Y-8522482D02*
X8880108Y-8627244D01*
X8975346Y-8627244D02*
X8975346Y-8493910D01*
X8975346Y-8512958D02*
X8984870Y-8503434D01*
X8984870Y-8503434D02*
X9003918Y-8493910D01*
X9003918Y-8493910D02*
X9032489Y-8493910D01*
X9032489Y-8493910D02*
X9051537Y-8503434D01*
X9051537Y-8503434D02*
X9061061Y-8522482D01*
X9061061Y-8522482D02*
X9061061Y-8627244D01*
X9061061Y-8522482D02*
X9070585Y-8503434D01*
X9070585Y-8503434D02*
X9089632Y-8493910D01*
X9089632Y-8493910D02*
X9118204Y-8493910D01*
X9118204Y-8493910D02*
X9137251Y-8503434D01*
X9137251Y-8503434D02*
X9146775Y-8522482D01*
X9146775Y-8522482D02*
X9146775Y-8627244D01*
X9537251Y-8417720D02*
X9365823Y-8674863D01*
X9794394Y-8427244D02*
X9813442Y-8427244D01*
X9813442Y-8427244D02*
X9832489Y-8436768D01*
X9832489Y-8436768D02*
X9842013Y-8446291D01*
X9842013Y-8446291D02*
X9851537Y-8465339D01*
X9851537Y-8465339D02*
X9861061Y-8503434D01*
X9861061Y-8503434D02*
X9861061Y-8551053D01*
X9861061Y-8551053D02*
X9851537Y-8589149D01*
X9851537Y-8589149D02*
X9842013Y-8608196D01*
X9842013Y-8608196D02*
X9832489Y-8617720D01*
X9832489Y-8617720D02*
X9813442Y-8627244D01*
X9813442Y-8627244D02*
X9794394Y-8627244D01*
X9794394Y-8627244D02*
X9775347Y-8617720D01*
X9775347Y-8617720D02*
X9765823Y-8608196D01*
X9765823Y-8608196D02*
X9756299Y-8589149D01*
X9756299Y-8589149D02*
X9746775Y-8551053D01*
X9746775Y-8551053D02*
X9746775Y-8503434D01*
X9746775Y-8503434D02*
X9756299Y-8465339D01*
X9756299Y-8465339D02*
X9765823Y-8446291D01*
X9765823Y-8446291D02*
X9775347Y-8436768D01*
X9775347Y-8436768D02*
X9794394Y-8427244D01*
X9946775Y-8608196D02*
X9956299Y-8617720D01*
X9956299Y-8617720D02*
X9946775Y-8627244D01*
X9946775Y-8627244D02*
X9937251Y-8617720D01*
X9937251Y-8617720D02*
X9946775Y-8608196D01*
X9946775Y-8608196D02*
X9946775Y-8627244D01*
X10080108Y-8427244D02*
X10099156Y-8427244D01*
X10099156Y-8427244D02*
X10118204Y-8436768D01*
X10118204Y-8436768D02*
X10127728Y-8446291D01*
X10127728Y-8446291D02*
X10137251Y-8465339D01*
X10137251Y-8465339D02*
X10146775Y-8503434D01*
X10146775Y-8503434D02*
X10146775Y-8551053D01*
X10146775Y-8551053D02*
X10137251Y-8589149D01*
X10137251Y-8589149D02*
X10127728Y-8608196D01*
X10127728Y-8608196D02*
X10118204Y-8617720D01*
X10118204Y-8617720D02*
X10099156Y-8627244D01*
X10099156Y-8627244D02*
X10080108Y-8627244D01*
X10080108Y-8627244D02*
X10061061Y-8617720D01*
X10061061Y-8617720D02*
X10051537Y-8608196D01*
X10051537Y-8608196D02*
X10042013Y-8589149D01*
X10042013Y-8589149D02*
X10032489Y-8551053D01*
X10032489Y-8551053D02*
X10032489Y-8503434D01*
X10032489Y-8503434D02*
X10042013Y-8465339D01*
X10042013Y-8465339D02*
X10051537Y-8446291D01*
X10051537Y-8446291D02*
X10061061Y-8436768D01*
X10061061Y-8436768D02*
X10080108Y-8427244D01*
X10337251Y-8627244D02*
X10222966Y-8627244D01*
X10280108Y-8627244D02*
X10280108Y-8427244D01*
X10280108Y-8427244D02*
X10261061Y-8455815D01*
X10261061Y-8455815D02*
X10242013Y-8474863D01*
X10242013Y-8474863D02*
X10222966Y-8484387D01*
X10527728Y-8627244D02*
X10413442Y-8627244D01*
X10470585Y-8627244D02*
X10470585Y-8427244D01*
X10470585Y-8427244D02*
X10451537Y-8455815D01*
X10451537Y-8455815D02*
X10432489Y-8474863D01*
X10432489Y-8474863D02*
X10413442Y-8484387D01*
X10642013Y-8512958D02*
X10622966Y-8503434D01*
X10622966Y-8503434D02*
X10613442Y-8493910D01*
X10613442Y-8493910D02*
X10603918Y-8474863D01*
X10603918Y-8474863D02*
X10603918Y-8465339D01*
X10603918Y-8465339D02*
X10613442Y-8446291D01*
X10613442Y-8446291D02*
X10622966Y-8436768D01*
X10622966Y-8436768D02*
X10642013Y-8427244D01*
X10642013Y-8427244D02*
X10680109Y-8427244D01*
X10680109Y-8427244D02*
X10699156Y-8436768D01*
X10699156Y-8436768D02*
X10708680Y-8446291D01*
X10708680Y-8446291D02*
X10718204Y-8465339D01*
X10718204Y-8465339D02*
X10718204Y-8474863D01*
X10718204Y-8474863D02*
X10708680Y-8493910D01*
X10708680Y-8493910D02*
X10699156Y-8503434D01*
X10699156Y-8503434D02*
X10680109Y-8512958D01*
X10680109Y-8512958D02*
X10642013Y-8512958D01*
X10642013Y-8512958D02*
X10622966Y-8522482D01*
X10622966Y-8522482D02*
X10613442Y-8532006D01*
X10613442Y-8532006D02*
X10603918Y-8551053D01*
X10603918Y-8551053D02*
X10603918Y-8589149D01*
X10603918Y-8589149D02*
X10613442Y-8608196D01*
X10613442Y-8608196D02*
X10622966Y-8617720D01*
X10622966Y-8617720D02*
X10642013Y-8627244D01*
X10642013Y-8627244D02*
X10680109Y-8627244D01*
X10680109Y-8627244D02*
X10699156Y-8617720D01*
X10699156Y-8617720D02*
X10708680Y-8608196D01*
X10708680Y-8608196D02*
X10718204Y-8589149D01*
X10718204Y-8589149D02*
X10718204Y-8551053D01*
X10718204Y-8551053D02*
X10708680Y-8532006D01*
X10708680Y-8532006D02*
X10699156Y-8522482D01*
X10699156Y-8522482D02*
X10680109Y-8512958D01*
X10794394Y-8427244D02*
X10794394Y-8465339D01*
X10870585Y-8427244D02*
X10870585Y-8465339D01*
X11165823Y-8703434D02*
X11156299Y-8693910D01*
X11156299Y-8693910D02*
X11137251Y-8665339D01*
X11137251Y-8665339D02*
X11127728Y-8646291D01*
X11127728Y-8646291D02*
X11118204Y-8617720D01*
X11118204Y-8617720D02*
X11108680Y-8570101D01*
X11108680Y-8570101D02*
X11108680Y-8532006D01*
X11108680Y-8532006D02*
X11118204Y-8484387D01*
X11118204Y-8484387D02*
X11127728Y-8455815D01*
X11127728Y-8455815D02*
X11137251Y-8436768D01*
X11137251Y-8436768D02*
X11156299Y-8408196D01*
X11156299Y-8408196D02*
X11165823Y-8398672D01*
X11346775Y-8627244D02*
X11232489Y-8627244D01*
X11289632Y-8627244D02*
X11289632Y-8427244D01*
X11289632Y-8427244D02*
X11270585Y-8455815D01*
X11270585Y-8455815D02*
X11251537Y-8474863D01*
X11251537Y-8474863D02*
X11232489Y-8484387D01*
X11422966Y-8446291D02*
X11432489Y-8436768D01*
X11432489Y-8436768D02*
X11451537Y-8427244D01*
X11451537Y-8427244D02*
X11499156Y-8427244D01*
X11499156Y-8427244D02*
X11518204Y-8436768D01*
X11518204Y-8436768D02*
X11527728Y-8446291D01*
X11527728Y-8446291D02*
X11537251Y-8465339D01*
X11537251Y-8465339D02*
X11537251Y-8484387D01*
X11537251Y-8484387D02*
X11527728Y-8512958D01*
X11527728Y-8512958D02*
X11413442Y-8627244D01*
X11413442Y-8627244D02*
X11537251Y-8627244D01*
X11632489Y-8627244D02*
X11670585Y-8627244D01*
X11670585Y-8627244D02*
X11689632Y-8617720D01*
X11689632Y-8617720D02*
X11699156Y-8608196D01*
X11699156Y-8608196D02*
X11718204Y-8579625D01*
X11718204Y-8579625D02*
X11727728Y-8541530D01*
X11727728Y-8541530D02*
X11727728Y-8465339D01*
X11727728Y-8465339D02*
X11718204Y-8446291D01*
X11718204Y-8446291D02*
X11708680Y-8436768D01*
X11708680Y-8436768D02*
X11689632Y-8427244D01*
X11689632Y-8427244D02*
X11651537Y-8427244D01*
X11651537Y-8427244D02*
X11632489Y-8436768D01*
X11632489Y-8436768D02*
X11622966Y-8446291D01*
X11622966Y-8446291D02*
X11613442Y-8465339D01*
X11613442Y-8465339D02*
X11613442Y-8512958D01*
X11613442Y-8512958D02*
X11622966Y-8532006D01*
X11622966Y-8532006D02*
X11632489Y-8541530D01*
X11632489Y-8541530D02*
X11651537Y-8551053D01*
X11651537Y-8551053D02*
X11689632Y-8551053D01*
X11689632Y-8551053D02*
X11708680Y-8541530D01*
X11708680Y-8541530D02*
X11718204Y-8532006D01*
X11718204Y-8532006D02*
X11727728Y-8512958D01*
X11965823Y-8627244D02*
X11965823Y-8427244D01*
X12051537Y-8627244D02*
X12051537Y-8522482D01*
X12051537Y-8522482D02*
X12042013Y-8503434D01*
X12042013Y-8503434D02*
X12022966Y-8493910D01*
X12022966Y-8493910D02*
X11994394Y-8493910D01*
X11994394Y-8493910D02*
X11975347Y-8503434D01*
X11975347Y-8503434D02*
X11965823Y-8512958D01*
X12175347Y-8627244D02*
X12156299Y-8617720D01*
X12156299Y-8617720D02*
X12146775Y-8608196D01*
X12146775Y-8608196D02*
X12137251Y-8589149D01*
X12137251Y-8589149D02*
X12137251Y-8532006D01*
X12137251Y-8532006D02*
X12146775Y-8512958D01*
X12146775Y-8512958D02*
X12156299Y-8503434D01*
X12156299Y-8503434D02*
X12175347Y-8493910D01*
X12175347Y-8493910D02*
X12203918Y-8493910D01*
X12203918Y-8493910D02*
X12222966Y-8503434D01*
X12222966Y-8503434D02*
X12232490Y-8512958D01*
X12232490Y-8512958D02*
X12242013Y-8532006D01*
X12242013Y-8532006D02*
X12242013Y-8589149D01*
X12242013Y-8589149D02*
X12232490Y-8608196D01*
X12232490Y-8608196D02*
X12222966Y-8617720D01*
X12222966Y-8617720D02*
X12203918Y-8627244D01*
X12203918Y-8627244D02*
X12175347Y-8627244D01*
X12356299Y-8627244D02*
X12337251Y-8617720D01*
X12337251Y-8617720D02*
X12327728Y-8598672D01*
X12327728Y-8598672D02*
X12327728Y-8427244D01*
X12508680Y-8617720D02*
X12489632Y-8627244D01*
X12489632Y-8627244D02*
X12451537Y-8627244D01*
X12451537Y-8627244D02*
X12432490Y-8617720D01*
X12432490Y-8617720D02*
X12422966Y-8598672D01*
X12422966Y-8598672D02*
X12422966Y-8522482D01*
X12422966Y-8522482D02*
X12432490Y-8503434D01*
X12432490Y-8503434D02*
X12451537Y-8493910D01*
X12451537Y-8493910D02*
X12489632Y-8493910D01*
X12489632Y-8493910D02*
X12508680Y-8503434D01*
X12508680Y-8503434D02*
X12518204Y-8522482D01*
X12518204Y-8522482D02*
X12518204Y-8541530D01*
X12518204Y-8541530D02*
X12422966Y-8560577D01*
X12594394Y-8617720D02*
X12613442Y-8627244D01*
X12613442Y-8627244D02*
X12651537Y-8627244D01*
X12651537Y-8627244D02*
X12670585Y-8617720D01*
X12670585Y-8617720D02*
X12680109Y-8598672D01*
X12680109Y-8598672D02*
X12680109Y-8589149D01*
X12680109Y-8589149D02*
X12670585Y-8570101D01*
X12670585Y-8570101D02*
X12651537Y-8560577D01*
X12651537Y-8560577D02*
X12622966Y-8560577D01*
X12622966Y-8560577D02*
X12603918Y-8551053D01*
X12603918Y-8551053D02*
X12594394Y-8532006D01*
X12594394Y-8532006D02*
X12594394Y-8522482D01*
X12594394Y-8522482D02*
X12603918Y-8503434D01*
X12603918Y-8503434D02*
X12622966Y-8493910D01*
X12622966Y-8493910D02*
X12651537Y-8493910D01*
X12651537Y-8493910D02*
X12670585Y-8503434D01*
X12746775Y-8703434D02*
X12756299Y-8693910D01*
X12756299Y-8693910D02*
X12775347Y-8665339D01*
X12775347Y-8665339D02*
X12784871Y-8646291D01*
X12784871Y-8646291D02*
X12794394Y-8617720D01*
X12794394Y-8617720D02*
X12803918Y-8570101D01*
X12803918Y-8570101D02*
X12803918Y-8532006D01*
X12803918Y-8532006D02*
X12794394Y-8484387D01*
X12794394Y-8484387D02*
X12784871Y-8455815D01*
X12784871Y-8455815D02*
X12775347Y-8436768D01*
X12775347Y-8436768D02*
X12756299Y-8408196D01*
X12756299Y-8408196D02*
X12746775Y-8398672D01*
D12*
X7581973Y-8820973D02*
X7581973Y-8778547D01*
X7539547Y-8778547D01*
X7539547Y-8820973D01*
X7581973Y-8820973D01*
D11*
X7889632Y-8691244D02*
X7908680Y-8691244D01*
X7908680Y-8691244D02*
X7927727Y-8700768D01*
X7927727Y-8700768D02*
X7937251Y-8710291D01*
X7937251Y-8710291D02*
X7946775Y-8729339D01*
X7946775Y-8729339D02*
X7956299Y-8767434D01*
X7956299Y-8767434D02*
X7956299Y-8815053D01*
X7956299Y-8815053D02*
X7946775Y-8853149D01*
X7946775Y-8853149D02*
X7937251Y-8872196D01*
X7937251Y-8872196D02*
X7927727Y-8881720D01*
X7927727Y-8881720D02*
X7908680Y-8891244D01*
X7908680Y-8891244D02*
X7889632Y-8891244D01*
X7889632Y-8891244D02*
X7870584Y-8881720D01*
X7870584Y-8881720D02*
X7861061Y-8872196D01*
X7861061Y-8872196D02*
X7851537Y-8853149D01*
X7851537Y-8853149D02*
X7842013Y-8815053D01*
X7842013Y-8815053D02*
X7842013Y-8767434D01*
X7842013Y-8767434D02*
X7851537Y-8729339D01*
X7851537Y-8729339D02*
X7861061Y-8710291D01*
X7861061Y-8710291D02*
X7870584Y-8700768D01*
X7870584Y-8700768D02*
X7889632Y-8691244D01*
X8042013Y-8872196D02*
X8051537Y-8881720D01*
X8051537Y-8881720D02*
X8042013Y-8891244D01*
X8042013Y-8891244D02*
X8032489Y-8881720D01*
X8032489Y-8881720D02*
X8042013Y-8872196D01*
X8042013Y-8872196D02*
X8042013Y-8891244D01*
X8222965Y-8691244D02*
X8184870Y-8691244D01*
X8184870Y-8691244D02*
X8165822Y-8700768D01*
X8165822Y-8700768D02*
X8156299Y-8710291D01*
X8156299Y-8710291D02*
X8137251Y-8738863D01*
X8137251Y-8738863D02*
X8127727Y-8776958D01*
X8127727Y-8776958D02*
X8127727Y-8853149D01*
X8127727Y-8853149D02*
X8137251Y-8872196D01*
X8137251Y-8872196D02*
X8146775Y-8881720D01*
X8146775Y-8881720D02*
X8165822Y-8891244D01*
X8165822Y-8891244D02*
X8203918Y-8891244D01*
X8203918Y-8891244D02*
X8222965Y-8881720D01*
X8222965Y-8881720D02*
X8232489Y-8872196D01*
X8232489Y-8872196D02*
X8242013Y-8853149D01*
X8242013Y-8853149D02*
X8242013Y-8805530D01*
X8242013Y-8805530D02*
X8232489Y-8786482D01*
X8232489Y-8786482D02*
X8222965Y-8776958D01*
X8222965Y-8776958D02*
X8203918Y-8767434D01*
X8203918Y-8767434D02*
X8165822Y-8767434D01*
X8165822Y-8767434D02*
X8146775Y-8776958D01*
X8146775Y-8776958D02*
X8137251Y-8786482D01*
X8137251Y-8786482D02*
X8127727Y-8805530D01*
X8365822Y-8691244D02*
X8384870Y-8691244D01*
X8384870Y-8691244D02*
X8403918Y-8700768D01*
X8403918Y-8700768D02*
X8413442Y-8710291D01*
X8413442Y-8710291D02*
X8422965Y-8729339D01*
X8422965Y-8729339D02*
X8432489Y-8767434D01*
X8432489Y-8767434D02*
X8432489Y-8815053D01*
X8432489Y-8815053D02*
X8422965Y-8853149D01*
X8422965Y-8853149D02*
X8413442Y-8872196D01*
X8413442Y-8872196D02*
X8403918Y-8881720D01*
X8403918Y-8881720D02*
X8384870Y-8891244D01*
X8384870Y-8891244D02*
X8365822Y-8891244D01*
X8365822Y-8891244D02*
X8346775Y-8881720D01*
X8346775Y-8881720D02*
X8337251Y-8872196D01*
X8337251Y-8872196D02*
X8327727Y-8853149D01*
X8327727Y-8853149D02*
X8318203Y-8815053D01*
X8318203Y-8815053D02*
X8318203Y-8767434D01*
X8318203Y-8767434D02*
X8327727Y-8729339D01*
X8327727Y-8729339D02*
X8337251Y-8710291D01*
X8337251Y-8710291D02*
X8346775Y-8700768D01*
X8346775Y-8700768D02*
X8365822Y-8691244D01*
X8556299Y-8691244D02*
X8575346Y-8691244D01*
X8575346Y-8691244D02*
X8594394Y-8700768D01*
X8594394Y-8700768D02*
X8603918Y-8710291D01*
X8603918Y-8710291D02*
X8613442Y-8729339D01*
X8613442Y-8729339D02*
X8622965Y-8767434D01*
X8622965Y-8767434D02*
X8622965Y-8815053D01*
X8622965Y-8815053D02*
X8613442Y-8853149D01*
X8613442Y-8853149D02*
X8603918Y-8872196D01*
X8603918Y-8872196D02*
X8594394Y-8881720D01*
X8594394Y-8881720D02*
X8575346Y-8891244D01*
X8575346Y-8891244D02*
X8556299Y-8891244D01*
X8556299Y-8891244D02*
X8537251Y-8881720D01*
X8537251Y-8881720D02*
X8527727Y-8872196D01*
X8527727Y-8872196D02*
X8518204Y-8853149D01*
X8518204Y-8853149D02*
X8508680Y-8815053D01*
X8508680Y-8815053D02*
X8508680Y-8767434D01*
X8508680Y-8767434D02*
X8518204Y-8729339D01*
X8518204Y-8729339D02*
X8527727Y-8710291D01*
X8527727Y-8710291D02*
X8537251Y-8700768D01*
X8537251Y-8700768D02*
X8556299Y-8691244D01*
X8708680Y-8891244D02*
X8708680Y-8757910D01*
X8708680Y-8776958D02*
X8718204Y-8767434D01*
X8718204Y-8767434D02*
X8737251Y-8757910D01*
X8737251Y-8757910D02*
X8765823Y-8757910D01*
X8765823Y-8757910D02*
X8784870Y-8767434D01*
X8784870Y-8767434D02*
X8794394Y-8786482D01*
X8794394Y-8786482D02*
X8794394Y-8891244D01*
X8794394Y-8786482D02*
X8803918Y-8767434D01*
X8803918Y-8767434D02*
X8822965Y-8757910D01*
X8822965Y-8757910D02*
X8851537Y-8757910D01*
X8851537Y-8757910D02*
X8870585Y-8767434D01*
X8870585Y-8767434D02*
X8880108Y-8786482D01*
X8880108Y-8786482D02*
X8880108Y-8891244D01*
X8975346Y-8891244D02*
X8975346Y-8757910D01*
X8975346Y-8776958D02*
X8984870Y-8767434D01*
X8984870Y-8767434D02*
X9003918Y-8757910D01*
X9003918Y-8757910D02*
X9032489Y-8757910D01*
X9032489Y-8757910D02*
X9051537Y-8767434D01*
X9051537Y-8767434D02*
X9061061Y-8786482D01*
X9061061Y-8786482D02*
X9061061Y-8891244D01*
X9061061Y-8786482D02*
X9070585Y-8767434D01*
X9070585Y-8767434D02*
X9089632Y-8757910D01*
X9089632Y-8757910D02*
X9118204Y-8757910D01*
X9118204Y-8757910D02*
X9137251Y-8767434D01*
X9137251Y-8767434D02*
X9146775Y-8786482D01*
X9146775Y-8786482D02*
X9146775Y-8891244D01*
X9537251Y-8681720D02*
X9365823Y-8938863D01*
X9794394Y-8691244D02*
X9813442Y-8691244D01*
X9813442Y-8691244D02*
X9832489Y-8700768D01*
X9832489Y-8700768D02*
X9842013Y-8710291D01*
X9842013Y-8710291D02*
X9851537Y-8729339D01*
X9851537Y-8729339D02*
X9861061Y-8767434D01*
X9861061Y-8767434D02*
X9861061Y-8815053D01*
X9861061Y-8815053D02*
X9851537Y-8853149D01*
X9851537Y-8853149D02*
X9842013Y-8872196D01*
X9842013Y-8872196D02*
X9832489Y-8881720D01*
X9832489Y-8881720D02*
X9813442Y-8891244D01*
X9813442Y-8891244D02*
X9794394Y-8891244D01*
X9794394Y-8891244D02*
X9775347Y-8881720D01*
X9775347Y-8881720D02*
X9765823Y-8872196D01*
X9765823Y-8872196D02*
X9756299Y-8853149D01*
X9756299Y-8853149D02*
X9746775Y-8815053D01*
X9746775Y-8815053D02*
X9746775Y-8767434D01*
X9746775Y-8767434D02*
X9756299Y-8729339D01*
X9756299Y-8729339D02*
X9765823Y-8710291D01*
X9765823Y-8710291D02*
X9775347Y-8700768D01*
X9775347Y-8700768D02*
X9794394Y-8691244D01*
X9946775Y-8872196D02*
X9956299Y-8881720D01*
X9956299Y-8881720D02*
X9946775Y-8891244D01*
X9946775Y-8891244D02*
X9937251Y-8881720D01*
X9937251Y-8881720D02*
X9946775Y-8872196D01*
X9946775Y-8872196D02*
X9946775Y-8891244D01*
X10080108Y-8691244D02*
X10099156Y-8691244D01*
X10099156Y-8691244D02*
X10118204Y-8700768D01*
X10118204Y-8700768D02*
X10127728Y-8710291D01*
X10127728Y-8710291D02*
X10137251Y-8729339D01*
X10137251Y-8729339D02*
X10146775Y-8767434D01*
X10146775Y-8767434D02*
X10146775Y-8815053D01*
X10146775Y-8815053D02*
X10137251Y-8853149D01*
X10137251Y-8853149D02*
X10127728Y-8872196D01*
X10127728Y-8872196D02*
X10118204Y-8881720D01*
X10118204Y-8881720D02*
X10099156Y-8891244D01*
X10099156Y-8891244D02*
X10080108Y-8891244D01*
X10080108Y-8891244D02*
X10061061Y-8881720D01*
X10061061Y-8881720D02*
X10051537Y-8872196D01*
X10051537Y-8872196D02*
X10042013Y-8853149D01*
X10042013Y-8853149D02*
X10032489Y-8815053D01*
X10032489Y-8815053D02*
X10032489Y-8767434D01*
X10032489Y-8767434D02*
X10042013Y-8729339D01*
X10042013Y-8729339D02*
X10051537Y-8710291D01*
X10051537Y-8710291D02*
X10061061Y-8700768D01*
X10061061Y-8700768D02*
X10080108Y-8691244D01*
X10222966Y-8710291D02*
X10232489Y-8700768D01*
X10232489Y-8700768D02*
X10251537Y-8691244D01*
X10251537Y-8691244D02*
X10299156Y-8691244D01*
X10299156Y-8691244D02*
X10318204Y-8700768D01*
X10318204Y-8700768D02*
X10327728Y-8710291D01*
X10327728Y-8710291D02*
X10337251Y-8729339D01*
X10337251Y-8729339D02*
X10337251Y-8748387D01*
X10337251Y-8748387D02*
X10327728Y-8776958D01*
X10327728Y-8776958D02*
X10213442Y-8891244D01*
X10213442Y-8891244D02*
X10337251Y-8891244D01*
X10403918Y-8691244D02*
X10527728Y-8691244D01*
X10527728Y-8691244D02*
X10461061Y-8767434D01*
X10461061Y-8767434D02*
X10489632Y-8767434D01*
X10489632Y-8767434D02*
X10508680Y-8776958D01*
X10508680Y-8776958D02*
X10518204Y-8786482D01*
X10518204Y-8786482D02*
X10527728Y-8805530D01*
X10527728Y-8805530D02*
X10527728Y-8853149D01*
X10527728Y-8853149D02*
X10518204Y-8872196D01*
X10518204Y-8872196D02*
X10508680Y-8881720D01*
X10508680Y-8881720D02*
X10489632Y-8891244D01*
X10489632Y-8891244D02*
X10432489Y-8891244D01*
X10432489Y-8891244D02*
X10413442Y-8881720D01*
X10413442Y-8881720D02*
X10403918Y-8872196D01*
X10699156Y-8691244D02*
X10661061Y-8691244D01*
X10661061Y-8691244D02*
X10642013Y-8700768D01*
X10642013Y-8700768D02*
X10632489Y-8710291D01*
X10632489Y-8710291D02*
X10613442Y-8738863D01*
X10613442Y-8738863D02*
X10603918Y-8776958D01*
X10603918Y-8776958D02*
X10603918Y-8853149D01*
X10603918Y-8853149D02*
X10613442Y-8872196D01*
X10613442Y-8872196D02*
X10622966Y-8881720D01*
X10622966Y-8881720D02*
X10642013Y-8891244D01*
X10642013Y-8891244D02*
X10680109Y-8891244D01*
X10680109Y-8891244D02*
X10699156Y-8881720D01*
X10699156Y-8881720D02*
X10708680Y-8872196D01*
X10708680Y-8872196D02*
X10718204Y-8853149D01*
X10718204Y-8853149D02*
X10718204Y-8805530D01*
X10718204Y-8805530D02*
X10708680Y-8786482D01*
X10708680Y-8786482D02*
X10699156Y-8776958D01*
X10699156Y-8776958D02*
X10680109Y-8767434D01*
X10680109Y-8767434D02*
X10642013Y-8767434D01*
X10642013Y-8767434D02*
X10622966Y-8776958D01*
X10622966Y-8776958D02*
X10613442Y-8786482D01*
X10613442Y-8786482D02*
X10603918Y-8805530D01*
X10794394Y-8691244D02*
X10794394Y-8729339D01*
X10870585Y-8691244D02*
X10870585Y-8729339D01*
X11165823Y-8967434D02*
X11156299Y-8957910D01*
X11156299Y-8957910D02*
X11137251Y-8929339D01*
X11137251Y-8929339D02*
X11127728Y-8910291D01*
X11127728Y-8910291D02*
X11118204Y-8881720D01*
X11118204Y-8881720D02*
X11108680Y-8834101D01*
X11108680Y-8834101D02*
X11108680Y-8796006D01*
X11108680Y-8796006D02*
X11118204Y-8748387D01*
X11118204Y-8748387D02*
X11127728Y-8719815D01*
X11127728Y-8719815D02*
X11137251Y-8700768D01*
X11137251Y-8700768D02*
X11156299Y-8672196D01*
X11156299Y-8672196D02*
X11165823Y-8662672D01*
X11280108Y-8691244D02*
X11299156Y-8691244D01*
X11299156Y-8691244D02*
X11318204Y-8700768D01*
X11318204Y-8700768D02*
X11327728Y-8710291D01*
X11327728Y-8710291D02*
X11337251Y-8729339D01*
X11337251Y-8729339D02*
X11346775Y-8767434D01*
X11346775Y-8767434D02*
X11346775Y-8815053D01*
X11346775Y-8815053D02*
X11337251Y-8853149D01*
X11337251Y-8853149D02*
X11327728Y-8872196D01*
X11327728Y-8872196D02*
X11318204Y-8881720D01*
X11318204Y-8881720D02*
X11299156Y-8891244D01*
X11299156Y-8891244D02*
X11280108Y-8891244D01*
X11280108Y-8891244D02*
X11261061Y-8881720D01*
X11261061Y-8881720D02*
X11251537Y-8872196D01*
X11251537Y-8872196D02*
X11242013Y-8853149D01*
X11242013Y-8853149D02*
X11232489Y-8815053D01*
X11232489Y-8815053D02*
X11232489Y-8767434D01*
X11232489Y-8767434D02*
X11242013Y-8729339D01*
X11242013Y-8729339D02*
X11251537Y-8710291D01*
X11251537Y-8710291D02*
X11261061Y-8700768D01*
X11261061Y-8700768D02*
X11280108Y-8691244D01*
X11584870Y-8891244D02*
X11584870Y-8691244D01*
X11670585Y-8891244D02*
X11670585Y-8786482D01*
X11670585Y-8786482D02*
X11661061Y-8767434D01*
X11661061Y-8767434D02*
X11642013Y-8757910D01*
X11642013Y-8757910D02*
X11613442Y-8757910D01*
X11613442Y-8757910D02*
X11594394Y-8767434D01*
X11594394Y-8767434D02*
X11584870Y-8776958D01*
X11794394Y-8891244D02*
X11775347Y-8881720D01*
X11775347Y-8881720D02*
X11765823Y-8872196D01*
X11765823Y-8872196D02*
X11756299Y-8853149D01*
X11756299Y-8853149D02*
X11756299Y-8796006D01*
X11756299Y-8796006D02*
X11765823Y-8776958D01*
X11765823Y-8776958D02*
X11775347Y-8767434D01*
X11775347Y-8767434D02*
X11794394Y-8757910D01*
X11794394Y-8757910D02*
X11822966Y-8757910D01*
X11822966Y-8757910D02*
X11842013Y-8767434D01*
X11842013Y-8767434D02*
X11851537Y-8776958D01*
X11851537Y-8776958D02*
X11861061Y-8796006D01*
X11861061Y-8796006D02*
X11861061Y-8853149D01*
X11861061Y-8853149D02*
X11851537Y-8872196D01*
X11851537Y-8872196D02*
X11842013Y-8881720D01*
X11842013Y-8881720D02*
X11822966Y-8891244D01*
X11822966Y-8891244D02*
X11794394Y-8891244D01*
X11975347Y-8891244D02*
X11956299Y-8881720D01*
X11956299Y-8881720D02*
X11946775Y-8862672D01*
X11946775Y-8862672D02*
X11946775Y-8691244D01*
X12127728Y-8881720D02*
X12108680Y-8891244D01*
X12108680Y-8891244D02*
X12070585Y-8891244D01*
X12070585Y-8891244D02*
X12051537Y-8881720D01*
X12051537Y-8881720D02*
X12042013Y-8862672D01*
X12042013Y-8862672D02*
X12042013Y-8786482D01*
X12042013Y-8786482D02*
X12051537Y-8767434D01*
X12051537Y-8767434D02*
X12070585Y-8757910D01*
X12070585Y-8757910D02*
X12108680Y-8757910D01*
X12108680Y-8757910D02*
X12127728Y-8767434D01*
X12127728Y-8767434D02*
X12137251Y-8786482D01*
X12137251Y-8786482D02*
X12137251Y-8805530D01*
X12137251Y-8805530D02*
X12042013Y-8824577D01*
X12213442Y-8881720D02*
X12232490Y-8891244D01*
X12232490Y-8891244D02*
X12270585Y-8891244D01*
X12270585Y-8891244D02*
X12289632Y-8881720D01*
X12289632Y-8881720D02*
X12299156Y-8862672D01*
X12299156Y-8862672D02*
X12299156Y-8853149D01*
X12299156Y-8853149D02*
X12289632Y-8834101D01*
X12289632Y-8834101D02*
X12270585Y-8824577D01*
X12270585Y-8824577D02*
X12242013Y-8824577D01*
X12242013Y-8824577D02*
X12222966Y-8815053D01*
X12222966Y-8815053D02*
X12213442Y-8796006D01*
X12213442Y-8796006D02*
X12213442Y-8786482D01*
X12213442Y-8786482D02*
X12222966Y-8767434D01*
X12222966Y-8767434D02*
X12242013Y-8757910D01*
X12242013Y-8757910D02*
X12270585Y-8757910D01*
X12270585Y-8757910D02*
X12289632Y-8767434D01*
X12537252Y-8815053D02*
X12689633Y-8815053D01*
X12613442Y-8891244D02*
X12613442Y-8738863D01*
X13022966Y-8757910D02*
X13022966Y-8891244D01*
X12975347Y-8681720D02*
X12927728Y-8824577D01*
X12927728Y-8824577D02*
X13051537Y-8824577D01*
X13270585Y-8881720D02*
X13289633Y-8891244D01*
X13289633Y-8891244D02*
X13327728Y-8891244D01*
X13327728Y-8891244D02*
X13346775Y-8881720D01*
X13346775Y-8881720D02*
X13356299Y-8862672D01*
X13356299Y-8862672D02*
X13356299Y-8853149D01*
X13356299Y-8853149D02*
X13346775Y-8834101D01*
X13346775Y-8834101D02*
X13327728Y-8824577D01*
X13327728Y-8824577D02*
X13299156Y-8824577D01*
X13299156Y-8824577D02*
X13280109Y-8815053D01*
X13280109Y-8815053D02*
X13270585Y-8796006D01*
X13270585Y-8796006D02*
X13270585Y-8786482D01*
X13270585Y-8786482D02*
X13280109Y-8767434D01*
X13280109Y-8767434D02*
X13299156Y-8757910D01*
X13299156Y-8757910D02*
X13327728Y-8757910D01*
X13327728Y-8757910D02*
X13346775Y-8767434D01*
X13470585Y-8891244D02*
X13451537Y-8881720D01*
X13451537Y-8881720D02*
X13442014Y-8862672D01*
X13442014Y-8862672D02*
X13442014Y-8691244D01*
X13575347Y-8891244D02*
X13556299Y-8881720D01*
X13556299Y-8881720D02*
X13546775Y-8872196D01*
X13546775Y-8872196D02*
X13537252Y-8853149D01*
X13537252Y-8853149D02*
X13537252Y-8796006D01*
X13537252Y-8796006D02*
X13546775Y-8776958D01*
X13546775Y-8776958D02*
X13556299Y-8767434D01*
X13556299Y-8767434D02*
X13575347Y-8757910D01*
X13575347Y-8757910D02*
X13603918Y-8757910D01*
X13603918Y-8757910D02*
X13622966Y-8767434D01*
X13622966Y-8767434D02*
X13632490Y-8776958D01*
X13632490Y-8776958D02*
X13642014Y-8796006D01*
X13642014Y-8796006D02*
X13642014Y-8853149D01*
X13642014Y-8853149D02*
X13632490Y-8872196D01*
X13632490Y-8872196D02*
X13622966Y-8881720D01*
X13622966Y-8881720D02*
X13603918Y-8891244D01*
X13603918Y-8891244D02*
X13575347Y-8891244D01*
X13699156Y-8757910D02*
X13775347Y-8757910D01*
X13727728Y-8691244D02*
X13727728Y-8862672D01*
X13727728Y-8862672D02*
X13737252Y-8881720D01*
X13737252Y-8881720D02*
X13756299Y-8891244D01*
X13756299Y-8891244D02*
X13775347Y-8891244D01*
X13832490Y-8881720D02*
X13851537Y-8891244D01*
X13851537Y-8891244D02*
X13889633Y-8891244D01*
X13889633Y-8891244D02*
X13908680Y-8881720D01*
X13908680Y-8881720D02*
X13918204Y-8862672D01*
X13918204Y-8862672D02*
X13918204Y-8853149D01*
X13918204Y-8853149D02*
X13908680Y-8834101D01*
X13908680Y-8834101D02*
X13889633Y-8824577D01*
X13889633Y-8824577D02*
X13861061Y-8824577D01*
X13861061Y-8824577D02*
X13842014Y-8815053D01*
X13842014Y-8815053D02*
X13832490Y-8796006D01*
X13832490Y-8796006D02*
X13832490Y-8786482D01*
X13832490Y-8786482D02*
X13842014Y-8767434D01*
X13842014Y-8767434D02*
X13861061Y-8757910D01*
X13861061Y-8757910D02*
X13889633Y-8757910D01*
X13889633Y-8757910D02*
X13908680Y-8767434D01*
X13984871Y-8967434D02*
X13994395Y-8957910D01*
X13994395Y-8957910D02*
X14013442Y-8929339D01*
X14013442Y-8929339D02*
X14022966Y-8910291D01*
X14022966Y-8910291D02*
X14032490Y-8881720D01*
X14032490Y-8881720D02*
X14042014Y-8834101D01*
X14042014Y-8834101D02*
X14042014Y-8796006D01*
X14042014Y-8796006D02*
X14032490Y-8748387D01*
X14032490Y-8748387D02*
X14022966Y-8719815D01*
X14022966Y-8719815D02*
X14013442Y-8700768D01*
X14013442Y-8700768D02*
X13994395Y-8672196D01*
X13994395Y-8672196D02*
X13984871Y-8662672D01*
D12*
X7555200Y-9099320D02*
X7590760Y-9063760D01*
X7555200Y-9028200D01*
X7519640Y-9063760D01*
X7555200Y-9099320D01*
D11*
X7889632Y-8955244D02*
X7908680Y-8955244D01*
X7908680Y-8955244D02*
X7927727Y-8964768D01*
X7927727Y-8964768D02*
X7937251Y-8974291D01*
X7937251Y-8974291D02*
X7946775Y-8993339D01*
X7946775Y-8993339D02*
X7956299Y-9031434D01*
X7956299Y-9031434D02*
X7956299Y-9079053D01*
X7956299Y-9079053D02*
X7946775Y-9117149D01*
X7946775Y-9117149D02*
X7937251Y-9136196D01*
X7937251Y-9136196D02*
X7927727Y-9145720D01*
X7927727Y-9145720D02*
X7908680Y-9155244D01*
X7908680Y-9155244D02*
X7889632Y-9155244D01*
X7889632Y-9155244D02*
X7870584Y-9145720D01*
X7870584Y-9145720D02*
X7861061Y-9136196D01*
X7861061Y-9136196D02*
X7851537Y-9117149D01*
X7851537Y-9117149D02*
X7842013Y-9079053D01*
X7842013Y-9079053D02*
X7842013Y-9031434D01*
X7842013Y-9031434D02*
X7851537Y-8993339D01*
X7851537Y-8993339D02*
X7861061Y-8974291D01*
X7861061Y-8974291D02*
X7870584Y-8964768D01*
X7870584Y-8964768D02*
X7889632Y-8955244D01*
X8042013Y-9136196D02*
X8051537Y-9145720D01*
X8051537Y-9145720D02*
X8042013Y-9155244D01*
X8042013Y-9155244D02*
X8032489Y-9145720D01*
X8032489Y-9145720D02*
X8042013Y-9136196D01*
X8042013Y-9136196D02*
X8042013Y-9155244D01*
X8118203Y-8955244D02*
X8251537Y-8955244D01*
X8251537Y-8955244D02*
X8165822Y-9155244D01*
X8432489Y-9155244D02*
X8318203Y-9155244D01*
X8375346Y-9155244D02*
X8375346Y-8955244D01*
X8375346Y-8955244D02*
X8356299Y-8983815D01*
X8356299Y-8983815D02*
X8337251Y-9002863D01*
X8337251Y-9002863D02*
X8318203Y-9012387D01*
X8622965Y-9155244D02*
X8508680Y-9155244D01*
X8565823Y-9155244D02*
X8565823Y-8955244D01*
X8565823Y-8955244D02*
X8546775Y-8983815D01*
X8546775Y-8983815D02*
X8527727Y-9002863D01*
X8527727Y-9002863D02*
X8508680Y-9012387D01*
X8708680Y-9155244D02*
X8708680Y-9021910D01*
X8708680Y-9040958D02*
X8718204Y-9031434D01*
X8718204Y-9031434D02*
X8737251Y-9021910D01*
X8737251Y-9021910D02*
X8765823Y-9021910D01*
X8765823Y-9021910D02*
X8784870Y-9031434D01*
X8784870Y-9031434D02*
X8794394Y-9050482D01*
X8794394Y-9050482D02*
X8794394Y-9155244D01*
X8794394Y-9050482D02*
X8803918Y-9031434D01*
X8803918Y-9031434D02*
X8822965Y-9021910D01*
X8822965Y-9021910D02*
X8851537Y-9021910D01*
X8851537Y-9021910D02*
X8870585Y-9031434D01*
X8870585Y-9031434D02*
X8880108Y-9050482D01*
X8880108Y-9050482D02*
X8880108Y-9155244D01*
X8975346Y-9155244D02*
X8975346Y-9021910D01*
X8975346Y-9040958D02*
X8984870Y-9031434D01*
X8984870Y-9031434D02*
X9003918Y-9021910D01*
X9003918Y-9021910D02*
X9032489Y-9021910D01*
X9032489Y-9021910D02*
X9051537Y-9031434D01*
X9051537Y-9031434D02*
X9061061Y-9050482D01*
X9061061Y-9050482D02*
X9061061Y-9155244D01*
X9061061Y-9050482D02*
X9070585Y-9031434D01*
X9070585Y-9031434D02*
X9089632Y-9021910D01*
X9089632Y-9021910D02*
X9118204Y-9021910D01*
X9118204Y-9021910D02*
X9137251Y-9031434D01*
X9137251Y-9031434D02*
X9146775Y-9050482D01*
X9146775Y-9050482D02*
X9146775Y-9155244D01*
X9537251Y-8945720D02*
X9365823Y-9202863D01*
X9794394Y-8955244D02*
X9813442Y-8955244D01*
X9813442Y-8955244D02*
X9832489Y-8964768D01*
X9832489Y-8964768D02*
X9842013Y-8974291D01*
X9842013Y-8974291D02*
X9851537Y-8993339D01*
X9851537Y-8993339D02*
X9861061Y-9031434D01*
X9861061Y-9031434D02*
X9861061Y-9079053D01*
X9861061Y-9079053D02*
X9851537Y-9117149D01*
X9851537Y-9117149D02*
X9842013Y-9136196D01*
X9842013Y-9136196D02*
X9832489Y-9145720D01*
X9832489Y-9145720D02*
X9813442Y-9155244D01*
X9813442Y-9155244D02*
X9794394Y-9155244D01*
X9794394Y-9155244D02*
X9775347Y-9145720D01*
X9775347Y-9145720D02*
X9765823Y-9136196D01*
X9765823Y-9136196D02*
X9756299Y-9117149D01*
X9756299Y-9117149D02*
X9746775Y-9079053D01*
X9746775Y-9079053D02*
X9746775Y-9031434D01*
X9746775Y-9031434D02*
X9756299Y-8993339D01*
X9756299Y-8993339D02*
X9765823Y-8974291D01*
X9765823Y-8974291D02*
X9775347Y-8964768D01*
X9775347Y-8964768D02*
X9794394Y-8955244D01*
X9946775Y-9136196D02*
X9956299Y-9145720D01*
X9956299Y-9145720D02*
X9946775Y-9155244D01*
X9946775Y-9155244D02*
X9937251Y-9145720D01*
X9937251Y-9145720D02*
X9946775Y-9136196D01*
X9946775Y-9136196D02*
X9946775Y-9155244D01*
X10080108Y-8955244D02*
X10099156Y-8955244D01*
X10099156Y-8955244D02*
X10118204Y-8964768D01*
X10118204Y-8964768D02*
X10127728Y-8974291D01*
X10127728Y-8974291D02*
X10137251Y-8993339D01*
X10137251Y-8993339D02*
X10146775Y-9031434D01*
X10146775Y-9031434D02*
X10146775Y-9079053D01*
X10146775Y-9079053D02*
X10137251Y-9117149D01*
X10137251Y-9117149D02*
X10127728Y-9136196D01*
X10127728Y-9136196D02*
X10118204Y-9145720D01*
X10118204Y-9145720D02*
X10099156Y-9155244D01*
X10099156Y-9155244D02*
X10080108Y-9155244D01*
X10080108Y-9155244D02*
X10061061Y-9145720D01*
X10061061Y-9145720D02*
X10051537Y-9136196D01*
X10051537Y-9136196D02*
X10042013Y-9117149D01*
X10042013Y-9117149D02*
X10032489Y-9079053D01*
X10032489Y-9079053D02*
X10032489Y-9031434D01*
X10032489Y-9031434D02*
X10042013Y-8993339D01*
X10042013Y-8993339D02*
X10051537Y-8974291D01*
X10051537Y-8974291D02*
X10061061Y-8964768D01*
X10061061Y-8964768D02*
X10080108Y-8955244D01*
X10222966Y-8974291D02*
X10232489Y-8964768D01*
X10232489Y-8964768D02*
X10251537Y-8955244D01*
X10251537Y-8955244D02*
X10299156Y-8955244D01*
X10299156Y-8955244D02*
X10318204Y-8964768D01*
X10318204Y-8964768D02*
X10327728Y-8974291D01*
X10327728Y-8974291D02*
X10337251Y-8993339D01*
X10337251Y-8993339D02*
X10337251Y-9012387D01*
X10337251Y-9012387D02*
X10327728Y-9040958D01*
X10327728Y-9040958D02*
X10213442Y-9155244D01*
X10213442Y-9155244D02*
X10337251Y-9155244D01*
X10451537Y-9040958D02*
X10432489Y-9031434D01*
X10432489Y-9031434D02*
X10422966Y-9021910D01*
X10422966Y-9021910D02*
X10413442Y-9002863D01*
X10413442Y-9002863D02*
X10413442Y-8993339D01*
X10413442Y-8993339D02*
X10422966Y-8974291D01*
X10422966Y-8974291D02*
X10432489Y-8964768D01*
X10432489Y-8964768D02*
X10451537Y-8955244D01*
X10451537Y-8955244D02*
X10489632Y-8955244D01*
X10489632Y-8955244D02*
X10508680Y-8964768D01*
X10508680Y-8964768D02*
X10518204Y-8974291D01*
X10518204Y-8974291D02*
X10527728Y-8993339D01*
X10527728Y-8993339D02*
X10527728Y-9002863D01*
X10527728Y-9002863D02*
X10518204Y-9021910D01*
X10518204Y-9021910D02*
X10508680Y-9031434D01*
X10508680Y-9031434D02*
X10489632Y-9040958D01*
X10489632Y-9040958D02*
X10451537Y-9040958D01*
X10451537Y-9040958D02*
X10432489Y-9050482D01*
X10432489Y-9050482D02*
X10422966Y-9060006D01*
X10422966Y-9060006D02*
X10413442Y-9079053D01*
X10413442Y-9079053D02*
X10413442Y-9117149D01*
X10413442Y-9117149D02*
X10422966Y-9136196D01*
X10422966Y-9136196D02*
X10432489Y-9145720D01*
X10432489Y-9145720D02*
X10451537Y-9155244D01*
X10451537Y-9155244D02*
X10489632Y-9155244D01*
X10489632Y-9155244D02*
X10508680Y-9145720D01*
X10508680Y-9145720D02*
X10518204Y-9136196D01*
X10518204Y-9136196D02*
X10527728Y-9117149D01*
X10527728Y-9117149D02*
X10527728Y-9079053D01*
X10527728Y-9079053D02*
X10518204Y-9060006D01*
X10518204Y-9060006D02*
X10508680Y-9050482D01*
X10508680Y-9050482D02*
X10489632Y-9040958D01*
X10651537Y-8955244D02*
X10670585Y-8955244D01*
X10670585Y-8955244D02*
X10689632Y-8964768D01*
X10689632Y-8964768D02*
X10699156Y-8974291D01*
X10699156Y-8974291D02*
X10708680Y-8993339D01*
X10708680Y-8993339D02*
X10718204Y-9031434D01*
X10718204Y-9031434D02*
X10718204Y-9079053D01*
X10718204Y-9079053D02*
X10708680Y-9117149D01*
X10708680Y-9117149D02*
X10699156Y-9136196D01*
X10699156Y-9136196D02*
X10689632Y-9145720D01*
X10689632Y-9145720D02*
X10670585Y-9155244D01*
X10670585Y-9155244D02*
X10651537Y-9155244D01*
X10651537Y-9155244D02*
X10632489Y-9145720D01*
X10632489Y-9145720D02*
X10622966Y-9136196D01*
X10622966Y-9136196D02*
X10613442Y-9117149D01*
X10613442Y-9117149D02*
X10603918Y-9079053D01*
X10603918Y-9079053D02*
X10603918Y-9031434D01*
X10603918Y-9031434D02*
X10613442Y-8993339D01*
X10613442Y-8993339D02*
X10622966Y-8974291D01*
X10622966Y-8974291D02*
X10632489Y-8964768D01*
X10632489Y-8964768D02*
X10651537Y-8955244D01*
X10794394Y-8955244D02*
X10794394Y-8993339D01*
X10870585Y-8955244D02*
X10870585Y-8993339D01*
X11165823Y-9231434D02*
X11156299Y-9221910D01*
X11156299Y-9221910D02*
X11137251Y-9193339D01*
X11137251Y-9193339D02*
X11127728Y-9174291D01*
X11127728Y-9174291D02*
X11118204Y-9145720D01*
X11118204Y-9145720D02*
X11108680Y-9098101D01*
X11108680Y-9098101D02*
X11108680Y-9060006D01*
X11108680Y-9060006D02*
X11118204Y-9012387D01*
X11118204Y-9012387D02*
X11127728Y-8983815D01*
X11127728Y-8983815D02*
X11137251Y-8964768D01*
X11137251Y-8964768D02*
X11156299Y-8936196D01*
X11156299Y-8936196D02*
X11165823Y-8926672D01*
X11222966Y-8955244D02*
X11356299Y-8955244D01*
X11356299Y-8955244D02*
X11270585Y-9155244D01*
X11584870Y-9155244D02*
X11584870Y-8955244D01*
X11670585Y-9155244D02*
X11670585Y-9050482D01*
X11670585Y-9050482D02*
X11661061Y-9031434D01*
X11661061Y-9031434D02*
X11642013Y-9021910D01*
X11642013Y-9021910D02*
X11613442Y-9021910D01*
X11613442Y-9021910D02*
X11594394Y-9031434D01*
X11594394Y-9031434D02*
X11584870Y-9040958D01*
X11794394Y-9155244D02*
X11775347Y-9145720D01*
X11775347Y-9145720D02*
X11765823Y-9136196D01*
X11765823Y-9136196D02*
X11756299Y-9117149D01*
X11756299Y-9117149D02*
X11756299Y-9060006D01*
X11756299Y-9060006D02*
X11765823Y-9040958D01*
X11765823Y-9040958D02*
X11775347Y-9031434D01*
X11775347Y-9031434D02*
X11794394Y-9021910D01*
X11794394Y-9021910D02*
X11822966Y-9021910D01*
X11822966Y-9021910D02*
X11842013Y-9031434D01*
X11842013Y-9031434D02*
X11851537Y-9040958D01*
X11851537Y-9040958D02*
X11861061Y-9060006D01*
X11861061Y-9060006D02*
X11861061Y-9117149D01*
X11861061Y-9117149D02*
X11851537Y-9136196D01*
X11851537Y-9136196D02*
X11842013Y-9145720D01*
X11842013Y-9145720D02*
X11822966Y-9155244D01*
X11822966Y-9155244D02*
X11794394Y-9155244D01*
X11975347Y-9155244D02*
X11956299Y-9145720D01*
X11956299Y-9145720D02*
X11946775Y-9126672D01*
X11946775Y-9126672D02*
X11946775Y-8955244D01*
X12127728Y-9145720D02*
X12108680Y-9155244D01*
X12108680Y-9155244D02*
X12070585Y-9155244D01*
X12070585Y-9155244D02*
X12051537Y-9145720D01*
X12051537Y-9145720D02*
X12042013Y-9126672D01*
X12042013Y-9126672D02*
X12042013Y-9050482D01*
X12042013Y-9050482D02*
X12051537Y-9031434D01*
X12051537Y-9031434D02*
X12070585Y-9021910D01*
X12070585Y-9021910D02*
X12108680Y-9021910D01*
X12108680Y-9021910D02*
X12127728Y-9031434D01*
X12127728Y-9031434D02*
X12137251Y-9050482D01*
X12137251Y-9050482D02*
X12137251Y-9069530D01*
X12137251Y-9069530D02*
X12042013Y-9088577D01*
X12213442Y-9145720D02*
X12232490Y-9155244D01*
X12232490Y-9155244D02*
X12270585Y-9155244D01*
X12270585Y-9155244D02*
X12289632Y-9145720D01*
X12289632Y-9145720D02*
X12299156Y-9126672D01*
X12299156Y-9126672D02*
X12299156Y-9117149D01*
X12299156Y-9117149D02*
X12289632Y-9098101D01*
X12289632Y-9098101D02*
X12270585Y-9088577D01*
X12270585Y-9088577D02*
X12242013Y-9088577D01*
X12242013Y-9088577D02*
X12222966Y-9079053D01*
X12222966Y-9079053D02*
X12213442Y-9060006D01*
X12213442Y-9060006D02*
X12213442Y-9050482D01*
X12213442Y-9050482D02*
X12222966Y-9031434D01*
X12222966Y-9031434D02*
X12242013Y-9021910D01*
X12242013Y-9021910D02*
X12270585Y-9021910D01*
X12270585Y-9021910D02*
X12289632Y-9031434D01*
X12365823Y-9231434D02*
X12375347Y-9221910D01*
X12375347Y-9221910D02*
X12394394Y-9193339D01*
X12394394Y-9193339D02*
X12403918Y-9174291D01*
X12403918Y-9174291D02*
X12413442Y-9145720D01*
X12413442Y-9145720D02*
X12422966Y-9098101D01*
X12422966Y-9098101D02*
X12422966Y-9060006D01*
X12422966Y-9060006D02*
X12413442Y-9012387D01*
X12413442Y-9012387D02*
X12403918Y-8983815D01*
X12403918Y-8983815D02*
X12394394Y-8964768D01*
X12394394Y-8964768D02*
X12375347Y-8936196D01*
X12375347Y-8936196D02*
X12365823Y-8926672D01*
D12*
X7509480Y-9287120D02*
X7590760Y-9368400D01*
X7590760Y-9287120D02*
X7509480Y-9368400D01*
X7590760Y-9327760D02*
G75*
G02*
X7509480Y-9327760I-40640J0D01*
G01*
X7509480Y-9327760D02*
G75*
G02*
X7590760Y-9327760I40640J0D01*
G01*
D11*
X7889632Y-9219244D02*
X7908680Y-9219244D01*
X7908680Y-9219244D02*
X7927727Y-9228768D01*
X7927727Y-9228768D02*
X7937251Y-9238291D01*
X7937251Y-9238291D02*
X7946775Y-9257339D01*
X7946775Y-9257339D02*
X7956299Y-9295434D01*
X7956299Y-9295434D02*
X7956299Y-9343053D01*
X7956299Y-9343053D02*
X7946775Y-9381149D01*
X7946775Y-9381149D02*
X7937251Y-9400196D01*
X7937251Y-9400196D02*
X7927727Y-9409720D01*
X7927727Y-9409720D02*
X7908680Y-9419244D01*
X7908680Y-9419244D02*
X7889632Y-9419244D01*
X7889632Y-9419244D02*
X7870584Y-9409720D01*
X7870584Y-9409720D02*
X7861061Y-9400196D01*
X7861061Y-9400196D02*
X7851537Y-9381149D01*
X7851537Y-9381149D02*
X7842013Y-9343053D01*
X7842013Y-9343053D02*
X7842013Y-9295434D01*
X7842013Y-9295434D02*
X7851537Y-9257339D01*
X7851537Y-9257339D02*
X7861061Y-9238291D01*
X7861061Y-9238291D02*
X7870584Y-9228768D01*
X7870584Y-9228768D02*
X7889632Y-9219244D01*
X8042013Y-9400196D02*
X8051537Y-9409720D01*
X8051537Y-9409720D02*
X8042013Y-9419244D01*
X8042013Y-9419244D02*
X8032489Y-9409720D01*
X8032489Y-9409720D02*
X8042013Y-9400196D01*
X8042013Y-9400196D02*
X8042013Y-9419244D01*
X8165822Y-9304958D02*
X8146775Y-9295434D01*
X8146775Y-9295434D02*
X8137251Y-9285910D01*
X8137251Y-9285910D02*
X8127727Y-9266863D01*
X8127727Y-9266863D02*
X8127727Y-9257339D01*
X8127727Y-9257339D02*
X8137251Y-9238291D01*
X8137251Y-9238291D02*
X8146775Y-9228768D01*
X8146775Y-9228768D02*
X8165822Y-9219244D01*
X8165822Y-9219244D02*
X8203918Y-9219244D01*
X8203918Y-9219244D02*
X8222965Y-9228768D01*
X8222965Y-9228768D02*
X8232489Y-9238291D01*
X8232489Y-9238291D02*
X8242013Y-9257339D01*
X8242013Y-9257339D02*
X8242013Y-9266863D01*
X8242013Y-9266863D02*
X8232489Y-9285910D01*
X8232489Y-9285910D02*
X8222965Y-9295434D01*
X8222965Y-9295434D02*
X8203918Y-9304958D01*
X8203918Y-9304958D02*
X8165822Y-9304958D01*
X8165822Y-9304958D02*
X8146775Y-9314482D01*
X8146775Y-9314482D02*
X8137251Y-9324006D01*
X8137251Y-9324006D02*
X8127727Y-9343053D01*
X8127727Y-9343053D02*
X8127727Y-9381149D01*
X8127727Y-9381149D02*
X8137251Y-9400196D01*
X8137251Y-9400196D02*
X8146775Y-9409720D01*
X8146775Y-9409720D02*
X8165822Y-9419244D01*
X8165822Y-9419244D02*
X8203918Y-9419244D01*
X8203918Y-9419244D02*
X8222965Y-9409720D01*
X8222965Y-9409720D02*
X8232489Y-9400196D01*
X8232489Y-9400196D02*
X8242013Y-9381149D01*
X8242013Y-9381149D02*
X8242013Y-9343053D01*
X8242013Y-9343053D02*
X8232489Y-9324006D01*
X8232489Y-9324006D02*
X8222965Y-9314482D01*
X8222965Y-9314482D02*
X8203918Y-9304958D01*
X8432489Y-9419244D02*
X8318203Y-9419244D01*
X8375346Y-9419244D02*
X8375346Y-9219244D01*
X8375346Y-9219244D02*
X8356299Y-9247815D01*
X8356299Y-9247815D02*
X8337251Y-9266863D01*
X8337251Y-9266863D02*
X8318203Y-9276387D01*
X8499156Y-9219244D02*
X8622965Y-9219244D01*
X8622965Y-9219244D02*
X8556299Y-9295434D01*
X8556299Y-9295434D02*
X8584870Y-9295434D01*
X8584870Y-9295434D02*
X8603918Y-9304958D01*
X8603918Y-9304958D02*
X8613442Y-9314482D01*
X8613442Y-9314482D02*
X8622965Y-9333530D01*
X8622965Y-9333530D02*
X8622965Y-9381149D01*
X8622965Y-9381149D02*
X8613442Y-9400196D01*
X8613442Y-9400196D02*
X8603918Y-9409720D01*
X8603918Y-9409720D02*
X8584870Y-9419244D01*
X8584870Y-9419244D02*
X8527727Y-9419244D01*
X8527727Y-9419244D02*
X8508680Y-9409720D01*
X8508680Y-9409720D02*
X8499156Y-9400196D01*
X8708680Y-9419244D02*
X8708680Y-9285910D01*
X8708680Y-9304958D02*
X8718204Y-9295434D01*
X8718204Y-9295434D02*
X8737251Y-9285910D01*
X8737251Y-9285910D02*
X8765823Y-9285910D01*
X8765823Y-9285910D02*
X8784870Y-9295434D01*
X8784870Y-9295434D02*
X8794394Y-9314482D01*
X8794394Y-9314482D02*
X8794394Y-9419244D01*
X8794394Y-9314482D02*
X8803918Y-9295434D01*
X8803918Y-9295434D02*
X8822965Y-9285910D01*
X8822965Y-9285910D02*
X8851537Y-9285910D01*
X8851537Y-9285910D02*
X8870585Y-9295434D01*
X8870585Y-9295434D02*
X8880108Y-9314482D01*
X8880108Y-9314482D02*
X8880108Y-9419244D01*
X8975346Y-9419244D02*
X8975346Y-9285910D01*
X8975346Y-9304958D02*
X8984870Y-9295434D01*
X8984870Y-9295434D02*
X9003918Y-9285910D01*
X9003918Y-9285910D02*
X9032489Y-9285910D01*
X9032489Y-9285910D02*
X9051537Y-9295434D01*
X9051537Y-9295434D02*
X9061061Y-9314482D01*
X9061061Y-9314482D02*
X9061061Y-9419244D01*
X9061061Y-9314482D02*
X9070585Y-9295434D01*
X9070585Y-9295434D02*
X9089632Y-9285910D01*
X9089632Y-9285910D02*
X9118204Y-9285910D01*
X9118204Y-9285910D02*
X9137251Y-9295434D01*
X9137251Y-9295434D02*
X9146775Y-9314482D01*
X9146775Y-9314482D02*
X9146775Y-9419244D01*
X9537251Y-9209720D02*
X9365823Y-9466863D01*
X9794394Y-9219244D02*
X9813442Y-9219244D01*
X9813442Y-9219244D02*
X9832489Y-9228768D01*
X9832489Y-9228768D02*
X9842013Y-9238291D01*
X9842013Y-9238291D02*
X9851537Y-9257339D01*
X9851537Y-9257339D02*
X9861061Y-9295434D01*
X9861061Y-9295434D02*
X9861061Y-9343053D01*
X9861061Y-9343053D02*
X9851537Y-9381149D01*
X9851537Y-9381149D02*
X9842013Y-9400196D01*
X9842013Y-9400196D02*
X9832489Y-9409720D01*
X9832489Y-9409720D02*
X9813442Y-9419244D01*
X9813442Y-9419244D02*
X9794394Y-9419244D01*
X9794394Y-9419244D02*
X9775347Y-9409720D01*
X9775347Y-9409720D02*
X9765823Y-9400196D01*
X9765823Y-9400196D02*
X9756299Y-9381149D01*
X9756299Y-9381149D02*
X9746775Y-9343053D01*
X9746775Y-9343053D02*
X9746775Y-9295434D01*
X9746775Y-9295434D02*
X9756299Y-9257339D01*
X9756299Y-9257339D02*
X9765823Y-9238291D01*
X9765823Y-9238291D02*
X9775347Y-9228768D01*
X9775347Y-9228768D02*
X9794394Y-9219244D01*
X9946775Y-9400196D02*
X9956299Y-9409720D01*
X9956299Y-9409720D02*
X9946775Y-9419244D01*
X9946775Y-9419244D02*
X9937251Y-9409720D01*
X9937251Y-9409720D02*
X9946775Y-9400196D01*
X9946775Y-9400196D02*
X9946775Y-9419244D01*
X10080108Y-9219244D02*
X10099156Y-9219244D01*
X10099156Y-9219244D02*
X10118204Y-9228768D01*
X10118204Y-9228768D02*
X10127728Y-9238291D01*
X10127728Y-9238291D02*
X10137251Y-9257339D01*
X10137251Y-9257339D02*
X10146775Y-9295434D01*
X10146775Y-9295434D02*
X10146775Y-9343053D01*
X10146775Y-9343053D02*
X10137251Y-9381149D01*
X10137251Y-9381149D02*
X10127728Y-9400196D01*
X10127728Y-9400196D02*
X10118204Y-9409720D01*
X10118204Y-9409720D02*
X10099156Y-9419244D01*
X10099156Y-9419244D02*
X10080108Y-9419244D01*
X10080108Y-9419244D02*
X10061061Y-9409720D01*
X10061061Y-9409720D02*
X10051537Y-9400196D01*
X10051537Y-9400196D02*
X10042013Y-9381149D01*
X10042013Y-9381149D02*
X10032489Y-9343053D01*
X10032489Y-9343053D02*
X10032489Y-9295434D01*
X10032489Y-9295434D02*
X10042013Y-9257339D01*
X10042013Y-9257339D02*
X10051537Y-9238291D01*
X10051537Y-9238291D02*
X10061061Y-9228768D01*
X10061061Y-9228768D02*
X10080108Y-9219244D01*
X10213442Y-9219244D02*
X10337251Y-9219244D01*
X10337251Y-9219244D02*
X10270585Y-9295434D01*
X10270585Y-9295434D02*
X10299156Y-9295434D01*
X10299156Y-9295434D02*
X10318204Y-9304958D01*
X10318204Y-9304958D02*
X10327728Y-9314482D01*
X10327728Y-9314482D02*
X10337251Y-9333530D01*
X10337251Y-9333530D02*
X10337251Y-9381149D01*
X10337251Y-9381149D02*
X10327728Y-9400196D01*
X10327728Y-9400196D02*
X10318204Y-9409720D01*
X10318204Y-9409720D02*
X10299156Y-9419244D01*
X10299156Y-9419244D02*
X10242013Y-9419244D01*
X10242013Y-9419244D02*
X10222966Y-9409720D01*
X10222966Y-9409720D02*
X10213442Y-9400196D01*
X10413442Y-9238291D02*
X10422966Y-9228768D01*
X10422966Y-9228768D02*
X10442013Y-9219244D01*
X10442013Y-9219244D02*
X10489632Y-9219244D01*
X10489632Y-9219244D02*
X10508680Y-9228768D01*
X10508680Y-9228768D02*
X10518204Y-9238291D01*
X10518204Y-9238291D02*
X10527728Y-9257339D01*
X10527728Y-9257339D02*
X10527728Y-9276387D01*
X10527728Y-9276387D02*
X10518204Y-9304958D01*
X10518204Y-9304958D02*
X10403918Y-9419244D01*
X10403918Y-9419244D02*
X10527728Y-9419244D01*
X10651537Y-9219244D02*
X10670585Y-9219244D01*
X10670585Y-9219244D02*
X10689632Y-9228768D01*
X10689632Y-9228768D02*
X10699156Y-9238291D01*
X10699156Y-9238291D02*
X10708680Y-9257339D01*
X10708680Y-9257339D02*
X10718204Y-9295434D01*
X10718204Y-9295434D02*
X10718204Y-9343053D01*
X10718204Y-9343053D02*
X10708680Y-9381149D01*
X10708680Y-9381149D02*
X10699156Y-9400196D01*
X10699156Y-9400196D02*
X10689632Y-9409720D01*
X10689632Y-9409720D02*
X10670585Y-9419244D01*
X10670585Y-9419244D02*
X10651537Y-9419244D01*
X10651537Y-9419244D02*
X10632489Y-9409720D01*
X10632489Y-9409720D02*
X10622966Y-9400196D01*
X10622966Y-9400196D02*
X10613442Y-9381149D01*
X10613442Y-9381149D02*
X10603918Y-9343053D01*
X10603918Y-9343053D02*
X10603918Y-9295434D01*
X10603918Y-9295434D02*
X10613442Y-9257339D01*
X10613442Y-9257339D02*
X10622966Y-9238291D01*
X10622966Y-9238291D02*
X10632489Y-9228768D01*
X10632489Y-9228768D02*
X10651537Y-9219244D01*
X10794394Y-9219244D02*
X10794394Y-9257339D01*
X10870585Y-9219244D02*
X10870585Y-9257339D01*
X11165823Y-9495434D02*
X11156299Y-9485910D01*
X11156299Y-9485910D02*
X11137251Y-9457339D01*
X11137251Y-9457339D02*
X11127728Y-9438291D01*
X11127728Y-9438291D02*
X11118204Y-9409720D01*
X11118204Y-9409720D02*
X11108680Y-9362101D01*
X11108680Y-9362101D02*
X11108680Y-9324006D01*
X11108680Y-9324006D02*
X11118204Y-9276387D01*
X11118204Y-9276387D02*
X11127728Y-9247815D01*
X11127728Y-9247815D02*
X11137251Y-9228768D01*
X11137251Y-9228768D02*
X11156299Y-9200196D01*
X11156299Y-9200196D02*
X11165823Y-9190672D01*
X11270585Y-9304958D02*
X11251537Y-9295434D01*
X11251537Y-9295434D02*
X11242013Y-9285910D01*
X11242013Y-9285910D02*
X11232489Y-9266863D01*
X11232489Y-9266863D02*
X11232489Y-9257339D01*
X11232489Y-9257339D02*
X11242013Y-9238291D01*
X11242013Y-9238291D02*
X11251537Y-9228768D01*
X11251537Y-9228768D02*
X11270585Y-9219244D01*
X11270585Y-9219244D02*
X11308680Y-9219244D01*
X11308680Y-9219244D02*
X11327728Y-9228768D01*
X11327728Y-9228768D02*
X11337251Y-9238291D01*
X11337251Y-9238291D02*
X11346775Y-9257339D01*
X11346775Y-9257339D02*
X11346775Y-9266863D01*
X11346775Y-9266863D02*
X11337251Y-9285910D01*
X11337251Y-9285910D02*
X11327728Y-9295434D01*
X11327728Y-9295434D02*
X11308680Y-9304958D01*
X11308680Y-9304958D02*
X11270585Y-9304958D01*
X11270585Y-9304958D02*
X11251537Y-9314482D01*
X11251537Y-9314482D02*
X11242013Y-9324006D01*
X11242013Y-9324006D02*
X11232489Y-9343053D01*
X11232489Y-9343053D02*
X11232489Y-9381149D01*
X11232489Y-9381149D02*
X11242013Y-9400196D01*
X11242013Y-9400196D02*
X11251537Y-9409720D01*
X11251537Y-9409720D02*
X11270585Y-9419244D01*
X11270585Y-9419244D02*
X11308680Y-9419244D01*
X11308680Y-9419244D02*
X11327728Y-9409720D01*
X11327728Y-9409720D02*
X11337251Y-9400196D01*
X11337251Y-9400196D02*
X11346775Y-9381149D01*
X11346775Y-9381149D02*
X11346775Y-9343053D01*
X11346775Y-9343053D02*
X11337251Y-9324006D01*
X11337251Y-9324006D02*
X11327728Y-9314482D01*
X11327728Y-9314482D02*
X11308680Y-9304958D01*
X11584870Y-9419244D02*
X11584870Y-9219244D01*
X11670585Y-9419244D02*
X11670585Y-9314482D01*
X11670585Y-9314482D02*
X11661061Y-9295434D01*
X11661061Y-9295434D02*
X11642013Y-9285910D01*
X11642013Y-9285910D02*
X11613442Y-9285910D01*
X11613442Y-9285910D02*
X11594394Y-9295434D01*
X11594394Y-9295434D02*
X11584870Y-9304958D01*
X11794394Y-9419244D02*
X11775347Y-9409720D01*
X11775347Y-9409720D02*
X11765823Y-9400196D01*
X11765823Y-9400196D02*
X11756299Y-9381149D01*
X11756299Y-9381149D02*
X11756299Y-9324006D01*
X11756299Y-9324006D02*
X11765823Y-9304958D01*
X11765823Y-9304958D02*
X11775347Y-9295434D01*
X11775347Y-9295434D02*
X11794394Y-9285910D01*
X11794394Y-9285910D02*
X11822966Y-9285910D01*
X11822966Y-9285910D02*
X11842013Y-9295434D01*
X11842013Y-9295434D02*
X11851537Y-9304958D01*
X11851537Y-9304958D02*
X11861061Y-9324006D01*
X11861061Y-9324006D02*
X11861061Y-9381149D01*
X11861061Y-9381149D02*
X11851537Y-9400196D01*
X11851537Y-9400196D02*
X11842013Y-9409720D01*
X11842013Y-9409720D02*
X11822966Y-9419244D01*
X11822966Y-9419244D02*
X11794394Y-9419244D01*
X11975347Y-9419244D02*
X11956299Y-9409720D01*
X11956299Y-9409720D02*
X11946775Y-9390672D01*
X11946775Y-9390672D02*
X11946775Y-9219244D01*
X12127728Y-9409720D02*
X12108680Y-9419244D01*
X12108680Y-9419244D02*
X12070585Y-9419244D01*
X12070585Y-9419244D02*
X12051537Y-9409720D01*
X12051537Y-9409720D02*
X12042013Y-9390672D01*
X12042013Y-9390672D02*
X12042013Y-9314482D01*
X12042013Y-9314482D02*
X12051537Y-9295434D01*
X12051537Y-9295434D02*
X12070585Y-9285910D01*
X12070585Y-9285910D02*
X12108680Y-9285910D01*
X12108680Y-9285910D02*
X12127728Y-9295434D01*
X12127728Y-9295434D02*
X12137251Y-9314482D01*
X12137251Y-9314482D02*
X12137251Y-9333530D01*
X12137251Y-9333530D02*
X12042013Y-9352577D01*
X12213442Y-9409720D02*
X12232490Y-9419244D01*
X12232490Y-9419244D02*
X12270585Y-9419244D01*
X12270585Y-9419244D02*
X12289632Y-9409720D01*
X12289632Y-9409720D02*
X12299156Y-9390672D01*
X12299156Y-9390672D02*
X12299156Y-9381149D01*
X12299156Y-9381149D02*
X12289632Y-9362101D01*
X12289632Y-9362101D02*
X12270585Y-9352577D01*
X12270585Y-9352577D02*
X12242013Y-9352577D01*
X12242013Y-9352577D02*
X12222966Y-9343053D01*
X12222966Y-9343053D02*
X12213442Y-9324006D01*
X12213442Y-9324006D02*
X12213442Y-9314482D01*
X12213442Y-9314482D02*
X12222966Y-9295434D01*
X12222966Y-9295434D02*
X12242013Y-9285910D01*
X12242013Y-9285910D02*
X12270585Y-9285910D01*
X12270585Y-9285910D02*
X12289632Y-9295434D01*
X12365823Y-9495434D02*
X12375347Y-9485910D01*
X12375347Y-9485910D02*
X12394394Y-9457339D01*
X12394394Y-9457339D02*
X12403918Y-9438291D01*
X12403918Y-9438291D02*
X12413442Y-9409720D01*
X12413442Y-9409720D02*
X12422966Y-9362101D01*
X12422966Y-9362101D02*
X12422966Y-9324006D01*
X12422966Y-9324006D02*
X12413442Y-9276387D01*
X12413442Y-9276387D02*
X12403918Y-9247815D01*
X12403918Y-9247815D02*
X12394394Y-9228768D01*
X12394394Y-9228768D02*
X12375347Y-9200196D01*
X12375347Y-9200196D02*
X12365823Y-9190672D01*
D12*
X7490760Y-9541760D02*
X7590760Y-9641760D01*
X7590760Y-9541760D02*
X7490760Y-9641760D01*
X7540760Y-9541760D02*
X7540760Y-9641760D01*
X7490760Y-9591760D02*
X7590760Y-9591760D01*
D11*
X7956299Y-9683244D02*
X7842013Y-9683244D01*
X7899156Y-9683244D02*
X7899156Y-9483244D01*
X7899156Y-9483244D02*
X7880108Y-9511815D01*
X7880108Y-9511815D02*
X7861061Y-9530863D01*
X7861061Y-9530863D02*
X7842013Y-9540387D01*
X8042013Y-9664196D02*
X8051537Y-9673720D01*
X8051537Y-9673720D02*
X8042013Y-9683244D01*
X8042013Y-9683244D02*
X8032489Y-9673720D01*
X8032489Y-9673720D02*
X8042013Y-9664196D01*
X8042013Y-9664196D02*
X8042013Y-9683244D01*
X8175346Y-9483244D02*
X8194394Y-9483244D01*
X8194394Y-9483244D02*
X8213442Y-9492768D01*
X8213442Y-9492768D02*
X8222965Y-9502291D01*
X8222965Y-9502291D02*
X8232489Y-9521339D01*
X8232489Y-9521339D02*
X8242013Y-9559434D01*
X8242013Y-9559434D02*
X8242013Y-9607053D01*
X8242013Y-9607053D02*
X8232489Y-9645149D01*
X8232489Y-9645149D02*
X8222965Y-9664196D01*
X8222965Y-9664196D02*
X8213442Y-9673720D01*
X8213442Y-9673720D02*
X8194394Y-9683244D01*
X8194394Y-9683244D02*
X8175346Y-9683244D01*
X8175346Y-9683244D02*
X8156299Y-9673720D01*
X8156299Y-9673720D02*
X8146775Y-9664196D01*
X8146775Y-9664196D02*
X8137251Y-9645149D01*
X8137251Y-9645149D02*
X8127727Y-9607053D01*
X8127727Y-9607053D02*
X8127727Y-9559434D01*
X8127727Y-9559434D02*
X8137251Y-9521339D01*
X8137251Y-9521339D02*
X8146775Y-9502291D01*
X8146775Y-9502291D02*
X8156299Y-9492768D01*
X8156299Y-9492768D02*
X8175346Y-9483244D01*
X8365822Y-9483244D02*
X8384870Y-9483244D01*
X8384870Y-9483244D02*
X8403918Y-9492768D01*
X8403918Y-9492768D02*
X8413442Y-9502291D01*
X8413442Y-9502291D02*
X8422965Y-9521339D01*
X8422965Y-9521339D02*
X8432489Y-9559434D01*
X8432489Y-9559434D02*
X8432489Y-9607053D01*
X8432489Y-9607053D02*
X8422965Y-9645149D01*
X8422965Y-9645149D02*
X8413442Y-9664196D01*
X8413442Y-9664196D02*
X8403918Y-9673720D01*
X8403918Y-9673720D02*
X8384870Y-9683244D01*
X8384870Y-9683244D02*
X8365822Y-9683244D01*
X8365822Y-9683244D02*
X8346775Y-9673720D01*
X8346775Y-9673720D02*
X8337251Y-9664196D01*
X8337251Y-9664196D02*
X8327727Y-9645149D01*
X8327727Y-9645149D02*
X8318203Y-9607053D01*
X8318203Y-9607053D02*
X8318203Y-9559434D01*
X8318203Y-9559434D02*
X8327727Y-9521339D01*
X8327727Y-9521339D02*
X8337251Y-9502291D01*
X8337251Y-9502291D02*
X8346775Y-9492768D01*
X8346775Y-9492768D02*
X8365822Y-9483244D01*
X8556299Y-9483244D02*
X8575346Y-9483244D01*
X8575346Y-9483244D02*
X8594394Y-9492768D01*
X8594394Y-9492768D02*
X8603918Y-9502291D01*
X8603918Y-9502291D02*
X8613442Y-9521339D01*
X8613442Y-9521339D02*
X8622965Y-9559434D01*
X8622965Y-9559434D02*
X8622965Y-9607053D01*
X8622965Y-9607053D02*
X8613442Y-9645149D01*
X8613442Y-9645149D02*
X8603918Y-9664196D01*
X8603918Y-9664196D02*
X8594394Y-9673720D01*
X8594394Y-9673720D02*
X8575346Y-9683244D01*
X8575346Y-9683244D02*
X8556299Y-9683244D01*
X8556299Y-9683244D02*
X8537251Y-9673720D01*
X8537251Y-9673720D02*
X8527727Y-9664196D01*
X8527727Y-9664196D02*
X8518204Y-9645149D01*
X8518204Y-9645149D02*
X8508680Y-9607053D01*
X8508680Y-9607053D02*
X8508680Y-9559434D01*
X8508680Y-9559434D02*
X8518204Y-9521339D01*
X8518204Y-9521339D02*
X8527727Y-9502291D01*
X8527727Y-9502291D02*
X8537251Y-9492768D01*
X8537251Y-9492768D02*
X8556299Y-9483244D01*
X8708680Y-9683244D02*
X8708680Y-9549910D01*
X8708680Y-9568958D02*
X8718204Y-9559434D01*
X8718204Y-9559434D02*
X8737251Y-9549910D01*
X8737251Y-9549910D02*
X8765823Y-9549910D01*
X8765823Y-9549910D02*
X8784870Y-9559434D01*
X8784870Y-9559434D02*
X8794394Y-9578482D01*
X8794394Y-9578482D02*
X8794394Y-9683244D01*
X8794394Y-9578482D02*
X8803918Y-9559434D01*
X8803918Y-9559434D02*
X8822965Y-9549910D01*
X8822965Y-9549910D02*
X8851537Y-9549910D01*
X8851537Y-9549910D02*
X8870585Y-9559434D01*
X8870585Y-9559434D02*
X8880108Y-9578482D01*
X8880108Y-9578482D02*
X8880108Y-9683244D01*
X8975346Y-9683244D02*
X8975346Y-9549910D01*
X8975346Y-9568958D02*
X8984870Y-9559434D01*
X8984870Y-9559434D02*
X9003918Y-9549910D01*
X9003918Y-9549910D02*
X9032489Y-9549910D01*
X9032489Y-9549910D02*
X9051537Y-9559434D01*
X9051537Y-9559434D02*
X9061061Y-9578482D01*
X9061061Y-9578482D02*
X9061061Y-9683244D01*
X9061061Y-9578482D02*
X9070585Y-9559434D01*
X9070585Y-9559434D02*
X9089632Y-9549910D01*
X9089632Y-9549910D02*
X9118204Y-9549910D01*
X9118204Y-9549910D02*
X9137251Y-9559434D01*
X9137251Y-9559434D02*
X9146775Y-9578482D01*
X9146775Y-9578482D02*
X9146775Y-9683244D01*
X9537251Y-9473720D02*
X9365823Y-9730863D01*
X9794394Y-9483244D02*
X9813442Y-9483244D01*
X9813442Y-9483244D02*
X9832489Y-9492768D01*
X9832489Y-9492768D02*
X9842013Y-9502291D01*
X9842013Y-9502291D02*
X9851537Y-9521339D01*
X9851537Y-9521339D02*
X9861061Y-9559434D01*
X9861061Y-9559434D02*
X9861061Y-9607053D01*
X9861061Y-9607053D02*
X9851537Y-9645149D01*
X9851537Y-9645149D02*
X9842013Y-9664196D01*
X9842013Y-9664196D02*
X9832489Y-9673720D01*
X9832489Y-9673720D02*
X9813442Y-9683244D01*
X9813442Y-9683244D02*
X9794394Y-9683244D01*
X9794394Y-9683244D02*
X9775347Y-9673720D01*
X9775347Y-9673720D02*
X9765823Y-9664196D01*
X9765823Y-9664196D02*
X9756299Y-9645149D01*
X9756299Y-9645149D02*
X9746775Y-9607053D01*
X9746775Y-9607053D02*
X9746775Y-9559434D01*
X9746775Y-9559434D02*
X9756299Y-9521339D01*
X9756299Y-9521339D02*
X9765823Y-9502291D01*
X9765823Y-9502291D02*
X9775347Y-9492768D01*
X9775347Y-9492768D02*
X9794394Y-9483244D01*
X9946775Y-9664196D02*
X9956299Y-9673720D01*
X9956299Y-9673720D02*
X9946775Y-9683244D01*
X9946775Y-9683244D02*
X9937251Y-9673720D01*
X9937251Y-9673720D02*
X9946775Y-9664196D01*
X9946775Y-9664196D02*
X9946775Y-9683244D01*
X10080108Y-9483244D02*
X10099156Y-9483244D01*
X10099156Y-9483244D02*
X10118204Y-9492768D01*
X10118204Y-9492768D02*
X10127728Y-9502291D01*
X10127728Y-9502291D02*
X10137251Y-9521339D01*
X10137251Y-9521339D02*
X10146775Y-9559434D01*
X10146775Y-9559434D02*
X10146775Y-9607053D01*
X10146775Y-9607053D02*
X10137251Y-9645149D01*
X10137251Y-9645149D02*
X10127728Y-9664196D01*
X10127728Y-9664196D02*
X10118204Y-9673720D01*
X10118204Y-9673720D02*
X10099156Y-9683244D01*
X10099156Y-9683244D02*
X10080108Y-9683244D01*
X10080108Y-9683244D02*
X10061061Y-9673720D01*
X10061061Y-9673720D02*
X10051537Y-9664196D01*
X10051537Y-9664196D02*
X10042013Y-9645149D01*
X10042013Y-9645149D02*
X10032489Y-9607053D01*
X10032489Y-9607053D02*
X10032489Y-9559434D01*
X10032489Y-9559434D02*
X10042013Y-9521339D01*
X10042013Y-9521339D02*
X10051537Y-9502291D01*
X10051537Y-9502291D02*
X10061061Y-9492768D01*
X10061061Y-9492768D02*
X10080108Y-9483244D01*
X10213442Y-9483244D02*
X10337251Y-9483244D01*
X10337251Y-9483244D02*
X10270585Y-9559434D01*
X10270585Y-9559434D02*
X10299156Y-9559434D01*
X10299156Y-9559434D02*
X10318204Y-9568958D01*
X10318204Y-9568958D02*
X10327728Y-9578482D01*
X10327728Y-9578482D02*
X10337251Y-9597530D01*
X10337251Y-9597530D02*
X10337251Y-9645149D01*
X10337251Y-9645149D02*
X10327728Y-9664196D01*
X10327728Y-9664196D02*
X10318204Y-9673720D01*
X10318204Y-9673720D02*
X10299156Y-9683244D01*
X10299156Y-9683244D02*
X10242013Y-9683244D01*
X10242013Y-9683244D02*
X10222966Y-9673720D01*
X10222966Y-9673720D02*
X10213442Y-9664196D01*
X10432489Y-9683244D02*
X10470585Y-9683244D01*
X10470585Y-9683244D02*
X10489632Y-9673720D01*
X10489632Y-9673720D02*
X10499156Y-9664196D01*
X10499156Y-9664196D02*
X10518204Y-9635625D01*
X10518204Y-9635625D02*
X10527728Y-9597530D01*
X10527728Y-9597530D02*
X10527728Y-9521339D01*
X10527728Y-9521339D02*
X10518204Y-9502291D01*
X10518204Y-9502291D02*
X10508680Y-9492768D01*
X10508680Y-9492768D02*
X10489632Y-9483244D01*
X10489632Y-9483244D02*
X10451537Y-9483244D01*
X10451537Y-9483244D02*
X10432489Y-9492768D01*
X10432489Y-9492768D02*
X10422966Y-9502291D01*
X10422966Y-9502291D02*
X10413442Y-9521339D01*
X10413442Y-9521339D02*
X10413442Y-9568958D01*
X10413442Y-9568958D02*
X10422966Y-9588006D01*
X10422966Y-9588006D02*
X10432489Y-9597530D01*
X10432489Y-9597530D02*
X10451537Y-9607053D01*
X10451537Y-9607053D02*
X10489632Y-9607053D01*
X10489632Y-9607053D02*
X10508680Y-9597530D01*
X10508680Y-9597530D02*
X10518204Y-9588006D01*
X10518204Y-9588006D02*
X10527728Y-9568958D01*
X10699156Y-9549910D02*
X10699156Y-9683244D01*
X10651537Y-9473720D02*
X10603918Y-9616577D01*
X10603918Y-9616577D02*
X10727728Y-9616577D01*
X10794394Y-9483244D02*
X10794394Y-9521339D01*
X10870585Y-9483244D02*
X10870585Y-9521339D01*
X11165823Y-9759434D02*
X11156299Y-9749910D01*
X11156299Y-9749910D02*
X11137251Y-9721339D01*
X11137251Y-9721339D02*
X11127728Y-9702291D01*
X11127728Y-9702291D02*
X11118204Y-9673720D01*
X11118204Y-9673720D02*
X11108680Y-9626101D01*
X11108680Y-9626101D02*
X11108680Y-9588006D01*
X11108680Y-9588006D02*
X11118204Y-9540387D01*
X11118204Y-9540387D02*
X11127728Y-9511815D01*
X11127728Y-9511815D02*
X11137251Y-9492768D01*
X11137251Y-9492768D02*
X11156299Y-9464196D01*
X11156299Y-9464196D02*
X11165823Y-9454672D01*
X11346775Y-9683244D02*
X11232489Y-9683244D01*
X11289632Y-9683244D02*
X11289632Y-9483244D01*
X11289632Y-9483244D02*
X11270585Y-9511815D01*
X11270585Y-9511815D02*
X11251537Y-9530863D01*
X11251537Y-9530863D02*
X11232489Y-9540387D01*
X11584870Y-9683244D02*
X11584870Y-9483244D01*
X11670585Y-9683244D02*
X11670585Y-9578482D01*
X11670585Y-9578482D02*
X11661061Y-9559434D01*
X11661061Y-9559434D02*
X11642013Y-9549910D01*
X11642013Y-9549910D02*
X11613442Y-9549910D01*
X11613442Y-9549910D02*
X11594394Y-9559434D01*
X11594394Y-9559434D02*
X11584870Y-9568958D01*
X11794394Y-9683244D02*
X11775347Y-9673720D01*
X11775347Y-9673720D02*
X11765823Y-9664196D01*
X11765823Y-9664196D02*
X11756299Y-9645149D01*
X11756299Y-9645149D02*
X11756299Y-9588006D01*
X11756299Y-9588006D02*
X11765823Y-9568958D01*
X11765823Y-9568958D02*
X11775347Y-9559434D01*
X11775347Y-9559434D02*
X11794394Y-9549910D01*
X11794394Y-9549910D02*
X11822966Y-9549910D01*
X11822966Y-9549910D02*
X11842013Y-9559434D01*
X11842013Y-9559434D02*
X11851537Y-9568958D01*
X11851537Y-9568958D02*
X11861061Y-9588006D01*
X11861061Y-9588006D02*
X11861061Y-9645149D01*
X11861061Y-9645149D02*
X11851537Y-9664196D01*
X11851537Y-9664196D02*
X11842013Y-9673720D01*
X11842013Y-9673720D02*
X11822966Y-9683244D01*
X11822966Y-9683244D02*
X11794394Y-9683244D01*
X11975347Y-9683244D02*
X11956299Y-9673720D01*
X11956299Y-9673720D02*
X11946775Y-9654672D01*
X11946775Y-9654672D02*
X11946775Y-9483244D01*
X12127728Y-9673720D02*
X12108680Y-9683244D01*
X12108680Y-9683244D02*
X12070585Y-9683244D01*
X12070585Y-9683244D02*
X12051537Y-9673720D01*
X12051537Y-9673720D02*
X12042013Y-9654672D01*
X12042013Y-9654672D02*
X12042013Y-9578482D01*
X12042013Y-9578482D02*
X12051537Y-9559434D01*
X12051537Y-9559434D02*
X12070585Y-9549910D01*
X12070585Y-9549910D02*
X12108680Y-9549910D01*
X12108680Y-9549910D02*
X12127728Y-9559434D01*
X12127728Y-9559434D02*
X12137251Y-9578482D01*
X12137251Y-9578482D02*
X12137251Y-9597530D01*
X12137251Y-9597530D02*
X12042013Y-9616577D01*
X12203918Y-9759434D02*
X12213442Y-9749910D01*
X12213442Y-9749910D02*
X12232490Y-9721339D01*
X12232490Y-9721339D02*
X12242013Y-9702291D01*
X12242013Y-9702291D02*
X12251537Y-9673720D01*
X12251537Y-9673720D02*
X12261061Y-9626101D01*
X12261061Y-9626101D02*
X12261061Y-9588006D01*
X12261061Y-9588006D02*
X12251537Y-9540387D01*
X12251537Y-9540387D02*
X12242013Y-9511815D01*
X12242013Y-9511815D02*
X12232490Y-9492768D01*
X12232490Y-9492768D02*
X12213442Y-9464196D01*
X12213442Y-9464196D02*
X12203918Y-9454672D01*
M02*
