G04 #@! TF.GenerationSoftware,KiCad,Pcbnew,8.0.4*
G04 #@! TF.CreationDate,2024-10-03T21:35:34+02:00*
G04 #@! TF.ProjectId,Midi Stick,4d696469-2053-4746-9963-6b2e6b696361,2.0*
G04 #@! TF.SameCoordinates,Original*
G04 #@! TF.FileFunction,Copper,L1,Top*
G04 #@! TF.FilePolarity,Positive*
%FSLAX46Y46*%
G04 Gerber Fmt 4.6, Leading zero omitted, Abs format (unit mm)*
G04 Created by KiCad (PCBNEW 8.0.4) date 2024-10-03 21:35:34*
%MOMM*%
%LPD*%
G01*
G04 APERTURE LIST*
G04 Aperture macros list*
%AMRoundRect*
0 Rectangle with rounded corners*
0 $1 Rounding radius*
0 $2 $3 $4 $5 $6 $7 $8 $9 X,Y pos of 4 corners*
0 Add a 4 corners polygon primitive as box body*
4,1,4,$2,$3,$4,$5,$6,$7,$8,$9,$2,$3,0*
0 Add four circle primitives for the rounded corners*
1,1,$1+$1,$2,$3*
1,1,$1+$1,$4,$5*
1,1,$1+$1,$6,$7*
1,1,$1+$1,$8,$9*
0 Add four rect primitives between the rounded corners*
20,1,$1+$1,$2,$3,$4,$5,0*
20,1,$1+$1,$4,$5,$6,$7,0*
20,1,$1+$1,$6,$7,$8,$9,0*
20,1,$1+$1,$8,$9,$2,$3,0*%
%AMFreePoly0*
4,1,18,-0.437500,0.050000,-0.433694,0.069134,-0.422855,0.085355,-0.406634,0.096194,-0.387500,0.100000,0.387500,0.100000,0.437500,0.050000,0.437500,-0.050000,0.433694,-0.069134,0.422855,-0.085355,0.406634,-0.096194,0.387500,-0.100000,-0.387500,-0.100000,-0.406634,-0.096194,-0.422855,-0.085355,-0.433694,-0.069134,-0.437500,-0.050000,-0.437500,0.050000,-0.437500,0.050000,$1*%
%AMFreePoly1*
4,1,18,-0.437500,0.050000,-0.433694,0.069134,-0.422855,0.085355,-0.406634,0.096194,-0.387500,0.100000,0.387500,0.100000,0.406634,0.096194,0.422855,0.085355,0.433694,0.069134,0.437500,0.050000,0.437500,-0.050000,0.387500,-0.100000,-0.387500,-0.100000,-0.406634,-0.096194,-0.422855,-0.085355,-0.433694,-0.069134,-0.437500,-0.050000,-0.437500,0.050000,-0.437500,0.050000,$1*%
%AMFreePoly2*
4,1,18,-0.100000,0.387500,-0.050000,0.437500,0.050000,0.437500,0.069134,0.433694,0.085355,0.422855,0.096194,0.406634,0.100000,0.387500,0.100000,-0.387500,0.096194,-0.406634,0.085355,-0.422855,0.069134,-0.433694,0.050000,-0.437500,-0.050000,-0.437500,-0.069134,-0.433694,-0.085355,-0.422855,-0.096194,-0.406634,-0.100000,-0.387500,-0.100000,0.387500,-0.100000,0.387500,$1*%
%AMFreePoly3*
4,1,18,-0.100000,0.387500,-0.096194,0.406634,-0.085355,0.422855,-0.069134,0.433694,-0.050000,0.437500,0.050000,0.437500,0.100000,0.387500,0.100000,-0.387500,0.096194,-0.406634,0.085355,-0.422855,0.069134,-0.433694,0.050000,-0.437500,-0.050000,-0.437500,-0.069134,-0.433694,-0.085355,-0.422855,-0.096194,-0.406634,-0.100000,-0.387500,-0.100000,0.387500,-0.100000,0.387500,$1*%
%AMFreePoly4*
4,1,18,-0.437500,0.050000,-0.433694,0.069134,-0.422855,0.085355,-0.406634,0.096194,-0.387500,0.100000,0.387500,0.100000,0.406634,0.096194,0.422855,0.085355,0.433694,0.069134,0.437500,0.050000,0.437500,-0.050000,0.433694,-0.069134,0.422855,-0.085355,0.406634,-0.096194,0.387500,-0.100000,-0.387500,-0.100000,-0.437500,-0.050000,-0.437500,0.050000,-0.437500,0.050000,$1*%
%AMFreePoly5*
4,1,18,-0.437500,0.050000,-0.387500,0.100000,0.387500,0.100000,0.406634,0.096194,0.422855,0.085355,0.433694,0.069134,0.437500,0.050000,0.437500,-0.050000,0.433694,-0.069134,0.422855,-0.085355,0.406634,-0.096194,0.387500,-0.100000,-0.387500,-0.100000,-0.406634,-0.096194,-0.422855,-0.085355,-0.433694,-0.069134,-0.437500,-0.050000,-0.437500,0.050000,-0.437500,0.050000,$1*%
%AMFreePoly6*
4,1,18,-0.100000,0.387500,-0.096194,0.406634,-0.085355,0.422855,-0.069134,0.433694,-0.050000,0.437500,0.050000,0.437500,0.069134,0.433694,0.085355,0.422855,0.096194,0.406634,0.100000,0.387500,0.100000,-0.387500,0.050000,-0.437500,-0.050000,-0.437500,-0.069134,-0.433694,-0.085355,-0.422855,-0.096194,-0.406634,-0.100000,-0.387500,-0.100000,0.387500,-0.100000,0.387500,$1*%
%AMFreePoly7*
4,1,18,-0.100000,0.387500,-0.096194,0.406634,-0.085355,0.422855,-0.069134,0.433694,-0.050000,0.437500,0.050000,0.437500,0.069134,0.433694,0.085355,0.422855,0.096194,0.406634,0.100000,0.387500,0.100000,-0.387500,0.096194,-0.406634,0.085355,-0.422855,0.069134,-0.433694,0.050000,-0.437500,-0.050000,-0.437500,-0.100000,-0.387500,-0.100000,0.387500,-0.100000,0.387500,$1*%
G04 Aperture macros list end*
G04 #@! TA.AperFunction,SMDPad,CuDef*
%ADD10RoundRect,0.140000X-0.140000X-0.170000X0.140000X-0.170000X0.140000X0.170000X-0.140000X0.170000X0*%
G04 #@! TD*
G04 #@! TA.AperFunction,SMDPad,CuDef*
%ADD11RoundRect,0.140000X0.170000X-0.140000X0.170000X0.140000X-0.170000X0.140000X-0.170000X-0.140000X0*%
G04 #@! TD*
G04 #@! TA.AperFunction,SMDPad,CuDef*
%ADD12R,1.050000X0.600000*%
G04 #@! TD*
G04 #@! TA.AperFunction,SMDPad,CuDef*
%ADD13RoundRect,0.250000X0.250000X0.475000X-0.250000X0.475000X-0.250000X-0.475000X0.250000X-0.475000X0*%
G04 #@! TD*
G04 #@! TA.AperFunction,SMDPad,CuDef*
%ADD14RoundRect,0.135000X-0.185000X0.135000X-0.185000X-0.135000X0.185000X-0.135000X0.185000X0.135000X0*%
G04 #@! TD*
G04 #@! TA.AperFunction,SMDPad,CuDef*
%ADD15RoundRect,0.135000X-0.135000X-0.185000X0.135000X-0.185000X0.135000X0.185000X-0.135000X0.185000X0*%
G04 #@! TD*
G04 #@! TA.AperFunction,SMDPad,CuDef*
%ADD16RoundRect,0.135000X0.135000X0.185000X-0.135000X0.185000X-0.135000X-0.185000X0.135000X-0.185000X0*%
G04 #@! TD*
G04 #@! TA.AperFunction,SMDPad,CuDef*
%ADD17RoundRect,0.135000X0.185000X-0.135000X0.185000X0.135000X-0.185000X0.135000X-0.185000X-0.135000X0*%
G04 #@! TD*
G04 #@! TA.AperFunction,SMDPad,CuDef*
%ADD18RoundRect,0.250000X0.475000X-0.250000X0.475000X0.250000X-0.475000X0.250000X-0.475000X-0.250000X0*%
G04 #@! TD*
G04 #@! TA.AperFunction,SMDPad,CuDef*
%ADD19RoundRect,0.150000X0.650000X0.150000X-0.650000X0.150000X-0.650000X-0.150000X0.650000X-0.150000X0*%
G04 #@! TD*
G04 #@! TA.AperFunction,SMDPad,CuDef*
%ADD20C,1.000000*%
G04 #@! TD*
G04 #@! TA.AperFunction,SMDPad,CuDef*
%ADD21R,1.200000X1.400000*%
G04 #@! TD*
G04 #@! TA.AperFunction,ComponentPad*
%ADD22C,1.700000*%
G04 #@! TD*
G04 #@! TA.AperFunction,SMDPad,CuDef*
%ADD23RoundRect,0.140000X0.140000X0.170000X-0.140000X0.170000X-0.140000X-0.170000X0.140000X-0.170000X0*%
G04 #@! TD*
G04 #@! TA.AperFunction,SMDPad,CuDef*
%ADD24RoundRect,0.218750X0.256250X-0.218750X0.256250X0.218750X-0.256250X0.218750X-0.256250X-0.218750X0*%
G04 #@! TD*
G04 #@! TA.AperFunction,SMDPad,CuDef*
%ADD25RoundRect,0.250000X0.300000X0.300000X-0.300000X0.300000X-0.300000X-0.300000X0.300000X-0.300000X0*%
G04 #@! TD*
G04 #@! TA.AperFunction,ComponentPad*
%ADD26C,1.320800*%
G04 #@! TD*
G04 #@! TA.AperFunction,SMDPad,CuDef*
%ADD27RoundRect,0.140000X-0.170000X0.140000X-0.170000X-0.140000X0.170000X-0.140000X0.170000X0.140000X0*%
G04 #@! TD*
G04 #@! TA.AperFunction,SMDPad,CuDef*
%ADD28RoundRect,0.150000X-0.587500X-0.150000X0.587500X-0.150000X0.587500X0.150000X-0.587500X0.150000X0*%
G04 #@! TD*
G04 #@! TA.AperFunction,SMDPad,CuDef*
%ADD29FreePoly0,90.000000*%
G04 #@! TD*
G04 #@! TA.AperFunction,SMDPad,CuDef*
%ADD30RoundRect,0.050000X0.050000X-0.387500X0.050000X0.387500X-0.050000X0.387500X-0.050000X-0.387500X0*%
G04 #@! TD*
G04 #@! TA.AperFunction,SMDPad,CuDef*
%ADD31FreePoly1,90.000000*%
G04 #@! TD*
G04 #@! TA.AperFunction,SMDPad,CuDef*
%ADD32FreePoly2,90.000000*%
G04 #@! TD*
G04 #@! TA.AperFunction,SMDPad,CuDef*
%ADD33RoundRect,0.050000X0.387500X-0.050000X0.387500X0.050000X-0.387500X0.050000X-0.387500X-0.050000X0*%
G04 #@! TD*
G04 #@! TA.AperFunction,SMDPad,CuDef*
%ADD34FreePoly3,90.000000*%
G04 #@! TD*
G04 #@! TA.AperFunction,SMDPad,CuDef*
%ADD35FreePoly4,90.000000*%
G04 #@! TD*
G04 #@! TA.AperFunction,SMDPad,CuDef*
%ADD36FreePoly5,90.000000*%
G04 #@! TD*
G04 #@! TA.AperFunction,SMDPad,CuDef*
%ADD37FreePoly6,90.000000*%
G04 #@! TD*
G04 #@! TA.AperFunction,SMDPad,CuDef*
%ADD38FreePoly7,90.000000*%
G04 #@! TD*
G04 #@! TA.AperFunction,ComponentPad*
%ADD39C,0.600000*%
G04 #@! TD*
G04 #@! TA.AperFunction,SMDPad,CuDef*
%ADD40RoundRect,0.153000X1.547000X1.547000X-1.547000X1.547000X-1.547000X-1.547000X1.547000X-1.547000X0*%
G04 #@! TD*
G04 #@! TA.AperFunction,SMDPad,CuDef*
%ADD41R,1.050000X0.650000*%
G04 #@! TD*
G04 #@! TA.AperFunction,SMDPad,CuDef*
%ADD42C,1.700000*%
G04 #@! TD*
G04 #@! TA.AperFunction,SMDPad,CuDef*
%ADD43O,1.700000X1.700000*%
G04 #@! TD*
G04 #@! TA.AperFunction,SMDPad,CuDef*
%ADD44R,0.700000X1.700000*%
G04 #@! TD*
G04 #@! TA.AperFunction,SMDPad,CuDef*
%ADD45RoundRect,0.150000X-0.425000X0.150000X-0.425000X-0.150000X0.425000X-0.150000X0.425000X0.150000X0*%
G04 #@! TD*
G04 #@! TA.AperFunction,SMDPad,CuDef*
%ADD46RoundRect,0.075000X-0.500000X0.075000X-0.500000X-0.075000X0.500000X-0.075000X0.500000X0.075000X0*%
G04 #@! TD*
G04 #@! TA.AperFunction,ComponentPad*
%ADD47O,2.100000X1.000000*%
G04 #@! TD*
G04 #@! TA.AperFunction,ComponentPad*
%ADD48O,1.800000X1.000000*%
G04 #@! TD*
G04 #@! TA.AperFunction,SMDPad,CuDef*
%ADD49RoundRect,0.375000X-0.625000X-0.375000X0.625000X-0.375000X0.625000X0.375000X-0.625000X0.375000X0*%
G04 #@! TD*
G04 #@! TA.AperFunction,SMDPad,CuDef*
%ADD50RoundRect,0.500000X-0.500000X-1.400000X0.500000X-1.400000X0.500000X1.400000X-0.500000X1.400000X0*%
G04 #@! TD*
G04 #@! TA.AperFunction,ViaPad*
%ADD51C,0.600000*%
G04 #@! TD*
G04 #@! TA.AperFunction,ViaPad*
%ADD52C,1.270000*%
G04 #@! TD*
G04 #@! TA.AperFunction,Conductor*
%ADD53C,0.175000*%
G04 #@! TD*
G04 #@! TA.AperFunction,Conductor*
%ADD54C,0.200000*%
G04 #@! TD*
G04 #@! TA.AperFunction,Conductor*
%ADD55C,0.500000*%
G04 #@! TD*
G04 #@! TA.AperFunction,Conductor*
%ADD56C,0.750000*%
G04 #@! TD*
G04 #@! TA.AperFunction,Conductor*
%ADD57C,1.000000*%
G04 #@! TD*
G04 #@! TA.AperFunction,Conductor*
%ADD58C,0.150000*%
G04 #@! TD*
G04 #@! TA.AperFunction,Conductor*
%ADD59C,0.250000*%
G04 #@! TD*
G04 #@! TA.AperFunction,Conductor*
%ADD60C,0.152400*%
G04 #@! TD*
G04 #@! TA.AperFunction,Conductor*
%ADD61C,0.600000*%
G04 #@! TD*
G04 APERTURE END LIST*
D10*
X124502600Y-71152600D03*
X125462600Y-71152600D03*
D11*
X96902600Y-58602600D03*
X96902600Y-57642600D03*
D12*
X84452600Y-62742600D03*
X84452600Y-64642600D03*
X86652600Y-63692600D03*
D10*
X107002600Y-67477600D03*
X107962600Y-67477600D03*
D13*
X114532600Y-70577600D03*
X112632600Y-70577600D03*
D14*
X106107600Y-69157600D03*
X106107600Y-70177600D03*
D15*
X97267600Y-61052600D03*
X98287600Y-61052600D03*
D16*
X121992600Y-71152600D03*
X120972600Y-71152600D03*
D17*
X94502600Y-58632600D03*
X94502600Y-57612600D03*
D15*
X117322600Y-66252600D03*
X118342600Y-66252600D03*
D18*
X84007600Y-71852600D03*
X84007600Y-69952600D03*
D10*
X113052600Y-66202600D03*
X114012600Y-66202600D03*
D19*
X102882600Y-72052600D03*
X102882600Y-70782600D03*
X102882600Y-69512600D03*
X102882600Y-68242600D03*
X95682600Y-68242600D03*
X95682600Y-69512600D03*
X95682600Y-70782600D03*
X95682600Y-72052600D03*
D20*
X129507600Y-55027600D03*
D17*
X89132600Y-59870100D03*
X89132600Y-58850100D03*
D21*
X118986241Y-60902600D03*
X118986241Y-58702600D03*
X117286241Y-58702600D03*
X117286241Y-60902600D03*
D22*
X124782600Y-55402600D03*
D14*
X119157600Y-64267600D03*
X119157600Y-65287600D03*
D10*
X110627600Y-63627600D03*
X111587600Y-63627600D03*
D23*
X114012600Y-68702600D03*
X113052600Y-68702600D03*
D24*
X92942600Y-57202600D03*
X92942600Y-55627600D03*
D23*
X114012600Y-67452600D03*
X113052600Y-67452600D03*
D25*
X81457600Y-71252600D03*
X78657600Y-71252600D03*
D24*
X91037600Y-57202600D03*
X91037600Y-55627600D03*
D26*
X124010100Y-59892485D03*
X124010100Y-62432485D03*
X124010100Y-64972485D03*
X124010100Y-67512485D03*
X126550100Y-67512485D03*
X126550100Y-64972485D03*
X126550100Y-62432485D03*
X126550100Y-59892485D03*
D10*
X113052600Y-63752600D03*
X114012600Y-63752600D03*
D27*
X95702600Y-57617600D03*
X95702600Y-58577600D03*
D10*
X108727600Y-57927600D03*
X109687600Y-57927600D03*
D28*
X117020100Y-67877600D03*
X117020100Y-69777600D03*
X118895100Y-68827600D03*
D24*
X89132600Y-57202600D03*
X89132600Y-55627600D03*
D29*
X101282600Y-65690100D03*
D30*
X101682600Y-65690100D03*
X102082600Y-65690100D03*
X102482600Y-65690100D03*
X102882600Y-65690100D03*
X103282600Y-65690100D03*
X103682600Y-65690100D03*
X104082600Y-65690100D03*
X104482600Y-65690100D03*
X104882600Y-65690100D03*
X105282600Y-65690100D03*
X105682600Y-65690100D03*
X106082600Y-65690100D03*
X106482600Y-65690100D03*
D31*
X106882600Y-65690100D03*
D32*
X107520100Y-65052600D03*
D33*
X107520100Y-64652600D03*
X107520100Y-64252600D03*
X107520100Y-63852600D03*
X107520100Y-63452600D03*
X107520100Y-63052600D03*
X107520100Y-62652600D03*
X107520100Y-62252600D03*
X107520100Y-61852600D03*
X107520100Y-61452600D03*
X107520100Y-61052600D03*
X107520100Y-60652600D03*
X107520100Y-60252600D03*
X107520100Y-59852600D03*
D34*
X107520100Y-59452600D03*
D35*
X106882600Y-58815100D03*
D30*
X106482600Y-58815100D03*
X106082600Y-58815100D03*
X105682600Y-58815100D03*
X105282600Y-58815100D03*
X104882600Y-58815100D03*
X104482600Y-58815100D03*
X104082600Y-58815100D03*
X103682600Y-58815100D03*
X103282600Y-58815100D03*
X102882600Y-58815100D03*
X102482600Y-58815100D03*
X102082600Y-58815100D03*
X101682600Y-58815100D03*
D36*
X101282600Y-58815100D03*
D37*
X100645100Y-59452600D03*
D33*
X100645100Y-59852600D03*
X100645100Y-60252600D03*
X100645100Y-60652600D03*
X100645100Y-61052600D03*
X100645100Y-61452600D03*
X100645100Y-61852600D03*
X100645100Y-62252600D03*
X100645100Y-62652600D03*
X100645100Y-63052600D03*
X100645100Y-63452600D03*
X100645100Y-63852600D03*
X100645100Y-64252600D03*
X100645100Y-64652600D03*
D38*
X100645100Y-65052600D03*
D39*
X102707600Y-63627600D03*
X104082600Y-63627600D03*
X105457600Y-63627600D03*
X102707600Y-62252600D03*
X104082600Y-62252600D03*
D40*
X104082600Y-62252600D03*
D39*
X105457600Y-62252600D03*
X102707600Y-60877600D03*
X104082600Y-60877600D03*
X105457600Y-60877600D03*
D41*
X78007600Y-55277600D03*
X82157600Y-55277600D03*
X78007600Y-57427600D03*
X82132600Y-57427600D03*
D10*
X113052600Y-64977600D03*
X114012600Y-64977600D03*
D16*
X84917600Y-57102600D03*
X83897600Y-57102600D03*
D23*
X110362600Y-64952600D03*
X109402600Y-64952600D03*
D17*
X92982600Y-59870100D03*
X92982600Y-58850100D03*
D42*
X120042600Y-55502600D03*
D43*
X117502600Y-55502600D03*
X114962600Y-55502600D03*
X112422600Y-55502600D03*
X109882600Y-55502600D03*
X107342600Y-55502600D03*
X104802600Y-55502600D03*
D27*
X114857600Y-60702600D03*
X114857600Y-61662600D03*
D44*
X101482600Y-57052600D03*
X100082600Y-57052600D03*
D13*
X111107600Y-69277600D03*
X109207600Y-69277600D03*
D23*
X110412600Y-66202600D03*
X109452600Y-66202600D03*
D11*
X98102600Y-58577600D03*
X98102600Y-57617600D03*
D15*
X84197600Y-58427600D03*
X85217600Y-58427600D03*
X112147600Y-61402600D03*
X113167600Y-61402600D03*
D11*
X114882600Y-58707600D03*
X114882600Y-57747600D03*
D16*
X106617600Y-71727600D03*
X105597600Y-71727600D03*
D45*
X82582600Y-60496714D03*
X82582600Y-61296714D03*
D46*
X82582600Y-62446714D03*
X82582600Y-63446714D03*
X82582600Y-63946714D03*
X82582600Y-64946714D03*
D45*
X82582600Y-66096714D03*
X82582600Y-66896714D03*
X82582600Y-66896714D03*
X82582600Y-66096714D03*
D46*
X82582600Y-65446714D03*
X82582600Y-64446714D03*
X82582600Y-62946714D03*
X82582600Y-61946714D03*
D45*
X82582600Y-61296714D03*
X82582600Y-60496714D03*
D47*
X82007600Y-59376714D03*
D48*
X77827600Y-59376714D03*
D47*
X82007600Y-68016714D03*
D48*
X77827600Y-68016714D03*
D23*
X110437600Y-67502600D03*
X109477600Y-67502600D03*
D15*
X97267600Y-62152600D03*
X98287600Y-62152600D03*
X78172600Y-69552600D03*
X79192600Y-69552600D03*
D14*
X105157600Y-69167600D03*
X105157600Y-70187600D03*
D23*
X94037600Y-62327600D03*
X93077600Y-62327600D03*
D49*
X86332600Y-66752600D03*
X86332600Y-69052600D03*
D50*
X92632600Y-69052600D03*
D49*
X86332600Y-71352600D03*
D17*
X91057600Y-59870100D03*
X91057600Y-58850100D03*
D51*
X118982600Y-56727600D03*
X116832600Y-71227600D03*
X130957600Y-65627600D03*
X99407600Y-70027600D03*
X121457600Y-65752600D03*
X121732600Y-57502600D03*
X105232600Y-57402600D03*
X79157600Y-65377600D03*
X114932600Y-65702600D03*
X77332600Y-69902600D03*
X115932600Y-61177600D03*
X112307600Y-62877600D03*
X118332600Y-65527600D03*
X89457600Y-60902600D03*
X128882600Y-64602600D03*
X77257600Y-63802600D03*
X109687600Y-57927600D03*
X99732600Y-58852600D03*
X122657600Y-60777600D03*
X112032600Y-59827600D03*
X97757600Y-70002600D03*
D52*
X120042600Y-55502600D03*
D51*
X90157600Y-71377600D03*
X95657600Y-60627600D03*
X118907600Y-54552600D03*
X89332600Y-72152600D03*
X83532600Y-67202600D03*
X77532600Y-61252600D03*
X109557600Y-58827600D03*
X90332600Y-66752600D03*
X80032600Y-71352600D03*
X118382600Y-67327600D03*
X108857600Y-64077600D03*
X97757600Y-68277600D03*
X110332600Y-58202600D03*
X77532600Y-62577600D03*
X115507600Y-63027600D03*
X88432600Y-66752600D03*
X106082600Y-54377600D03*
X127757600Y-57127600D03*
X122407600Y-55527600D03*
X129207600Y-67677600D03*
X80707600Y-60102600D03*
X108732600Y-60452600D03*
X115682600Y-57952600D03*
X107357600Y-57077600D03*
X88207600Y-71427600D03*
X129182600Y-70877600D03*
X89407600Y-65002600D03*
X129132600Y-59227600D03*
X96882600Y-56552600D03*
X96157600Y-59827600D03*
X95507600Y-64252600D03*
X84882600Y-60427600D03*
X90132600Y-62327600D03*
X84582600Y-68802600D03*
X83682600Y-59952600D03*
X76957600Y-56202600D03*
X126232599Y-54540947D03*
X80357600Y-68952600D03*
X111385759Y-67390100D03*
X92182600Y-65202600D03*
X82682600Y-70677600D03*
X131332600Y-69252600D03*
X79282600Y-56177600D03*
X108082600Y-68402600D03*
X115557600Y-68677600D03*
X107732600Y-69177600D03*
X118832600Y-71202600D03*
X88732600Y-62327600D03*
X126882600Y-69602600D03*
X80732600Y-67077600D03*
X105982600Y-57402600D03*
X86157600Y-54902600D03*
X101057600Y-70077600D03*
X114107600Y-57877600D03*
X97257600Y-66677600D03*
X77132600Y-72477600D03*
X110082600Y-68302600D03*
X111432600Y-65952600D03*
X78407600Y-66227600D03*
X99407600Y-68277600D03*
X80182600Y-67902600D03*
X108782600Y-67877600D03*
X112032600Y-60527600D03*
X85132600Y-63692600D03*
X92707600Y-60877600D03*
X121057600Y-68127600D03*
X109382600Y-63602600D03*
X81432600Y-69177600D03*
X96457600Y-63302600D03*
X98082600Y-56602600D03*
X85782600Y-63692600D03*
X123382600Y-69527600D03*
X87307600Y-55927600D03*
X107707600Y-65902600D03*
X130982600Y-57302600D03*
X101457600Y-68252600D03*
X117207600Y-62652600D03*
X131032600Y-60577600D03*
X121632600Y-54602600D03*
X121432600Y-64077600D03*
X83682600Y-61302600D03*
D52*
X107332600Y-55502600D03*
D51*
X128132600Y-62427600D03*
X121837485Y-62432485D03*
X122707600Y-62432485D03*
X83682600Y-66102600D03*
X128932600Y-62427600D03*
X93882600Y-71552600D03*
X100632600Y-66327600D03*
X93882600Y-70877600D03*
X94397600Y-61967600D03*
X94457600Y-59952600D03*
X111107600Y-71002600D03*
X93882600Y-65602600D03*
X93807600Y-70227600D03*
X93882600Y-66252600D03*
X98102600Y-58577600D03*
X111782600Y-64977600D03*
X93882600Y-64952600D03*
X112482603Y-64977600D03*
D52*
X104807600Y-55527600D03*
D51*
X99657600Y-62452600D03*
X101482600Y-57552600D03*
X104570370Y-60103100D03*
X110620100Y-63065100D03*
X108727600Y-57927600D03*
X103307600Y-66642600D03*
X103782600Y-57752600D03*
X106232100Y-61852600D03*
X104282600Y-64402100D03*
X97858856Y-60302386D03*
X109273026Y-62068026D03*
X101933100Y-61452600D03*
D52*
X114962600Y-55502600D03*
X117502600Y-55502600D03*
D51*
X106957600Y-70227600D03*
D52*
X109882600Y-55502600D03*
D51*
X101598450Y-66642600D03*
X110382600Y-59852600D03*
X102398295Y-66626736D03*
X109583014Y-59826807D03*
D52*
X112422600Y-55502600D03*
D53*
X106082600Y-56141419D02*
X106082600Y-54377600D01*
X110057600Y-57927600D02*
X110332600Y-58202600D01*
X112307600Y-62907600D02*
X111587600Y-63627600D01*
X107707600Y-65779898D02*
X107707600Y-65902600D01*
D54*
X118342600Y-66252600D02*
X118342600Y-65537600D01*
D53*
X109687600Y-57927600D02*
X108837600Y-57077600D01*
X108732600Y-59652600D02*
X108732600Y-60452600D01*
D55*
X82582600Y-60502600D02*
X83132600Y-60502600D01*
D53*
X107357600Y-57077600D02*
X107018781Y-57077600D01*
D55*
X111385759Y-67390100D02*
X112632600Y-68636941D01*
X109452600Y-65002600D02*
X109402600Y-64952600D01*
X84582600Y-68542550D02*
X86332600Y-66792550D01*
X109157600Y-67502600D02*
X108782600Y-67877600D01*
D53*
X108857600Y-64077600D02*
X109005100Y-64225100D01*
X80357600Y-68952600D02*
X79792600Y-68952600D01*
D55*
X113052600Y-67452600D02*
X111448259Y-67452600D01*
X108382600Y-67477600D02*
X108782600Y-67877600D01*
D54*
X105457600Y-63627600D02*
X102707600Y-63627600D01*
X118382600Y-67327600D02*
X118382600Y-67902600D01*
D53*
X79792600Y-68952600D02*
X79192600Y-69552600D01*
X108857600Y-64077600D02*
X108857600Y-64629898D01*
D54*
X115682600Y-57952600D02*
X115087600Y-57952600D01*
D53*
X109687600Y-58697600D02*
X109557600Y-58827600D01*
D54*
X114882600Y-57747600D02*
X114237600Y-57747600D01*
D55*
X84582600Y-68802600D02*
X84582600Y-68542550D01*
D54*
X118458676Y-65527600D02*
X118770100Y-65839024D01*
X110082600Y-68302600D02*
X110082600Y-68107600D01*
D53*
X108837600Y-57077600D02*
X107357600Y-57077600D01*
D54*
X102707600Y-63627600D02*
X102707600Y-60877600D01*
D55*
X83132600Y-60502600D02*
X83682600Y-59952600D01*
D54*
X118770100Y-65839024D02*
X118770100Y-66940100D01*
X114237600Y-57747600D02*
X114107600Y-57877600D01*
D55*
X113052600Y-67452600D02*
X113052600Y-68702600D01*
D53*
X109005100Y-64225100D02*
X110990100Y-64225100D01*
D55*
X112632600Y-68636941D02*
X112632600Y-70577600D01*
D53*
X110990100Y-64225100D02*
X111587600Y-63627600D01*
D54*
X101467600Y-68242600D02*
X102882600Y-68242600D01*
X118770100Y-66940100D02*
X118382600Y-67327600D01*
D55*
X84582600Y-68802600D02*
X84582600Y-69377600D01*
D54*
X118342600Y-65537600D02*
X118332600Y-65527600D01*
D55*
X109452600Y-66202600D02*
X109452600Y-65002600D01*
D54*
X115087600Y-57952600D02*
X114882600Y-57747600D01*
X113982600Y-57877600D02*
X112032600Y-59827600D01*
X118382600Y-67902600D02*
X117607600Y-68677600D01*
D53*
X99732600Y-58852600D02*
X99732600Y-59454898D01*
D54*
X118332600Y-65527600D02*
X118458676Y-65527600D01*
D53*
X109687600Y-57927600D02*
X109687600Y-58697600D01*
D54*
X110082600Y-68107600D02*
X109477600Y-67502600D01*
D53*
X108857600Y-64629898D02*
X107707600Y-65779898D01*
X107018781Y-57077600D02*
X106082600Y-56141419D01*
D56*
X85132600Y-63692600D02*
X86652600Y-63692600D01*
D53*
X112307600Y-62877600D02*
X112307600Y-62907600D01*
X100130302Y-59852600D02*
X100645100Y-59852600D01*
X115357600Y-62877600D02*
X115507600Y-63027600D01*
D54*
X105457600Y-60877600D02*
X105457600Y-63627600D01*
D55*
X109477600Y-67502600D02*
X109157600Y-67502600D01*
D53*
X109557600Y-58827600D02*
X108732600Y-59652600D01*
X99732600Y-59454898D02*
X100130302Y-59852600D01*
D54*
X102707600Y-60877600D02*
X105457600Y-60877600D01*
D53*
X112307600Y-62877600D02*
X115357600Y-62877600D01*
X109687600Y-57927600D02*
X110057600Y-57927600D01*
D55*
X84582600Y-69377600D02*
X84007600Y-69952600D01*
D54*
X114107600Y-57877600D02*
X113982600Y-57877600D01*
D55*
X107962600Y-67477600D02*
X108382600Y-67477600D01*
D54*
X101457600Y-68252600D02*
X101467600Y-68242600D01*
D55*
X83532600Y-67202600D02*
X83232600Y-66902600D01*
X111448259Y-67452600D02*
X111385759Y-67390100D01*
D54*
X114012600Y-66202600D02*
X114432600Y-66202600D01*
D55*
X109402600Y-64952600D02*
X109402600Y-64622600D01*
X109402600Y-64622600D02*
X108857600Y-64077600D01*
D54*
X114432600Y-66202600D02*
X114932600Y-65702600D01*
X117607600Y-68677600D02*
X115557600Y-68677600D01*
D55*
X83232600Y-66902600D02*
X82582600Y-66902600D01*
D54*
X90307600Y-54452600D02*
X89132600Y-55627600D01*
X90307600Y-54452600D02*
X102282600Y-54452600D01*
X103282600Y-55452600D02*
X102282600Y-54452600D01*
X103282600Y-58815100D02*
X103282600Y-55452600D01*
X92942600Y-57202600D02*
X92942600Y-58810100D01*
X89132600Y-57202600D02*
X89132600Y-58850100D01*
X91812600Y-54852600D02*
X102116914Y-54852600D01*
X102882600Y-55618286D02*
X102116914Y-54852600D01*
X91812600Y-54852600D02*
X91037600Y-55627600D01*
X102882600Y-58815100D02*
X102882600Y-55618286D01*
X102482600Y-55783972D02*
X101951228Y-55252600D01*
X93317600Y-55252600D02*
X92942600Y-55627600D01*
X93317600Y-55252600D02*
X101951228Y-55252600D01*
X102482600Y-58815100D02*
X102482600Y-55783972D01*
X91037600Y-57202600D02*
X91037600Y-58830100D01*
D53*
X115945100Y-66802600D02*
X107132600Y-66802600D01*
X117020100Y-67877600D02*
X117322600Y-67575100D01*
X124782600Y-55402600D02*
X124782600Y-56981241D01*
X106882600Y-66552600D02*
X106882600Y-65690100D01*
X107132600Y-66802600D02*
X106882600Y-66552600D01*
X117322600Y-64441241D02*
X117322600Y-66252600D01*
X124782600Y-56981241D02*
X117322600Y-64441241D01*
X117020100Y-67877600D02*
X115945100Y-66802600D01*
X117322600Y-67575100D02*
X117322600Y-66252600D01*
X127266571Y-55027600D02*
X118550100Y-63744071D01*
X118895100Y-68827600D02*
X120972600Y-70905100D01*
X119157600Y-68565100D02*
X119157600Y-65287600D01*
X120972600Y-70905100D02*
X120972600Y-71152600D01*
X118895100Y-68827600D02*
X119157600Y-68565100D01*
X118550100Y-63744071D02*
X118550100Y-64680100D01*
X129507600Y-55027600D02*
X127266571Y-55027600D01*
X118550100Y-64680100D02*
X119157600Y-65287600D01*
X125132600Y-63554985D02*
X125132600Y-70522600D01*
D54*
X86507600Y-61302600D02*
X83682600Y-61302600D01*
X89132600Y-59870100D02*
X87940100Y-59870100D01*
D55*
X82582600Y-61302600D02*
X83353261Y-61302600D01*
D57*
X128127715Y-62432485D02*
X128132600Y-62427600D01*
D55*
X83682600Y-66102600D02*
X82582600Y-66102600D01*
X81882600Y-70252600D02*
X79657600Y-70252600D01*
D57*
X121837485Y-62432485D02*
X124010100Y-62432485D01*
D54*
X91057600Y-59870100D02*
X89132600Y-59870100D01*
X92982600Y-59870100D02*
X91057600Y-59870100D01*
D55*
X84282600Y-66702600D02*
X84282600Y-67852600D01*
X84282600Y-67852600D02*
X81882600Y-70252600D01*
X79657600Y-70252600D02*
X78657600Y-71252600D01*
D57*
X128132600Y-62427600D02*
X128932600Y-62427600D01*
X126550100Y-62432485D02*
X128127715Y-62432485D01*
D53*
X124010100Y-62432485D02*
X125132600Y-63554985D01*
D55*
X83353261Y-61302600D02*
X83682600Y-61302600D01*
D53*
X125132600Y-70522600D02*
X124502600Y-71152600D01*
D55*
X83682600Y-66102600D02*
X84282600Y-66702600D01*
D54*
X87940100Y-59870100D02*
X86507600Y-61302600D01*
D58*
X118161241Y-60852600D02*
X118161241Y-59927600D01*
X118161241Y-59927600D02*
X115691820Y-59927600D01*
X118986241Y-60852600D02*
X118161241Y-60852600D01*
X109794427Y-63077600D02*
X107545100Y-63077600D01*
X110869427Y-62002600D02*
X109794427Y-63077600D01*
X113632600Y-62002600D02*
X110869427Y-62002600D01*
X115691820Y-59927600D02*
X114272600Y-61346820D01*
X114272600Y-61362600D02*
X113632600Y-62002600D01*
X114272600Y-61346820D02*
X114272600Y-61362600D01*
D55*
X117286241Y-58702600D02*
X114887600Y-58702600D01*
D53*
X114882600Y-59687600D02*
X113167600Y-61402600D01*
X114882600Y-58707600D02*
X114882600Y-59687600D01*
D54*
X98102600Y-58577600D02*
X98102600Y-59697600D01*
D53*
X101282600Y-66127600D02*
X101082600Y-66327600D01*
D55*
X94502600Y-59907600D02*
X94502600Y-58632600D01*
X111107600Y-69277600D02*
X111107600Y-68172600D01*
D53*
X107520100Y-63452600D02*
X106657600Y-63452600D01*
X101282600Y-65690100D02*
X101282600Y-66127600D01*
D55*
X113052600Y-63752600D02*
X113052600Y-66202600D01*
D54*
X95682600Y-72052600D02*
X94382600Y-72052600D01*
D56*
X92632600Y-69052600D02*
X92632600Y-67502600D01*
D55*
X111107600Y-68172600D02*
X110437600Y-67502600D01*
D53*
X105282600Y-65690100D02*
X105282600Y-64802600D01*
D55*
X110362600Y-64952600D02*
X110362600Y-66152600D01*
D57*
X86332600Y-69052600D02*
X92632600Y-69052600D01*
D53*
X101370100Y-59283512D02*
X101282600Y-59196012D01*
X101682600Y-59627600D02*
X101707600Y-59652600D01*
X101282600Y-59196012D02*
X101282600Y-58815100D01*
D55*
X111782600Y-64977600D02*
X113052600Y-64977600D01*
X111107600Y-71802600D02*
X111257600Y-71952600D01*
D54*
X98102600Y-59697600D02*
X98437600Y-60032600D01*
D53*
X101682600Y-58815100D02*
X101682600Y-59627600D01*
X99857600Y-62652600D02*
X99657600Y-62452600D01*
D55*
X114012600Y-68702600D02*
X114012600Y-67452600D01*
X111257600Y-71952600D02*
X113157600Y-71952600D01*
D53*
X101682600Y-58815100D02*
X101682600Y-59652600D01*
D55*
X111107600Y-69277600D02*
X111107600Y-70302600D01*
D54*
X99813972Y-60652600D02*
X100645100Y-60652600D01*
D53*
X107520100Y-59452600D02*
X107520100Y-58109249D01*
D54*
X100645100Y-60652600D02*
X101482600Y-60652600D01*
X98437600Y-60032600D02*
X99193972Y-60032600D01*
D53*
X100645100Y-62252600D02*
X99857600Y-62252600D01*
D56*
X92632600Y-67502600D02*
X93882600Y-66252600D01*
D53*
X104082600Y-58815100D02*
X104082600Y-59527600D01*
D56*
X93807600Y-70227600D02*
X92632600Y-69052600D01*
D59*
X111082600Y-70327600D02*
X111107600Y-70302600D01*
D53*
X104082600Y-59527600D02*
X104032600Y-59577600D01*
D55*
X111757600Y-64952600D02*
X110362600Y-64952600D01*
X111107600Y-70302600D02*
X111107600Y-71802600D01*
X111782600Y-64977600D02*
X111757600Y-64952600D01*
X111107600Y-71802600D02*
X111107600Y-71002600D01*
D59*
X107982600Y-70327600D02*
X111082600Y-70327600D01*
D53*
X100645100Y-62652600D02*
X101457600Y-62652600D01*
D56*
X93882600Y-71552600D02*
X93882600Y-70877600D01*
D53*
X100645100Y-62652600D02*
X99857600Y-62652600D01*
X107520100Y-58109249D02*
X104938451Y-55527600D01*
X101082600Y-66327600D02*
X100632600Y-66327600D01*
X100645100Y-62252600D02*
X101457600Y-62252600D01*
D59*
X106812600Y-69157600D02*
X107982600Y-70327600D01*
D56*
X93882600Y-70302600D02*
X93807600Y-70227600D01*
D54*
X94382600Y-72052600D02*
X93882600Y-71552600D01*
D53*
X99857600Y-62252600D02*
X99657600Y-62452600D01*
X101370100Y-59340100D02*
X101370100Y-59283512D01*
X101682600Y-59652600D02*
X101370100Y-59340100D01*
D56*
X94397600Y-61967600D02*
X94037600Y-62327600D01*
D53*
X105282600Y-64802600D02*
X105257600Y-64777600D01*
D54*
X99193972Y-60032600D02*
X99813972Y-60652600D01*
D55*
X113157600Y-71952600D02*
X114532600Y-70577600D01*
D56*
X93882600Y-66252600D02*
X93882600Y-64952600D01*
D55*
X114532600Y-70577600D02*
X114532600Y-69222600D01*
D56*
X93882600Y-70877600D02*
X93882600Y-70302600D01*
D55*
X110362600Y-66152600D02*
X110412600Y-66202600D01*
D59*
X106107600Y-69157600D02*
X106812600Y-69157600D01*
D55*
X94457600Y-59952600D02*
X94502600Y-59907600D01*
X114532600Y-69222600D02*
X114012600Y-68702600D01*
X107002600Y-67477600D02*
X106167600Y-66642600D01*
D60*
X109088452Y-62252600D02*
X107520100Y-62252600D01*
D54*
X97858856Y-60322780D02*
X97968676Y-60432600D01*
D61*
X110620100Y-63620100D02*
X110627600Y-63627600D01*
D53*
X103682600Y-57852600D02*
X103682600Y-58815100D01*
D61*
X110620100Y-63065100D02*
X110620100Y-63620100D01*
D54*
X97858856Y-60302386D02*
X96902600Y-59346130D01*
D60*
X109273026Y-62068026D02*
X109088452Y-62252600D01*
D54*
X97968676Y-60432600D02*
X99028286Y-60432600D01*
X97858856Y-60302386D02*
X97858856Y-60322780D01*
X99648286Y-61052600D02*
X100645100Y-61052600D01*
X96902600Y-59346130D02*
X96902600Y-58602600D01*
D53*
X103782600Y-57752600D02*
X103682600Y-57852600D01*
D54*
X99028286Y-60432600D02*
X99648286Y-61052600D01*
D53*
X103282600Y-66617600D02*
X103282600Y-65690100D01*
D55*
X106167600Y-66642600D02*
X103307600Y-66642600D01*
D53*
X103307600Y-66642600D02*
X103282600Y-66617600D01*
X95702600Y-57617600D02*
X94522600Y-57617600D01*
X95702600Y-55797600D02*
X95860100Y-55640100D01*
X100720100Y-55990100D02*
X100720100Y-59377600D01*
X95702600Y-57617600D02*
X95702600Y-55797600D01*
X100370100Y-55640100D02*
X100720100Y-55990100D01*
X95860100Y-55640100D02*
X100370100Y-55640100D01*
X100720100Y-59377600D02*
X100645100Y-59452600D01*
D54*
X96576524Y-61232600D02*
X94256524Y-63552600D01*
X97202600Y-61232600D02*
X96576524Y-61232600D01*
D59*
X81939836Y-62952600D02*
X81682600Y-63209836D01*
X84085706Y-62952600D02*
X82582600Y-62952600D01*
X81682600Y-63695364D02*
X81939836Y-63952600D01*
D54*
X86972600Y-62742600D02*
X84487601Y-62742600D01*
D59*
X81682600Y-63209836D02*
X81682600Y-63695364D01*
D54*
X94256524Y-63552600D02*
X87782600Y-63552600D01*
D59*
X81939836Y-63952600D02*
X82582600Y-63952600D01*
X81914836Y-62977600D02*
X81682600Y-63209836D01*
D54*
X87782600Y-63552600D02*
X86972600Y-62742600D01*
D59*
X82582600Y-62952600D02*
X81939836Y-62952600D01*
D54*
X94422210Y-63952600D02*
X87782600Y-63952600D01*
X87782600Y-63952600D02*
X87092600Y-64642600D01*
D59*
X84143575Y-64452600D02*
X82582600Y-64452600D01*
X82582600Y-63452600D02*
X83225364Y-63452600D01*
X83482600Y-63709836D02*
X83482600Y-64202600D01*
X83232600Y-64452600D02*
X82582600Y-64452600D01*
D54*
X96597210Y-61777600D02*
X94422210Y-63952600D01*
X87092600Y-64642600D02*
X84487601Y-64642600D01*
D59*
X83482600Y-64202600D02*
X83232600Y-64452600D01*
D54*
X96892600Y-61777600D02*
X96597210Y-61777600D01*
D59*
X83225364Y-63452600D02*
X83482600Y-63709836D01*
D54*
X97267600Y-62152600D02*
X96892600Y-61777600D01*
D56*
X84007600Y-71852600D02*
X82057600Y-71852600D01*
X84507600Y-71352600D02*
X84007600Y-71852600D01*
X82057600Y-71852600D02*
X81457600Y-71252600D01*
X86332600Y-71352600D02*
X84507600Y-71352600D01*
D54*
X114962600Y-55572600D02*
X110982600Y-59552600D01*
X108509592Y-61452600D02*
X107520100Y-61452600D01*
X108909592Y-61052600D02*
X108509592Y-61452600D01*
X110982600Y-60101129D02*
X110031129Y-61052600D01*
X110982600Y-59552600D02*
X110982600Y-60101129D01*
X110031129Y-61052600D02*
X108909592Y-61052600D01*
D53*
X114405608Y-56677600D02*
X111370100Y-59713108D01*
X111370100Y-60261637D02*
X110191637Y-61440100D01*
X109070100Y-61440100D02*
X108657600Y-61852600D01*
X111370100Y-59713108D02*
X111370100Y-60261637D01*
X117502600Y-55502600D02*
X116327600Y-56677600D01*
X110191637Y-61440100D02*
X109070100Y-61440100D01*
X108657600Y-61852600D02*
X107520100Y-61852600D01*
X116327600Y-56677600D02*
X114405608Y-56677600D01*
D54*
X81107600Y-58427600D02*
X79882600Y-59652600D01*
X79882600Y-60360010D02*
X81975190Y-62452600D01*
X81975190Y-62452600D02*
X82582600Y-62452600D01*
X79882600Y-59652600D02*
X79882600Y-60360010D01*
X84197600Y-58427600D02*
X81107600Y-58427600D01*
X79282600Y-68442600D02*
X78172600Y-69552600D01*
X81082600Y-65452600D02*
X79282600Y-67252600D01*
X82582600Y-65452600D02*
X81082600Y-65452600D01*
X79282600Y-67252600D02*
X79282600Y-68442600D01*
X99907600Y-57077600D02*
X98857600Y-58127600D01*
X99979658Y-60252600D02*
X100645100Y-60252600D01*
X98857600Y-58127600D02*
X98857600Y-59130542D01*
X98857600Y-59130542D02*
X99979658Y-60252600D01*
X104972600Y-70372600D02*
X105157600Y-70187600D01*
X105157600Y-70187600D02*
X106097600Y-70187600D01*
D53*
X105022600Y-71152600D02*
X104972600Y-71152600D01*
D54*
X104972600Y-71152600D02*
X104972600Y-70372600D01*
X104072600Y-72052600D02*
X102882600Y-72052600D01*
D53*
X105597600Y-71727600D02*
X105022600Y-71152600D01*
D54*
X104972600Y-71152600D02*
X104072600Y-72052600D01*
X81732600Y-56482600D02*
X79232600Y-58982600D01*
X84297600Y-56482600D02*
X81732600Y-56482600D01*
X79232600Y-58982600D02*
X79232600Y-63527600D01*
X105132600Y-69192600D02*
X105132600Y-68486914D01*
X104470638Y-69854562D02*
X105132600Y-69192600D01*
X84917600Y-57102600D02*
X84297600Y-56482600D01*
X103888286Y-67242600D02*
X100634660Y-67242600D01*
X103783676Y-71402600D02*
X104470638Y-70715638D01*
X76532600Y-70852600D02*
X78732381Y-73052381D01*
X102092048Y-71402600D02*
X103783676Y-71402600D01*
X98857600Y-65465540D02*
X98857600Y-65240344D01*
X104470638Y-70715638D02*
X104470638Y-69854562D01*
X76532600Y-66227600D02*
X76532600Y-70852600D01*
X98857600Y-65240344D02*
X99045344Y-65052600D01*
X78732381Y-73052381D02*
X100442267Y-73052381D01*
X79232600Y-63527600D02*
X76532600Y-66227600D01*
X99045344Y-65052600D02*
X100645100Y-65052600D01*
X100442267Y-73052381D02*
X102092048Y-71402600D01*
X105132600Y-68486914D02*
X103888286Y-67242600D01*
X100634660Y-67242600D02*
X98857600Y-65465540D01*
D58*
X112147600Y-61402600D02*
X110974453Y-61402600D01*
X108644427Y-62727600D02*
X108569427Y-62652600D01*
X110974453Y-61402600D02*
X109649453Y-62727600D01*
X109649453Y-62727600D02*
X108644427Y-62727600D01*
X108569427Y-62652600D02*
X107520100Y-62652600D01*
D54*
X82427600Y-57722600D02*
X85236524Y-57722600D01*
X83897600Y-57102600D02*
X82457600Y-57102600D01*
X85507600Y-57451524D02*
X85507600Y-56753676D01*
X79357600Y-57427600D02*
X78007600Y-57427600D01*
X80702600Y-56082600D02*
X79357600Y-57427600D01*
X85507600Y-56753676D02*
X84836524Y-56082600D01*
X85236524Y-57722600D02*
X85507600Y-57451524D01*
X82132600Y-57427600D02*
X82427600Y-57722600D01*
X82457600Y-57102600D02*
X82132600Y-57427600D01*
X84836524Y-56082600D02*
X80702600Y-56082600D01*
X99066914Y-61602600D02*
X98837600Y-61602600D01*
X100645100Y-61852600D02*
X99316914Y-61852600D01*
X99316914Y-61852600D02*
X99066914Y-61602600D01*
X98837600Y-61602600D02*
X98287600Y-62152600D01*
X98287600Y-61052600D02*
X99082600Y-61052600D01*
X99082600Y-61052600D02*
X99482600Y-61452600D01*
X99482600Y-61452600D02*
X100645100Y-61452600D01*
X100478973Y-67652600D02*
X102032048Y-67652600D01*
X103722600Y-67642600D02*
X104032600Y-67952600D01*
X100645100Y-64652600D02*
X98879658Y-64652600D01*
X104032600Y-67952600D02*
X104032600Y-69837599D01*
X98457600Y-65074658D02*
X98457600Y-65631227D01*
X98879658Y-64652600D02*
X98457600Y-65074658D01*
X102042048Y-67642600D02*
X103722600Y-67642600D01*
X104032600Y-69837599D02*
X103087599Y-70782600D01*
X102032048Y-67652600D02*
X102042048Y-67642600D01*
X98457600Y-65631227D02*
X100478973Y-67652600D01*
X94482600Y-67352600D02*
X98382600Y-63452600D01*
X95202734Y-69512600D02*
X94482600Y-68792466D01*
X94482600Y-68792466D02*
X94482600Y-67352600D01*
X98382600Y-63452600D02*
X100645100Y-63452600D01*
X98057600Y-65796913D02*
X101773287Y-69512600D01*
X101773287Y-69512600D02*
X102882600Y-69512600D01*
X98057600Y-64908972D02*
X98057600Y-65796913D01*
X100645100Y-64252600D02*
X98713972Y-64252600D01*
X98713972Y-64252600D02*
X98057600Y-64908972D01*
X98216914Y-63052600D02*
X100645100Y-63052600D01*
X94082600Y-67186914D02*
X98216914Y-63052600D01*
X95362600Y-70782600D02*
X94082600Y-69502600D01*
X94082600Y-69502600D02*
X94082600Y-67186914D01*
X95682600Y-66718286D02*
X95682600Y-68242600D01*
X100645100Y-63852600D02*
X98548286Y-63852600D01*
X98548286Y-63852600D02*
X95682600Y-66718286D01*
D53*
X121992600Y-71152600D02*
X121992600Y-66989985D01*
X121992600Y-66989985D02*
X124010100Y-64972485D01*
X126550100Y-64972485D02*
X125507600Y-63929985D01*
X125507600Y-61945251D02*
X125014949Y-61452600D01*
X119157600Y-63666901D02*
X119157600Y-64267600D01*
X125014949Y-61452600D02*
X121371901Y-61452600D01*
X121371901Y-61452600D02*
X119157600Y-63666901D01*
X125507600Y-63929985D02*
X125507600Y-61945251D01*
X112920100Y-54365100D02*
X113560100Y-55005100D01*
X113560100Y-55005100D02*
X113560100Y-56380430D01*
X101682600Y-65690100D02*
X101682600Y-66558451D01*
X106617600Y-71727600D02*
X106957600Y-71387600D01*
X106957600Y-71387600D02*
X106957600Y-70227600D01*
X111036101Y-54365100D02*
X112920100Y-54365100D01*
X109890601Y-55510600D02*
X111036101Y-54365100D01*
X113560100Y-56380430D02*
X110382600Y-59557930D01*
X110382600Y-59557930D02*
X110382600Y-59852600D01*
X102082600Y-66295899D02*
X102082600Y-65690100D01*
X109583014Y-59821335D02*
X109583014Y-59826807D01*
X102398295Y-66611594D02*
X102082600Y-66295899D01*
X111801749Y-57602600D02*
X109583014Y-59821335D01*
X112422600Y-56987600D02*
X111807600Y-57602600D01*
X111807600Y-57602600D02*
X111801749Y-57602600D01*
X112422600Y-55502600D02*
X112422600Y-56987600D01*
X102398295Y-66626736D02*
X102398295Y-66611594D01*
G04 #@! TA.AperFunction,Conductor*
G36*
X102006457Y-59452956D02*
G01*
X102007920Y-59453100D01*
X102007926Y-59453100D01*
X102157280Y-59453100D01*
X102158743Y-59452956D01*
X102165990Y-59452600D01*
X102399210Y-59452600D01*
X102406457Y-59452956D01*
X102407920Y-59453100D01*
X102407926Y-59453100D01*
X102557280Y-59453100D01*
X102558743Y-59452956D01*
X102565990Y-59452600D01*
X102799210Y-59452600D01*
X102806457Y-59452956D01*
X102807920Y-59453100D01*
X102807926Y-59453100D01*
X102957280Y-59453100D01*
X102958743Y-59452956D01*
X102965990Y-59452600D01*
X103199210Y-59452600D01*
X103206457Y-59452956D01*
X103207920Y-59453100D01*
X103207926Y-59453100D01*
X103357280Y-59453100D01*
X103358743Y-59452956D01*
X103365990Y-59452600D01*
X103599210Y-59452600D01*
X103606457Y-59452956D01*
X103607920Y-59453100D01*
X103607926Y-59453100D01*
X103757280Y-59453100D01*
X103758743Y-59452956D01*
X103765990Y-59452600D01*
X104399210Y-59452600D01*
X104406457Y-59452956D01*
X104407920Y-59453100D01*
X104407926Y-59453100D01*
X104557280Y-59453100D01*
X104558743Y-59452956D01*
X104565990Y-59452600D01*
X104799210Y-59452600D01*
X104806457Y-59452956D01*
X104807920Y-59453100D01*
X104807926Y-59453100D01*
X104957280Y-59453100D01*
X104958743Y-59452956D01*
X104965990Y-59452600D01*
X105199210Y-59452600D01*
X105206457Y-59452956D01*
X105207920Y-59453100D01*
X105207926Y-59453100D01*
X105357280Y-59453100D01*
X105358743Y-59452956D01*
X105365990Y-59452600D01*
X105599210Y-59452600D01*
X105606457Y-59452956D01*
X105607920Y-59453100D01*
X105607926Y-59453100D01*
X105757280Y-59453100D01*
X105758743Y-59452956D01*
X105765990Y-59452600D01*
X105999210Y-59452600D01*
X106006457Y-59452956D01*
X106007920Y-59453100D01*
X106007926Y-59453100D01*
X106157280Y-59453100D01*
X106158743Y-59452956D01*
X106165990Y-59452600D01*
X106399210Y-59452600D01*
X106406457Y-59452956D01*
X106407920Y-59453100D01*
X106407926Y-59453100D01*
X106557280Y-59453100D01*
X106558743Y-59452956D01*
X106565990Y-59452600D01*
X106799211Y-59452600D01*
X106806458Y-59452956D01*
X106807912Y-59453099D01*
X106807921Y-59453099D01*
X106807926Y-59453100D01*
X106808585Y-59453099D01*
X106808792Y-59453185D01*
X106811539Y-59453456D01*
X106811457Y-59454288D01*
X106860914Y-59474761D01*
X106882600Y-59527082D01*
X106882600Y-59769210D01*
X106882244Y-59776457D01*
X106882100Y-59777920D01*
X106882100Y-59927277D01*
X106882243Y-59928729D01*
X106882600Y-59935985D01*
X106882600Y-60169210D01*
X106882244Y-60176457D01*
X106882100Y-60177920D01*
X106882100Y-60327277D01*
X106882243Y-60328729D01*
X106882600Y-60335985D01*
X106882600Y-60569210D01*
X106882244Y-60576457D01*
X106882100Y-60577920D01*
X106882100Y-60727277D01*
X106882243Y-60728729D01*
X106882600Y-60735985D01*
X106882600Y-60969210D01*
X106882244Y-60976457D01*
X106882100Y-60977920D01*
X106882100Y-61127277D01*
X106882243Y-61128729D01*
X106882600Y-61135985D01*
X106882600Y-61369210D01*
X106882244Y-61376457D01*
X106882100Y-61377920D01*
X106882100Y-61527277D01*
X106882243Y-61528729D01*
X106882600Y-61535985D01*
X106882600Y-61769210D01*
X106882244Y-61776457D01*
X106882100Y-61777920D01*
X106882100Y-61821940D01*
X106870783Y-61849259D01*
X106882100Y-61883259D01*
X106882100Y-61927277D01*
X106882243Y-61928729D01*
X106882600Y-61935985D01*
X106882600Y-62169210D01*
X106882244Y-62176457D01*
X106882100Y-62177920D01*
X106882100Y-62327277D01*
X106882243Y-62328729D01*
X106882600Y-62335985D01*
X106882600Y-62569210D01*
X106882244Y-62576457D01*
X106882100Y-62577920D01*
X106882100Y-62727277D01*
X106882243Y-62728729D01*
X106882600Y-62735985D01*
X106882600Y-62969210D01*
X106882244Y-62976457D01*
X106882100Y-62977920D01*
X106882100Y-63127277D01*
X106882243Y-63128729D01*
X106882600Y-63135985D01*
X106882600Y-63769210D01*
X106882244Y-63776457D01*
X106882100Y-63777920D01*
X106882100Y-63927277D01*
X106882243Y-63928729D01*
X106882600Y-63935985D01*
X106882600Y-64169210D01*
X106882244Y-64176457D01*
X106882100Y-64177920D01*
X106882100Y-64327277D01*
X106882243Y-64328729D01*
X106882600Y-64335985D01*
X106882600Y-64569210D01*
X106882244Y-64576457D01*
X106882100Y-64577920D01*
X106882100Y-64727277D01*
X106882243Y-64728729D01*
X106882600Y-64735985D01*
X106882600Y-64969210D01*
X106882244Y-64976456D01*
X106882100Y-64977919D01*
X106882100Y-64978100D01*
X106882076Y-64978156D01*
X106881744Y-64981538D01*
X106880717Y-64981437D01*
X106860426Y-65030426D01*
X106811437Y-65050717D01*
X106811538Y-65051744D01*
X106808155Y-65052076D01*
X106808100Y-65052100D01*
X106807920Y-65052100D01*
X106806457Y-65052244D01*
X106799210Y-65052600D01*
X106565990Y-65052600D01*
X106558743Y-65052244D01*
X106557280Y-65052100D01*
X106557274Y-65052100D01*
X106407926Y-65052100D01*
X106407920Y-65052100D01*
X106406457Y-65052244D01*
X106399210Y-65052600D01*
X106165990Y-65052600D01*
X106158743Y-65052244D01*
X106157280Y-65052100D01*
X106157274Y-65052100D01*
X106007926Y-65052100D01*
X106007920Y-65052100D01*
X106006457Y-65052244D01*
X105999210Y-65052600D01*
X105765990Y-65052600D01*
X105758743Y-65052244D01*
X105757280Y-65052100D01*
X105757274Y-65052100D01*
X105607926Y-65052100D01*
X105607920Y-65052100D01*
X105606457Y-65052244D01*
X105599210Y-65052600D01*
X104965990Y-65052600D01*
X104958743Y-65052244D01*
X104957280Y-65052100D01*
X104957274Y-65052100D01*
X104807926Y-65052100D01*
X104807920Y-65052100D01*
X104806457Y-65052244D01*
X104799210Y-65052600D01*
X104565990Y-65052600D01*
X104558743Y-65052244D01*
X104557280Y-65052100D01*
X104557274Y-65052100D01*
X104407926Y-65052100D01*
X104407920Y-65052100D01*
X104406457Y-65052244D01*
X104399210Y-65052600D01*
X104165990Y-65052600D01*
X104158743Y-65052244D01*
X104157280Y-65052100D01*
X104157274Y-65052100D01*
X104007926Y-65052100D01*
X104007920Y-65052100D01*
X104006457Y-65052244D01*
X103999210Y-65052600D01*
X103765990Y-65052600D01*
X103758743Y-65052244D01*
X103757280Y-65052100D01*
X103757274Y-65052100D01*
X103607926Y-65052100D01*
X103607920Y-65052100D01*
X103606457Y-65052244D01*
X103599210Y-65052600D01*
X103365990Y-65052600D01*
X103358743Y-65052244D01*
X103357280Y-65052100D01*
X103357274Y-65052100D01*
X103207926Y-65052100D01*
X103207920Y-65052100D01*
X103206457Y-65052244D01*
X103199210Y-65052600D01*
X102965990Y-65052600D01*
X102958743Y-65052244D01*
X102957280Y-65052100D01*
X102957274Y-65052100D01*
X102807926Y-65052100D01*
X102807920Y-65052100D01*
X102806457Y-65052244D01*
X102799210Y-65052600D01*
X102565990Y-65052600D01*
X102558743Y-65052244D01*
X102557280Y-65052100D01*
X102557274Y-65052100D01*
X102407926Y-65052100D01*
X102407920Y-65052100D01*
X102406457Y-65052244D01*
X102399210Y-65052600D01*
X102165990Y-65052600D01*
X102158743Y-65052244D01*
X102157280Y-65052100D01*
X102157274Y-65052100D01*
X102007926Y-65052100D01*
X102007920Y-65052100D01*
X102006457Y-65052244D01*
X101999210Y-65052600D01*
X101765990Y-65052600D01*
X101758743Y-65052244D01*
X101757280Y-65052100D01*
X101757274Y-65052100D01*
X101607926Y-65052100D01*
X101607920Y-65052100D01*
X101606457Y-65052244D01*
X101599210Y-65052600D01*
X101357100Y-65052600D01*
X101304774Y-65030926D01*
X101284283Y-64981456D01*
X101283456Y-64981538D01*
X101283187Y-64978811D01*
X101283100Y-64978600D01*
X101283100Y-64977920D01*
X101282956Y-64976457D01*
X101282600Y-64969210D01*
X101282600Y-64735985D01*
X101282957Y-64728729D01*
X101283100Y-64727277D01*
X101283100Y-64577920D01*
X101282956Y-64576457D01*
X101282600Y-64569210D01*
X101282600Y-64335985D01*
X101282957Y-64328729D01*
X101283100Y-64327277D01*
X101283100Y-64177920D01*
X101282956Y-64176457D01*
X101282600Y-64169210D01*
X101282600Y-63935985D01*
X101282957Y-63928729D01*
X101283100Y-63927277D01*
X101283100Y-63777920D01*
X101282956Y-63776457D01*
X101282600Y-63769210D01*
X101282600Y-63535985D01*
X101282957Y-63528729D01*
X101283100Y-63527277D01*
X101283100Y-63377920D01*
X101282956Y-63376457D01*
X101282600Y-63369210D01*
X101282600Y-63135985D01*
X101282957Y-63128729D01*
X101283100Y-63127277D01*
X101283100Y-62977920D01*
X101282956Y-62976457D01*
X101282600Y-62969210D01*
X101282600Y-61935985D01*
X101282957Y-61928729D01*
X101283100Y-61927277D01*
X101283100Y-61777920D01*
X101282956Y-61776457D01*
X101282600Y-61769210D01*
X101282600Y-61535985D01*
X101282957Y-61528729D01*
X101283100Y-61527277D01*
X101283100Y-61483259D01*
X101294416Y-61455939D01*
X101292736Y-61450892D01*
X101419417Y-61450892D01*
X101430347Y-61472728D01*
X101447934Y-61595054D01*
X101447934Y-61595055D01*
X101447935Y-61595057D01*
X101481342Y-61668207D01*
X101507723Y-61725973D01*
X101601968Y-61834740D01*
X101601970Y-61834741D01*
X101601972Y-61834743D01*
X101643106Y-61861178D01*
X101675408Y-61907699D01*
X101677100Y-61923431D01*
X101677100Y-64353600D01*
X101679629Y-64385740D01*
X101684479Y-64416362D01*
X101685246Y-64420879D01*
X101685250Y-64420892D01*
X101721191Y-64504982D01*
X101752756Y-64548428D01*
X101757156Y-64554483D01*
X101781397Y-64582228D01*
X101859907Y-64629136D01*
X101918098Y-64648043D01*
X101973273Y-64656781D01*
X101981599Y-64658100D01*
X101981600Y-64658100D01*
X103808375Y-64658100D01*
X103860701Y-64679774D01*
X103864294Y-64683634D01*
X103901349Y-64726397D01*
X103951468Y-64784239D01*
X103951469Y-64784240D01*
X103951472Y-64784243D01*
X104021534Y-64829269D01*
X104056180Y-64851535D01*
X104072547Y-64862053D01*
X104179003Y-64893311D01*
X104210635Y-64902599D01*
X104210637Y-64902600D01*
X104210639Y-64902600D01*
X104354563Y-64902600D01*
X104354564Y-64902599D01*
X104372577Y-64897310D01*
X104492653Y-64862053D01*
X104613728Y-64784243D01*
X104700899Y-64683640D01*
X104751545Y-64658289D01*
X104756825Y-64658100D01*
X106183600Y-64658100D01*
X106215744Y-64655570D01*
X106246337Y-64650725D01*
X106250887Y-64649952D01*
X106334983Y-64614008D01*
X106384483Y-64578044D01*
X106412228Y-64553803D01*
X106459136Y-64475293D01*
X106478043Y-64417102D01*
X106488100Y-64353600D01*
X106488100Y-62323431D01*
X106509774Y-62271105D01*
X106522089Y-62261180D01*
X106563228Y-62234743D01*
X106657477Y-62125973D01*
X106717265Y-61995057D01*
X106734853Y-61872727D01*
X106745782Y-61854306D01*
X106734853Y-61832471D01*
X106717265Y-61710145D01*
X106717265Y-61710143D01*
X106657477Y-61579227D01*
X106613721Y-61528729D01*
X106563231Y-61470460D01*
X106563229Y-61470458D01*
X106563228Y-61470457D01*
X106563225Y-61470455D01*
X106522091Y-61444019D01*
X106489791Y-61397495D01*
X106488100Y-61381767D01*
X106488100Y-60151599D01*
X106485570Y-60119459D01*
X106485570Y-60119456D01*
X106480725Y-60088863D01*
X106479952Y-60084313D01*
X106444008Y-60000217D01*
X106423299Y-59971713D01*
X106408047Y-59950721D01*
X106395172Y-59935985D01*
X106383803Y-59922972D01*
X106305293Y-59876064D01*
X106247107Y-59857158D01*
X106247103Y-59857157D01*
X106247102Y-59857157D01*
X106199569Y-59849629D01*
X106183601Y-59847100D01*
X106183600Y-59847100D01*
X105044595Y-59847100D01*
X104992269Y-59825426D01*
X104988669Y-59821559D01*
X104984858Y-59817161D01*
X104935978Y-59760749D01*
X104901501Y-59720960D01*
X104901499Y-59720959D01*
X104901498Y-59720957D01*
X104830247Y-59675167D01*
X104780424Y-59643147D01*
X104780420Y-59643146D01*
X104642334Y-59602600D01*
X104642331Y-59602600D01*
X104498409Y-59602600D01*
X104498406Y-59602600D01*
X104360319Y-59643146D01*
X104360315Y-59643147D01*
X104239245Y-59720955D01*
X104239238Y-59720960D01*
X104189878Y-59777926D01*
X104155882Y-59817161D01*
X104152071Y-59821559D01*
X104101425Y-59846911D01*
X104096145Y-59847100D01*
X101981600Y-59847100D01*
X101949459Y-59849629D01*
X101918837Y-59854479D01*
X101914320Y-59855246D01*
X101914307Y-59855250D01*
X101830217Y-59891191D01*
X101780721Y-59927152D01*
X101752972Y-59951396D01*
X101706064Y-60029906D01*
X101687158Y-60088092D01*
X101677100Y-60151599D01*
X101677100Y-60981767D01*
X101655426Y-61034093D01*
X101643109Y-61044019D01*
X101601974Y-61070455D01*
X101601968Y-61070460D01*
X101507723Y-61179226D01*
X101447934Y-61310145D01*
X101430347Y-61432471D01*
X101419417Y-61450892D01*
X101292736Y-61450892D01*
X101283100Y-61421940D01*
X101283100Y-61377920D01*
X101282956Y-61376457D01*
X101282600Y-61369210D01*
X101282600Y-61135985D01*
X101282957Y-61128729D01*
X101283100Y-61127277D01*
X101283100Y-60977920D01*
X101282956Y-60976457D01*
X101282600Y-60969210D01*
X101282600Y-60335985D01*
X101282957Y-60328729D01*
X101283100Y-60327277D01*
X101283100Y-60177920D01*
X101282956Y-60176457D01*
X101282600Y-60169210D01*
X101282600Y-59935985D01*
X101282957Y-59928729D01*
X101283100Y-59927277D01*
X101283100Y-59777920D01*
X101282956Y-59776457D01*
X101282600Y-59769210D01*
X101282600Y-59535985D01*
X101282957Y-59528729D01*
X101283100Y-59527277D01*
X101283100Y-59526600D01*
X101283187Y-59526388D01*
X101283457Y-59523654D01*
X101284286Y-59523735D01*
X101304774Y-59474274D01*
X101357100Y-59452600D01*
X101999210Y-59452600D01*
X102006457Y-59452956D01*
G37*
G04 #@! TD.AperFunction*
G04 #@! TA.AperFunction,Conductor*
G36*
X132265384Y-54241547D02*
G01*
X132332420Y-54261233D01*
X132378174Y-54314037D01*
X132389379Y-54365594D01*
X132382334Y-73028143D01*
X132362624Y-73095175D01*
X132309803Y-73140910D01*
X132258334Y-73152096D01*
X101491271Y-73151973D01*
X101424231Y-73132288D01*
X101378476Y-73079484D01*
X101368533Y-73010325D01*
X101397558Y-72946770D01*
X101403581Y-72940300D01*
X101639288Y-72704593D01*
X101700609Y-72671110D01*
X101770300Y-72676094D01*
X101814648Y-72704595D01*
X101830729Y-72720676D01*
X101830733Y-72720679D01*
X101830735Y-72720681D01*
X101972202Y-72804344D01*
X102013824Y-72816436D01*
X102130026Y-72850197D01*
X102130029Y-72850197D01*
X102130031Y-72850198D01*
X102166906Y-72853100D01*
X102166914Y-72853100D01*
X103598286Y-72853100D01*
X103598294Y-72853100D01*
X103635169Y-72850198D01*
X103635171Y-72850197D01*
X103635173Y-72850197D01*
X103676791Y-72838105D01*
X103792998Y-72804344D01*
X103934465Y-72720681D01*
X103965725Y-72689421D01*
X104027047Y-72655935D01*
X104053407Y-72653101D01*
X104151654Y-72653101D01*
X104151657Y-72653101D01*
X104304385Y-72612177D01*
X104374214Y-72571861D01*
X104441316Y-72533120D01*
X104553120Y-72421316D01*
X104553120Y-72421314D01*
X104563324Y-72411111D01*
X104563328Y-72411106D01*
X104736688Y-72237745D01*
X104798009Y-72204262D01*
X104867701Y-72209246D01*
X104923634Y-72251118D01*
X104931099Y-72262307D01*
X104956462Y-72305194D01*
X104956469Y-72305203D01*
X105069996Y-72418730D01*
X105070000Y-72418733D01*
X105070002Y-72418735D01*
X105208207Y-72500469D01*
X105208214Y-72500471D01*
X105362391Y-72545264D01*
X105362394Y-72545264D01*
X105362396Y-72545265D01*
X105398419Y-72548100D01*
X105796780Y-72548099D01*
X105832804Y-72545265D01*
X105986993Y-72500469D01*
X106044482Y-72466469D01*
X106112202Y-72449288D01*
X106170717Y-72466469D01*
X106228207Y-72500469D01*
X106228210Y-72500469D01*
X106228212Y-72500471D01*
X106382391Y-72545264D01*
X106382394Y-72545264D01*
X106382396Y-72545265D01*
X106418419Y-72548100D01*
X106816780Y-72548099D01*
X106852804Y-72545265D01*
X107006993Y-72500469D01*
X107145198Y-72418735D01*
X107258735Y-72305198D01*
X107340469Y-72166993D01*
X107379892Y-72031297D01*
X107385264Y-72012808D01*
X107385265Y-72012802D01*
X107388099Y-71976788D01*
X107388100Y-71976781D01*
X107388099Y-71840020D01*
X107407783Y-71772981D01*
X107424414Y-71752343D01*
X107428118Y-71748640D01*
X107505530Y-71614559D01*
X107545601Y-71465011D01*
X107545601Y-71310189D01*
X107545601Y-71302594D01*
X107545600Y-71302576D01*
X107545600Y-71009204D01*
X107565285Y-70942165D01*
X107618089Y-70896410D01*
X107687247Y-70886466D01*
X107717048Y-70894642D01*
X107748441Y-70907645D01*
X107800148Y-70929063D01*
X107844551Y-70937895D01*
X107920991Y-70953099D01*
X107920992Y-70953100D01*
X107920993Y-70953100D01*
X107920994Y-70953100D01*
X110185644Y-70953100D01*
X110252683Y-70972785D01*
X110298438Y-71025589D01*
X110308864Y-71063216D01*
X110322230Y-71181850D01*
X110322231Y-71181854D01*
X110350142Y-71261617D01*
X110357100Y-71302572D01*
X110357100Y-71876518D01*
X110357100Y-71876520D01*
X110357099Y-71876520D01*
X110385940Y-72021507D01*
X110385943Y-72021517D01*
X110442512Y-72158088D01*
X110442515Y-72158094D01*
X110442516Y-72158095D01*
X110451479Y-72171509D01*
X110451480Y-72171512D01*
X110524646Y-72281014D01*
X110524652Y-72281021D01*
X110779184Y-72535552D01*
X110779186Y-72535554D01*
X110797961Y-72548098D01*
X110852870Y-72584786D01*
X110902105Y-72617684D01*
X110902106Y-72617684D01*
X110902107Y-72617685D01*
X110902109Y-72617686D01*
X110987609Y-72653101D01*
X111038687Y-72674258D01*
X111038691Y-72674258D01*
X111038692Y-72674259D01*
X111183679Y-72703100D01*
X111183682Y-72703100D01*
X113231520Y-72703100D01*
X113329062Y-72683696D01*
X113376513Y-72674258D01*
X113513095Y-72617684D01*
X113562329Y-72584786D01*
X113562334Y-72584783D01*
X113586671Y-72568521D01*
X113636016Y-72535552D01*
X114332148Y-71839417D01*
X114393471Y-71805933D01*
X114419829Y-71803099D01*
X114832602Y-71803099D01*
X114832608Y-71803099D01*
X114935397Y-71792599D01*
X115101934Y-71737414D01*
X115251256Y-71645312D01*
X115375312Y-71521256D01*
X115467414Y-71371934D01*
X115522599Y-71205397D01*
X115533100Y-71102609D01*
X115533099Y-70052592D01*
X115523579Y-69959399D01*
X116028601Y-69959399D01*
X116043582Y-70053994D01*
X116043582Y-70053995D01*
X116101684Y-70168026D01*
X116101687Y-70168030D01*
X116192169Y-70258512D01*
X116192173Y-70258515D01*
X116306205Y-70316617D01*
X116400804Y-70331599D01*
X116893099Y-70331599D01*
X117147100Y-70331599D01*
X117639399Y-70331599D01*
X117639399Y-70331598D01*
X117733994Y-70316617D01*
X117733995Y-70316617D01*
X117848026Y-70258515D01*
X117848030Y-70258512D01*
X117938512Y-70168030D01*
X117938515Y-70168026D01*
X117996617Y-70053994D01*
X118011600Y-69959395D01*
X118011600Y-69904600D01*
X117147100Y-69904600D01*
X117147100Y-70331599D01*
X116893099Y-70331599D01*
X116893100Y-70331598D01*
X116893100Y-69904600D01*
X116028601Y-69904600D01*
X116028601Y-69959399D01*
X115523579Y-69959399D01*
X115522599Y-69949803D01*
X115467414Y-69783266D01*
X115375312Y-69633944D01*
X115337172Y-69595804D01*
X116028600Y-69595804D01*
X116028600Y-69650600D01*
X116893100Y-69650600D01*
X116893100Y-69223600D01*
X116400800Y-69223600D01*
X116400800Y-69223601D01*
X116306205Y-69238582D01*
X116306204Y-69238582D01*
X116192173Y-69296684D01*
X116192169Y-69296687D01*
X116101687Y-69387169D01*
X116101684Y-69387173D01*
X116043582Y-69501205D01*
X116028600Y-69595804D01*
X115337172Y-69595804D01*
X115319419Y-69578051D01*
X115285934Y-69516728D01*
X115283100Y-69490370D01*
X115283100Y-69148679D01*
X115254259Y-69003692D01*
X115254258Y-69003691D01*
X115254258Y-69003687D01*
X115248100Y-68988821D01*
X115197685Y-68867107D01*
X115197684Y-68867105D01*
X115152301Y-68799184D01*
X115151875Y-68798547D01*
X115115550Y-68744181D01*
X115115547Y-68744178D01*
X114807541Y-68436173D01*
X114776146Y-68383087D01*
X114768022Y-68355125D01*
X114763100Y-68320534D01*
X114763100Y-67834665D01*
X114768024Y-67800069D01*
X114769244Y-67795871D01*
X114790243Y-67723593D01*
X114793100Y-67687290D01*
X114793100Y-67514600D01*
X114812785Y-67447561D01*
X114865589Y-67401806D01*
X114917100Y-67390600D01*
X115650181Y-67390600D01*
X115717220Y-67410285D01*
X115737862Y-67426919D01*
X115767134Y-67456191D01*
X115800619Y-67517514D01*
X115798530Y-67578465D01*
X115785003Y-67625027D01*
X115785001Y-67625036D01*
X115782100Y-67661898D01*
X115782100Y-68093301D01*
X115785001Y-68130167D01*
X115785002Y-68130173D01*
X115830854Y-68287993D01*
X115830855Y-68287996D01*
X115830856Y-68287998D01*
X115868281Y-68351281D01*
X115914517Y-68429462D01*
X115914523Y-68429470D01*
X116030729Y-68545676D01*
X116030733Y-68545679D01*
X116030735Y-68545681D01*
X116172202Y-68629344D01*
X116213824Y-68641436D01*
X116330026Y-68675197D01*
X116330029Y-68675197D01*
X116330031Y-68675198D01*
X116366906Y-68678100D01*
X117533100Y-68678100D01*
X117600139Y-68697785D01*
X117645894Y-68750589D01*
X117657100Y-68802100D01*
X117657100Y-69043301D01*
X117660499Y-69086486D01*
X117658495Y-69086643D01*
X117652171Y-69146787D01*
X117608456Y-69201292D01*
X117542213Y-69223510D01*
X117537500Y-69223600D01*
X117147100Y-69223600D01*
X117147100Y-69650600D01*
X118011598Y-69650600D01*
X118022972Y-69639226D01*
X118084295Y-69605740D01*
X118145249Y-69607830D01*
X118205026Y-69625197D01*
X118205029Y-69625197D01*
X118205031Y-69625198D01*
X118241906Y-69628100D01*
X118812681Y-69628100D01*
X118879720Y-69647785D01*
X118900362Y-69664419D01*
X120165781Y-70929838D01*
X120199266Y-70991161D01*
X120202100Y-71017519D01*
X120202100Y-71401769D01*
X120202101Y-71401791D01*
X120204935Y-71437805D01*
X120249729Y-71591988D01*
X120249731Y-71591993D01*
X120331463Y-71730195D01*
X120331469Y-71730203D01*
X120444996Y-71843730D01*
X120445000Y-71843733D01*
X120445002Y-71843735D01*
X120583207Y-71925469D01*
X120583214Y-71925471D01*
X120737391Y-71970264D01*
X120737394Y-71970264D01*
X120737396Y-71970265D01*
X120773419Y-71973100D01*
X121171780Y-71973099D01*
X121207804Y-71970265D01*
X121361993Y-71925469D01*
X121419482Y-71891469D01*
X121487202Y-71874288D01*
X121545717Y-71891469D01*
X121603207Y-71925469D01*
X121603210Y-71925469D01*
X121603212Y-71925471D01*
X121757391Y-71970264D01*
X121757394Y-71970264D01*
X121757396Y-71970265D01*
X121793419Y-71973100D01*
X122191780Y-71973099D01*
X122227804Y-71970265D01*
X122381993Y-71925469D01*
X122520198Y-71843735D01*
X122633735Y-71730198D01*
X122715469Y-71591993D01*
X122760265Y-71437804D01*
X122763100Y-71401781D01*
X122763099Y-70903420D01*
X122760265Y-70867396D01*
X122715469Y-70713207D01*
X122633735Y-70575002D01*
X122633733Y-70575000D01*
X122633730Y-70574996D01*
X122616919Y-70558185D01*
X122583434Y-70496862D01*
X122580600Y-70470504D01*
X122580600Y-67284903D01*
X122600285Y-67217864D01*
X122616914Y-67197226D01*
X122664939Y-67149202D01*
X122726260Y-67115719D01*
X122795952Y-67120703D01*
X122851885Y-67162575D01*
X122876302Y-67228039D01*
X122871885Y-67270818D01*
X122864077Y-67298258D01*
X122844227Y-67512484D01*
X122844227Y-67512485D01*
X122864077Y-67726713D01*
X122922955Y-67933644D01*
X122922960Y-67933657D01*
X123018851Y-68126231D01*
X123018853Y-68126234D01*
X123018855Y-68126238D01*
X123018858Y-68126242D01*
X123018860Y-68126245D01*
X123043987Y-68159519D01*
X123148509Y-68297929D01*
X123148512Y-68297931D01*
X123148514Y-68297934D01*
X123307502Y-68442870D01*
X123307504Y-68442871D01*
X123307505Y-68442872D01*
X123490426Y-68556132D01*
X123691044Y-68633852D01*
X123902527Y-68673385D01*
X123902529Y-68673385D01*
X124117671Y-68673385D01*
X124117673Y-68673385D01*
X124329156Y-68633852D01*
X124375808Y-68615778D01*
X124445428Y-68609916D01*
X124507169Y-68642625D01*
X124541424Y-68703521D01*
X124544600Y-68731405D01*
X124544600Y-70218100D01*
X124524915Y-70285139D01*
X124472111Y-70330894D01*
X124420600Y-70342100D01*
X124297902Y-70342100D01*
X124261608Y-70344956D01*
X124261602Y-70344957D01*
X124106209Y-70390104D01*
X124106206Y-70390105D01*
X123966915Y-70472481D01*
X123966907Y-70472487D01*
X123852487Y-70586907D01*
X123852481Y-70586915D01*
X123770105Y-70726206D01*
X123770104Y-70726209D01*
X123724957Y-70881602D01*
X123724956Y-70881608D01*
X123722100Y-70917902D01*
X123722100Y-71387297D01*
X123724956Y-71423591D01*
X123724957Y-71423597D01*
X123770104Y-71578990D01*
X123770105Y-71578993D01*
X123770106Y-71578995D01*
X123791139Y-71614560D01*
X123852481Y-71718284D01*
X123852487Y-71718292D01*
X123966907Y-71832712D01*
X123966911Y-71832715D01*
X123966913Y-71832717D01*
X124106205Y-71915094D01*
X124147187Y-71927000D01*
X124261602Y-71960242D01*
X124261605Y-71960242D01*
X124261607Y-71960243D01*
X124297910Y-71963100D01*
X124297918Y-71963100D01*
X124707282Y-71963100D01*
X124707290Y-71963100D01*
X124743593Y-71960243D01*
X124743595Y-71960242D01*
X124743597Y-71960242D01*
X124784575Y-71948336D01*
X124898995Y-71915094D01*
X125038287Y-71832717D01*
X125128487Y-71742516D01*
X125189808Y-71709033D01*
X125235566Y-71707726D01*
X125291589Y-71716599D01*
X125335599Y-71716599D01*
X125589600Y-71716599D01*
X125633605Y-71716599D01*
X125725871Y-71701986D01*
X125837074Y-71645324D01*
X125837079Y-71645321D01*
X125925321Y-71557079D01*
X125925324Y-71557075D01*
X125981988Y-71445865D01*
X125996600Y-71353612D01*
X125996600Y-71279600D01*
X125589600Y-71279600D01*
X125589600Y-71716599D01*
X125335599Y-71716599D01*
X125335600Y-71716598D01*
X125335600Y-71202520D01*
X125355285Y-71135481D01*
X125371920Y-71114838D01*
X125424841Y-71061918D01*
X125486164Y-71028434D01*
X125512521Y-71025600D01*
X125996599Y-71025600D01*
X125996599Y-70951594D01*
X125981986Y-70859328D01*
X125925324Y-70748125D01*
X125925321Y-70748120D01*
X125837079Y-70659878D01*
X125837074Y-70659875D01*
X125788306Y-70635026D01*
X125737510Y-70587051D01*
X125720601Y-70524541D01*
X125720601Y-70437593D01*
X125720600Y-70437575D01*
X125720600Y-68586918D01*
X125740285Y-68519879D01*
X125793089Y-68474124D01*
X125862247Y-68464180D01*
X125909875Y-68481489D01*
X126030426Y-68556132D01*
X126231044Y-68633852D01*
X126442527Y-68673385D01*
X126442529Y-68673385D01*
X126657671Y-68673385D01*
X126657673Y-68673385D01*
X126869156Y-68633852D01*
X127069774Y-68556132D01*
X127252695Y-68442872D01*
X127411691Y-68297929D01*
X127541345Y-68126238D01*
X127637244Y-67933647D01*
X127696122Y-67726714D01*
X127715973Y-67512485D01*
X127704910Y-67393100D01*
X127696122Y-67298256D01*
X127665639Y-67191120D01*
X127637244Y-67091323D01*
X127615287Y-67047228D01*
X127541348Y-66898738D01*
X127541347Y-66898737D01*
X127541345Y-66898732D01*
X127411691Y-66727041D01*
X127411687Y-66727037D01*
X127411685Y-66727035D01*
X127252697Y-66582099D01*
X127212911Y-66557464D01*
X127069774Y-66468838D01*
X126869156Y-66391118D01*
X126726083Y-66364373D01*
X126663804Y-66332706D01*
X126628531Y-66272393D01*
X126631465Y-66202585D01*
X126671674Y-66145445D01*
X126726082Y-66120596D01*
X126869156Y-66093852D01*
X127069774Y-66016132D01*
X127252695Y-65902872D01*
X127411691Y-65757929D01*
X127541345Y-65586238D01*
X127637244Y-65393647D01*
X127696122Y-65186714D01*
X127715973Y-64972485D01*
X127715935Y-64972080D01*
X127696122Y-64758256D01*
X127678757Y-64697225D01*
X127637244Y-64551323D01*
X127635651Y-64548124D01*
X127541348Y-64358738D01*
X127541347Y-64358737D01*
X127541345Y-64358732D01*
X127411691Y-64187041D01*
X127411687Y-64187037D01*
X127411685Y-64187035D01*
X127252697Y-64042099D01*
X127212911Y-64017464D01*
X127069774Y-63928838D01*
X126869156Y-63851118D01*
X126726083Y-63824373D01*
X126663804Y-63792706D01*
X126628531Y-63732393D01*
X126631465Y-63662585D01*
X126671674Y-63605445D01*
X126726082Y-63580596D01*
X126869156Y-63553852D01*
X127069774Y-63476132D01*
X127084361Y-63467100D01*
X127109463Y-63451558D01*
X127174740Y-63432985D01*
X128226256Y-63432985D01*
X128238835Y-63430482D01*
X128263027Y-63428100D01*
X129031143Y-63428100D01*
X129161182Y-63402232D01*
X129224435Y-63389651D01*
X129394713Y-63319120D01*
X129406507Y-63314235D01*
X129406507Y-63314234D01*
X129406514Y-63314232D01*
X129570382Y-63204739D01*
X129709739Y-63065382D01*
X129819232Y-62901514D01*
X129894651Y-62719435D01*
X129933100Y-62526141D01*
X129933100Y-62329059D01*
X129933100Y-62329056D01*
X129894652Y-62135770D01*
X129894651Y-62135769D01*
X129894651Y-62135765D01*
X129881121Y-62103100D01*
X129819235Y-61953692D01*
X129819228Y-61953679D01*
X129709739Y-61789818D01*
X129709736Y-61789814D01*
X129570385Y-61650463D01*
X129570381Y-61650460D01*
X129406520Y-61540971D01*
X129406507Y-61540964D01*
X129224439Y-61465550D01*
X129224429Y-61465547D01*
X129031143Y-61427100D01*
X129031141Y-61427100D01*
X128231140Y-61427100D01*
X128034059Y-61427100D01*
X128021479Y-61429602D01*
X127997288Y-61431985D01*
X127174740Y-61431985D01*
X127109463Y-61413412D01*
X127069777Y-61388839D01*
X127069771Y-61388837D01*
X126869156Y-61311118D01*
X126726083Y-61284373D01*
X126663804Y-61252706D01*
X126628531Y-61192393D01*
X126631465Y-61122585D01*
X126671674Y-61065445D01*
X126726082Y-61040596D01*
X126869156Y-61013852D01*
X127069774Y-60936132D01*
X127252695Y-60822872D01*
X127411691Y-60677929D01*
X127541345Y-60506238D01*
X127637244Y-60313647D01*
X127696122Y-60106714D01*
X127715973Y-59892485D01*
X127696122Y-59678256D01*
X127637244Y-59471323D01*
X127633094Y-59462989D01*
X127541348Y-59278738D01*
X127541347Y-59278737D01*
X127541345Y-59278732D01*
X127411691Y-59107041D01*
X127411687Y-59107037D01*
X127411685Y-59107035D01*
X127252697Y-58962099D01*
X127181860Y-58918239D01*
X127069774Y-58848838D01*
X126869156Y-58771118D01*
X126657673Y-58731585D01*
X126442527Y-58731585D01*
X126231044Y-58771118D01*
X126137674Y-58807290D01*
X126030428Y-58848837D01*
X126030427Y-58848837D01*
X125847502Y-58962099D01*
X125688514Y-59107035D01*
X125688507Y-59107043D01*
X125558860Y-59278724D01*
X125558851Y-59278738D01*
X125462960Y-59471312D01*
X125462955Y-59471325D01*
X125404078Y-59678256D01*
X125403571Y-59683728D01*
X125377785Y-59748665D01*
X125320984Y-59789352D01*
X125251203Y-59792872D01*
X125190597Y-59758107D01*
X125158407Y-59696094D01*
X125156629Y-59683728D01*
X125156122Y-59678256D01*
X125097244Y-59471323D01*
X125093094Y-59462989D01*
X125001348Y-59278738D01*
X125001347Y-59278737D01*
X125001345Y-59278732D01*
X124871691Y-59107041D01*
X124871687Y-59107037D01*
X124871685Y-59107035D01*
X124712697Y-58962099D01*
X124529775Y-58848838D01*
X124529764Y-58848833D01*
X124524943Y-58846965D01*
X124469545Y-58804388D01*
X124445960Y-58738619D01*
X124461676Y-58670540D01*
X124482061Y-58643665D01*
X127473810Y-55651919D01*
X127535133Y-55618434D01*
X127561491Y-55615600D01*
X128637221Y-55615600D01*
X128704260Y-55635285D01*
X128733074Y-55660935D01*
X128796716Y-55738483D01*
X128949060Y-55863509D01*
X128949067Y-55863513D01*
X129122866Y-55956411D01*
X129122869Y-55956411D01*
X129122873Y-55956414D01*
X129311468Y-56013624D01*
X129507600Y-56032941D01*
X129703732Y-56013624D01*
X129892327Y-55956414D01*
X129926078Y-55938374D01*
X129998233Y-55899806D01*
X130066138Y-55863510D01*
X130218483Y-55738483D01*
X130343510Y-55586138D01*
X130436414Y-55412327D01*
X130493624Y-55223732D01*
X130512941Y-55027600D01*
X130493624Y-54831468D01*
X130436414Y-54642873D01*
X130436411Y-54642869D01*
X130436411Y-54642866D01*
X130343513Y-54469067D01*
X130343509Y-54469060D01*
X130323091Y-54444181D01*
X130295778Y-54379871D01*
X130307569Y-54311004D01*
X130354721Y-54259443D01*
X130418942Y-54241516D01*
X132265384Y-54241547D01*
G37*
G04 #@! TD.AperFunction*
G04 #@! TA.AperFunction,Conductor*
G36*
X76638303Y-71807984D02*
G01*
X76644781Y-71814016D01*
X77770960Y-72940195D01*
X77804445Y-73001518D01*
X77799461Y-73071210D01*
X77757589Y-73127143D01*
X77692125Y-73151560D01*
X77683279Y-73151876D01*
X76557100Y-73151872D01*
X76490060Y-73132187D01*
X76444305Y-73079383D01*
X76433100Y-73027872D01*
X76433100Y-71901697D01*
X76452785Y-71834658D01*
X76505589Y-71788903D01*
X76574747Y-71778959D01*
X76638303Y-71807984D01*
G37*
G04 #@! TD.AperFunction*
G04 #@! TA.AperFunction,Conductor*
G36*
X80350139Y-71022785D02*
G01*
X80395894Y-71075589D01*
X80407100Y-71127100D01*
X80407100Y-71602601D01*
X80407101Y-71602619D01*
X80417600Y-71705396D01*
X80417601Y-71705399D01*
X80472785Y-71871931D01*
X80472787Y-71871936D01*
X80484836Y-71891471D01*
X80564888Y-72021256D01*
X80688944Y-72145312D01*
X80813831Y-72222343D01*
X80860555Y-72274290D01*
X80871778Y-72343252D01*
X80843934Y-72407335D01*
X80785866Y-72446191D01*
X80748734Y-72451881D01*
X79366466Y-72451881D01*
X79299427Y-72432196D01*
X79253672Y-72379392D01*
X79243728Y-72310234D01*
X79272753Y-72246678D01*
X79301367Y-72222343D01*
X79426256Y-72145312D01*
X79550312Y-72021256D01*
X79642414Y-71871934D01*
X79697599Y-71705397D01*
X79708100Y-71602609D01*
X79708099Y-71314827D01*
X79727783Y-71247789D01*
X79744409Y-71227157D01*
X79932149Y-71039416D01*
X79993472Y-71005934D01*
X80019829Y-71003100D01*
X80283100Y-71003100D01*
X80350139Y-71022785D01*
G37*
G04 #@! TD.AperFunction*
G04 #@! TA.AperFunction,Conductor*
G36*
X91075140Y-70072785D02*
G01*
X91120895Y-70125589D01*
X91132101Y-70177100D01*
X91132101Y-70510636D01*
X91133337Y-70524541D01*
X91142713Y-70630015D01*
X91198689Y-70825645D01*
X91198690Y-70825648D01*
X91198691Y-70825649D01*
X91292902Y-71006007D01*
X91316684Y-71035173D01*
X91421490Y-71163709D01*
X91472617Y-71205397D01*
X91579193Y-71292298D01*
X91759551Y-71386509D01*
X91955182Y-71442486D01*
X92074563Y-71453100D01*
X92883100Y-71453099D01*
X92950139Y-71472783D01*
X92995894Y-71525587D01*
X93007100Y-71577099D01*
X93007100Y-71638833D01*
X93040743Y-71807966D01*
X93040746Y-71807978D01*
X93106738Y-71967298D01*
X93106745Y-71967311D01*
X93202554Y-72110698D01*
X93202557Y-72110702D01*
X93328808Y-72236953D01*
X93327793Y-72237967D01*
X93363081Y-72289766D01*
X93364956Y-72359610D01*
X93328772Y-72419381D01*
X93266018Y-72450101D01*
X93245084Y-72451881D01*
X87757454Y-72451881D01*
X87690415Y-72432196D01*
X87644660Y-72379392D01*
X87634716Y-72310234D01*
X87660807Y-72250194D01*
X87683195Y-72222342D01*
X87699630Y-72201896D01*
X87784241Y-72031293D01*
X87830200Y-71846489D01*
X87833100Y-71803723D01*
X87833099Y-70901478D01*
X87830200Y-70858711D01*
X87784241Y-70673907D01*
X87777282Y-70659875D01*
X87699632Y-70503307D01*
X87699630Y-70503304D01*
X87646810Y-70437593D01*
X87580322Y-70354878D01*
X87511113Y-70299246D01*
X87471195Y-70241902D01*
X87468615Y-70172080D01*
X87504194Y-70111947D01*
X87511097Y-70105965D01*
X87542839Y-70080451D01*
X87607422Y-70053794D01*
X87620524Y-70053100D01*
X91008101Y-70053100D01*
X91075140Y-70072785D01*
G37*
G04 #@! TD.AperFunction*
G04 #@! TA.AperFunction,Conductor*
G36*
X97418716Y-65933917D02*
G01*
X97474650Y-65975789D01*
X97495157Y-66018003D01*
X97498023Y-66028698D01*
X97519583Y-66066040D01*
X97551081Y-66120596D01*
X97577079Y-66165628D01*
X97695949Y-66284498D01*
X97695955Y-66284503D01*
X101288426Y-69876974D01*
X101288436Y-69876985D01*
X101292766Y-69881315D01*
X101292767Y-69881316D01*
X101404571Y-69993120D01*
X101491382Y-70043239D01*
X101491384Y-70043241D01*
X101538824Y-70070631D01*
X101541502Y-70072177D01*
X101613999Y-70091602D01*
X101673659Y-70127967D01*
X101704188Y-70190814D01*
X101695893Y-70260189D01*
X101688638Y-70274497D01*
X101630854Y-70372205D01*
X101630854Y-70372206D01*
X101585002Y-70530026D01*
X101585001Y-70530032D01*
X101582100Y-70566898D01*
X101582100Y-70998306D01*
X101582359Y-71001592D01*
X101567987Y-71069968D01*
X101546421Y-71098989D01*
X100229851Y-72415562D01*
X100168528Y-72449047D01*
X100142170Y-72451881D01*
X97102101Y-72451881D01*
X97035062Y-72432196D01*
X96989307Y-72379392D01*
X96979363Y-72310234D01*
X96980120Y-72305596D01*
X96980198Y-72305167D01*
X96982098Y-72281021D01*
X96983100Y-72268294D01*
X96983100Y-71836906D01*
X96980198Y-71800031D01*
X96978038Y-71792598D01*
X96935250Y-71645321D01*
X96934344Y-71642202D01*
X96850681Y-71500735D01*
X96850678Y-71500732D01*
X96845898Y-71494569D01*
X96848350Y-71492666D01*
X96821755Y-71444021D01*
X96826704Y-71374326D01*
X96847540Y-71341904D01*
X96845898Y-71340631D01*
X96850675Y-71334470D01*
X96850681Y-71334465D01*
X96934344Y-71192998D01*
X96980198Y-71035169D01*
X96983100Y-70998294D01*
X96983100Y-70566906D01*
X96980198Y-70530031D01*
X96977826Y-70521867D01*
X96939545Y-70390104D01*
X96934344Y-70372202D01*
X96850681Y-70230735D01*
X96850678Y-70230732D01*
X96845898Y-70224569D01*
X96848350Y-70222666D01*
X96821755Y-70174021D01*
X96826704Y-70104326D01*
X96847540Y-70071904D01*
X96845898Y-70070631D01*
X96850675Y-70064470D01*
X96850681Y-70064465D01*
X96934344Y-69922998D01*
X96980198Y-69765169D01*
X96983100Y-69728294D01*
X96983100Y-69296906D01*
X96980198Y-69260031D01*
X96979528Y-69257726D01*
X96939467Y-69119835D01*
X96934344Y-69102202D01*
X96850681Y-68960735D01*
X96850678Y-68960732D01*
X96845898Y-68954569D01*
X96848350Y-68952666D01*
X96821755Y-68904021D01*
X96826704Y-68834326D01*
X96847540Y-68801904D01*
X96845898Y-68800631D01*
X96850675Y-68794470D01*
X96850681Y-68794465D01*
X96934344Y-68652998D01*
X96969468Y-68532100D01*
X96980197Y-68495173D01*
X96980198Y-68495167D01*
X96983100Y-68458294D01*
X96983100Y-68026906D01*
X96980198Y-67990031D01*
X96976475Y-67977218D01*
X96946436Y-67873824D01*
X96934344Y-67832202D01*
X96850681Y-67690735D01*
X96850679Y-67690733D01*
X96850676Y-67690729D01*
X96734470Y-67574523D01*
X96734462Y-67574517D01*
X96592996Y-67490855D01*
X96592993Y-67490854D01*
X96435173Y-67445002D01*
X96435167Y-67445001D01*
X96397371Y-67442027D01*
X96332082Y-67417143D01*
X96290612Y-67360912D01*
X96283100Y-67318409D01*
X96283100Y-67018383D01*
X96302785Y-66951344D01*
X96319419Y-66930702D01*
X96789463Y-66460658D01*
X97287704Y-65962416D01*
X97349025Y-65928933D01*
X97418716Y-65933917D01*
G37*
G04 #@! TD.AperFunction*
G04 #@! TA.AperFunction,Conductor*
G36*
X82989068Y-70310010D02*
G01*
X83045002Y-70351881D01*
X83061916Y-70382857D01*
X83085699Y-70446621D01*
X83085703Y-70446627D01*
X83172552Y-70562647D01*
X83288572Y-70649496D01*
X83288575Y-70649498D01*
X83304020Y-70655259D01*
X83359954Y-70697130D01*
X83384371Y-70762594D01*
X83369520Y-70830867D01*
X83320115Y-70880273D01*
X83299692Y-70889147D01*
X83213266Y-70917786D01*
X83213259Y-70917789D01*
X83147032Y-70958639D01*
X83081936Y-70977100D01*
X82627689Y-70977100D01*
X82560650Y-70957415D01*
X82514895Y-70904611D01*
X82504331Y-70865702D01*
X82500239Y-70825649D01*
X82497599Y-70799803D01*
X82496559Y-70796664D01*
X82496488Y-70794615D01*
X82496181Y-70793178D01*
X82496437Y-70793123D01*
X82494159Y-70726835D01*
X82526583Y-70669983D01*
X82858058Y-70338508D01*
X82919377Y-70305026D01*
X82989068Y-70310010D01*
G37*
G04 #@! TD.AperFunction*
G04 #@! TA.AperFunction,Conductor*
G36*
X77281292Y-68756383D02*
G01*
X77353335Y-68770714D01*
X77436811Y-68770714D01*
X77503850Y-68790399D01*
X77549605Y-68843203D01*
X77559549Y-68912361D01*
X77534792Y-68970712D01*
X77531465Y-68975000D01*
X77449731Y-69113206D01*
X77449729Y-69113211D01*
X77404935Y-69267391D01*
X77404934Y-69267397D01*
X77402100Y-69303411D01*
X77402100Y-69801769D01*
X77402101Y-69801791D01*
X77404935Y-69837805D01*
X77449729Y-69991988D01*
X77449731Y-69991993D01*
X77531463Y-70130195D01*
X77531469Y-70130203D01*
X77644996Y-70243730D01*
X77645000Y-70243733D01*
X77645002Y-70243735D01*
X77645005Y-70243736D01*
X77645008Y-70243739D01*
X77733898Y-70296308D01*
X77781582Y-70347377D01*
X77794086Y-70416118D01*
X77768051Y-70479942D01*
X77764893Y-70483935D01*
X77672787Y-70633263D01*
X77672785Y-70633268D01*
X77649148Y-70704600D01*
X77617602Y-70799802D01*
X77617601Y-70799804D01*
X77617599Y-70799812D01*
X77617373Y-70802026D01*
X77616851Y-70803303D01*
X77616183Y-70806427D01*
X77615625Y-70806307D01*
X77590975Y-70866717D01*
X77533793Y-70906866D01*
X77463982Y-70909727D01*
X77406335Y-70877100D01*
X77169419Y-70640184D01*
X77135934Y-70578861D01*
X77133100Y-70552503D01*
X77133100Y-68878000D01*
X77152785Y-68810961D01*
X77205589Y-68765206D01*
X77274747Y-68755262D01*
X77281292Y-68756383D01*
G37*
G04 #@! TD.AperFunction*
G04 #@! TA.AperFunction,Conductor*
G36*
X112475278Y-67410285D02*
G01*
X112521033Y-67463089D01*
X112530977Y-67532247D01*
X112518601Y-67559346D01*
X112518601Y-67653605D01*
X112533213Y-67745871D01*
X112589875Y-67857074D01*
X112589878Y-67857079D01*
X112678120Y-67945321D01*
X112678126Y-67945326D01*
X112720889Y-67967114D01*
X112771685Y-68015087D01*
X112788481Y-68082908D01*
X112765944Y-68149043D01*
X112720892Y-68188083D01*
X112678125Y-68209874D01*
X112678120Y-68209878D01*
X112589878Y-68298120D01*
X112589875Y-68298124D01*
X112533211Y-68409334D01*
X112518600Y-68501587D01*
X112518600Y-68575600D01*
X113055600Y-68575600D01*
X113122639Y-68595285D01*
X113168394Y-68648089D01*
X113179600Y-68699600D01*
X113179600Y-69266599D01*
X113223611Y-69266599D01*
X113223611Y-69266598D01*
X113279635Y-69257726D01*
X113348928Y-69266681D01*
X113386713Y-69292518D01*
X113476907Y-69382712D01*
X113476911Y-69382715D01*
X113476913Y-69382717D01*
X113616205Y-69465094D01*
X113616208Y-69465094D01*
X113623368Y-69468194D01*
X113622193Y-69470908D01*
X113669370Y-69501014D01*
X113698598Y-69564477D01*
X113688875Y-69633667D01*
X113681456Y-69647612D01*
X113597790Y-69783259D01*
X113597786Y-69783266D01*
X113569147Y-69869692D01*
X113529373Y-69927137D01*
X113464857Y-69953959D01*
X113396082Y-69941643D01*
X113344882Y-69894100D01*
X113335259Y-69874020D01*
X113329498Y-69858575D01*
X113329496Y-69858572D01*
X113242647Y-69742552D01*
X113126627Y-69655703D01*
X113126625Y-69655702D01*
X112990831Y-69605052D01*
X112930827Y-69598600D01*
X112759600Y-69598600D01*
X112759600Y-70580600D01*
X112739915Y-70647639D01*
X112687111Y-70693394D01*
X112635600Y-70704600D01*
X112629600Y-70704600D01*
X112562561Y-70684915D01*
X112516806Y-70632111D01*
X112505600Y-70580600D01*
X112505600Y-69598600D01*
X112334393Y-69598600D01*
X112334383Y-69598601D01*
X112274364Y-69605052D01*
X112266814Y-69606837D01*
X112266450Y-69605298D01*
X112205733Y-69609636D01*
X112144412Y-69576147D01*
X112110931Y-69514822D01*
X112108099Y-69488478D01*
X112108099Y-68903605D01*
X112518601Y-68903605D01*
X112533213Y-68995871D01*
X112589875Y-69107074D01*
X112589878Y-69107079D01*
X112678120Y-69195321D01*
X112678124Y-69195324D01*
X112789334Y-69251988D01*
X112881587Y-69266599D01*
X112925599Y-69266599D01*
X112925600Y-69266598D01*
X112925600Y-68829600D01*
X112518601Y-68829600D01*
X112518601Y-68903605D01*
X112108099Y-68903605D01*
X112108099Y-68752592D01*
X112107894Y-68750589D01*
X112097599Y-68649803D01*
X112097598Y-68649800D01*
X112090820Y-68629345D01*
X112042414Y-68483266D01*
X111950312Y-68333944D01*
X111894419Y-68278051D01*
X111860934Y-68216728D01*
X111858100Y-68190370D01*
X111858100Y-68098679D01*
X111829259Y-67953692D01*
X111829258Y-67953691D01*
X111829258Y-67953687D01*
X111821753Y-67935569D01*
X111772687Y-67817111D01*
X111772680Y-67817098D01*
X111690552Y-67694185D01*
X111649972Y-67653605D01*
X111598646Y-67602279D01*
X111565163Y-67540959D01*
X111570147Y-67471267D01*
X111612018Y-67415333D01*
X111677482Y-67390916D01*
X111686329Y-67390600D01*
X112408239Y-67390600D01*
X112475278Y-67410285D01*
G37*
G04 #@! TD.AperFunction*
G04 #@! TA.AperFunction,Conductor*
G36*
X120894440Y-62864131D02*
G01*
X120950373Y-62906003D01*
X120954208Y-62911422D01*
X121060345Y-63070266D01*
X121060348Y-63070270D01*
X121199699Y-63209621D01*
X121199703Y-63209624D01*
X121363564Y-63319113D01*
X121363577Y-63319120D01*
X121533856Y-63389651D01*
X121545650Y-63394536D01*
X121545654Y-63394536D01*
X121545655Y-63394537D01*
X121738941Y-63432985D01*
X121738944Y-63432985D01*
X123385460Y-63432985D01*
X123450737Y-63451558D01*
X123490422Y-63476130D01*
X123490423Y-63476130D01*
X123490426Y-63476132D01*
X123691044Y-63553852D01*
X123834115Y-63580596D01*
X123896395Y-63612264D01*
X123931668Y-63672577D01*
X123928734Y-63742385D01*
X123888525Y-63799525D01*
X123834115Y-63824373D01*
X123691044Y-63851118D01*
X123588102Y-63890998D01*
X123490428Y-63928837D01*
X123490427Y-63928837D01*
X123307502Y-64042099D01*
X123148514Y-64187035D01*
X123148507Y-64187043D01*
X123018860Y-64358724D01*
X123018851Y-64358738D01*
X122922960Y-64551312D01*
X122922955Y-64551325D01*
X122864077Y-64758256D01*
X122844227Y-64972484D01*
X122844227Y-64972485D01*
X122864077Y-65186711D01*
X122866339Y-65194659D01*
X122865751Y-65264526D01*
X122834753Y-65316273D01*
X121631561Y-66519466D01*
X121522085Y-66628941D01*
X121522083Y-66628944D01*
X121444671Y-66763023D01*
X121404600Y-66912573D01*
X121404600Y-70206180D01*
X121384915Y-70273219D01*
X121332111Y-70318974D01*
X121262953Y-70328918D01*
X121199397Y-70299893D01*
X121192919Y-70293861D01*
X120148065Y-69249008D01*
X120114580Y-69187685D01*
X120116670Y-69126731D01*
X120116850Y-69126111D01*
X120130198Y-69080169D01*
X120133100Y-69043294D01*
X120133100Y-68611906D01*
X120130198Y-68575031D01*
X120129904Y-68574020D01*
X120084345Y-68417206D01*
X120084344Y-68417203D01*
X120084344Y-68417202D01*
X120000681Y-68275735D01*
X120000679Y-68275733D01*
X120000676Y-68275729D01*
X119884470Y-68159523D01*
X119884459Y-68159514D01*
X119806478Y-68113396D01*
X119758795Y-68062327D01*
X119745600Y-68006665D01*
X119745600Y-65969695D01*
X119765285Y-65902656D01*
X119781914Y-65882018D01*
X119848735Y-65815198D01*
X119930469Y-65676993D01*
X119975265Y-65522804D01*
X119978100Y-65486781D01*
X119978099Y-65088420D01*
X119975265Y-65052396D01*
X119930469Y-64898207D01*
X119896469Y-64840717D01*
X119879288Y-64772998D01*
X119896469Y-64714482D01*
X119930469Y-64656993D01*
X119954837Y-64573120D01*
X119975264Y-64502808D01*
X119975265Y-64502802D01*
X119978100Y-64466781D01*
X119978099Y-64068420D01*
X119975265Y-64032396D01*
X119930469Y-63878207D01*
X119930238Y-63877816D01*
X119922713Y-63865092D01*
X119905531Y-63797368D01*
X119927692Y-63731106D01*
X119941759Y-63714297D01*
X120763426Y-62892630D01*
X120824748Y-62859147D01*
X120894440Y-62864131D01*
G37*
G04 #@! TD.AperFunction*
G04 #@! TA.AperFunction,Conductor*
G36*
X108071277Y-67410285D02*
G01*
X108117032Y-67463089D01*
X108126976Y-67532247D01*
X108097951Y-67595803D01*
X108091919Y-67602281D01*
X108089600Y-67604600D01*
X108089600Y-68041599D01*
X108133605Y-68041599D01*
X108225871Y-68026986D01*
X108337074Y-67970324D01*
X108337079Y-67970321D01*
X108425321Y-67882079D01*
X108425324Y-67882075D01*
X108481988Y-67770865D01*
X108496600Y-67678612D01*
X108496600Y-67604600D01*
X108494281Y-67602281D01*
X108460796Y-67540958D01*
X108465780Y-67471266D01*
X108507652Y-67415333D01*
X108573116Y-67390916D01*
X108581962Y-67390600D01*
X108883239Y-67390600D01*
X108950278Y-67410285D01*
X108996033Y-67463089D01*
X109005977Y-67532247D01*
X108976952Y-67595803D01*
X108970920Y-67602281D01*
X108943601Y-67629600D01*
X108943601Y-67703605D01*
X108958213Y-67795871D01*
X109014875Y-67907074D01*
X109014878Y-67907079D01*
X109103120Y-67995321D01*
X109103124Y-67995324D01*
X109214334Y-68051988D01*
X109290681Y-68064080D01*
X109353816Y-68094009D01*
X109390748Y-68153320D01*
X109389750Y-68223182D01*
X109358966Y-68274234D01*
X109334600Y-68298600D01*
X109334600Y-69280600D01*
X109314915Y-69347639D01*
X109262111Y-69393394D01*
X109210600Y-69404600D01*
X108453601Y-69404600D01*
X108453601Y-69578100D01*
X108433916Y-69645139D01*
X108381112Y-69690894D01*
X108329601Y-69702100D01*
X108293052Y-69702100D01*
X108226013Y-69682415D01*
X108205371Y-69665781D01*
X107302798Y-68763208D01*
X107302778Y-68763186D01*
X107293964Y-68754372D01*
X108453600Y-68754372D01*
X108453600Y-69150600D01*
X109080600Y-69150600D01*
X109080600Y-68298600D01*
X108909393Y-68298600D01*
X108909383Y-68298601D01*
X108849364Y-68305052D01*
X108849361Y-68305053D01*
X108713578Y-68355699D01*
X108713572Y-68355703D01*
X108597552Y-68442552D01*
X108510703Y-68558572D01*
X108510702Y-68558574D01*
X108460052Y-68694368D01*
X108453600Y-68754372D01*
X107293964Y-68754372D01*
X107211333Y-68671741D01*
X107146891Y-68628683D01*
X107108886Y-68603288D01*
X107108887Y-68603288D01*
X107108885Y-68603287D01*
X107043360Y-68576147D01*
X107028392Y-68569947D01*
X107027776Y-68569692D01*
X106995053Y-68556137D01*
X106985027Y-68554143D01*
X106934629Y-68544118D01*
X106927309Y-68542662D01*
X106882339Y-68533717D01*
X106820428Y-68501332D01*
X106785854Y-68440617D01*
X106789593Y-68370847D01*
X106830459Y-68314175D01*
X106895477Y-68288594D01*
X106906530Y-68288100D01*
X107207282Y-68288100D01*
X107207290Y-68288100D01*
X107243593Y-68285243D01*
X107243595Y-68285242D01*
X107243597Y-68285242D01*
X107313582Y-68264909D01*
X107398995Y-68240094D01*
X107538287Y-68157717D01*
X107628487Y-68067516D01*
X107689808Y-68034033D01*
X107735566Y-68032726D01*
X107791589Y-68041599D01*
X107835599Y-68041599D01*
X107835600Y-68041598D01*
X107835600Y-67514600D01*
X107855285Y-67447561D01*
X107908089Y-67401806D01*
X107959600Y-67390600D01*
X108004238Y-67390600D01*
X108071277Y-67410285D01*
G37*
G04 #@! TD.AperFunction*
G04 #@! TA.AperFunction,Conductor*
G36*
X80866836Y-66620110D02*
G01*
X80922770Y-66661982D01*
X80943278Y-66704198D01*
X80948678Y-66724354D01*
X80971319Y-66808849D01*
X81047085Y-66940079D01*
X81154235Y-67047229D01*
X81211552Y-67080321D01*
X81217869Y-67083968D01*
X81266084Y-67134535D01*
X81279306Y-67203143D01*
X81253338Y-67268007D01*
X81203321Y-67305916D01*
X81100449Y-67348526D01*
X81100440Y-67348531D01*
X80976953Y-67431043D01*
X80976949Y-67431046D01*
X80871932Y-67536063D01*
X80871929Y-67536067D01*
X80789417Y-67659554D01*
X80789412Y-67659563D01*
X80732576Y-67796779D01*
X80732574Y-67796787D01*
X80714089Y-67889713D01*
X80714090Y-67889714D01*
X81184513Y-67889714D01*
X81178044Y-67900918D01*
X81157600Y-67977218D01*
X81157600Y-68056210D01*
X81178044Y-68132510D01*
X81184513Y-68143714D01*
X80714090Y-68143714D01*
X80732574Y-68236640D01*
X80732576Y-68236648D01*
X80789412Y-68373864D01*
X80789417Y-68373873D01*
X80871929Y-68497360D01*
X80871932Y-68497364D01*
X80976949Y-68602381D01*
X80976953Y-68602384D01*
X81100440Y-68684896D01*
X81100449Y-68684901D01*
X81237665Y-68741737D01*
X81237673Y-68741739D01*
X81383333Y-68770713D01*
X81383336Y-68770714D01*
X81880600Y-68770714D01*
X81880600Y-68316714D01*
X82134600Y-68316714D01*
X82134600Y-68773558D01*
X82164663Y-68828615D01*
X82159679Y-68898307D01*
X82131178Y-68942654D01*
X81608051Y-69465781D01*
X81546728Y-69499266D01*
X81520370Y-69502100D01*
X79840600Y-69502100D01*
X79773561Y-69482415D01*
X79727806Y-69429611D01*
X79716600Y-69378100D01*
X79716600Y-69336978D01*
X79702174Y-69245897D01*
X79702173Y-69245894D01*
X79646231Y-69136102D01*
X79646227Y-69136096D01*
X79629965Y-69119835D01*
X79596478Y-69058513D01*
X79601461Y-68988821D01*
X79629963Y-68944471D01*
X79641104Y-68933330D01*
X79641109Y-68933326D01*
X79651314Y-68923120D01*
X79651316Y-68923120D01*
X79763120Y-68811316D01*
X79816592Y-68718699D01*
X79842177Y-68674385D01*
X79883100Y-68521657D01*
X79883100Y-68363543D01*
X79883100Y-67552696D01*
X79902785Y-67485657D01*
X79919414Y-67465019D01*
X80735824Y-66648609D01*
X80797145Y-66615126D01*
X80866836Y-66620110D01*
G37*
G04 #@! TD.AperFunction*
G04 #@! TA.AperFunction,Conductor*
G36*
X84751434Y-68547646D02*
G01*
X84807367Y-68589518D01*
X84831784Y-68654982D01*
X84832100Y-68663828D01*
X84832100Y-69116447D01*
X84812415Y-69183486D01*
X84759611Y-69229241D01*
X84690453Y-69239185D01*
X84664766Y-69232629D01*
X84590831Y-69205052D01*
X84530827Y-69198600D01*
X84297328Y-69198600D01*
X84230289Y-69178915D01*
X84184534Y-69126111D01*
X84174590Y-69056953D01*
X84203615Y-68993397D01*
X84209633Y-68986933D01*
X84620421Y-68576145D01*
X84681742Y-68542662D01*
X84751434Y-68547646D01*
G37*
G04 #@! TD.AperFunction*
G04 #@! TA.AperFunction,Conductor*
G36*
X109773928Y-68066681D02*
G01*
X109811713Y-68092518D01*
X109901907Y-68182712D01*
X109901911Y-68182715D01*
X109901913Y-68182717D01*
X110041205Y-68265094D01*
X110110413Y-68285200D01*
X110169296Y-68322805D01*
X110198503Y-68386277D01*
X110188758Y-68455464D01*
X110181358Y-68469367D01*
X110172787Y-68483262D01*
X110172787Y-68483264D01*
X110172786Y-68483266D01*
X110156604Y-68532100D01*
X110144147Y-68569692D01*
X110104373Y-68627137D01*
X110039857Y-68653959D01*
X109971082Y-68641643D01*
X109919882Y-68594100D01*
X109910259Y-68574020D01*
X109904498Y-68558575D01*
X109904496Y-68558572D01*
X109817647Y-68442552D01*
X109701627Y-68355703D01*
X109701625Y-68355702D01*
X109570465Y-68306781D01*
X109514532Y-68264909D01*
X109490115Y-68199444D01*
X109504967Y-68131172D01*
X109554373Y-68081767D01*
X109613799Y-68066599D01*
X109648611Y-68066599D01*
X109648611Y-68066598D01*
X109704635Y-68057726D01*
X109773928Y-68066681D01*
G37*
G04 #@! TD.AperFunction*
G04 #@! TA.AperFunction,Conductor*
G36*
X92985358Y-64572785D02*
G01*
X93031113Y-64625589D01*
X93041057Y-64694747D01*
X93039936Y-64701291D01*
X93007100Y-64866366D01*
X93007100Y-65838593D01*
X92987415Y-65905632D01*
X92970781Y-65926274D01*
X92281273Y-66615781D01*
X92219950Y-66649266D01*
X92193593Y-66652100D01*
X92074572Y-66652100D01*
X92074564Y-66652101D01*
X91955184Y-66662713D01*
X91759554Y-66718689D01*
X91688892Y-66755600D01*
X91579193Y-66812902D01*
X91579191Y-66812903D01*
X91579190Y-66812904D01*
X91421490Y-66941490D01*
X91292904Y-67099190D01*
X91292902Y-67099193D01*
X91265814Y-67151050D01*
X91198689Y-67279554D01*
X91156524Y-67426919D01*
X91144998Y-67467202D01*
X91142714Y-67475183D01*
X91142713Y-67475186D01*
X91132100Y-67594566D01*
X91132100Y-67928100D01*
X91112415Y-67995139D01*
X91059611Y-68040894D01*
X91008100Y-68052100D01*
X87620524Y-68052100D01*
X87553485Y-68032415D01*
X87542837Y-68024747D01*
X87531823Y-68015894D01*
X87431896Y-67935570D01*
X87431895Y-67935569D01*
X87431892Y-67935567D01*
X87307615Y-67873932D01*
X87256302Y-67826511D01*
X87238773Y-67758876D01*
X87260592Y-67692501D01*
X87299589Y-67656112D01*
X87346181Y-67628557D01*
X87346185Y-67628555D01*
X87458553Y-67516186D01*
X87539456Y-67379389D01*
X87583793Y-67226775D01*
X87586599Y-67191120D01*
X87586600Y-67191108D01*
X87586600Y-66879600D01*
X86329600Y-66879600D01*
X86262561Y-66859915D01*
X86216806Y-66807111D01*
X86205600Y-66755600D01*
X86205600Y-66625600D01*
X86459600Y-66625600D01*
X87586599Y-66625600D01*
X87586599Y-66314096D01*
X87586598Y-66314074D01*
X87583793Y-66278425D01*
X87583793Y-66278424D01*
X87539455Y-66125810D01*
X87458553Y-65989013D01*
X87346186Y-65876646D01*
X87209389Y-65795743D01*
X87056775Y-65751406D01*
X87021120Y-65748600D01*
X86459600Y-65748600D01*
X86459600Y-66625600D01*
X86205600Y-66625600D01*
X86205600Y-65748600D01*
X85644096Y-65748600D01*
X85644074Y-65748601D01*
X85608425Y-65751406D01*
X85608424Y-65751406D01*
X85455810Y-65795744D01*
X85319013Y-65876646D01*
X85206646Y-65989013D01*
X85125742Y-66125812D01*
X85125742Y-66125813D01*
X85101249Y-66210121D01*
X85063643Y-66269006D01*
X85000171Y-66298213D01*
X84930984Y-66288467D01*
X84879072Y-66244418D01*
X84865553Y-66224186D01*
X84823928Y-66182561D01*
X84761016Y-66119649D01*
X84435908Y-65794540D01*
X84413243Y-65758470D01*
X84411412Y-65759353D01*
X84408391Y-65753080D01*
X84332984Y-65633072D01*
X84313983Y-65565835D01*
X84334350Y-65499000D01*
X84387618Y-65453785D01*
X84437977Y-65443099D01*
X85025471Y-65443099D01*
X85025472Y-65443099D01*
X85085083Y-65436691D01*
X85219931Y-65386396D01*
X85335146Y-65300146D01*
X85340652Y-65292791D01*
X85396585Y-65250919D01*
X85439920Y-65243100D01*
X87005931Y-65243100D01*
X87005947Y-65243101D01*
X87013543Y-65243101D01*
X87171654Y-65243101D01*
X87171657Y-65243101D01*
X87324385Y-65202177D01*
X87378322Y-65171036D01*
X87461316Y-65123120D01*
X87573120Y-65011316D01*
X87573120Y-65011314D01*
X87583324Y-65001111D01*
X87583327Y-65001106D01*
X87995016Y-64589419D01*
X88056339Y-64555934D01*
X88082697Y-64553100D01*
X92918319Y-64553100D01*
X92985358Y-64572785D01*
G37*
G04 #@! TD.AperFunction*
G04 #@! TA.AperFunction,Conductor*
G36*
X118412639Y-66145285D02*
G01*
X118458394Y-66198089D01*
X118469600Y-66249600D01*
X118469600Y-66826600D01*
X118479576Y-66836576D01*
X118512639Y-66846285D01*
X118558394Y-66899089D01*
X118569600Y-66950600D01*
X118569600Y-67903100D01*
X118549915Y-67970139D01*
X118497111Y-68015894D01*
X118445600Y-68027100D01*
X118382100Y-68027100D01*
X118315061Y-68007415D01*
X118269306Y-67954611D01*
X118258100Y-67903100D01*
X118258100Y-67661913D01*
X118258099Y-67661898D01*
X118257915Y-67659563D01*
X118255198Y-67625031D01*
X118249262Y-67604600D01*
X118214706Y-67485657D01*
X118209344Y-67467202D01*
X118125681Y-67325735D01*
X118125679Y-67325733D01*
X118125676Y-67325729D01*
X118009470Y-67209523D01*
X118009462Y-67209517D01*
X117971477Y-67187052D01*
X117923795Y-67135982D01*
X117910600Y-67080321D01*
X117910600Y-66934695D01*
X117930285Y-66867656D01*
X117946907Y-66847025D01*
X117953563Y-66840369D01*
X118014880Y-66806883D01*
X118079572Y-66810118D01*
X118085900Y-66812174D01*
X118176979Y-66826600D01*
X118215600Y-66826600D01*
X118215600Y-66249600D01*
X118235285Y-66182561D01*
X118288089Y-66136806D01*
X118339600Y-66125600D01*
X118345600Y-66125600D01*
X118412639Y-66145285D01*
G37*
G04 #@! TD.AperFunction*
G04 #@! TA.AperFunction,Conductor*
G36*
X80038303Y-61365394D02*
G01*
X80044781Y-61371426D01*
X81252918Y-62579563D01*
X81286403Y-62640886D01*
X81281419Y-62710578D01*
X81252919Y-62754925D01*
X81196742Y-62811102D01*
X81183048Y-62831597D01*
X81168484Y-62853394D01*
X81128290Y-62913546D01*
X81128287Y-62913552D01*
X81103089Y-62974383D01*
X81103090Y-62974384D01*
X81081138Y-63027382D01*
X81081135Y-63027392D01*
X81072607Y-63070268D01*
X81059350Y-63136917D01*
X81059349Y-63136923D01*
X81057100Y-63148226D01*
X81057100Y-63756971D01*
X81062067Y-63781940D01*
X81062067Y-63781945D01*
X81062068Y-63781945D01*
X81081136Y-63877812D01*
X81081139Y-63877822D01*
X81086595Y-63890994D01*
X81086597Y-63890996D01*
X81088801Y-63896317D01*
X81128287Y-63991649D01*
X81128288Y-63991650D01*
X81155998Y-64033119D01*
X81196742Y-64094097D01*
X81283867Y-64181222D01*
X81283868Y-64181222D01*
X81290935Y-64188289D01*
X81290934Y-64188289D01*
X81290938Y-64188292D01*
X81470781Y-64368135D01*
X81504266Y-64429458D01*
X81507100Y-64455816D01*
X81507100Y-64559441D01*
X81522974Y-64680006D01*
X81519999Y-64680397D01*
X81519999Y-64713028D01*
X81522974Y-64713420D01*
X81521913Y-64721477D01*
X81521913Y-64721478D01*
X81519092Y-64742910D01*
X81518911Y-64744284D01*
X81490645Y-64808181D01*
X81432321Y-64846653D01*
X81395972Y-64852100D01*
X81003540Y-64852100D01*
X80962619Y-64863064D01*
X80962619Y-64863065D01*
X80946497Y-64867385D01*
X80850814Y-64893023D01*
X80850809Y-64893026D01*
X80713890Y-64972075D01*
X80713882Y-64972081D01*
X78802081Y-66883882D01*
X78802075Y-66883890D01*
X78759627Y-66957414D01*
X78759627Y-66957416D01*
X78723023Y-67020814D01*
X78715945Y-67047229D01*
X78682099Y-67173543D01*
X78682099Y-67173545D01*
X78682099Y-67203270D01*
X78662414Y-67270309D01*
X78609610Y-67316064D01*
X78540452Y-67326008D01*
X78510648Y-67317832D01*
X78447533Y-67291690D01*
X78447526Y-67291688D01*
X78301865Y-67262714D01*
X77954600Y-67262714D01*
X77954600Y-67716714D01*
X77700600Y-67716714D01*
X77700600Y-67262714D01*
X77353333Y-67262714D01*
X77281291Y-67277044D01*
X77211699Y-67270817D01*
X77156522Y-67227953D01*
X77133278Y-67162063D01*
X77133100Y-67155427D01*
X77133100Y-66527697D01*
X77152785Y-66460658D01*
X77169419Y-66440016D01*
X78422724Y-65186711D01*
X79713120Y-63896316D01*
X79792177Y-63759384D01*
X79833101Y-63606657D01*
X79833101Y-63448542D01*
X79833101Y-63440947D01*
X79833100Y-63440929D01*
X79833100Y-61459107D01*
X79852785Y-61392068D01*
X79905589Y-61346313D01*
X79974747Y-61336369D01*
X80038303Y-61365394D01*
G37*
G04 #@! TD.AperFunction*
G04 #@! TA.AperFunction,Conductor*
G36*
X116375280Y-60522785D02*
G01*
X116421035Y-60575589D01*
X116432241Y-60627100D01*
X116432241Y-60775600D01*
X117289241Y-60775600D01*
X117356280Y-60795285D01*
X117402035Y-60848089D01*
X117413241Y-60899600D01*
X117413241Y-61856599D01*
X117889110Y-61856599D01*
X117956149Y-61876284D01*
X117988376Y-61906287D01*
X118028695Y-61960146D01*
X118028698Y-61960148D01*
X118143905Y-62046393D01*
X118143912Y-62046397D01*
X118171558Y-62056708D01*
X118278758Y-62096691D01*
X118338368Y-62103100D01*
X118529822Y-62103099D01*
X118596860Y-62122783D01*
X118642615Y-62175587D01*
X118652559Y-62244745D01*
X118623534Y-62308301D01*
X118617502Y-62314780D01*
X116961561Y-63970722D01*
X116852085Y-64080197D01*
X116852083Y-64080200D01*
X116774671Y-64214279D01*
X116734600Y-64363829D01*
X116734600Y-65570504D01*
X116714915Y-65637543D01*
X116698281Y-65658185D01*
X116681469Y-65674996D01*
X116681463Y-65675004D01*
X116599731Y-65813206D01*
X116599729Y-65813211D01*
X116554935Y-65967391D01*
X116554934Y-65967397D01*
X116552100Y-66003411D01*
X116552100Y-66278680D01*
X116532415Y-66345719D01*
X116479611Y-66391474D01*
X116410453Y-66401418D01*
X116346897Y-66372393D01*
X116340419Y-66366361D01*
X116306143Y-66332085D01*
X116306141Y-66332083D01*
X116230596Y-66288467D01*
X116172061Y-66254671D01*
X116097286Y-66234635D01*
X116022512Y-66214600D01*
X116022511Y-66214600D01*
X114670599Y-66214600D01*
X114603560Y-66194915D01*
X114557805Y-66142111D01*
X114546599Y-66090600D01*
X114546599Y-66001594D01*
X114531986Y-65909328D01*
X114475324Y-65798125D01*
X114475321Y-65798120D01*
X114387079Y-65709878D01*
X114387074Y-65709875D01*
X114368842Y-65700585D01*
X114318046Y-65652610D01*
X114301251Y-65584789D01*
X114323788Y-65518655D01*
X114368842Y-65479615D01*
X114387074Y-65470324D01*
X114387079Y-65470321D01*
X114475321Y-65382079D01*
X114475324Y-65382075D01*
X114531988Y-65270865D01*
X114546600Y-65178612D01*
X114546600Y-65104600D01*
X114009600Y-65104600D01*
X113942561Y-65084915D01*
X113896806Y-65032111D01*
X113885600Y-64980600D01*
X113885600Y-64974600D01*
X113905285Y-64907561D01*
X113958089Y-64861806D01*
X114009600Y-64850600D01*
X114546599Y-64850600D01*
X114546599Y-64776594D01*
X114531986Y-64684328D01*
X114475324Y-64573125D01*
X114475321Y-64573120D01*
X114387079Y-64484878D01*
X114387074Y-64484875D01*
X114368842Y-64475585D01*
X114318046Y-64427610D01*
X114301251Y-64359789D01*
X114323788Y-64293655D01*
X114368842Y-64254615D01*
X114387074Y-64245324D01*
X114387079Y-64245321D01*
X114475321Y-64157079D01*
X114475324Y-64157075D01*
X114531988Y-64045865D01*
X114546600Y-63953612D01*
X114546600Y-63879600D01*
X114009600Y-63879600D01*
X113942561Y-63859915D01*
X113896806Y-63807111D01*
X113885600Y-63755600D01*
X113885600Y-63625600D01*
X114139600Y-63625600D01*
X114546599Y-63625600D01*
X114546599Y-63551594D01*
X114531986Y-63459328D01*
X114475324Y-63348125D01*
X114475321Y-63348120D01*
X114387079Y-63259878D01*
X114387075Y-63259875D01*
X114275865Y-63203211D01*
X114183612Y-63188600D01*
X114139600Y-63188600D01*
X114139600Y-63625600D01*
X113885600Y-63625600D01*
X113885600Y-63188600D01*
X113841592Y-63188600D01*
X113785562Y-63197474D01*
X113716269Y-63188517D01*
X113678486Y-63162681D01*
X113588292Y-63072487D01*
X113588284Y-63072481D01*
X113461886Y-62997730D01*
X113448995Y-62990106D01*
X113448994Y-62990105D01*
X113448993Y-62990105D01*
X113448990Y-62990104D01*
X113293597Y-62944957D01*
X113293591Y-62944956D01*
X113257297Y-62942100D01*
X113257290Y-62942100D01*
X112847910Y-62942100D01*
X112847902Y-62942100D01*
X112811608Y-62944956D01*
X112811602Y-62944957D01*
X112656209Y-62990104D01*
X112656206Y-62990105D01*
X112516915Y-63072481D01*
X112516907Y-63072487D01*
X112402487Y-63186907D01*
X112402480Y-63186916D01*
X112318215Y-63329402D01*
X112267146Y-63377086D01*
X112198404Y-63389589D01*
X112133815Y-63362944D01*
X112100998Y-63322576D01*
X112050324Y-63223125D01*
X112050321Y-63223120D01*
X111962079Y-63134878D01*
X111962075Y-63134875D01*
X111850865Y-63078211D01*
X111758612Y-63063600D01*
X111714600Y-63063600D01*
X111714600Y-63630600D01*
X111694915Y-63697639D01*
X111642111Y-63743394D01*
X111590600Y-63754600D01*
X111584600Y-63754600D01*
X111517561Y-63734915D01*
X111471806Y-63682111D01*
X111460600Y-63630600D01*
X111460600Y-63063600D01*
X111456053Y-63059053D01*
X111422568Y-62997730D01*
X111421374Y-62990151D01*
X111418238Y-62974384D01*
X111412809Y-62947092D01*
X111411210Y-62936814D01*
X111405468Y-62885845D01*
X111397123Y-62861998D01*
X111392549Y-62845239D01*
X111389837Y-62831603D01*
X111369584Y-62782707D01*
X111367126Y-62776271D01*
X111355501Y-62743050D01*
X111351943Y-62673272D01*
X111386673Y-62612646D01*
X111448668Y-62580421D01*
X111472545Y-62578100D01*
X113708364Y-62578100D01*
X113708366Y-62578100D01*
X113854735Y-62538881D01*
X113985965Y-62463115D01*
X114303720Y-62145359D01*
X114365041Y-62111876D01*
X114434732Y-62116860D01*
X114447694Y-62122557D01*
X114564334Y-62181988D01*
X114656588Y-62196599D01*
X114984600Y-62196599D01*
X115058605Y-62196599D01*
X115150871Y-62181986D01*
X115262074Y-62125324D01*
X115262079Y-62125321D01*
X115350321Y-62037079D01*
X115350324Y-62037075D01*
X115406988Y-61925865D01*
X115421600Y-61833612D01*
X115421600Y-61789600D01*
X114984600Y-61789600D01*
X114984600Y-62196599D01*
X114656588Y-62196599D01*
X114730599Y-62196598D01*
X114730600Y-62196598D01*
X114730600Y-61754062D01*
X114750285Y-61687023D01*
X114766919Y-61666381D01*
X114772919Y-61660381D01*
X114828512Y-61630024D01*
X114829613Y-61627614D01*
X116432242Y-61627614D01*
X116446978Y-61701706D01*
X116446979Y-61701709D01*
X116503117Y-61785723D01*
X116587136Y-61841863D01*
X116587137Y-61841864D01*
X116661221Y-61856599D01*
X117159240Y-61856599D01*
X117159241Y-61856598D01*
X117159241Y-61029600D01*
X116432242Y-61029600D01*
X116432242Y-61627614D01*
X114829613Y-61627614D01*
X114849350Y-61584397D01*
X114855382Y-61577919D01*
X114861382Y-61571919D01*
X114922705Y-61538434D01*
X114949063Y-61535600D01*
X115421599Y-61535600D01*
X115421599Y-61491588D01*
X115412726Y-61435564D01*
X115421681Y-61366271D01*
X115447515Y-61328488D01*
X115537717Y-61238287D01*
X115620094Y-61098995D01*
X115665243Y-60943593D01*
X115668100Y-60907290D01*
X115668100Y-60816561D01*
X115687785Y-60749522D01*
X115704419Y-60728880D01*
X115893880Y-60539419D01*
X115955203Y-60505934D01*
X115981561Y-60503100D01*
X116308241Y-60503100D01*
X116375280Y-60522785D01*
G37*
G04 #@! TD.AperFunction*
G04 #@! TA.AperFunction,Conductor*
G36*
X109775756Y-63672785D02*
G01*
X109821511Y-63725589D01*
X109830334Y-63752907D01*
X109836182Y-63782305D01*
X109844550Y-63824374D01*
X109844717Y-63825211D01*
X109847100Y-63849404D01*
X109847100Y-63862297D01*
X109849956Y-63898591D01*
X109849957Y-63898597D01*
X109895104Y-64053990D01*
X109895104Y-64053991D01*
X109910046Y-64079257D01*
X109927227Y-64146981D01*
X109905067Y-64213244D01*
X109866436Y-64249108D01*
X109826916Y-64272481D01*
X109826907Y-64272487D01*
X109736714Y-64362681D01*
X109675391Y-64396166D01*
X109629635Y-64397473D01*
X109573612Y-64388600D01*
X109529600Y-64388600D01*
X109529600Y-64955600D01*
X109509915Y-65022639D01*
X109457111Y-65068394D01*
X109405600Y-65079600D01*
X108868601Y-65079600D01*
X108868601Y-65153605D01*
X108883213Y-65245871D01*
X108939875Y-65357074D01*
X108939878Y-65357079D01*
X109028120Y-65445321D01*
X109028126Y-65445326D01*
X109095889Y-65479852D01*
X109146685Y-65527826D01*
X109163481Y-65595646D01*
X109140944Y-65661782D01*
X109095895Y-65700819D01*
X109078129Y-65709872D01*
X109078120Y-65709878D01*
X108989878Y-65798120D01*
X108989875Y-65798124D01*
X108933211Y-65909334D01*
X108918600Y-66001587D01*
X108918600Y-66090600D01*
X108898915Y-66157639D01*
X108846111Y-66203394D01*
X108794600Y-66214600D01*
X107607100Y-66214600D01*
X107540061Y-66194915D01*
X107494306Y-66142111D01*
X107483100Y-66090600D01*
X107483100Y-65933917D01*
X107483099Y-65777099D01*
X107502783Y-65710061D01*
X107555587Y-65664306D01*
X107607099Y-65653100D01*
X107950697Y-65653100D01*
X107950702Y-65653100D01*
X108039164Y-65642477D01*
X108179942Y-65586961D01*
X108300522Y-65495522D01*
X108391961Y-65374942D01*
X108447477Y-65234164D01*
X108458100Y-65145702D01*
X108458100Y-64959498D01*
X108447477Y-64871036D01*
X108447476Y-64871034D01*
X108447038Y-64867385D01*
X108447038Y-64837815D01*
X108447476Y-64834165D01*
X108447477Y-64834164D01*
X108457393Y-64751587D01*
X108868600Y-64751587D01*
X108868600Y-64825600D01*
X109275600Y-64825600D01*
X109275600Y-64388600D01*
X109231595Y-64388600D01*
X109139328Y-64403213D01*
X109028125Y-64459875D01*
X109028120Y-64459878D01*
X108939878Y-64548120D01*
X108939875Y-64548124D01*
X108883211Y-64659334D01*
X108868600Y-64751587D01*
X108457393Y-64751587D01*
X108458100Y-64745702D01*
X108458100Y-64559498D01*
X108447477Y-64471036D01*
X108447476Y-64471034D01*
X108447038Y-64467385D01*
X108447038Y-64437815D01*
X108447476Y-64434165D01*
X108447477Y-64434164D01*
X108458100Y-64345702D01*
X108458100Y-64159498D01*
X108447477Y-64071036D01*
X108447476Y-64071034D01*
X108447038Y-64067385D01*
X108447038Y-64037815D01*
X108447476Y-64034165D01*
X108447477Y-64034164D01*
X108458100Y-63945702D01*
X108458100Y-63777100D01*
X108477785Y-63710061D01*
X108530589Y-63664306D01*
X108582100Y-63653100D01*
X109708717Y-63653100D01*
X109775756Y-63672785D01*
G37*
G04 #@! TD.AperFunction*
G04 #@! TA.AperFunction,Conductor*
G36*
X111452139Y-65710059D02*
G01*
X111603337Y-65762966D01*
X111603343Y-65762967D01*
X111603345Y-65762968D01*
X111603346Y-65762968D01*
X111603350Y-65762969D01*
X111782596Y-65783165D01*
X111782600Y-65783165D01*
X111782604Y-65783165D01*
X111961849Y-65762969D01*
X111961852Y-65762968D01*
X111961855Y-65762968D01*
X112041617Y-65735057D01*
X112082572Y-65728100D01*
X112168929Y-65728100D01*
X112235968Y-65747785D01*
X112281723Y-65800589D01*
X112291667Y-65869747D01*
X112288005Y-65886696D01*
X112274957Y-65931605D01*
X112274956Y-65931608D01*
X112272100Y-65967902D01*
X112272100Y-66090600D01*
X112252415Y-66157639D01*
X112199611Y-66203394D01*
X112148100Y-66214600D01*
X111317100Y-66214600D01*
X111250061Y-66194915D01*
X111204306Y-66142111D01*
X111193100Y-66090600D01*
X111193100Y-65967917D01*
X111193099Y-65967902D01*
X111193059Y-65967397D01*
X111190243Y-65931607D01*
X111190242Y-65931605D01*
X111190242Y-65931602D01*
X111169932Y-65861695D01*
X111170131Y-65791826D01*
X111208073Y-65733156D01*
X111271711Y-65704312D01*
X111289008Y-65703100D01*
X111411184Y-65703100D01*
X111452139Y-65710059D01*
G37*
G04 #@! TD.AperFunction*
G04 #@! TA.AperFunction,Conductor*
G36*
X118115803Y-65077807D02*
G01*
X118122281Y-65083839D01*
X118196124Y-65157682D01*
X118196130Y-65157687D01*
X118300781Y-65262338D01*
X118334266Y-65323661D01*
X118337100Y-65350018D01*
X118337100Y-65486768D01*
X118337101Y-65486792D01*
X118339935Y-65522807D01*
X118341073Y-65529037D01*
X118339093Y-65529398D01*
X118338926Y-65589864D01*
X118300989Y-65648537D01*
X118237354Y-65677386D01*
X118220046Y-65678600D01*
X118176979Y-65678600D01*
X118085892Y-65693026D01*
X118079556Y-65695085D01*
X118009715Y-65697075D01*
X117953566Y-65664832D01*
X117946919Y-65658185D01*
X117913434Y-65596862D01*
X117910600Y-65570504D01*
X117910600Y-65171520D01*
X117930285Y-65104481D01*
X117983089Y-65058726D01*
X118052247Y-65048782D01*
X118115803Y-65077807D01*
G37*
G04 #@! TD.AperFunction*
G04 #@! TA.AperFunction,Conductor*
G36*
X96603489Y-62723069D02*
G01*
X96647836Y-62751570D01*
X96739996Y-62843730D01*
X96740000Y-62843733D01*
X96740002Y-62843735D01*
X96878207Y-62925469D01*
X96917178Y-62936791D01*
X97032391Y-62970264D01*
X97032394Y-62970264D01*
X97032396Y-62970265D01*
X97068419Y-62973100D01*
X97147816Y-62973099D01*
X97214854Y-62992783D01*
X97260610Y-63045586D01*
X97270554Y-63114745D01*
X97241530Y-63178301D01*
X97235497Y-63184780D01*
X94969781Y-65450497D01*
X94908458Y-65483982D01*
X94838766Y-65478998D01*
X94782833Y-65437126D01*
X94758416Y-65371662D01*
X94758100Y-65362816D01*
X94758100Y-64866368D01*
X94758099Y-64866366D01*
X94739527Y-64772998D01*
X94724455Y-64697226D01*
X94690613Y-64615526D01*
X94683145Y-64546059D01*
X94714420Y-64483580D01*
X94743173Y-64460689D01*
X94790926Y-64433120D01*
X94902730Y-64321316D01*
X94902730Y-64321314D01*
X94912934Y-64311111D01*
X94912938Y-64311106D01*
X96472474Y-62751570D01*
X96533797Y-62718085D01*
X96603489Y-62723069D01*
G37*
G04 #@! TD.AperFunction*
G04 #@! TA.AperFunction,Conductor*
G36*
X89370781Y-54240825D02*
G01*
X89437817Y-54260511D01*
X89483571Y-54313315D01*
X89493514Y-54382474D01*
X89464488Y-54446029D01*
X89458458Y-54452506D01*
X89400865Y-54510100D01*
X89257682Y-54653282D01*
X89196362Y-54686766D01*
X89170003Y-54689600D01*
X88828418Y-54689600D01*
X88729916Y-54699663D01*
X88729915Y-54699664D01*
X88688659Y-54713335D01*
X88570315Y-54752550D01*
X88570304Y-54752555D01*
X88427212Y-54840816D01*
X88427208Y-54840819D01*
X88308319Y-54959708D01*
X88308316Y-54959712D01*
X88220055Y-55102804D01*
X88220050Y-55102815D01*
X88193373Y-55183319D01*
X88167164Y-55262415D01*
X88167164Y-55262416D01*
X88167163Y-55262416D01*
X88157100Y-55360918D01*
X88157100Y-55894281D01*
X88167163Y-55992783D01*
X88220050Y-56152384D01*
X88220055Y-56152395D01*
X88308316Y-56295487D01*
X88308319Y-56295491D01*
X88340247Y-56327419D01*
X88373732Y-56388742D01*
X88368748Y-56458434D01*
X88340247Y-56502781D01*
X88308319Y-56534708D01*
X88308316Y-56534712D01*
X88220055Y-56677804D01*
X88220050Y-56677815D01*
X88206561Y-56718523D01*
X88167164Y-56837415D01*
X88167164Y-56837416D01*
X88167163Y-56837416D01*
X88157100Y-56935918D01*
X88157100Y-57469281D01*
X88167163Y-57567783D01*
X88220050Y-57727384D01*
X88220055Y-57727395D01*
X88308316Y-57870487D01*
X88308319Y-57870491D01*
X88427209Y-57989381D01*
X88473198Y-58017747D01*
X88519921Y-58069694D01*
X88532100Y-58123285D01*
X88532100Y-58180504D01*
X88512415Y-58247543D01*
X88495781Y-58268185D01*
X88441469Y-58322496D01*
X88441463Y-58322504D01*
X88359731Y-58460706D01*
X88359729Y-58460711D01*
X88314935Y-58614891D01*
X88314934Y-58614897D01*
X88312100Y-58650911D01*
X88312100Y-59049269D01*
X88312101Y-59049291D01*
X88313292Y-59064419D01*
X88314935Y-59085304D01*
X88321250Y-59107041D01*
X88322402Y-59111004D01*
X88322203Y-59180873D01*
X88284262Y-59239544D01*
X88220624Y-59268388D01*
X88203326Y-59269600D01*
X88026769Y-59269600D01*
X88026753Y-59269599D01*
X88019157Y-59269599D01*
X87861043Y-59269599D01*
X87753687Y-59298365D01*
X87708310Y-59310524D01*
X87708309Y-59310525D01*
X87667369Y-59334163D01*
X87667368Y-59334164D01*
X87619376Y-59361872D01*
X87571385Y-59389579D01*
X87571382Y-59389581D01*
X87501245Y-59459719D01*
X87459580Y-59501384D01*
X87459578Y-59501386D01*
X86859226Y-60101739D01*
X86295184Y-60665781D01*
X86233861Y-60699266D01*
X86207503Y-60702100D01*
X84265012Y-60702100D01*
X84197973Y-60682415D01*
X84187697Y-60675045D01*
X84184863Y-60672785D01*
X84184862Y-60672784D01*
X84116344Y-60629731D01*
X84032123Y-60576811D01*
X83861854Y-60517231D01*
X83861849Y-60517230D01*
X83682604Y-60497035D01*
X83682596Y-60497035D01*
X83549482Y-60512033D01*
X83480660Y-60499978D01*
X83429281Y-60452629D01*
X83411599Y-60388813D01*
X83411599Y-60314914D01*
X83396617Y-60220319D01*
X83396617Y-60220318D01*
X83338515Y-60106287D01*
X83338512Y-60106283D01*
X83248030Y-60015801D01*
X83248023Y-60015796D01*
X83215233Y-59999089D01*
X83164436Y-59951115D01*
X83147641Y-59883294D01*
X83168425Y-59819712D01*
X83225785Y-59733867D01*
X83225787Y-59733864D01*
X83282623Y-59596648D01*
X83282625Y-59596640D01*
X83301110Y-59503714D01*
X82830687Y-59503714D01*
X82837156Y-59492510D01*
X82857600Y-59416210D01*
X82857600Y-59337218D01*
X82837156Y-59260918D01*
X82830687Y-59249714D01*
X83301110Y-59249714D01*
X83301110Y-59249713D01*
X83286506Y-59176291D01*
X83292733Y-59106699D01*
X83335596Y-59051522D01*
X83401486Y-59028278D01*
X83408123Y-59028100D01*
X83528005Y-59028100D01*
X83595044Y-59047785D01*
X83615681Y-59064414D01*
X83670002Y-59118735D01*
X83808207Y-59200469D01*
X83848868Y-59212282D01*
X83962391Y-59245264D01*
X83962394Y-59245264D01*
X83962396Y-59245265D01*
X83998419Y-59248100D01*
X84396780Y-59248099D01*
X84432804Y-59245265D01*
X84586993Y-59200469D01*
X84725198Y-59118735D01*
X84828568Y-59015364D01*
X84889889Y-58981881D01*
X84954575Y-58985119D01*
X84960899Y-58987174D01*
X85051979Y-59001600D01*
X85090600Y-59001600D01*
X85090600Y-58554600D01*
X85344600Y-58554600D01*
X85344600Y-59001600D01*
X85383221Y-59001600D01*
X85474302Y-58987174D01*
X85474305Y-58987173D01*
X85584097Y-58931231D01*
X85584104Y-58931226D01*
X85671226Y-58844104D01*
X85671231Y-58844097D01*
X85727173Y-58734305D01*
X85727174Y-58734302D01*
X85741600Y-58643221D01*
X85741600Y-58554600D01*
X85393488Y-58554600D01*
X85355696Y-58543503D01*
X85344600Y-58554600D01*
X85090600Y-58554600D01*
X85090600Y-58447101D01*
X85110285Y-58380062D01*
X85163089Y-58334307D01*
X85214600Y-58323101D01*
X85276737Y-58323101D01*
X85320635Y-58335991D01*
X85358553Y-58311623D01*
X85361395Y-58310825D01*
X85383788Y-58304825D01*
X85415881Y-58300600D01*
X85741600Y-58300600D01*
X85741600Y-58211979D01*
X85731627Y-58149018D01*
X85740581Y-58079725D01*
X85766416Y-58041941D01*
X85866106Y-57942252D01*
X85866111Y-57942248D01*
X85876314Y-57932044D01*
X85876316Y-57932044D01*
X85988120Y-57820240D01*
X86067177Y-57683308D01*
X86108100Y-57530581D01*
X86108100Y-56842736D01*
X86108101Y-56842723D01*
X86108101Y-56674620D01*
X86103863Y-56658804D01*
X86067177Y-56521892D01*
X86020531Y-56441098D01*
X85988124Y-56384966D01*
X85988118Y-56384958D01*
X85324114Y-55720955D01*
X85324112Y-55720952D01*
X85205241Y-55602081D01*
X85205240Y-55602080D01*
X85096378Y-55539229D01*
X85096377Y-55539228D01*
X85068307Y-55523022D01*
X85012405Y-55508043D01*
X84915581Y-55482099D01*
X84757467Y-55482099D01*
X84749871Y-55482099D01*
X84749855Y-55482100D01*
X83060600Y-55482100D01*
X82993561Y-55462415D01*
X82973998Y-55439839D01*
X82972919Y-55440919D01*
X82936600Y-55404600D01*
X81378601Y-55404600D01*
X81359271Y-55423929D01*
X81358916Y-55425139D01*
X81352518Y-55430682D01*
X81342282Y-55440919D01*
X81341549Y-55440186D01*
X81306112Y-55470894D01*
X81254601Y-55482100D01*
X80781657Y-55482100D01*
X80623542Y-55482100D01*
X80470815Y-55523023D01*
X80448676Y-55535804D01*
X80442744Y-55539230D01*
X80442743Y-55539229D01*
X80333887Y-55602077D01*
X80333882Y-55602081D01*
X80222078Y-55713886D01*
X79145184Y-56790781D01*
X79083861Y-56824266D01*
X79057503Y-56827100D01*
X79013635Y-56827100D01*
X78946596Y-56807415D01*
X78914368Y-56777410D01*
X78890150Y-56745058D01*
X78890147Y-56745055D01*
X78890146Y-56745054D01*
X78890142Y-56745051D01*
X78774935Y-56658806D01*
X78774928Y-56658802D01*
X78640082Y-56608508D01*
X78640083Y-56608508D01*
X78580483Y-56602101D01*
X78580481Y-56602100D01*
X78580473Y-56602100D01*
X78580464Y-56602100D01*
X77434729Y-56602100D01*
X77434723Y-56602101D01*
X77375116Y-56608508D01*
X77240271Y-56658802D01*
X77240264Y-56658806D01*
X77125055Y-56745052D01*
X77125052Y-56745055D01*
X77038806Y-56860264D01*
X77038802Y-56860271D01*
X76988510Y-56995113D01*
X76988509Y-56995117D01*
X76982100Y-57054727D01*
X76982100Y-57054734D01*
X76982100Y-57054735D01*
X76982100Y-57800470D01*
X76982101Y-57800476D01*
X76988508Y-57860083D01*
X77038802Y-57994928D01*
X77038806Y-57994935D01*
X77125052Y-58110144D01*
X77125055Y-58110147D01*
X77240264Y-58196393D01*
X77240271Y-58196397D01*
X77375117Y-58246691D01*
X77375116Y-58246691D01*
X77382044Y-58247435D01*
X77434727Y-58253100D01*
X78580472Y-58253099D01*
X78640083Y-58246691D01*
X78774931Y-58196396D01*
X78890146Y-58110146D01*
X78897301Y-58100589D01*
X78914368Y-58077790D01*
X78970301Y-58035918D01*
X79013635Y-58028100D01*
X79038503Y-58028100D01*
X79105542Y-58047785D01*
X79151297Y-58100589D01*
X79161241Y-58169747D01*
X79132216Y-58233303D01*
X79126190Y-58239774D01*
X78989629Y-58376335D01*
X78863886Y-58502078D01*
X78752081Y-58613882D01*
X78752079Y-58613884D01*
X78730062Y-58652020D01*
X78679494Y-58700235D01*
X78610887Y-58713457D01*
X78575222Y-58704580D01*
X78447534Y-58651690D01*
X78447526Y-58651688D01*
X78301865Y-58622714D01*
X77954600Y-58622714D01*
X77954600Y-59076714D01*
X77700600Y-59076714D01*
X77700600Y-58622714D01*
X77353335Y-58622714D01*
X77207673Y-58651688D01*
X77207665Y-58651690D01*
X77070449Y-58708526D01*
X77070440Y-58708531D01*
X76946953Y-58791043D01*
X76946949Y-58791046D01*
X76841932Y-58896063D01*
X76841929Y-58896067D01*
X76759417Y-59019554D01*
X76759412Y-59019563D01*
X76702576Y-59156779D01*
X76702574Y-59156785D01*
X76684089Y-59249713D01*
X76684090Y-59249714D01*
X77154513Y-59249714D01*
X77148044Y-59260918D01*
X77127600Y-59337218D01*
X77127600Y-59416210D01*
X77148044Y-59492510D01*
X77154513Y-59503714D01*
X76684090Y-59503714D01*
X76702574Y-59596640D01*
X76702576Y-59596648D01*
X76759412Y-59733864D01*
X76759417Y-59733873D01*
X76841929Y-59857360D01*
X76841932Y-59857364D01*
X76946949Y-59962381D01*
X76946953Y-59962384D01*
X77070440Y-60044896D01*
X77070449Y-60044901D01*
X77207665Y-60101737D01*
X77207673Y-60101739D01*
X77353333Y-60130713D01*
X77353336Y-60130714D01*
X77700600Y-60130714D01*
X77700600Y-59676714D01*
X77954600Y-59676714D01*
X77954600Y-60130714D01*
X78301864Y-60130714D01*
X78301866Y-60130713D01*
X78447526Y-60101739D01*
X78447530Y-60101738D01*
X78460646Y-60096306D01*
X78530115Y-60088837D01*
X78592595Y-60120111D01*
X78628248Y-60180200D01*
X78632100Y-60210867D01*
X78632100Y-63227502D01*
X78612415Y-63294541D01*
X78595781Y-63315183D01*
X76644781Y-65266183D01*
X76583458Y-65299668D01*
X76513766Y-65294684D01*
X76457833Y-65252812D01*
X76433416Y-65187348D01*
X76433100Y-65178502D01*
X76433100Y-59500895D01*
X76436883Y-59488010D01*
X76434879Y-59483916D01*
X76433100Y-59462989D01*
X76433100Y-59290438D01*
X76437826Y-59274341D01*
X76433594Y-59263584D01*
X76433100Y-59252532D01*
X76433100Y-55627614D01*
X77228601Y-55627614D01*
X77243337Y-55701706D01*
X77243338Y-55701709D01*
X77299476Y-55785723D01*
X77383495Y-55841863D01*
X77383496Y-55841864D01*
X77457580Y-55856599D01*
X77880599Y-55856599D01*
X78134600Y-55856599D01*
X78557615Y-55856599D01*
X78631706Y-55841862D01*
X78631709Y-55841861D01*
X78715723Y-55785723D01*
X78771863Y-55701704D01*
X78771864Y-55701703D01*
X78786599Y-55627621D01*
X78786600Y-55627618D01*
X78786600Y-55404600D01*
X78134600Y-55404600D01*
X78134600Y-55856599D01*
X77880599Y-55856599D01*
X77880600Y-55856598D01*
X77880600Y-55404600D01*
X77228601Y-55404600D01*
X77228601Y-55627614D01*
X76433100Y-55627614D01*
X76433100Y-54927578D01*
X77228600Y-54927578D01*
X77228600Y-55150600D01*
X77880600Y-55150600D01*
X78134600Y-55150600D01*
X78786599Y-55150600D01*
X78786599Y-54927585D01*
X78786598Y-54927578D01*
X81378600Y-54927578D01*
X81378600Y-55150600D01*
X82030600Y-55150600D01*
X82284600Y-55150600D01*
X82936599Y-55150600D01*
X82936599Y-54927585D01*
X82921862Y-54853493D01*
X82921861Y-54853490D01*
X82865723Y-54769476D01*
X82781704Y-54713336D01*
X82781703Y-54713335D01*
X82707621Y-54698600D01*
X82284600Y-54698600D01*
X82284600Y-55150600D01*
X82030600Y-55150600D01*
X82030600Y-54698600D01*
X81607585Y-54698600D01*
X81533493Y-54713337D01*
X81533490Y-54713338D01*
X81449476Y-54769476D01*
X81393336Y-54853495D01*
X81393335Y-54853496D01*
X81378600Y-54927578D01*
X78786598Y-54927578D01*
X78771862Y-54853493D01*
X78771861Y-54853490D01*
X78715723Y-54769476D01*
X78631704Y-54713336D01*
X78631703Y-54713335D01*
X78557621Y-54698600D01*
X78134600Y-54698600D01*
X78134600Y-55150600D01*
X77880600Y-55150600D01*
X77880600Y-54698600D01*
X77457585Y-54698600D01*
X77383493Y-54713337D01*
X77383490Y-54713338D01*
X77299476Y-54769476D01*
X77243336Y-54853495D01*
X77243335Y-54853496D01*
X77228600Y-54927578D01*
X76433100Y-54927578D01*
X76433100Y-54364610D01*
X76452785Y-54297571D01*
X76505589Y-54251816D01*
X76557101Y-54240610D01*
X89370781Y-54240825D01*
G37*
G04 #@! TD.AperFunction*
G04 #@! TA.AperFunction,Conductor*
G36*
X85816639Y-63362785D02*
G01*
X85862394Y-63415589D01*
X85873600Y-63467100D01*
X85873600Y-63565600D01*
X86655600Y-63565600D01*
X86722639Y-63585285D01*
X86768394Y-63638089D01*
X86779600Y-63689600D01*
X86779600Y-63695600D01*
X86759915Y-63762639D01*
X86707111Y-63808394D01*
X86655600Y-63819600D01*
X85873601Y-63819600D01*
X85873601Y-63918100D01*
X85853916Y-63985139D01*
X85801112Y-64030894D01*
X85749601Y-64042100D01*
X85439920Y-64042100D01*
X85372881Y-64022415D01*
X85340652Y-63992409D01*
X85336820Y-63987290D01*
X85335146Y-63985054D01*
X85272313Y-63938017D01*
X85219935Y-63898806D01*
X85219928Y-63898802D01*
X85085082Y-63848508D01*
X85085083Y-63848508D01*
X85025483Y-63842101D01*
X85025481Y-63842100D01*
X85025473Y-63842100D01*
X85025465Y-63842100D01*
X84292810Y-63842100D01*
X84268620Y-63839718D01*
X84207911Y-63827643D01*
X84146000Y-63795258D01*
X84111425Y-63734543D01*
X84108101Y-63706025D01*
X84108101Y-63687664D01*
X84127786Y-63620625D01*
X84180590Y-63574870D01*
X84207907Y-63566047D01*
X84268158Y-63554063D01*
X84270560Y-63553067D01*
X84271840Y-63552538D01*
X84319292Y-63543099D01*
X85025471Y-63543099D01*
X85025472Y-63543099D01*
X85085083Y-63536691D01*
X85219931Y-63486396D01*
X85335146Y-63400146D01*
X85340652Y-63392791D01*
X85396585Y-63350919D01*
X85439920Y-63343100D01*
X85749600Y-63343100D01*
X85816639Y-63362785D01*
G37*
G04 #@! TD.AperFunction*
G04 #@! TA.AperFunction,Conductor*
G36*
X104322785Y-60864559D02*
G01*
X104391107Y-60888466D01*
X104391113Y-60888467D01*
X104391115Y-60888468D01*
X104391116Y-60888468D01*
X104391120Y-60888469D01*
X104570366Y-60908665D01*
X104570370Y-60908665D01*
X104570374Y-60908665D01*
X104749619Y-60888469D01*
X104749621Y-60888468D01*
X104749625Y-60888468D01*
X104749628Y-60888466D01*
X104749632Y-60888466D01*
X104817955Y-60864559D01*
X104858910Y-60857600D01*
X105353599Y-60857600D01*
X105420638Y-60877285D01*
X105466393Y-60930089D01*
X105477599Y-60981600D01*
X105477599Y-61564061D01*
X105470641Y-61605015D01*
X105446732Y-61673342D01*
X105446730Y-61673350D01*
X105426535Y-61852596D01*
X105426535Y-61852603D01*
X105446730Y-62031846D01*
X105446732Y-62031856D01*
X105470640Y-62100179D01*
X105477599Y-62141134D01*
X105477599Y-63523599D01*
X105457914Y-63590638D01*
X105405110Y-63636393D01*
X105353599Y-63647599D01*
X104571138Y-63647599D01*
X104530183Y-63640641D01*
X104461854Y-63616731D01*
X104461849Y-63616730D01*
X104282604Y-63596535D01*
X104282596Y-63596535D01*
X104103350Y-63616730D01*
X104103345Y-63616731D01*
X104035017Y-63640641D01*
X103994062Y-63647599D01*
X102811600Y-63647599D01*
X102744561Y-63627914D01*
X102698806Y-63575110D01*
X102687600Y-63523599D01*
X102687600Y-61741137D01*
X102694559Y-61700182D01*
X102718468Y-61631855D01*
X102724545Y-61577919D01*
X102738665Y-61452603D01*
X102738665Y-61452596D01*
X102718469Y-61273350D01*
X102718468Y-61273345D01*
X102694558Y-61205014D01*
X102687600Y-61164059D01*
X102687600Y-60981600D01*
X102707285Y-60914561D01*
X102760089Y-60868806D01*
X102811600Y-60857600D01*
X104281830Y-60857600D01*
X104322785Y-60864559D01*
G37*
G04 #@! TD.AperFunction*
G04 #@! TA.AperFunction,Conductor*
G36*
X95772639Y-58470285D02*
G01*
X95818394Y-58523089D01*
X95829600Y-58574600D01*
X95829600Y-59111599D01*
X95903605Y-59111599D01*
X95995872Y-59096986D01*
X96047486Y-59070687D01*
X96116155Y-59057790D01*
X96180896Y-59084065D01*
X96210513Y-59118048D01*
X96222481Y-59138284D01*
X96222487Y-59138292D01*
X96265779Y-59181583D01*
X96299265Y-59242906D01*
X96302099Y-59269265D01*
X96302099Y-59425184D01*
X96302098Y-59425184D01*
X96310746Y-59457458D01*
X96343023Y-59577915D01*
X96367673Y-59620610D01*
X96422077Y-59714842D01*
X96422081Y-59714847D01*
X96540949Y-59833715D01*
X96540955Y-59833720D01*
X96833510Y-60126275D01*
X96866995Y-60187598D01*
X96862011Y-60257290D01*
X96820139Y-60313223D01*
X96808951Y-60320687D01*
X96740007Y-60361460D01*
X96739996Y-60361469D01*
X96626469Y-60474996D01*
X96626462Y-60475005D01*
X96566113Y-60577051D01*
X96515044Y-60624735D01*
X96491475Y-60633705D01*
X96476327Y-60637764D01*
X96456543Y-60643065D01*
X96419768Y-60652919D01*
X96344738Y-60673023D01*
X96344733Y-60673026D01*
X96207814Y-60752075D01*
X96207806Y-60752081D01*
X96096002Y-60863886D01*
X95373029Y-61586858D01*
X95311706Y-61620343D01*
X95242014Y-61615359D01*
X95186081Y-61573487D01*
X95175990Y-61557632D01*
X95173455Y-61552889D01*
X95077645Y-61409501D01*
X95077642Y-61409497D01*
X94955702Y-61287557D01*
X94955698Y-61287554D01*
X94812311Y-61191745D01*
X94812298Y-61191738D01*
X94652978Y-61125746D01*
X94652966Y-61125743D01*
X94483832Y-61092100D01*
X94483829Y-61092100D01*
X94311371Y-61092100D01*
X94311368Y-61092100D01*
X94142233Y-61125743D01*
X94142221Y-61125746D01*
X93982901Y-61191738D01*
X93982888Y-61191745D01*
X93839501Y-61287554D01*
X93839497Y-61287557D01*
X93392428Y-61734626D01*
X93331105Y-61768111D01*
X93285351Y-61769419D01*
X93248608Y-61763600D01*
X93204600Y-61763600D01*
X93204600Y-62026183D01*
X93196653Y-62066138D01*
X93197513Y-62066399D01*
X93193976Y-62078058D01*
X93192206Y-62077521D01*
X93163830Y-62131764D01*
X93103113Y-62166336D01*
X93033343Y-62162594D01*
X92976673Y-62121726D01*
X92951093Y-62056708D01*
X92950600Y-62045659D01*
X92950600Y-61763600D01*
X92906595Y-61763600D01*
X92814328Y-61778213D01*
X92703125Y-61834875D01*
X92703120Y-61834878D01*
X92614878Y-61923120D01*
X92614875Y-61923124D01*
X92558211Y-62034334D01*
X92543600Y-62126587D01*
X92543600Y-62200600D01*
X92950750Y-62200600D01*
X93011742Y-62167296D01*
X93081434Y-62172280D01*
X93137367Y-62214152D01*
X93161784Y-62279616D01*
X93162100Y-62288462D01*
X93162100Y-62330600D01*
X93142415Y-62397639D01*
X93089611Y-62443394D01*
X93038100Y-62454600D01*
X92543601Y-62454600D01*
X92543601Y-62528605D01*
X92558213Y-62620871D01*
X92614875Y-62732074D01*
X92614878Y-62732079D01*
X92623218Y-62740419D01*
X92656703Y-62801742D01*
X92651719Y-62871434D01*
X92609847Y-62927367D01*
X92544383Y-62951784D01*
X92535537Y-62952100D01*
X88082697Y-62952100D01*
X88015658Y-62932415D01*
X87995016Y-62915781D01*
X87460190Y-62380955D01*
X87460188Y-62380952D01*
X87341317Y-62262081D01*
X87341309Y-62262075D01*
X87237466Y-62202122D01*
X87237465Y-62202121D01*
X87237465Y-62202122D01*
X87204385Y-62183023D01*
X87200515Y-62181986D01*
X87051657Y-62142099D01*
X86893543Y-62142099D01*
X86885947Y-62142099D01*
X86885931Y-62142100D01*
X86636573Y-62142100D01*
X86569534Y-62122415D01*
X86523779Y-62069611D01*
X86513835Y-62000453D01*
X86542860Y-61936897D01*
X86601638Y-61899123D01*
X86604437Y-61898336D01*
X86739385Y-61862177D01*
X86789747Y-61833100D01*
X86876316Y-61783120D01*
X86988120Y-61671316D01*
X86988120Y-61671314D01*
X86998324Y-61661111D01*
X86998327Y-61661106D01*
X88152516Y-60506919D01*
X88213839Y-60473434D01*
X88240197Y-60470600D01*
X88463004Y-60470600D01*
X88530043Y-60490285D01*
X88550685Y-60506919D01*
X88554996Y-60511230D01*
X88555000Y-60511233D01*
X88555002Y-60511235D01*
X88693207Y-60592969D01*
X88704817Y-60596342D01*
X88847391Y-60637764D01*
X88847394Y-60637764D01*
X88847396Y-60637765D01*
X88883419Y-60640600D01*
X89381780Y-60640599D01*
X89417804Y-60637765D01*
X89571993Y-60592969D01*
X89710198Y-60511235D01*
X89711822Y-60509611D01*
X89714515Y-60506919D01*
X89775838Y-60473434D01*
X89802196Y-60470600D01*
X90388004Y-60470600D01*
X90455043Y-60490285D01*
X90475685Y-60506919D01*
X90479996Y-60511230D01*
X90480000Y-60511233D01*
X90480002Y-60511235D01*
X90618207Y-60592969D01*
X90629817Y-60596342D01*
X90772391Y-60637764D01*
X90772394Y-60637764D01*
X90772396Y-60637765D01*
X90808419Y-60640600D01*
X91306780Y-60640599D01*
X91342804Y-60637765D01*
X91496993Y-60592969D01*
X91635198Y-60511235D01*
X91636822Y-60509611D01*
X91639515Y-60506919D01*
X91700838Y-60473434D01*
X91727196Y-60470600D01*
X92313004Y-60470600D01*
X92380043Y-60490285D01*
X92400685Y-60506919D01*
X92404996Y-60511230D01*
X92405000Y-60511233D01*
X92405002Y-60511235D01*
X92543207Y-60592969D01*
X92554817Y-60596342D01*
X92697391Y-60637764D01*
X92697394Y-60637764D01*
X92697396Y-60637765D01*
X92733419Y-60640600D01*
X93231780Y-60640599D01*
X93267804Y-60637765D01*
X93421993Y-60592969D01*
X93560198Y-60511235D01*
X93636334Y-60435098D01*
X93697655Y-60401615D01*
X93767347Y-60406599D01*
X93823281Y-60448470D01*
X93826967Y-60453837D01*
X93827784Y-60454862D01*
X93955338Y-60582416D01*
X93987117Y-60602384D01*
X94107353Y-60677934D01*
X94108078Y-60678389D01*
X94235435Y-60722953D01*
X94278345Y-60737968D01*
X94278350Y-60737969D01*
X94457596Y-60758165D01*
X94457600Y-60758165D01*
X94457604Y-60758165D01*
X94636849Y-60737969D01*
X94636852Y-60737968D01*
X94636855Y-60737968D01*
X94807122Y-60678389D01*
X94959862Y-60582416D01*
X95087416Y-60454862D01*
X95183389Y-60302122D01*
X95242968Y-60131855D01*
X95243597Y-60126275D01*
X95263165Y-59952603D01*
X95263165Y-59952597D01*
X95253880Y-59870192D01*
X95253100Y-59856308D01*
X95253100Y-59216896D01*
X95272785Y-59149857D01*
X95325589Y-59104102D01*
X95394747Y-59094158D01*
X95401749Y-59095787D01*
X95501588Y-59111599D01*
X95575599Y-59111598D01*
X95575600Y-59111598D01*
X95575600Y-58574600D01*
X95595285Y-58507561D01*
X95648089Y-58461806D01*
X95699600Y-58450600D01*
X95705600Y-58450600D01*
X95772639Y-58470285D01*
G37*
G04 #@! TD.AperFunction*
G04 #@! TA.AperFunction,Conductor*
G36*
X122895250Y-60332989D02*
G01*
X122951184Y-60374860D01*
X122962917Y-60393900D01*
X123018849Y-60506227D01*
X123018852Y-60506233D01*
X123018855Y-60506238D01*
X123139407Y-60665876D01*
X123164098Y-60731235D01*
X123149533Y-60799569D01*
X123100335Y-60849182D01*
X123040452Y-60864600D01*
X122560490Y-60864600D01*
X122493451Y-60844915D01*
X122447696Y-60792111D01*
X122437752Y-60722953D01*
X122466777Y-60659397D01*
X122472798Y-60652928D01*
X122764239Y-60361487D01*
X122825558Y-60328005D01*
X122895250Y-60332989D01*
G37*
G04 #@! TD.AperFunction*
G04 #@! TA.AperFunction,Conductor*
G36*
X114237934Y-57779344D02*
G01*
X114293867Y-57821216D01*
X114318284Y-57886680D01*
X114318600Y-57895522D01*
X114318600Y-57918606D01*
X114327474Y-57974637D01*
X114318517Y-58043930D01*
X114292682Y-58081713D01*
X114202484Y-58171911D01*
X114202481Y-58171915D01*
X114120105Y-58311206D01*
X114120104Y-58311209D01*
X114074957Y-58466602D01*
X114074956Y-58466608D01*
X114072100Y-58502902D01*
X114072100Y-58912297D01*
X114074956Y-58948591D01*
X114074957Y-58948597D01*
X114120104Y-59103990D01*
X114120105Y-59103993D01*
X114120106Y-59103995D01*
X114140386Y-59138287D01*
X114202257Y-59242906D01*
X114202483Y-59243287D01*
X114258282Y-59299086D01*
X114291766Y-59360407D01*
X114294600Y-59386766D01*
X114294600Y-59392680D01*
X114274915Y-59459719D01*
X114258281Y-59480361D01*
X113192860Y-60545781D01*
X113131537Y-60579266D01*
X113105180Y-60582100D01*
X112968431Y-60582100D01*
X112968407Y-60582101D01*
X112932394Y-60584935D01*
X112778211Y-60629729D01*
X112778204Y-60629732D01*
X112720719Y-60663728D01*
X112652995Y-60680909D01*
X112594481Y-60663728D01*
X112536995Y-60629732D01*
X112536988Y-60629729D01*
X112382808Y-60584935D01*
X112382802Y-60584934D01*
X112346788Y-60582100D01*
X112054574Y-60582100D01*
X111987535Y-60562415D01*
X111941780Y-60509611D01*
X111931836Y-60440453D01*
X111934795Y-60426023D01*
X111958100Y-60339049D01*
X111958100Y-60008027D01*
X111977785Y-59940988D01*
X111994419Y-59920346D01*
X113047772Y-58866993D01*
X114106922Y-57807842D01*
X114168242Y-57774360D01*
X114237934Y-57779344D01*
G37*
G04 #@! TD.AperFunction*
G04 #@! TA.AperFunction,Conductor*
G36*
X119578837Y-54241334D02*
G01*
X119645875Y-54261020D01*
X119691629Y-54313824D01*
X119701572Y-54382983D01*
X119672546Y-54446538D01*
X119623628Y-54480960D01*
X119548408Y-54510100D01*
X119548393Y-54510107D01*
X119374438Y-54617815D01*
X119355074Y-54635468D01*
X119355074Y-54635469D01*
X120042600Y-55322995D01*
X120042601Y-55322995D01*
X120730125Y-54635470D01*
X120730125Y-54635469D01*
X120710757Y-54617813D01*
X120710752Y-54617809D01*
X120536806Y-54510107D01*
X120536800Y-54510104D01*
X120461612Y-54480977D01*
X120406211Y-54438404D01*
X120382620Y-54372637D01*
X120398331Y-54304557D01*
X120448355Y-54255778D01*
X120506407Y-54241350D01*
X123734539Y-54241404D01*
X123801578Y-54261090D01*
X123847332Y-54313894D01*
X123857275Y-54383053D01*
X123828249Y-54446608D01*
X123822218Y-54453085D01*
X123744105Y-54531197D01*
X123608565Y-54724769D01*
X123608564Y-54724771D01*
X123508698Y-54938935D01*
X123508694Y-54938944D01*
X123447538Y-55167186D01*
X123447536Y-55167196D01*
X123426941Y-55402599D01*
X123426941Y-55402600D01*
X123447536Y-55638003D01*
X123447538Y-55638013D01*
X123508694Y-55866255D01*
X123508696Y-55866259D01*
X123508697Y-55866263D01*
X123608565Y-56080430D01*
X123608567Y-56080434D01*
X123684196Y-56188442D01*
X123744105Y-56274001D01*
X123911199Y-56441095D01*
X124104770Y-56576635D01*
X124115366Y-56581576D01*
X124167805Y-56627745D01*
X124186959Y-56694938D01*
X124166746Y-56761819D01*
X124150644Y-56781639D01*
X120298421Y-60633862D01*
X120237098Y-60667347D01*
X120167406Y-60662363D01*
X120111473Y-60620491D01*
X120087056Y-60555027D01*
X120086740Y-60546181D01*
X120086740Y-60154729D01*
X120086739Y-60154723D01*
X120084280Y-60131849D01*
X120080332Y-60095117D01*
X120077495Y-60087511D01*
X120030038Y-59960271D01*
X120030034Y-59960264D01*
X119943788Y-59845055D01*
X119943785Y-59845052D01*
X119828576Y-59758806D01*
X119820787Y-59754553D01*
X119822394Y-59751609D01*
X119779472Y-59719451D01*
X119755081Y-59653977D01*
X119769961Y-59585710D01*
X119775667Y-59576289D01*
X119825505Y-59501702D01*
X119840240Y-59427621D01*
X119840241Y-59427618D01*
X119840241Y-58829600D01*
X118983241Y-58829600D01*
X118916202Y-58809915D01*
X118870447Y-58757111D01*
X118859241Y-58705600D01*
X118859241Y-58575600D01*
X119113241Y-58575600D01*
X119840240Y-58575600D01*
X119840240Y-57977585D01*
X119825503Y-57903493D01*
X119825502Y-57903490D01*
X119769364Y-57819476D01*
X119685345Y-57763336D01*
X119685344Y-57763335D01*
X119611262Y-57748600D01*
X119113241Y-57748600D01*
X119113241Y-58575600D01*
X118859241Y-58575600D01*
X118859241Y-57748600D01*
X118383371Y-57748600D01*
X118316332Y-57728915D01*
X118284105Y-57698911D01*
X118243788Y-57645055D01*
X118243785Y-57645052D01*
X118128576Y-57558806D01*
X118128569Y-57558802D01*
X117993723Y-57508508D01*
X117993724Y-57508508D01*
X117934124Y-57502101D01*
X117934122Y-57502100D01*
X117934114Y-57502100D01*
X117934105Y-57502100D01*
X116638370Y-57502100D01*
X116638364Y-57502101D01*
X116578757Y-57508508D01*
X116443912Y-57558802D01*
X116443905Y-57558806D01*
X116328696Y-57645052D01*
X116328693Y-57645055D01*
X116242447Y-57760264D01*
X116242443Y-57760271D01*
X116200983Y-57871433D01*
X116159112Y-57927367D01*
X116093648Y-57951784D01*
X116084801Y-57952100D01*
X115570600Y-57952100D01*
X115503561Y-57932415D01*
X115483998Y-57909839D01*
X115482919Y-57910919D01*
X115446600Y-57874600D01*
X114879600Y-57874600D01*
X114812561Y-57854915D01*
X114766806Y-57802111D01*
X114755600Y-57750600D01*
X114755600Y-57744600D01*
X114775285Y-57677561D01*
X114828089Y-57631806D01*
X114879600Y-57620600D01*
X115446599Y-57620600D01*
X115446599Y-57576594D01*
X115431986Y-57484327D01*
X115412404Y-57445896D01*
X115399507Y-57377227D01*
X115425783Y-57312486D01*
X115482889Y-57272229D01*
X115522888Y-57265600D01*
X116405010Y-57265600D01*
X116405011Y-57265600D01*
X116405012Y-57265600D01*
X116554560Y-57225529D01*
X116688641Y-57148117D01*
X116798117Y-57038641D01*
X116798117Y-57038639D01*
X116808321Y-57028436D01*
X116808325Y-57028431D01*
X117005127Y-56831628D01*
X117066448Y-56798145D01*
X117124899Y-56799536D01*
X117187382Y-56816278D01*
X117267192Y-56837663D01*
X117455518Y-56854139D01*
X117502599Y-56858259D01*
X117502600Y-56858259D01*
X117502601Y-56858259D01*
X117545039Y-56854546D01*
X117738008Y-56837663D01*
X117966263Y-56776503D01*
X118180430Y-56676635D01*
X118374001Y-56541095D01*
X118541095Y-56374001D01*
X118544086Y-56369729D01*
X119355073Y-56369729D01*
X119374442Y-56387386D01*
X119374447Y-56387390D01*
X119548393Y-56495092D01*
X119548399Y-56495094D01*
X119739183Y-56569004D01*
X119940301Y-56606600D01*
X120144899Y-56606600D01*
X120346015Y-56569004D01*
X120346016Y-56569004D01*
X120536800Y-56495094D01*
X120536806Y-56495092D01*
X120710754Y-56387388D01*
X120710763Y-56387382D01*
X120730125Y-56369729D01*
X120042601Y-55682205D01*
X120042600Y-55682205D01*
X119355073Y-56369729D01*
X118544086Y-56369729D01*
X118676635Y-56180430D01*
X118776503Y-55966263D01*
X118783976Y-55938371D01*
X118820338Y-55878712D01*
X118883185Y-55848181D01*
X118952560Y-55856474D01*
X119006440Y-55900958D01*
X119014751Y-55915192D01*
X119099935Y-56086264D01*
X119099940Y-56086271D01*
X119177119Y-56188475D01*
X119862995Y-55502600D01*
X119862995Y-55502599D01*
X120222205Y-55502599D01*
X120222205Y-55502600D01*
X120908079Y-56188475D01*
X120985260Y-56086271D01*
X121076455Y-55903129D01*
X121076460Y-55903116D01*
X121132452Y-55706328D01*
X121151330Y-55502600D01*
X121151330Y-55502599D01*
X121132452Y-55298871D01*
X121076460Y-55102083D01*
X121076455Y-55102070D01*
X120985264Y-54918935D01*
X120985259Y-54918928D01*
X120908079Y-54816723D01*
X120222205Y-55502599D01*
X119862995Y-55502599D01*
X119177119Y-54816723D01*
X119099940Y-54918928D01*
X119099935Y-54918935D01*
X119014751Y-55090007D01*
X118967248Y-55141244D01*
X118899585Y-55158665D01*
X118833244Y-55136739D01*
X118789290Y-55082428D01*
X118783976Y-55066826D01*
X118776507Y-55038949D01*
X118776504Y-55038944D01*
X118776503Y-55038937D01*
X118676635Y-54824771D01*
X118673718Y-54820604D01*
X118541094Y-54631197D01*
X118374002Y-54464106D01*
X118369849Y-54460621D01*
X118371446Y-54458717D01*
X118334353Y-54412312D01*
X118327161Y-54342814D01*
X118358684Y-54280459D01*
X118418914Y-54245046D01*
X118449098Y-54241315D01*
X119578837Y-54241334D01*
G37*
G04 #@! TD.AperFunction*
G04 #@! TA.AperFunction,Conductor*
G36*
X111237455Y-56169146D02*
G01*
X111254175Y-56188442D01*
X111384100Y-56373995D01*
X111384105Y-56374001D01*
X111551199Y-56541095D01*
X111716199Y-56656629D01*
X111759824Y-56711206D01*
X111767018Y-56780704D01*
X111735495Y-56843059D01*
X111732757Y-56845885D01*
X111466097Y-57112544D01*
X111447129Y-57127100D01*
X111447156Y-57127135D01*
X111440707Y-57132083D01*
X111410382Y-57162409D01*
X111331232Y-57241559D01*
X110433281Y-58139510D01*
X110371958Y-58172995D01*
X110302266Y-58168011D01*
X110246333Y-58126139D01*
X110221916Y-58060675D01*
X110221702Y-58054702D01*
X110221600Y-58054600D01*
X109814600Y-58054600D01*
X109814600Y-58491599D01*
X109828222Y-58505221D01*
X109848869Y-58511284D01*
X109894624Y-58564088D01*
X109904568Y-58633246D01*
X109875543Y-58696802D01*
X109869511Y-58703280D01*
X109578235Y-58994555D01*
X109516912Y-59028040D01*
X109504438Y-59030094D01*
X109403764Y-59041437D01*
X109233492Y-59101017D01*
X109080751Y-59196991D01*
X108953198Y-59324544D01*
X108857225Y-59477283D01*
X108797645Y-59647552D01*
X108797644Y-59647557D01*
X108777449Y-59826803D01*
X108777449Y-59826810D01*
X108797644Y-60006056D01*
X108797645Y-60006061D01*
X108857225Y-60176330D01*
X108912378Y-60264105D01*
X108931378Y-60331342D01*
X108911010Y-60398177D01*
X108857742Y-60443391D01*
X108838097Y-60448933D01*
X108838383Y-60449997D01*
X108804021Y-60459203D01*
X108804022Y-60459204D01*
X108677807Y-60493023D01*
X108637392Y-60516357D01*
X108569492Y-60532828D01*
X108503465Y-60509976D01*
X108460275Y-60455054D01*
X108452278Y-60394184D01*
X108458100Y-60345702D01*
X108458100Y-60159497D01*
X108451710Y-60106287D01*
X108447477Y-60071036D01*
X108447476Y-60071034D01*
X108447038Y-60067385D01*
X108447038Y-60037815D01*
X108447476Y-60034165D01*
X108447477Y-60034164D01*
X108458100Y-59945702D01*
X108458100Y-59759498D01*
X108447477Y-59671036D01*
X108447476Y-59671034D01*
X108447038Y-59667385D01*
X108447038Y-59637815D01*
X108447476Y-59634165D01*
X108447477Y-59634164D01*
X108458100Y-59545702D01*
X108458100Y-59359498D01*
X108447477Y-59271036D01*
X108391961Y-59130258D01*
X108391960Y-59130257D01*
X108391960Y-59130256D01*
X108300522Y-59009677D01*
X108179941Y-58918238D01*
X108172548Y-58914081D01*
X108174168Y-58911199D01*
X108131430Y-58877911D01*
X108108269Y-58811992D01*
X108108100Y-58805513D01*
X108108100Y-58775545D01*
X108127785Y-58708506D01*
X108180589Y-58662751D01*
X108249747Y-58652807D01*
X108295220Y-58668812D01*
X108331205Y-58690094D01*
X108366110Y-58700235D01*
X108486602Y-58735242D01*
X108486605Y-58735242D01*
X108486607Y-58735243D01*
X108522910Y-58738100D01*
X108522918Y-58738100D01*
X108932282Y-58738100D01*
X108932290Y-58738100D01*
X108968593Y-58735243D01*
X108968595Y-58735242D01*
X108968597Y-58735242D01*
X109043580Y-58713457D01*
X109123995Y-58690094D01*
X109263287Y-58607717D01*
X109353487Y-58517516D01*
X109414808Y-58484033D01*
X109460566Y-58482726D01*
X109516589Y-58491599D01*
X109560599Y-58491599D01*
X109560600Y-58491598D01*
X109560600Y-57800600D01*
X109814600Y-57800600D01*
X110221599Y-57800600D01*
X110221599Y-57726594D01*
X110206986Y-57634328D01*
X110150324Y-57523125D01*
X110150321Y-57523120D01*
X110062079Y-57434878D01*
X110062075Y-57434875D01*
X109950865Y-57378211D01*
X109858612Y-57363600D01*
X109814600Y-57363600D01*
X109814600Y-57800600D01*
X109560600Y-57800600D01*
X109560600Y-57363600D01*
X109516592Y-57363600D01*
X109460562Y-57372474D01*
X109391269Y-57363517D01*
X109353486Y-57337681D01*
X109263292Y-57247487D01*
X109263284Y-57247481D01*
X109123993Y-57165105D01*
X109123990Y-57165104D01*
X108968597Y-57119957D01*
X108968591Y-57119956D01*
X108932297Y-57117100D01*
X108932290Y-57117100D01*
X108522910Y-57117100D01*
X108522902Y-57117100D01*
X108486608Y-57119956D01*
X108486602Y-57119957D01*
X108331209Y-57165104D01*
X108331206Y-57165105D01*
X108191915Y-57247481D01*
X108191907Y-57247487D01*
X108077487Y-57361907D01*
X108077481Y-57361915D01*
X107995105Y-57501206D01*
X107992006Y-57508368D01*
X107989091Y-57507106D01*
X107959348Y-57553647D01*
X107895865Y-57582832D01*
X107826682Y-57573063D01*
X107790228Y-57547820D01*
X107308163Y-57065755D01*
X107274678Y-57004432D01*
X107279662Y-56934740D01*
X107321534Y-56878807D01*
X107385035Y-56854546D01*
X107578008Y-56837663D01*
X107806263Y-56776503D01*
X108020430Y-56676635D01*
X108214001Y-56541095D01*
X108381095Y-56374001D01*
X108511025Y-56188442D01*
X108565602Y-56144817D01*
X108635100Y-56137623D01*
X108697455Y-56169146D01*
X108714175Y-56188442D01*
X108844100Y-56373995D01*
X108844105Y-56374001D01*
X109011199Y-56541095D01*
X109069009Y-56581574D01*
X109204765Y-56676632D01*
X109204767Y-56676633D01*
X109204770Y-56676635D01*
X109418937Y-56776503D01*
X109418943Y-56776504D01*
X109418944Y-56776505D01*
X109435746Y-56781007D01*
X109647192Y-56837663D01*
X109835518Y-56854139D01*
X109882599Y-56858259D01*
X109882600Y-56858259D01*
X109882601Y-56858259D01*
X109925039Y-56854546D01*
X110118008Y-56837663D01*
X110346263Y-56776503D01*
X110560430Y-56676635D01*
X110754001Y-56541095D01*
X110921095Y-56374001D01*
X111051025Y-56188442D01*
X111105602Y-56144817D01*
X111175100Y-56137623D01*
X111237455Y-56169146D01*
G37*
G04 #@! TD.AperFunction*
G04 #@! TA.AperFunction,Conductor*
G36*
X80757973Y-59728974D02*
G01*
X80813907Y-59770845D01*
X80817742Y-59776264D01*
X80871932Y-59857364D01*
X80976949Y-59962381D01*
X80976953Y-59962384D01*
X81100440Y-60044896D01*
X81100452Y-60044903D01*
X81203320Y-60087511D01*
X81257724Y-60131351D01*
X81279789Y-60197645D01*
X81262510Y-60265345D01*
X81217870Y-60309458D01*
X81154238Y-60346197D01*
X81154232Y-60346201D01*
X81047087Y-60453346D01*
X81047080Y-60453355D01*
X81046653Y-60454096D01*
X81046129Y-60454595D01*
X81042137Y-60459798D01*
X81041325Y-60459175D01*
X80996080Y-60502307D01*
X80927472Y-60515522D01*
X80862610Y-60489547D01*
X80851591Y-60479766D01*
X80519419Y-60147594D01*
X80485934Y-60086271D01*
X80483100Y-60059913D01*
X80483100Y-59952697D01*
X80502785Y-59885658D01*
X80519413Y-59865021D01*
X80626962Y-59757472D01*
X80688281Y-59723990D01*
X80757973Y-59728974D01*
G37*
G04 #@! TD.AperFunction*
G04 #@! TA.AperFunction,Conductor*
G36*
X82652639Y-59919399D02*
G01*
X82698394Y-59972203D01*
X82709600Y-60023714D01*
X82709600Y-60372214D01*
X82689915Y-60439253D01*
X82637111Y-60485008D01*
X82585600Y-60496214D01*
X82579600Y-60496214D01*
X82512561Y-60476529D01*
X82466806Y-60423725D01*
X82455600Y-60372214D01*
X82455600Y-60023714D01*
X82475285Y-59956675D01*
X82528089Y-59910920D01*
X82579600Y-59899714D01*
X82585600Y-59899714D01*
X82652639Y-59919399D01*
G37*
G04 #@! TD.AperFunction*
G04 #@! TA.AperFunction,Conductor*
G36*
X99623177Y-58396233D02*
G01*
X99625108Y-58396689D01*
X99625113Y-58396689D01*
X99625117Y-58396691D01*
X99684727Y-58403100D01*
X100008100Y-58403099D01*
X100075139Y-58422783D01*
X100120894Y-58475587D01*
X100132100Y-58527099D01*
X100132100Y-58775937D01*
X100112415Y-58842976D01*
X100059611Y-58888731D01*
X100053591Y-58891291D01*
X99985258Y-58918238D01*
X99864676Y-59009678D01*
X99830405Y-59054872D01*
X99774213Y-59096395D01*
X99704491Y-59100946D01*
X99643921Y-59067627D01*
X99494419Y-58918125D01*
X99460934Y-58856802D01*
X99458100Y-58830444D01*
X99458100Y-58512991D01*
X99477785Y-58445952D01*
X99530589Y-58400197D01*
X99599747Y-58390253D01*
X99623177Y-58396233D01*
G37*
G04 #@! TD.AperFunction*
G04 #@! TA.AperFunction,Conductor*
G36*
X104078224Y-56644043D02*
G01*
X104124763Y-56676631D01*
X104124767Y-56676633D01*
X104124770Y-56676635D01*
X104338937Y-56776503D01*
X104338943Y-56776504D01*
X104338944Y-56776505D01*
X104355746Y-56781007D01*
X104567192Y-56837663D01*
X104755518Y-56854139D01*
X104802599Y-56858259D01*
X104802600Y-56858259D01*
X104802601Y-56858259D01*
X104845039Y-56854546D01*
X105038008Y-56837663D01*
X105266263Y-56776503D01*
X105266264Y-56776502D01*
X105267725Y-56776111D01*
X105337575Y-56777774D01*
X105387499Y-56808205D01*
X106244713Y-57665419D01*
X106278198Y-57726742D01*
X106273214Y-57796434D01*
X106231342Y-57852367D01*
X106165878Y-57876784D01*
X106157032Y-57877100D01*
X105989498Y-57877100D01*
X105946040Y-57882318D01*
X105897383Y-57888161D01*
X105867817Y-57888161D01*
X105819159Y-57882318D01*
X105775702Y-57877100D01*
X105589498Y-57877100D01*
X105546040Y-57882318D01*
X105497383Y-57888161D01*
X105467817Y-57888161D01*
X105419159Y-57882318D01*
X105375702Y-57877100D01*
X105189498Y-57877100D01*
X105146040Y-57882318D01*
X105097383Y-57888161D01*
X105067817Y-57888161D01*
X105019159Y-57882318D01*
X104975702Y-57877100D01*
X104789498Y-57877100D01*
X104726726Y-57884637D01*
X104657819Y-57873086D01*
X104606095Y-57826113D01*
X104588228Y-57759564D01*
X104588165Y-57759564D01*
X104588165Y-57759330D01*
X104587978Y-57758634D01*
X104588165Y-57755879D01*
X104588165Y-57752596D01*
X104567969Y-57573350D01*
X104567968Y-57573345D01*
X104553004Y-57530580D01*
X104508389Y-57403078D01*
X104412416Y-57250338D01*
X104284862Y-57122784D01*
X104262287Y-57108599D01*
X104132121Y-57026810D01*
X104026339Y-56989796D01*
X103966144Y-56968732D01*
X103909370Y-56928012D01*
X103883622Y-56863060D01*
X103883100Y-56851692D01*
X103883100Y-56745617D01*
X103902785Y-56678578D01*
X103955589Y-56632823D01*
X104024747Y-56622879D01*
X104078224Y-56644043D01*
G37*
G04 #@! TD.AperFunction*
G04 #@! TA.AperFunction,Conductor*
G36*
X99175139Y-56247785D02*
G01*
X99220894Y-56300589D01*
X99232100Y-56352100D01*
X99232100Y-56852501D01*
X99212415Y-56919540D01*
X99195781Y-56940182D01*
X98816430Y-57319532D01*
X98755107Y-57353017D01*
X98685415Y-57348033D01*
X98629482Y-57306161D01*
X98618264Y-57288146D01*
X98595324Y-57243124D01*
X98595321Y-57243120D01*
X98507079Y-57154878D01*
X98507075Y-57154875D01*
X98395865Y-57098211D01*
X98303612Y-57083600D01*
X98229600Y-57083600D01*
X98229600Y-57620600D01*
X98209915Y-57687639D01*
X98157111Y-57733394D01*
X98105600Y-57744600D01*
X97536961Y-57744600D01*
X97531908Y-57743116D01*
X97488597Y-57766766D01*
X97462239Y-57769600D01*
X96899600Y-57769600D01*
X96832561Y-57749915D01*
X96786806Y-57697111D01*
X96775600Y-57645600D01*
X96775600Y-57108600D01*
X97029600Y-57108600D01*
X97029600Y-57515600D01*
X97468239Y-57515600D01*
X97473291Y-57517083D01*
X97516603Y-57493434D01*
X97542961Y-57490600D01*
X97975600Y-57490600D01*
X97975600Y-57083600D01*
X97975599Y-57083599D01*
X97901595Y-57083600D01*
X97809328Y-57098213D01*
X97698125Y-57154875D01*
X97698120Y-57154878D01*
X97609878Y-57243120D01*
X97609873Y-57243127D01*
X97605811Y-57251100D01*
X97557836Y-57301895D01*
X97490015Y-57318690D01*
X97423880Y-57296152D01*
X97402338Y-57274914D01*
X97402227Y-57275026D01*
X97307079Y-57179878D01*
X97307075Y-57179875D01*
X97195865Y-57123211D01*
X97103612Y-57108600D01*
X97029600Y-57108600D01*
X96775600Y-57108600D01*
X96775599Y-57108599D01*
X96701595Y-57108600D01*
X96609327Y-57123213D01*
X96557709Y-57149514D01*
X96489040Y-57162409D01*
X96424300Y-57136132D01*
X96394683Y-57102147D01*
X96392355Y-57098211D01*
X96382717Y-57081913D01*
X96382715Y-57081911D01*
X96382712Y-57081907D01*
X96326919Y-57026114D01*
X96293434Y-56964791D01*
X96290600Y-56938433D01*
X96290600Y-56352100D01*
X96310285Y-56285061D01*
X96363089Y-56239306D01*
X96414600Y-56228100D01*
X99108100Y-56228100D01*
X99175139Y-56247785D01*
G37*
G04 #@! TD.AperFunction*
G04 #@! TA.AperFunction,Conductor*
G36*
X126991315Y-54241459D02*
G01*
X127058354Y-54261145D01*
X127104108Y-54313949D01*
X127114051Y-54383108D01*
X127085025Y-54446663D01*
X127046132Y-54474707D01*
X127046651Y-54475606D01*
X126905531Y-54557082D01*
X126905528Y-54557084D01*
X126307095Y-55155516D01*
X126245772Y-55189001D01*
X126176080Y-55184017D01*
X126120147Y-55142145D01*
X126099640Y-55099929D01*
X126062069Y-54959708D01*
X126056506Y-54938946D01*
X126056504Y-54938942D01*
X126056503Y-54938937D01*
X125956635Y-54724771D01*
X125948629Y-54713336D01*
X125821094Y-54531197D01*
X125743017Y-54453120D01*
X125709532Y-54391797D01*
X125714516Y-54322105D01*
X125756388Y-54266172D01*
X125821852Y-54241755D01*
X125830675Y-54241439D01*
X126991315Y-54241459D01*
G37*
G04 #@! TD.AperFunction*
G04 #@! TA.AperFunction,Conductor*
G36*
X106396390Y-54241112D02*
G01*
X106463428Y-54260798D01*
X106509182Y-54313602D01*
X106519125Y-54382761D01*
X106490099Y-54446316D01*
X106474868Y-54460059D01*
X106475344Y-54460626D01*
X106471199Y-54464103D01*
X106304105Y-54631197D01*
X106174175Y-54816758D01*
X106119598Y-54860383D01*
X106050100Y-54867577D01*
X105987745Y-54836054D01*
X105971025Y-54816758D01*
X105841094Y-54631197D01*
X105674002Y-54464106D01*
X105669849Y-54460621D01*
X105671371Y-54458806D01*
X105634030Y-54412054D01*
X105626864Y-54342553D01*
X105658411Y-54280211D01*
X105718655Y-54244820D01*
X105748794Y-54241101D01*
X106396390Y-54241112D01*
G37*
G04 #@! TD.AperFunction*
G04 #@! TA.AperFunction,Conductor*
G36*
X106241791Y-60071507D02*
G01*
X106277755Y-60121007D01*
X106282600Y-60151600D01*
X106282600Y-64353600D01*
X106263693Y-64411791D01*
X106214193Y-64447755D01*
X106183600Y-64452600D01*
X101981600Y-64452600D01*
X101923409Y-64433693D01*
X101887445Y-64384193D01*
X101882600Y-64353600D01*
X101882600Y-60672054D01*
X102182100Y-60672054D01*
X102182100Y-63833143D01*
X102182101Y-63833148D01*
X102192111Y-63901861D01*
X102243926Y-64007851D01*
X102327349Y-64091274D01*
X102433339Y-64143089D01*
X102502051Y-64153100D01*
X105663148Y-64153099D01*
X105731861Y-64143089D01*
X105837851Y-64091274D01*
X105921274Y-64007851D01*
X105973089Y-63901861D01*
X105983100Y-63833149D01*
X105983099Y-60672052D01*
X105973089Y-60603339D01*
X105921274Y-60497349D01*
X105837851Y-60413926D01*
X105834198Y-60412140D01*
X105731864Y-60362112D01*
X105731862Y-60362111D01*
X105718118Y-60360108D01*
X105663149Y-60352100D01*
X105663145Y-60352100D01*
X102502056Y-60352100D01*
X102502050Y-60352101D01*
X102433342Y-60362110D01*
X102433336Y-60362112D01*
X102327350Y-60413925D01*
X102243925Y-60497350D01*
X102192112Y-60603335D01*
X102192111Y-60603337D01*
X102190698Y-60613038D01*
X102182101Y-60672050D01*
X102182100Y-60672054D01*
X101882600Y-60672054D01*
X101882600Y-60151600D01*
X101901507Y-60093409D01*
X101951007Y-60057445D01*
X101981600Y-60052600D01*
X106183600Y-60052600D01*
X106241791Y-60071507D01*
G37*
G04 #@! TD.AperFunction*
M02*
