G04 #@! TF.GenerationSoftware,KiCad,Pcbnew,8.0.3*
G04 #@! TF.CreationDate,2024-07-26T08:12:38+02:00*
G04 #@! TF.ProjectId,Midi Stick,4d696469-2053-4746-9963-6b2e6b696361,1.3*
G04 #@! TF.SameCoordinates,Original*
G04 #@! TF.FileFunction,Soldermask,Top*
G04 #@! TF.FilePolarity,Negative*
%FSLAX46Y46*%
G04 Gerber Fmt 4.6, Leading zero omitted, Abs format (unit mm)*
G04 Created by KiCad (PCBNEW 8.0.3) date 2024-07-26 08:12:38*
%MOMM*%
%LPD*%
G01*
G04 APERTURE LIST*
G04 Aperture macros list*
%AMRoundRect*
0 Rectangle with rounded corners*
0 $1 Rounding radius*
0 $2 $3 $4 $5 $6 $7 $8 $9 X,Y pos of 4 corners*
0 Add a 4 corners polygon primitive as box body*
4,1,4,$2,$3,$4,$5,$6,$7,$8,$9,$2,$3,0*
0 Add four circle primitives for the rounded corners*
1,1,$1+$1,$2,$3*
1,1,$1+$1,$4,$5*
1,1,$1+$1,$6,$7*
1,1,$1+$1,$8,$9*
0 Add four rect primitives between the rounded corners*
20,1,$1+$1,$2,$3,$4,$5,0*
20,1,$1+$1,$4,$5,$6,$7,0*
20,1,$1+$1,$6,$7,$8,$9,0*
20,1,$1+$1,$8,$9,$2,$3,0*%
G04 Aperture macros list end*
%ADD10RoundRect,0.250800X-0.250800X-0.325800X0.250800X-0.325800X0.250800X0.325800X-0.250800X0.325800X0*%
%ADD11RoundRect,0.269550X-0.307050X0.269550X-0.307050X-0.269550X0.307050X-0.269550X0.307050X0.269550X0*%
%ADD12RoundRect,0.101600X-0.215500X0.829049X-0.215500X-0.829049X0.215500X-0.829049X0.215500X0.829049X0*%
%ADD13RoundRect,0.250800X0.325800X-0.250800X0.325800X0.250800X-0.325800X0.250800X-0.325800X-0.250800X0*%
%ADD14RoundRect,0.250800X-0.325800X0.250800X-0.325800X-0.250800X0.325800X-0.250800X0.325800X0.250800X0*%
%ADD15RoundRect,0.275800X-0.300800X0.275800X-0.300800X-0.275800X0.300800X-0.275800X0.300800X0.275800X0*%
%ADD16RoundRect,0.101600X-0.850000X0.850000X-0.850000X-0.850000X0.850000X-0.850000X0.850000X0.850000X0*%
%ADD17O,1.903200X1.903200*%
%ADD18RoundRect,0.275800X-0.275800X-0.300800X0.275800X-0.300800X0.275800X0.300800X-0.275800X0.300800X0*%
%ADD19C,1.803200*%
%ADD20C,1.422400*%
%ADD21RoundRect,0.275800X0.300800X-0.275800X0.300800X0.275800X-0.300800X0.275800X-0.300800X-0.275800X0*%
%ADD22C,1.100000*%
%ADD23O,2.203200X1.953200*%
%ADD24O,2.203200X1.453200*%
%ADD25O,2.203200X1.703200*%
%ADD26O,3.403200X2.203200*%
%ADD27C,2.203200*%
%ADD28RoundRect,0.294174X0.382426X0.707426X-0.382426X0.707426X-0.382426X-0.707426X0.382426X-0.707426X0*%
G04 APERTURE END LIST*
D10*
X117157600Y-57552600D03*
X118807600Y-57552600D03*
D11*
X99291101Y-57252600D03*
X99291101Y-58827600D03*
D12*
X114132601Y-59152600D03*
X113482600Y-59152600D03*
X112832601Y-59152600D03*
X112182600Y-59152600D03*
X111532602Y-59152600D03*
X110882600Y-59152600D03*
X110232602Y-59152600D03*
X109582603Y-59152600D03*
X108932602Y-59152600D03*
X108282603Y-59152600D03*
X107632602Y-59152600D03*
X106982603Y-59152600D03*
X106332602Y-59152600D03*
X105682603Y-59152600D03*
X105682601Y-66398702D03*
X106332602Y-66398702D03*
X106982601Y-66398702D03*
X107632602Y-66398702D03*
X108282600Y-66398702D03*
X108932602Y-66398702D03*
X109582600Y-66398702D03*
X110232602Y-66398702D03*
X110882600Y-66398702D03*
X111532602Y-66398702D03*
X112182600Y-66398702D03*
X112832601Y-66398702D03*
X113482600Y-66398702D03*
X114132601Y-66398702D03*
D13*
X99303601Y-62082600D03*
X99303601Y-60432600D03*
D10*
X93632601Y-55252600D03*
X95282601Y-55252600D03*
D14*
X101208601Y-57233600D03*
X101208601Y-58883600D03*
D15*
X103113601Y-57304940D03*
X103113601Y-58854940D03*
D11*
X99303601Y-63470100D03*
X99303601Y-65045100D03*
D15*
X116132661Y-60277560D03*
X116132661Y-61827560D03*
D16*
X95666601Y-57876740D03*
D17*
X93126601Y-57876740D03*
D11*
X101208601Y-63470100D03*
X101208601Y-65045100D03*
D18*
X117782600Y-54852600D03*
X119332600Y-54852600D03*
D11*
X103113601Y-63470100D03*
X103113601Y-65045100D03*
D19*
X123992601Y-58652600D03*
D20*
X123992601Y-61192600D03*
X123992601Y-63732600D03*
D19*
X123992601Y-66272600D03*
X126532601Y-66272600D03*
D20*
X126532601Y-63732600D03*
X126532601Y-61192600D03*
D19*
X126532601Y-58652600D03*
D21*
X116132601Y-64927600D03*
X116132601Y-63377600D03*
D13*
X103113601Y-62082600D03*
X103113601Y-60432600D03*
X101208601Y-62082600D03*
X101208601Y-60432600D03*
D22*
X86332601Y-64752600D03*
X86332601Y-60252600D03*
D23*
X88650001Y-66002600D03*
D24*
X88650001Y-63502600D03*
D25*
X88650001Y-61502600D03*
D23*
X88650001Y-59002600D03*
D26*
X86332601Y-68352600D03*
X86332601Y-56652600D03*
D27*
X114970601Y-55010600D03*
X112430601Y-55010600D03*
X109890601Y-55010600D03*
X107350601Y-55010600D03*
X104810601Y-55010600D03*
D28*
X111657600Y-68852600D03*
X108707600Y-68852600D03*
D10*
X113857600Y-57252600D03*
X115507600Y-57252600D03*
D21*
X116141601Y-67977600D03*
X116141601Y-66427600D03*
M02*
