G04 #@! TF.GenerationSoftware,KiCad,Pcbnew,8.0.3*
G04 #@! TF.CreationDate,2024-07-16T08:53:46+02:00*
G04 #@! TF.ProjectId,Midi Stick,4d696469-2053-4746-9963-6b2e6b696361,1.3*
G04 #@! TF.SameCoordinates,Original*
G04 #@! TF.FileFunction,Copper,L1,Top*
G04 #@! TF.FilePolarity,Positive*
%FSLAX46Y46*%
G04 Gerber Fmt 4.6, Leading zero omitted, Abs format (unit mm)*
G04 Created by KiCad (PCBNEW 8.0.3) date 2024-07-16 08:53:46*
%MOMM*%
%LPD*%
G01*
G04 APERTURE LIST*
G04 Aperture macros list*
%AMRoundRect*
0 Rectangle with rounded corners*
0 $1 Rounding radius*
0 $2 $3 $4 $5 $6 $7 $8 $9 X,Y pos of 4 corners*
0 Add a 4 corners polygon primitive as box body*
4,1,4,$2,$3,$4,$5,$6,$7,$8,$9,$2,$3,0*
0 Add four circle primitives for the rounded corners*
1,1,$1+$1,$2,$3*
1,1,$1+$1,$4,$5*
1,1,$1+$1,$6,$7*
1,1,$1+$1,$8,$9*
0 Add four rect primitives between the rounded corners*
20,1,$1+$1,$2,$3,$4,$5,0*
20,1,$1+$1,$4,$5,$6,$7,0*
20,1,$1+$1,$6,$7,$8,$9,0*
20,1,$1+$1,$8,$9,$2,$3,0*%
G04 Aperture macros list end*
G04 #@! TA.AperFunction,SMDPad,CuDef*
%ADD10RoundRect,0.200000X-0.200000X-0.275000X0.200000X-0.275000X0.200000X0.275000X-0.200000X0.275000X0*%
G04 #@! TD*
G04 #@! TA.AperFunction,SMDPad,CuDef*
%ADD11RoundRect,0.218750X-0.256250X0.218750X-0.256250X-0.218750X0.256250X-0.218750X0.256250X0.218750X0*%
G04 #@! TD*
G04 #@! TA.AperFunction,SMDPad,CuDef*
%ADD12R,0.431000X1.658099*%
G04 #@! TD*
G04 #@! TA.AperFunction,SMDPad,CuDef*
%ADD13RoundRect,0.200000X0.275000X-0.200000X0.275000X0.200000X-0.275000X0.200000X-0.275000X-0.200000X0*%
G04 #@! TD*
G04 #@! TA.AperFunction,SMDPad,CuDef*
%ADD14RoundRect,0.200000X-0.275000X0.200000X-0.275000X-0.200000X0.275000X-0.200000X0.275000X0.200000X0*%
G04 #@! TD*
G04 #@! TA.AperFunction,SMDPad,CuDef*
%ADD15RoundRect,0.225000X-0.250000X0.225000X-0.250000X-0.225000X0.250000X-0.225000X0.250000X0.225000X0*%
G04 #@! TD*
G04 #@! TA.AperFunction,ComponentPad*
%ADD16R,1.700000X1.700000*%
G04 #@! TD*
G04 #@! TA.AperFunction,ComponentPad*
%ADD17O,1.700000X1.700000*%
G04 #@! TD*
G04 #@! TA.AperFunction,SMDPad,CuDef*
%ADD18RoundRect,0.225000X-0.225000X-0.250000X0.225000X-0.250000X0.225000X0.250000X-0.225000X0.250000X0*%
G04 #@! TD*
G04 #@! TA.AperFunction,ComponentPad*
%ADD19C,1.600000*%
G04 #@! TD*
G04 #@! TA.AperFunction,ComponentPad*
%ADD20C,1.219200*%
G04 #@! TD*
G04 #@! TA.AperFunction,SMDPad,CuDef*
%ADD21RoundRect,0.225000X0.250000X-0.225000X0.250000X0.225000X-0.250000X0.225000X-0.250000X-0.225000X0*%
G04 #@! TD*
G04 #@! TA.AperFunction,ComponentPad*
%ADD22O,2.000000X1.750000*%
G04 #@! TD*
G04 #@! TA.AperFunction,ComponentPad*
%ADD23O,2.000000X1.250000*%
G04 #@! TD*
G04 #@! TA.AperFunction,ComponentPad*
%ADD24O,2.000000X1.500000*%
G04 #@! TD*
G04 #@! TA.AperFunction,ComponentPad*
%ADD25O,3.200000X2.000000*%
G04 #@! TD*
G04 #@! TA.AperFunction,SMDPad,CuDef*
%ADD26C,2.000000*%
G04 #@! TD*
G04 #@! TA.AperFunction,SMDPad,CuDef*
%ADD27RoundRect,0.250000X0.325000X0.650000X-0.325000X0.650000X-0.325000X-0.650000X0.325000X-0.650000X0*%
G04 #@! TD*
G04 #@! TA.AperFunction,ViaPad*
%ADD28C,0.700000*%
G04 #@! TD*
G04 #@! TA.AperFunction,ViaPad*
%ADD29C,1.270000*%
G04 #@! TD*
G04 #@! TA.AperFunction,Conductor*
%ADD30C,0.200000*%
G04 #@! TD*
G04 #@! TA.AperFunction,Conductor*
%ADD31C,0.254000*%
G04 #@! TD*
G04 #@! TA.AperFunction,Conductor*
%ADD32C,0.500000*%
G04 #@! TD*
G04 #@! TA.AperFunction,Conductor*
%ADD33C,0.350000*%
G04 #@! TD*
G04 APERTURE END LIST*
D10*
X117157600Y-57552600D03*
X118807600Y-57552600D03*
D11*
X99291101Y-57252600D03*
X99291101Y-58827600D03*
D12*
X114132601Y-59152600D03*
X113482600Y-59152600D03*
X112832601Y-59152600D03*
X112182600Y-59152600D03*
X111532602Y-59152600D03*
X110882600Y-59152600D03*
X110232602Y-59152600D03*
X109582603Y-59152600D03*
X108932602Y-59152600D03*
X108282603Y-59152600D03*
X107632602Y-59152600D03*
X106982603Y-59152600D03*
X106332602Y-59152600D03*
X105682603Y-59152600D03*
X105682601Y-66398702D03*
X106332602Y-66398702D03*
X106982601Y-66398702D03*
X107632602Y-66398702D03*
X108282600Y-66398702D03*
X108932602Y-66398702D03*
X109582600Y-66398702D03*
X110232602Y-66398702D03*
X110882600Y-66398702D03*
X111532602Y-66398702D03*
X112182600Y-66398702D03*
X112832601Y-66398702D03*
X113482600Y-66398702D03*
X114132601Y-66398702D03*
D13*
X99303601Y-62082600D03*
X99303601Y-60432600D03*
D10*
X93632601Y-55252600D03*
X95282601Y-55252600D03*
D14*
X101208601Y-57233600D03*
X101208601Y-58883600D03*
D15*
X103113601Y-57304940D03*
X103113601Y-58854940D03*
D11*
X99303601Y-63470100D03*
X99303601Y-65045100D03*
D15*
X116132661Y-60277560D03*
X116132661Y-61827560D03*
D16*
X95666601Y-57876740D03*
D17*
X93126601Y-57876740D03*
D11*
X101208601Y-63470100D03*
X101208601Y-65045100D03*
D18*
X117782600Y-54852600D03*
X119332600Y-54852600D03*
D11*
X103113601Y-63470100D03*
X103113601Y-65045100D03*
D19*
X123992601Y-58652600D03*
D20*
X123992601Y-61192600D03*
X123992601Y-63732600D03*
D19*
X123992601Y-66272600D03*
X126532601Y-66272600D03*
D20*
X126532601Y-63732600D03*
X126532601Y-61192600D03*
D19*
X126532601Y-58652600D03*
D21*
X116132601Y-64927600D03*
X116132601Y-63377600D03*
D13*
X103113601Y-62082600D03*
X103113601Y-60432600D03*
X101208601Y-62082600D03*
X101208601Y-60432600D03*
D22*
X88650001Y-66002600D03*
D23*
X88650001Y-63502600D03*
D24*
X88650001Y-61502600D03*
D22*
X88650001Y-59002600D03*
D25*
X86332601Y-68352600D03*
X86332601Y-56652600D03*
D26*
X114970601Y-55010600D03*
X112430601Y-55010600D03*
X109890601Y-55010600D03*
X107350601Y-55010600D03*
X104810601Y-55010600D03*
D27*
X111657600Y-68852600D03*
X108707600Y-68852600D03*
D10*
X113857600Y-57252600D03*
X115507600Y-57252600D03*
D21*
X116141601Y-67977600D03*
X116141601Y-66427600D03*
D28*
X130182600Y-61452600D03*
X127182600Y-60052600D03*
X89132641Y-55052560D03*
X98132651Y-57052560D03*
X122582600Y-59952600D03*
X129132661Y-55052560D03*
X91132641Y-59052560D03*
X117582600Y-61352600D03*
X96132641Y-69052560D03*
X130182600Y-63552600D03*
X112282600Y-68652600D03*
X96132641Y-65052560D03*
X124132661Y-69052560D03*
X97132651Y-59052560D03*
X120082600Y-64852600D03*
X91132641Y-67052560D03*
X125282600Y-64852600D03*
X117682600Y-56152600D03*
X120132661Y-57052560D03*
D29*
X109890601Y-55010600D03*
D28*
X117582600Y-63152600D03*
X120132661Y-69052560D03*
X85132641Y-59052560D03*
X105132651Y-63052560D03*
X128132661Y-57052560D03*
X126132661Y-57052560D03*
X119982600Y-59952600D03*
X94132641Y-69052560D03*
X115282600Y-59552600D03*
X98132651Y-69052560D03*
X130132661Y-57052560D03*
X95132641Y-67052560D03*
X85132641Y-55052560D03*
X97132651Y-63052560D03*
X122132661Y-69052560D03*
X130132661Y-69052560D03*
X127132661Y-55052560D03*
X90132641Y-57052560D03*
X125132661Y-55052560D03*
X90132641Y-69052560D03*
X123132661Y-55052560D03*
X126132661Y-69052560D03*
X111482600Y-60552600D03*
X117582600Y-64752600D03*
X103132651Y-55052560D03*
X126982600Y-64952600D03*
X113132651Y-63052560D03*
X85132641Y-63052560D03*
X115182600Y-64352600D03*
X106982600Y-64852600D03*
X121132661Y-55052560D03*
X91132641Y-55052560D03*
X118082600Y-59552600D03*
X116113601Y-69117160D03*
X94142601Y-66003600D03*
X104810601Y-66981600D03*
X104518601Y-59709600D03*
X111668601Y-56407600D03*
X114081601Y-61487600D03*
X108915601Y-60465800D03*
X107421601Y-60598600D03*
X90182600Y-63453600D03*
X113082600Y-69452600D03*
X122005661Y-57369420D03*
D30*
X126076966Y-67372600D02*
X125432601Y-66728235D01*
X125432601Y-65816965D02*
X126396966Y-64852600D01*
X127634655Y-59108235D02*
X127392836Y-59350054D01*
X127683967Y-59019473D02*
X127634655Y-59108235D01*
X125432601Y-66728235D02*
X125432601Y-65816965D01*
X128413622Y-61652600D02*
X129932661Y-61652600D01*
X130132661Y-69052560D02*
X130132661Y-66324218D01*
X126782600Y-64852600D02*
X130194929Y-61440271D01*
D31*
X103082600Y-55952709D02*
X102482541Y-55352650D01*
X109565601Y-60052230D02*
X109565601Y-59132600D01*
D30*
X130132661Y-63502661D02*
X130182600Y-63552600D01*
D31*
X113482600Y-67581599D02*
X113482600Y-66398702D01*
D30*
X123405432Y-64852600D02*
X126698970Y-64852600D01*
D31*
X109890601Y-60377230D02*
X111307230Y-60377230D01*
D30*
X130132661Y-61452600D02*
X130132661Y-63502661D01*
X111857600Y-68652600D02*
X111657600Y-68852600D01*
X127891925Y-58774297D02*
X127683967Y-59019473D01*
D31*
X113568100Y-67667100D02*
X113465601Y-67564600D01*
X113568100Y-67667099D02*
X113482600Y-67581599D01*
D30*
X130132661Y-57052560D02*
X129613662Y-57052560D01*
X129613662Y-57052560D02*
X127891925Y-58774297D01*
X129945201Y-66471728D02*
X129044329Y-67372600D01*
D31*
X111307230Y-60377230D02*
X111482600Y-60552600D01*
D30*
X127392836Y-60631814D02*
X128413622Y-61652600D01*
X120132661Y-68125371D02*
X123405432Y-64852600D01*
X126396966Y-64852600D02*
X126782600Y-64852600D01*
X120132661Y-69052560D02*
X120132661Y-68125371D01*
X130132661Y-66324218D02*
X129945201Y-66471728D01*
X107765547Y-64852600D02*
X108282600Y-65369653D01*
D31*
X109565601Y-60052230D02*
X109890601Y-60377230D01*
D30*
X127392836Y-59350054D02*
X127392836Y-60631814D01*
D31*
X103159601Y-57429940D02*
X103082600Y-57352939D01*
D30*
X106982600Y-64852600D02*
X107765547Y-64852600D01*
D31*
X103082600Y-57352939D02*
X103082600Y-55952709D01*
X113568100Y-67667100D02*
X113568100Y-67667099D01*
X113782600Y-67881600D02*
X113568100Y-67667100D01*
D30*
X129932661Y-61652600D02*
X130194929Y-61390332D01*
D31*
X113782600Y-68752600D02*
X113782600Y-67881600D01*
D30*
X129044329Y-67372600D02*
X126076966Y-67372600D01*
X112282600Y-68652600D02*
X111857600Y-68652600D01*
X108282600Y-65369653D02*
X108282600Y-66398702D01*
D31*
X104810601Y-66981600D02*
X105665601Y-66981600D01*
X105665601Y-66981600D02*
X105665601Y-66382600D01*
D32*
X102958601Y-60452600D02*
X103113601Y-60607600D01*
X94142601Y-66003600D02*
X94142601Y-61233600D01*
X94142601Y-61233600D02*
X94923601Y-60452600D01*
D31*
X104777601Y-66948600D02*
X104810601Y-66981600D01*
D32*
X94923601Y-60452600D02*
X102958601Y-60452600D01*
X104518601Y-61487600D02*
X104518601Y-59709600D01*
X106315601Y-61468600D02*
X106315601Y-59132600D01*
X112303601Y-56407600D02*
X112430601Y-56280600D01*
X106334601Y-61487600D02*
X114081601Y-61487600D01*
X113387601Y-57252600D02*
X113857600Y-57252600D01*
X114115601Y-66382600D02*
X114285601Y-66552600D01*
X101208601Y-58883600D02*
X103692601Y-58883600D01*
X103692601Y-58883600D02*
X104518601Y-59709600D01*
X114296561Y-61702560D02*
X116132661Y-61702560D01*
X110865601Y-66382600D02*
X110865601Y-64473600D01*
X114115601Y-66382600D02*
X114115601Y-64025600D01*
X112486601Y-56351600D02*
X113387601Y-57252600D01*
X114081601Y-61487600D02*
X114115601Y-61521600D01*
X116132661Y-61702560D02*
X116141601Y-61711500D01*
X111668601Y-56407600D02*
X112303601Y-56407600D01*
X114285601Y-66552600D02*
X116141601Y-66552600D01*
X112430601Y-56280600D02*
X112430601Y-54629600D01*
X106315601Y-61468600D02*
X106334601Y-61487600D01*
X110865601Y-64473600D02*
X111313601Y-64025600D01*
X104518601Y-61487600D02*
X106334601Y-61487600D01*
X116141601Y-63034600D02*
X116141601Y-61711500D01*
X111313601Y-64025600D02*
X114115601Y-64025600D01*
X114115601Y-61521600D02*
X114296561Y-61702560D01*
X114115601Y-64025600D02*
X114115601Y-61521600D01*
D31*
X108915601Y-60258600D02*
X108915601Y-59132600D01*
X108915601Y-60465800D02*
X109122801Y-60465800D01*
X108915601Y-60258600D02*
X109122801Y-60465800D01*
X108265601Y-60445600D02*
X108265601Y-59132600D01*
X108112601Y-60598600D02*
X108265601Y-60445600D01*
X107421601Y-60598600D02*
X108112601Y-60598600D01*
D30*
X108932602Y-66398702D02*
X108932602Y-68627598D01*
X108932602Y-68627598D02*
X108707600Y-68852600D01*
D31*
X92221601Y-63503600D02*
X92872601Y-64154600D01*
X92872601Y-69996600D02*
X92872601Y-64154600D01*
X88887601Y-63503600D02*
X92221601Y-63503600D01*
X93634601Y-70758600D02*
X109763601Y-70758600D01*
X109763601Y-70758600D02*
X110398601Y-70123600D01*
X92872601Y-69996600D02*
X93634601Y-70758600D01*
X110215601Y-67527600D02*
X110398601Y-67710600D01*
X110215601Y-67527600D02*
X110215601Y-66382600D01*
X110398601Y-70123600D02*
X110398601Y-67710600D01*
X93888601Y-70250600D02*
X109636601Y-70250600D01*
X109636601Y-70250600D02*
X109890601Y-69996600D01*
X93380601Y-69742600D02*
X93888601Y-70250600D01*
X109565601Y-67531600D02*
X109565601Y-66382600D01*
X109890601Y-69996600D02*
X109890601Y-67856600D01*
X93380601Y-69742600D02*
X93380601Y-62249600D01*
X109565601Y-67531600D02*
X109890601Y-67856600D01*
X88887601Y-61503600D02*
X92634601Y-61503600D01*
X92634601Y-61503600D02*
X93380601Y-62249600D01*
D33*
X105826601Y-67993600D02*
X106315601Y-67504600D01*
X106315601Y-67504600D02*
X106315601Y-66382600D01*
X103113601Y-67664600D02*
X103442601Y-67993600D01*
X103442601Y-67993600D02*
X105826601Y-67993600D01*
X103113601Y-67664600D02*
X103113601Y-64907600D01*
X99303601Y-63607600D02*
X99303601Y-61907600D01*
X103113601Y-63607600D02*
X103113601Y-61907600D01*
X106965601Y-67841600D02*
X106965601Y-66382600D01*
X101208601Y-68203600D02*
X101208601Y-64907600D01*
X101657651Y-68652640D02*
X106154561Y-68652640D01*
X101208601Y-68203600D02*
X101657651Y-68652640D01*
X106154561Y-68652640D02*
X106965601Y-67841600D01*
X99938601Y-69361600D02*
X106588601Y-69361600D01*
X99303601Y-68726600D02*
X99303601Y-64907600D01*
X106588601Y-69361600D02*
X107615601Y-68334600D01*
X107615601Y-68334600D02*
X107615601Y-66382600D01*
X99303601Y-68726600D02*
X99938601Y-69361600D01*
X101208601Y-63607600D02*
X101208601Y-61907600D01*
D31*
X93126601Y-57876740D02*
X93126601Y-55884600D01*
X93126601Y-55884600D02*
X93746601Y-55264600D01*
X106780961Y-56980960D02*
X110336961Y-56980960D01*
X111515601Y-59132600D02*
X111515601Y-58159600D01*
X104810601Y-55010600D02*
X106780961Y-56980960D01*
X110336961Y-56980960D02*
X111515601Y-58159600D01*
X104810601Y-55010600D02*
X104810601Y-54629600D01*
D30*
X116207600Y-58502600D02*
X117157600Y-57552600D01*
X114682600Y-55298601D02*
X114682600Y-58602601D01*
X114682600Y-58602601D02*
X114782601Y-58502600D01*
X114682600Y-58602601D02*
X114132601Y-59152600D01*
X114782601Y-58502600D02*
X116207600Y-58502600D01*
X114970601Y-55010600D02*
X114682600Y-55298601D01*
D31*
X107350601Y-55010600D02*
X107350601Y-54629600D01*
X107350601Y-56112230D02*
X107350601Y-55010600D01*
X110525601Y-56407600D02*
X112165601Y-58047600D01*
X107350601Y-56112230D02*
X107645971Y-56407600D01*
X112165601Y-59132600D02*
X112165601Y-58047600D01*
X107645971Y-56407600D02*
X110525601Y-56407600D01*
X113082600Y-68260599D02*
X112815601Y-67993600D01*
X112815601Y-67993600D02*
X112815601Y-66382600D01*
X113082600Y-69452600D02*
X113082600Y-68260599D01*
X100717601Y-57252600D02*
X100873601Y-57408600D01*
X100873601Y-57408600D02*
X100882600Y-57399601D01*
X100882600Y-57399601D02*
X100882600Y-55766599D01*
X100380601Y-55264600D02*
X95046601Y-55264600D01*
X105665601Y-59132600D02*
X105665601Y-58532600D01*
X101493601Y-57408600D02*
X102143601Y-58058600D01*
X100882600Y-55766599D02*
X100380601Y-55264600D01*
X100873601Y-57408600D02*
X101493601Y-57408600D01*
X99405601Y-57252600D02*
X100717601Y-57252600D01*
X102143601Y-58058600D02*
X105191601Y-58058600D01*
X105191601Y-58058600D02*
X105665601Y-58532600D01*
X99349601Y-57308600D02*
X99405601Y-57252600D01*
D32*
X125259661Y-62505660D02*
X125259661Y-57097060D01*
X122840481Y-56534600D02*
X124697201Y-56534600D01*
X124697201Y-56534600D02*
X125259661Y-57097060D01*
X125259661Y-62505660D02*
X126400601Y-63646600D01*
X126400601Y-63646600D02*
X126654601Y-63646600D01*
X126400601Y-63646600D02*
X126527601Y-63773600D01*
X122005661Y-57369420D02*
X122840481Y-56534600D01*
D30*
X115507600Y-57127600D02*
X117782600Y-54852600D01*
X118807600Y-57552600D02*
X118807600Y-55877600D01*
X115507600Y-57252600D02*
X115507600Y-57127600D01*
X118807600Y-55877600D02*
X117782600Y-54852600D01*
G04 #@! TA.AperFunction,Conductor*
G36*
X91977359Y-64150785D02*
G01*
X91998001Y-64167419D01*
X92208782Y-64378200D01*
X92242267Y-64439523D01*
X92245101Y-64465881D01*
X92245101Y-70058407D01*
X92269213Y-70179627D01*
X92269215Y-70179635D01*
X92299646Y-70253101D01*
X92316514Y-70293826D01*
X92316518Y-70293833D01*
X92351364Y-70345984D01*
X92351366Y-70345986D01*
X92385188Y-70396606D01*
X92385192Y-70396611D01*
X92543000Y-70554419D01*
X92576485Y-70615742D01*
X92571501Y-70685434D01*
X92529629Y-70741367D01*
X92464165Y-70765784D01*
X92455319Y-70766100D01*
X84512101Y-70766100D01*
X84445062Y-70746415D01*
X84399307Y-70693611D01*
X84388101Y-70642100D01*
X84388101Y-68992540D01*
X84407786Y-68925501D01*
X84460590Y-68879746D01*
X84529748Y-68869802D01*
X84593304Y-68898827D01*
X84622586Y-68936245D01*
X84660086Y-69009842D01*
X84776097Y-69169519D01*
X84776101Y-69169524D01*
X84915676Y-69309099D01*
X84915681Y-69309103D01*
X85075358Y-69425114D01*
X85251227Y-69514726D01*
X85438954Y-69575723D01*
X85633904Y-69606600D01*
X86205601Y-69606600D01*
X86205601Y-68852600D01*
X86459601Y-68852600D01*
X86459601Y-69606600D01*
X87031298Y-69606600D01*
X87226247Y-69575723D01*
X87413974Y-69514726D01*
X87589843Y-69425114D01*
X87749520Y-69309103D01*
X87749525Y-69309099D01*
X87889100Y-69169524D01*
X87889104Y-69169519D01*
X88005115Y-69009842D01*
X88094727Y-68833973D01*
X88155724Y-68646246D01*
X88182118Y-68479600D01*
X87566209Y-68479600D01*
X87582601Y-68418426D01*
X87582601Y-68286774D01*
X87566209Y-68225600D01*
X88182118Y-68225600D01*
X88155724Y-68058953D01*
X88094727Y-67871226D01*
X88005115Y-67695357D01*
X87889104Y-67535680D01*
X87889100Y-67535675D01*
X87803881Y-67450456D01*
X87770396Y-67389133D01*
X87775380Y-67319441D01*
X87817252Y-67263508D01*
X87882716Y-67239091D01*
X87947858Y-67252291D01*
X87996987Y-67277324D01*
X87996994Y-67277327D01*
X88076317Y-67303100D01*
X88202904Y-67344230D01*
X88416747Y-67378100D01*
X88416748Y-67378100D01*
X88883254Y-67378100D01*
X88883255Y-67378100D01*
X89097098Y-67344230D01*
X89303010Y-67277326D01*
X89495920Y-67179033D01*
X89671079Y-67051772D01*
X89824173Y-66898678D01*
X89951434Y-66723519D01*
X90049727Y-66530609D01*
X90116631Y-66324697D01*
X90150501Y-66110854D01*
X90150501Y-65894346D01*
X90116631Y-65680503D01*
X90075236Y-65553100D01*
X90049728Y-65474593D01*
X90049727Y-65474590D01*
X89974686Y-65327316D01*
X89951434Y-65281681D01*
X89824173Y-65106522D01*
X89671079Y-64953428D01*
X89495920Y-64826167D01*
X89481642Y-64818892D01*
X89411334Y-64783068D01*
X89360538Y-64735093D01*
X89343743Y-64667272D01*
X89366281Y-64601137D01*
X89420996Y-64557686D01*
X89429299Y-64554656D01*
X89457043Y-64545642D01*
X89614891Y-64465214D01*
X89758215Y-64361083D01*
X89816326Y-64302971D01*
X89877646Y-64269487D01*
X89929784Y-64269363D01*
X90093209Y-64304100D01*
X90093210Y-64304100D01*
X90271989Y-64304100D01*
X90271991Y-64304100D01*
X90446867Y-64266929D01*
X90610193Y-64194212D01*
X90664463Y-64154782D01*
X90730269Y-64131302D01*
X90737349Y-64131100D01*
X91910320Y-64131100D01*
X91977359Y-64150785D01*
G37*
G04 #@! TD.AperFunction*
G04 #@! TA.AperFunction,Conductor*
G36*
X130457140Y-54260785D02*
G01*
X130502895Y-54313589D01*
X130514101Y-54365100D01*
X130514101Y-59002160D01*
X130494416Y-59069199D01*
X130441612Y-59114954D01*
X130372454Y-59124898D01*
X130308898Y-59095873D01*
X130284374Y-59066950D01*
X130274278Y-59050476D01*
X130274277Y-59050473D01*
X130202133Y-58966004D01*
X130117864Y-58867337D01*
X129982534Y-58751754D01*
X129934727Y-58710923D01*
X129934724Y-58710922D01*
X129729383Y-58585088D01*
X129506873Y-58492922D01*
X129272699Y-58436702D01*
X129032601Y-58417806D01*
X128792502Y-58436702D01*
X128558328Y-58492922D01*
X128335818Y-58585088D01*
X128130477Y-58710922D01*
X128130475Y-58710923D01*
X128039416Y-58788695D01*
X127975655Y-58817265D01*
X127906569Y-58806827D01*
X127854093Y-58760697D01*
X127834888Y-58693518D01*
X127835357Y-58683596D01*
X127838069Y-58652600D01*
X127838069Y-58652598D01*
X127829493Y-58554574D01*
X127818236Y-58425908D01*
X127759340Y-58206104D01*
X127663169Y-57999866D01*
X127533534Y-57814726D01*
X127532646Y-57813458D01*
X127371742Y-57652554D01*
X127185335Y-57522032D01*
X127185333Y-57522031D01*
X126979098Y-57425861D01*
X126979089Y-57425858D01*
X126759298Y-57366966D01*
X126759294Y-57366965D01*
X126759293Y-57366965D01*
X126759292Y-57366964D01*
X126759287Y-57366964D01*
X126532603Y-57347132D01*
X126532599Y-57347132D01*
X126305914Y-57366964D01*
X126305903Y-57366966D01*
X126166254Y-57404385D01*
X126096404Y-57402722D01*
X126038542Y-57363559D01*
X126011038Y-57299331D01*
X126010161Y-57284610D01*
X126010161Y-57023141D01*
X126003237Y-56988335D01*
X126003237Y-56988334D01*
X125981320Y-56878148D01*
X125933663Y-56763095D01*
X125933663Y-56763094D01*
X125924748Y-56741571D01*
X125924746Y-56741567D01*
X125924745Y-56741565D01*
X125861612Y-56647080D01*
X125861610Y-56647077D01*
X125842615Y-56618647D01*
X125842613Y-56618645D01*
X125175622Y-55951652D01*
X125175621Y-55951651D01*
X125168693Y-55947022D01*
X125086495Y-55892100D01*
X125052696Y-55869516D01*
X125052694Y-55869515D01*
X125052691Y-55869513D01*
X124916118Y-55812943D01*
X124916108Y-55812940D01*
X124771121Y-55784100D01*
X124771119Y-55784100D01*
X122766563Y-55784100D01*
X122766561Y-55784100D01*
X122621573Y-55812940D01*
X122621563Y-55812943D01*
X122484990Y-55869513D01*
X122451187Y-55892100D01*
X122362063Y-55951649D01*
X122362062Y-55951650D01*
X121786481Y-56527230D01*
X121746555Y-56551709D01*
X121747330Y-56553449D01*
X121741397Y-56556090D01*
X121741394Y-56556091D01*
X121578069Y-56628808D01*
X121578067Y-56628809D01*
X121433429Y-56733895D01*
X121313801Y-56866756D01*
X121224411Y-57021584D01*
X121224408Y-57021590D01*
X121169165Y-57191612D01*
X121169164Y-57191614D01*
X121158556Y-57292540D01*
X121150476Y-57369420D01*
X121169164Y-57547223D01*
X121169165Y-57547226D01*
X121224408Y-57717249D01*
X121224411Y-57717255D01*
X121313802Y-57872085D01*
X121344880Y-57906600D01*
X121433425Y-58004941D01*
X121433428Y-58004943D01*
X121433431Y-58004946D01*
X121578068Y-58110032D01*
X121741394Y-58182749D01*
X121916270Y-58219920D01*
X121916271Y-58219920D01*
X122095050Y-58219920D01*
X122095052Y-58219920D01*
X122269928Y-58182749D01*
X122433254Y-58110032D01*
X122577891Y-58004946D01*
X122607164Y-57972434D01*
X122666647Y-57935786D01*
X122736504Y-57937115D01*
X122794554Y-57976000D01*
X122822365Y-58040096D01*
X122811697Y-58107810D01*
X122765861Y-58206106D01*
X122765859Y-58206111D01*
X122706967Y-58425902D01*
X122706965Y-58425913D01*
X122687133Y-58652598D01*
X122687133Y-58652601D01*
X122706965Y-58879286D01*
X122706967Y-58879297D01*
X122765859Y-59099088D01*
X122765862Y-59099097D01*
X122862032Y-59305332D01*
X122862033Y-59305334D01*
X122992555Y-59491741D01*
X123153459Y-59652645D01*
X123188425Y-59677128D01*
X123339867Y-59783168D01*
X123546105Y-59879339D01*
X123546107Y-59879339D01*
X123546114Y-59879342D01*
X123603785Y-59894794D01*
X123630671Y-59901998D01*
X123690332Y-59938362D01*
X123720862Y-60001209D01*
X123712568Y-60070584D01*
X123668083Y-60124463D01*
X123643373Y-60137399D01*
X123495678Y-60194616D01*
X123495663Y-60194623D01*
X123320752Y-60302923D01*
X123320747Y-60302927D01*
X123168713Y-60441523D01*
X123044731Y-60605703D01*
X123009807Y-60675840D01*
X122962304Y-60727077D01*
X122894641Y-60744498D01*
X122828301Y-60722572D01*
X122824652Y-60719914D01*
X122575519Y-60553448D01*
X122307357Y-60421205D01*
X122307347Y-60421201D01*
X122024234Y-60325098D01*
X122024228Y-60325096D01*
X122024221Y-60325094D01*
X121730963Y-60266762D01*
X121730956Y-60266761D01*
X121730946Y-60266760D01*
X121432608Y-60247206D01*
X121432594Y-60247206D01*
X121134255Y-60266760D01*
X121134243Y-60266761D01*
X121134239Y-60266762D01*
X121134231Y-60266763D01*
X121134228Y-60266764D01*
X120840986Y-60325093D01*
X120840972Y-60325096D01*
X120557851Y-60421203D01*
X120557830Y-60421212D01*
X120289687Y-60553446D01*
X120289680Y-60553451D01*
X120041069Y-60719566D01*
X119816265Y-60916713D01*
X119619118Y-61141517D01*
X119453003Y-61390128D01*
X119452998Y-61390135D01*
X119320764Y-61658278D01*
X119320755Y-61658299D01*
X119224648Y-61941420D01*
X119224645Y-61941434D01*
X119166316Y-62234676D01*
X119166312Y-62234703D01*
X119146758Y-62533041D01*
X119146758Y-62533056D01*
X119166312Y-62831394D01*
X119166313Y-62831404D01*
X119166314Y-62831411D01*
X119224646Y-63124669D01*
X119224648Y-63124676D01*
X119224650Y-63124682D01*
X119320753Y-63407795D01*
X119320757Y-63407805D01*
X119453000Y-63675967D01*
X119502674Y-63750309D01*
X119619120Y-63924582D01*
X119627940Y-63934639D01*
X119816265Y-64149384D01*
X119989076Y-64300934D01*
X120041068Y-64346530D01*
X120246318Y-64483674D01*
X120289682Y-64512649D01*
X120557844Y-64644892D01*
X120557854Y-64644896D01*
X120661021Y-64679916D01*
X120840981Y-64741004D01*
X121134239Y-64799336D01*
X121153524Y-64800600D01*
X121432594Y-64818892D01*
X121432601Y-64818892D01*
X121432608Y-64818892D01*
X121671464Y-64803235D01*
X121730963Y-64799336D01*
X122024221Y-64741004D01*
X122259994Y-64660970D01*
X122307347Y-64644896D01*
X122307357Y-64644892D01*
X122575519Y-64512649D01*
X122575519Y-64512648D01*
X122575523Y-64512647D01*
X122824134Y-64346530D01*
X122868814Y-64307346D01*
X122932194Y-64277944D01*
X123001411Y-64287474D01*
X123049527Y-64325847D01*
X123168713Y-64483676D01*
X123320747Y-64622272D01*
X123320752Y-64622276D01*
X123495663Y-64730576D01*
X123495664Y-64730576D01*
X123495667Y-64730578D01*
X123643374Y-64787800D01*
X123698774Y-64830372D01*
X123722365Y-64896139D01*
X123706654Y-64964219D01*
X123656630Y-65012998D01*
X123630673Y-65023201D01*
X123546109Y-65045859D01*
X123546103Y-65045861D01*
X123339868Y-65142031D01*
X123339866Y-65142032D01*
X123153459Y-65272554D01*
X122992555Y-65433458D01*
X122862033Y-65619865D01*
X122862032Y-65619867D01*
X122765862Y-65826102D01*
X122765859Y-65826111D01*
X122706967Y-66045902D01*
X122706965Y-66045913D01*
X122687133Y-66272598D01*
X122687133Y-66272601D01*
X122706965Y-66499286D01*
X122706967Y-66499297D01*
X122765859Y-66719088D01*
X122765862Y-66719097D01*
X122862032Y-66925332D01*
X122862033Y-66925334D01*
X122992555Y-67111741D01*
X123153459Y-67272645D01*
X123160144Y-67277326D01*
X123339867Y-67403168D01*
X123546105Y-67499339D01*
X123546110Y-67499340D01*
X123546112Y-67499341D01*
X123599016Y-67513516D01*
X123765909Y-67558235D01*
X123927831Y-67572401D01*
X123992599Y-67578068D01*
X123992601Y-67578068D01*
X123992603Y-67578068D01*
X124049274Y-67573109D01*
X124219293Y-67558235D01*
X124439097Y-67499339D01*
X124645335Y-67403168D01*
X124831740Y-67272647D01*
X124992648Y-67111739D01*
X125123169Y-66925334D01*
X125150219Y-66867324D01*
X125196391Y-66814885D01*
X125263584Y-66795733D01*
X125330466Y-66815948D01*
X125374983Y-66867325D01*
X125402030Y-66925328D01*
X125402033Y-66925334D01*
X125532555Y-67111741D01*
X125693459Y-67272645D01*
X125700144Y-67277326D01*
X125879867Y-67403168D01*
X126086105Y-67499339D01*
X126086110Y-67499340D01*
X126086112Y-67499341D01*
X126139016Y-67513516D01*
X126305909Y-67558235D01*
X126467831Y-67572401D01*
X126532599Y-67578068D01*
X126532601Y-67578068D01*
X126532603Y-67578068D01*
X126589274Y-67573109D01*
X126759293Y-67558235D01*
X126979097Y-67499339D01*
X127185335Y-67403168D01*
X127371740Y-67272647D01*
X127532648Y-67111739D01*
X127663169Y-66925334D01*
X127759340Y-66719096D01*
X127818236Y-66499292D01*
X127830569Y-66358324D01*
X127856020Y-66293258D01*
X127912611Y-66252280D01*
X127982373Y-66248401D01*
X128034628Y-66274844D01*
X128102480Y-66332795D01*
X128102485Y-66332799D01*
X128314201Y-66462539D01*
X128314204Y-66462541D01*
X128543608Y-66557562D01*
X128603971Y-66572053D01*
X128785057Y-66615529D01*
X129032601Y-66635011D01*
X129280145Y-66615529D01*
X129521593Y-66557562D01*
X129521594Y-66557562D01*
X129750997Y-66462541D01*
X129750998Y-66462540D01*
X129751001Y-66462539D01*
X129932315Y-66351429D01*
X129962716Y-66332799D01*
X129962716Y-66332798D01*
X129962719Y-66332797D01*
X130151535Y-66171534D01*
X130295811Y-66002607D01*
X130354317Y-65964414D01*
X130424185Y-65963915D01*
X130483232Y-66001269D01*
X130512710Y-66064616D01*
X130514101Y-66083139D01*
X130514101Y-70642100D01*
X130494416Y-70709139D01*
X130441612Y-70754894D01*
X130390101Y-70766100D01*
X110942883Y-70766100D01*
X110875844Y-70746415D01*
X110830089Y-70693611D01*
X110820145Y-70624453D01*
X110849170Y-70560897D01*
X110855202Y-70554419D01*
X110886009Y-70523611D01*
X110886010Y-70523610D01*
X110886012Y-70523608D01*
X110927600Y-70461367D01*
X110954684Y-70420833D01*
X110999597Y-70312403D01*
X111001987Y-70306634D01*
X111026101Y-70185403D01*
X111026101Y-70104791D01*
X111045786Y-70037752D01*
X111098590Y-69991997D01*
X111167748Y-69982053D01*
X111193437Y-69988610D01*
X111224369Y-70000147D01*
X111224366Y-70000147D01*
X111284380Y-70006599D01*
X111530599Y-70006599D01*
X111530600Y-70006598D01*
X111530600Y-68849600D01*
X111550285Y-68782561D01*
X111603089Y-68736806D01*
X111654600Y-68725600D01*
X111660600Y-68725600D01*
X111727639Y-68745285D01*
X111773394Y-68798089D01*
X111784600Y-68849600D01*
X111784600Y-70006599D01*
X112030807Y-70006599D01*
X112030816Y-70006598D01*
X112090835Y-70000147D01*
X112090838Y-70000146D01*
X112226622Y-69949499D01*
X112226626Y-69949497D01*
X112230885Y-69946310D01*
X112296348Y-69921891D01*
X112364622Y-69936741D01*
X112397348Y-69962603D01*
X112510364Y-70088121D01*
X112510367Y-70088123D01*
X112510370Y-70088126D01*
X112655007Y-70193212D01*
X112818333Y-70265929D01*
X112993209Y-70303100D01*
X112993210Y-70303100D01*
X113171989Y-70303100D01*
X113171991Y-70303100D01*
X113346867Y-70265929D01*
X113510193Y-70193212D01*
X113654830Y-70088126D01*
X113774459Y-69955265D01*
X113863850Y-69800435D01*
X113919097Y-69630403D01*
X113937785Y-69452600D01*
X113919097Y-69274797D01*
X113863850Y-69104765D01*
X113774459Y-68949935D01*
X113741950Y-68913830D01*
X113711720Y-68850838D01*
X113710100Y-68830858D01*
X113710100Y-68248436D01*
X115412601Y-68248436D01*
X115418734Y-68305467D01*
X115418735Y-68305472D01*
X115466868Y-68434521D01*
X115466870Y-68434524D01*
X115549412Y-68544785D01*
X115549415Y-68544788D01*
X115659676Y-68627330D01*
X115659679Y-68627332D01*
X115788728Y-68675465D01*
X115788733Y-68675466D01*
X115845764Y-68681599D01*
X115845781Y-68681600D01*
X116014601Y-68681600D01*
X116268601Y-68681600D01*
X116437421Y-68681600D01*
X116437437Y-68681599D01*
X116494468Y-68675466D01*
X116494473Y-68675465D01*
X116623522Y-68627332D01*
X116623525Y-68627330D01*
X116733786Y-68544788D01*
X116733789Y-68544785D01*
X116816331Y-68434524D01*
X116816333Y-68434521D01*
X116864466Y-68305472D01*
X116864467Y-68305467D01*
X116870600Y-68248436D01*
X116870601Y-68248419D01*
X116870601Y-68104600D01*
X116268601Y-68104600D01*
X116268601Y-68681600D01*
X116014601Y-68681600D01*
X116014601Y-68104600D01*
X115412601Y-68104600D01*
X115412601Y-68248436D01*
X113710100Y-68248436D01*
X113710100Y-68198794D01*
X113705628Y-68176314D01*
X113701156Y-68153832D01*
X113701156Y-68153829D01*
X113685987Y-68077572D01*
X113685986Y-68077565D01*
X113655141Y-68003100D01*
X113638683Y-67963366D01*
X113638676Y-67963355D01*
X113580312Y-67876006D01*
X113559434Y-67809329D01*
X113577919Y-67741949D01*
X113629898Y-67695259D01*
X113698868Y-67684083D01*
X113726745Y-67690933D01*
X113809618Y-67721843D01*
X113869228Y-67728252D01*
X114395973Y-67728251D01*
X114455584Y-67721843D01*
X114590432Y-67671548D01*
X114705647Y-67585298D01*
X114791897Y-67470083D01*
X114819491Y-67396100D01*
X114824091Y-67383767D01*
X114865962Y-67327833D01*
X114931426Y-67303416D01*
X114940273Y-67303100D01*
X115382026Y-67303100D01*
X115449065Y-67322785D01*
X115494820Y-67375589D01*
X115504764Y-67444747D01*
X115481293Y-67501411D01*
X115466868Y-67520679D01*
X115418735Y-67649727D01*
X115418734Y-67649732D01*
X115412601Y-67706763D01*
X115412601Y-67850600D01*
X116870601Y-67850600D01*
X116870601Y-67706780D01*
X116870600Y-67706763D01*
X116864467Y-67649732D01*
X116864466Y-67649727D01*
X116816333Y-67520679D01*
X116755454Y-67439356D01*
X116731036Y-67373892D01*
X116745887Y-67305618D01*
X116789622Y-67259506D01*
X116844645Y-67225568D01*
X116964569Y-67105644D01*
X117053604Y-66961297D01*
X117106950Y-66800308D01*
X117117101Y-66700945D01*
X117117100Y-66154256D01*
X117112666Y-66110854D01*
X117106950Y-66054892D01*
X117106949Y-66054889D01*
X117091113Y-66007100D01*
X117053604Y-65893903D01*
X117053600Y-65893897D01*
X117053599Y-65893894D01*
X116964571Y-65749559D01*
X116964568Y-65749555D01*
X116844644Y-65629631D01*
X116809072Y-65607690D01*
X116762348Y-65555742D01*
X116751127Y-65486779D01*
X116774904Y-65427840D01*
X116807333Y-65384520D01*
X116855466Y-65255472D01*
X116855467Y-65255467D01*
X116861600Y-65198436D01*
X116861601Y-65198419D01*
X116861601Y-65054600D01*
X115403601Y-65054600D01*
X115403601Y-65198436D01*
X115409734Y-65255467D01*
X115409735Y-65255472D01*
X115457868Y-65384520D01*
X115495984Y-65435436D01*
X115520401Y-65500900D01*
X115505550Y-65569173D01*
X115461818Y-65615283D01*
X115438560Y-65629629D01*
X115318633Y-65749555D01*
X115314325Y-65755005D01*
X115257305Y-65795385D01*
X115217054Y-65802100D01*
X114990101Y-65802100D01*
X114923062Y-65782415D01*
X114877307Y-65729611D01*
X114866101Y-65678100D01*
X114866101Y-62577060D01*
X114885786Y-62510021D01*
X114938590Y-62464266D01*
X114990101Y-62453060D01*
X115208114Y-62453060D01*
X115275153Y-62472745D01*
X115305385Y-62500155D01*
X115309697Y-62505609D01*
X115318957Y-62514869D01*
X115352442Y-62576192D01*
X115347458Y-62645884D01*
X115318960Y-62690228D01*
X115309634Y-62699553D01*
X115309630Y-62699559D01*
X115220602Y-62843894D01*
X115220597Y-62843905D01*
X115167252Y-63004890D01*
X115157101Y-63104247D01*
X115157101Y-63650937D01*
X115157102Y-63650955D01*
X115167251Y-63750307D01*
X115167252Y-63750310D01*
X115220597Y-63911294D01*
X115220602Y-63911305D01*
X115309630Y-64055640D01*
X115309631Y-64055642D01*
X115429556Y-64175567D01*
X115429560Y-64175570D01*
X115484578Y-64209506D01*
X115531303Y-64261454D01*
X115542524Y-64330416D01*
X115518748Y-64389355D01*
X115457868Y-64470679D01*
X115409735Y-64599727D01*
X115409734Y-64599732D01*
X115403601Y-64656763D01*
X115403601Y-64800600D01*
X116861601Y-64800600D01*
X116861601Y-64656780D01*
X116861600Y-64656763D01*
X116855467Y-64599732D01*
X116855466Y-64599727D01*
X116807333Y-64470679D01*
X116746454Y-64389356D01*
X116722036Y-64323892D01*
X116736887Y-64255618D01*
X116780622Y-64209506D01*
X116835645Y-64175568D01*
X116955569Y-64055644D01*
X116955569Y-64055643D01*
X116955571Y-64055642D01*
X116955571Y-64055640D01*
X116963241Y-64043206D01*
X117044604Y-63911297D01*
X117097950Y-63750308D01*
X117108101Y-63650945D01*
X117108100Y-63104256D01*
X117104179Y-63065876D01*
X117097950Y-63004892D01*
X117097949Y-63004889D01*
X117044604Y-62843903D01*
X117044600Y-62843897D01*
X117044599Y-62843894D01*
X116955571Y-62699559D01*
X116955568Y-62699555D01*
X116946304Y-62690291D01*
X116912819Y-62628968D01*
X116917803Y-62559276D01*
X116946304Y-62514929D01*
X116947641Y-62513592D01*
X116955629Y-62505604D01*
X117044664Y-62361257D01*
X117098010Y-62200268D01*
X117108161Y-62100905D01*
X117108160Y-61554216D01*
X117098010Y-61454852D01*
X117044664Y-61293863D01*
X117044660Y-61293857D01*
X117044659Y-61293854D01*
X116955631Y-61149519D01*
X116955628Y-61149515D01*
X116835704Y-61029591D01*
X116780682Y-60995653D01*
X116733958Y-60943705D01*
X116722737Y-60874742D01*
X116746514Y-60815803D01*
X116807393Y-60734480D01*
X116855526Y-60605432D01*
X116855527Y-60605427D01*
X116861660Y-60548396D01*
X116861661Y-60548379D01*
X116861661Y-60404560D01*
X115403661Y-60404560D01*
X115403661Y-60548396D01*
X115409794Y-60605427D01*
X115409795Y-60605432D01*
X115457928Y-60734480D01*
X115472353Y-60753749D01*
X115496770Y-60819213D01*
X115481918Y-60887486D01*
X115432513Y-60936892D01*
X115373086Y-60952060D01*
X114799068Y-60952060D01*
X114732029Y-60932375D01*
X114706918Y-60911032D01*
X114653836Y-60852078D01*
X114653833Y-60852076D01*
X114653832Y-60852075D01*
X114653831Y-60852074D01*
X114520475Y-60755184D01*
X114509193Y-60746987D01*
X114428289Y-60710966D01*
X114375052Y-60665716D01*
X114354731Y-60598866D01*
X114373777Y-60531643D01*
X114426143Y-60485388D01*
X114450217Y-60477008D01*
X114455573Y-60475742D01*
X114455584Y-60475741D01*
X114590432Y-60425446D01*
X114705647Y-60339196D01*
X114791897Y-60223981D01*
X114842192Y-60089133D01*
X114848601Y-60029523D01*
X114848601Y-60006723D01*
X115403661Y-60006723D01*
X115403661Y-60150560D01*
X116005661Y-60150560D01*
X116259661Y-60150560D01*
X116861661Y-60150560D01*
X116861661Y-60006740D01*
X116861660Y-60006723D01*
X116855527Y-59949692D01*
X116855526Y-59949687D01*
X116807393Y-59820638D01*
X116807391Y-59820635D01*
X116724849Y-59710374D01*
X116724846Y-59710371D01*
X116614585Y-59627829D01*
X116614582Y-59627827D01*
X116485533Y-59579694D01*
X116485528Y-59579693D01*
X116428497Y-59573560D01*
X116259661Y-59573560D01*
X116259661Y-60150560D01*
X116005661Y-60150560D01*
X116005661Y-59573560D01*
X115836824Y-59573560D01*
X115779793Y-59579693D01*
X115779788Y-59579694D01*
X115650739Y-59627827D01*
X115650736Y-59627829D01*
X115540475Y-59710371D01*
X115540472Y-59710374D01*
X115457930Y-59820635D01*
X115457928Y-59820638D01*
X115409795Y-59949687D01*
X115409794Y-59949692D01*
X115403661Y-60006723D01*
X114848601Y-60006723D01*
X114848600Y-59337196D01*
X114868284Y-59270158D01*
X114884914Y-59249521D01*
X114995018Y-59139417D01*
X115056340Y-59105934D01*
X115082698Y-59103100D01*
X116120931Y-59103100D01*
X116120947Y-59103101D01*
X116128543Y-59103101D01*
X116286654Y-59103101D01*
X116286657Y-59103101D01*
X116439385Y-59062177D01*
X116512418Y-59020011D01*
X116576316Y-58983120D01*
X116688120Y-58871316D01*
X116688120Y-58871314D01*
X116698321Y-58861114D01*
X116698324Y-58861109D01*
X116995017Y-58564416D01*
X117056339Y-58530934D01*
X117082697Y-58528100D01*
X117414213Y-58528100D01*
X117414216Y-58528100D01*
X117484796Y-58521686D01*
X117647206Y-58471078D01*
X117792785Y-58383072D01*
X117835462Y-58340395D01*
X117894919Y-58280939D01*
X117956242Y-58247454D01*
X118025934Y-58252438D01*
X118070281Y-58280939D01*
X118172411Y-58383069D01*
X118172413Y-58383070D01*
X118172415Y-58383072D01*
X118317994Y-58471078D01*
X118480404Y-58521686D01*
X118550984Y-58528100D01*
X118550987Y-58528100D01*
X119064213Y-58528100D01*
X119064216Y-58528100D01*
X119134796Y-58521686D01*
X119297206Y-58471078D01*
X119442785Y-58383072D01*
X119563072Y-58262785D01*
X119651078Y-58117206D01*
X119701686Y-57954796D01*
X119708100Y-57884216D01*
X119708100Y-57220984D01*
X119701686Y-57150404D01*
X119651078Y-56987994D01*
X119563072Y-56842415D01*
X119563070Y-56842413D01*
X119563069Y-56842411D01*
X119444419Y-56723761D01*
X119410934Y-56662438D01*
X119408100Y-56636080D01*
X119408100Y-55966659D01*
X119408101Y-55966646D01*
X119408101Y-55798545D01*
X119408101Y-55798543D01*
X119391796Y-55737692D01*
X119393459Y-55667843D01*
X119432622Y-55609981D01*
X119496850Y-55582477D01*
X119511571Y-55581600D01*
X119603420Y-55581600D01*
X119603436Y-55581599D01*
X119660467Y-55575466D01*
X119660472Y-55575465D01*
X119789521Y-55527332D01*
X119789524Y-55527330D01*
X119899785Y-55444788D01*
X119899788Y-55444785D01*
X119982330Y-55334524D01*
X119982332Y-55334521D01*
X120030465Y-55205472D01*
X120030466Y-55205467D01*
X120036599Y-55148436D01*
X120036600Y-55148419D01*
X120036600Y-54979600D01*
X119329600Y-54979600D01*
X119262561Y-54959915D01*
X119216806Y-54907111D01*
X119205600Y-54855600D01*
X119205600Y-54849600D01*
X119225285Y-54782561D01*
X119278089Y-54736806D01*
X119329600Y-54725600D01*
X120036600Y-54725600D01*
X120036600Y-54556780D01*
X120036599Y-54556763D01*
X120030466Y-54499732D01*
X120030466Y-54499730D01*
X119996414Y-54408435D01*
X119991429Y-54338743D01*
X120024913Y-54277420D01*
X120086236Y-54243934D01*
X120112595Y-54241100D01*
X130390101Y-54241100D01*
X130457140Y-54260785D01*
G37*
G04 #@! TD.AperFunction*
G04 #@! TA.AperFunction,Conductor*
G36*
X98485120Y-61222785D02*
G01*
X98530875Y-61275589D01*
X98540819Y-61344747D01*
X98511794Y-61408303D01*
X98505762Y-61414781D01*
X98473132Y-61447410D01*
X98473131Y-61447411D01*
X98385123Y-61592993D01*
X98334514Y-61755407D01*
X98328101Y-61825986D01*
X98328101Y-62339213D01*
X98334514Y-62409792D01*
X98334514Y-62409794D01*
X98334515Y-62409796D01*
X98385123Y-62572206D01*
X98462107Y-62699553D01*
X98462795Y-62700690D01*
X98480631Y-62768245D01*
X98462217Y-62829937D01*
X98391053Y-62945310D01*
X98391051Y-62945315D01*
X98382601Y-62970817D01*
X98338165Y-63104915D01*
X98338165Y-63104916D01*
X98338164Y-63104916D01*
X98328101Y-63203418D01*
X98328101Y-63736781D01*
X98338164Y-63835283D01*
X98391051Y-63994884D01*
X98391056Y-63994895D01*
X98479317Y-64137987D01*
X98479320Y-64137991D01*
X98511248Y-64169919D01*
X98544733Y-64231242D01*
X98539749Y-64300934D01*
X98511248Y-64345281D01*
X98479320Y-64377208D01*
X98479317Y-64377212D01*
X98391056Y-64520304D01*
X98391051Y-64520315D01*
X98378668Y-64557686D01*
X98338165Y-64679915D01*
X98338165Y-64679916D01*
X98338164Y-64679916D01*
X98328101Y-64778418D01*
X98328101Y-65311781D01*
X98338164Y-65410283D01*
X98391051Y-65569884D01*
X98391056Y-65569895D01*
X98479317Y-65712987D01*
X98479320Y-65712991D01*
X98591782Y-65825453D01*
X98625267Y-65886776D01*
X98628101Y-65913134D01*
X98628101Y-68793135D01*
X98654058Y-68923628D01*
X98654060Y-68923636D01*
X98704979Y-69046565D01*
X98704984Y-69046575D01*
X98778905Y-69157205D01*
X98778908Y-69157209D01*
X99033119Y-69411419D01*
X99066604Y-69472742D01*
X99061620Y-69542433D01*
X99019749Y-69598367D01*
X98954284Y-69622784D01*
X98945438Y-69623100D01*
X94199882Y-69623100D01*
X94132843Y-69603415D01*
X94112201Y-69586781D01*
X94044420Y-69519000D01*
X94010935Y-69457677D01*
X94008101Y-69431319D01*
X94008101Y-66978100D01*
X94027786Y-66911061D01*
X94080590Y-66865306D01*
X94132101Y-66854100D01*
X94231990Y-66854100D01*
X94231992Y-66854100D01*
X94406868Y-66816929D01*
X94570194Y-66744212D01*
X94714831Y-66639126D01*
X94718537Y-66635011D01*
X94758819Y-66590272D01*
X94834460Y-66506265D01*
X94923851Y-66351435D01*
X94979098Y-66181403D01*
X94997786Y-66003600D01*
X94979098Y-65825797D01*
X94923851Y-65655765D01*
X94909714Y-65631278D01*
X94893101Y-65569278D01*
X94893101Y-61595830D01*
X94912786Y-61528791D01*
X94929420Y-61508149D01*
X95198150Y-61239419D01*
X95259473Y-61205934D01*
X95285831Y-61203100D01*
X98418081Y-61203100D01*
X98485120Y-61222785D01*
G37*
G04 #@! TD.AperFunction*
G04 #@! TA.AperFunction,Conductor*
G36*
X92946120Y-54260785D02*
G01*
X92991875Y-54313589D01*
X93001819Y-54382747D01*
X92972794Y-54446303D01*
X92966762Y-54452781D01*
X92877132Y-54542410D01*
X92877131Y-54542411D01*
X92789123Y-54687993D01*
X92738514Y-54850407D01*
X92732101Y-54920986D01*
X92732101Y-55340318D01*
X92712416Y-55407357D01*
X92695782Y-55427999D01*
X92639192Y-55484588D01*
X92639186Y-55484596D01*
X92570521Y-55587361D01*
X92570517Y-55587368D01*
X92564831Y-55601097D01*
X92564830Y-55601099D01*
X92523215Y-55701564D01*
X92523213Y-55701572D01*
X92499101Y-55822792D01*
X92499101Y-56602913D01*
X92479416Y-56669952D01*
X92446225Y-56704488D01*
X92255195Y-56838248D01*
X92088106Y-57005337D01*
X91952566Y-57198909D01*
X91952565Y-57198911D01*
X91852699Y-57413075D01*
X91852695Y-57413084D01*
X91791539Y-57641326D01*
X91791537Y-57641336D01*
X91770942Y-57876739D01*
X91770942Y-57876740D01*
X91791537Y-58112143D01*
X91791539Y-58112153D01*
X91852695Y-58340395D01*
X91852697Y-58340399D01*
X91852698Y-58340403D01*
X91927815Y-58501492D01*
X91952566Y-58554570D01*
X91952568Y-58554574D01*
X92051311Y-58695593D01*
X92088106Y-58748141D01*
X92255200Y-58915235D01*
X92311419Y-58954600D01*
X92448766Y-59050772D01*
X92448768Y-59050773D01*
X92448771Y-59050775D01*
X92662938Y-59150643D01*
X92891193Y-59211803D01*
X93079519Y-59228279D01*
X93126600Y-59232399D01*
X93126601Y-59232399D01*
X93126602Y-59232399D01*
X93165835Y-59228966D01*
X93362009Y-59211803D01*
X93590264Y-59150643D01*
X93804431Y-59050775D01*
X93998002Y-58915235D01*
X94165096Y-58748141D01*
X94300636Y-58554570D01*
X94326221Y-58499702D01*
X94372390Y-58447266D01*
X94439583Y-58428113D01*
X94506464Y-58448328D01*
X94551800Y-58501492D01*
X94562601Y-58552108D01*
X94562601Y-58751754D01*
X94577338Y-58825846D01*
X94577339Y-58825849D01*
X94633477Y-58909863D01*
X94717496Y-58966003D01*
X94717497Y-58966004D01*
X94791581Y-58980739D01*
X95539600Y-58980739D01*
X95539601Y-58980738D01*
X95539601Y-58360348D01*
X95600775Y-58376740D01*
X95732427Y-58376740D01*
X95793601Y-58360348D01*
X95793601Y-58980739D01*
X96541616Y-58980739D01*
X96615707Y-58966002D01*
X96615710Y-58966001D01*
X96699724Y-58909863D01*
X96755864Y-58825844D01*
X96755865Y-58825843D01*
X96770600Y-58751761D01*
X96770601Y-58751758D01*
X96770601Y-58003740D01*
X96150209Y-58003740D01*
X96166601Y-57942566D01*
X96166601Y-57810914D01*
X96150209Y-57749740D01*
X96770600Y-57749740D01*
X96770600Y-57001725D01*
X96755863Y-56927633D01*
X96755862Y-56927630D01*
X96699724Y-56843616D01*
X96615705Y-56787476D01*
X96615704Y-56787475D01*
X96541622Y-56772740D01*
X95793601Y-56772740D01*
X95793601Y-57393131D01*
X95732427Y-57376740D01*
X95600775Y-57376740D01*
X95539601Y-57393131D01*
X95539601Y-56772740D01*
X94791586Y-56772740D01*
X94717494Y-56787477D01*
X94717491Y-56787478D01*
X94633477Y-56843616D01*
X94577337Y-56927635D01*
X94577336Y-56927636D01*
X94562601Y-57001718D01*
X94562601Y-57201368D01*
X94542916Y-57268407D01*
X94490112Y-57314162D01*
X94420954Y-57324106D01*
X94357398Y-57295081D01*
X94326219Y-57253773D01*
X94300636Y-57198911D01*
X94300635Y-57198909D01*
X94165095Y-57005337D01*
X93998003Y-56838246D01*
X93998002Y-56838245D01*
X93890675Y-56763094D01*
X93806976Y-56704487D01*
X93763353Y-56649911D01*
X93754101Y-56602913D01*
X93754101Y-56352100D01*
X93773786Y-56285061D01*
X93826590Y-56239306D01*
X93878101Y-56228100D01*
X93889214Y-56228100D01*
X93889217Y-56228100D01*
X93959797Y-56221686D01*
X94122207Y-56171078D01*
X94267786Y-56083072D01*
X94299336Y-56051522D01*
X94369920Y-55980939D01*
X94431243Y-55947454D01*
X94500935Y-55952438D01*
X94545282Y-55980939D01*
X94647412Y-56083069D01*
X94647414Y-56083070D01*
X94647416Y-56083072D01*
X94792995Y-56171078D01*
X94955405Y-56221686D01*
X95025985Y-56228100D01*
X95025988Y-56228100D01*
X95539214Y-56228100D01*
X95539217Y-56228100D01*
X95609797Y-56221686D01*
X95772207Y-56171078D01*
X95917786Y-56083072D01*
X96038073Y-55962785D01*
X96044625Y-55951947D01*
X96096154Y-55904761D01*
X96150740Y-55892100D01*
X100069320Y-55892100D01*
X100136359Y-55911785D01*
X100157001Y-55928419D01*
X100218781Y-55990199D01*
X100252266Y-56051522D01*
X100255100Y-56077880D01*
X100255100Y-56425064D01*
X100235415Y-56492103D01*
X100182611Y-56537858D01*
X100113453Y-56547802D01*
X100049897Y-56518777D01*
X100043420Y-56512746D01*
X99996492Y-56465819D01*
X99996488Y-56465816D01*
X99853396Y-56377555D01*
X99853390Y-56377552D01*
X99853388Y-56377551D01*
X99693786Y-56324664D01*
X99693784Y-56324663D01*
X99595282Y-56314600D01*
X99595275Y-56314600D01*
X98986927Y-56314600D01*
X98986919Y-56314600D01*
X98888417Y-56324663D01*
X98888416Y-56324664D01*
X98844139Y-56339336D01*
X98728816Y-56377550D01*
X98728805Y-56377555D01*
X98585713Y-56465816D01*
X98585709Y-56465819D01*
X98466820Y-56584708D01*
X98466817Y-56584712D01*
X98378556Y-56727804D01*
X98378551Y-56727815D01*
X98361391Y-56779600D01*
X98325665Y-56887415D01*
X98325665Y-56887416D01*
X98325664Y-56887416D01*
X98315601Y-56985918D01*
X98315601Y-57519281D01*
X98325664Y-57617783D01*
X98378551Y-57777384D01*
X98378556Y-57777395D01*
X98466817Y-57920487D01*
X98466820Y-57920491D01*
X98585709Y-58039380D01*
X98585713Y-58039383D01*
X98665135Y-58088372D01*
X98711860Y-58140320D01*
X98723081Y-58209283D01*
X98699305Y-58268220D01*
X98615663Y-58379952D01*
X98615661Y-58379954D01*
X98568157Y-58507317D01*
X98568156Y-58507320D01*
X98562101Y-58563644D01*
X98562101Y-58700600D01*
X99294101Y-58700600D01*
X99361140Y-58720285D01*
X99406895Y-58773089D01*
X99418101Y-58824600D01*
X99418101Y-58830600D01*
X99398416Y-58897639D01*
X99345612Y-58943394D01*
X99294101Y-58954600D01*
X98562101Y-58954600D01*
X98562101Y-59091555D01*
X98568156Y-59147879D01*
X98568157Y-59147882D01*
X98615661Y-59275244D01*
X98697131Y-59384073D01*
X98720126Y-59401288D01*
X98761997Y-59457221D01*
X98766981Y-59526913D01*
X98733495Y-59588236D01*
X98709966Y-59606670D01*
X98586998Y-59681008D01*
X98586013Y-59679379D01*
X98530309Y-59701560D01*
X98518752Y-59702100D01*
X94849681Y-59702100D01*
X94704693Y-59730940D01*
X94704683Y-59730943D01*
X94568112Y-59787512D01*
X94568097Y-59787520D01*
X94522335Y-59818099D01*
X94522332Y-59818101D01*
X94445190Y-59869643D01*
X94445185Y-59869647D01*
X93559649Y-60755183D01*
X93543101Y-60779951D01*
X93524296Y-60808095D01*
X93477515Y-60878107D01*
X93420944Y-61014682D01*
X93420941Y-61014691D01*
X93401854Y-61110647D01*
X93369468Y-61172557D01*
X93308752Y-61207131D01*
X93238983Y-61203390D01*
X93192556Y-61174135D01*
X93034610Y-61016189D01*
X93021409Y-61007369D01*
X93008297Y-60998608D01*
X92953505Y-60961997D01*
X92931839Y-60947520D01*
X92931827Y-60947513D01*
X92881168Y-60926530D01*
X92817636Y-60900214D01*
X92817628Y-60900212D01*
X92696408Y-60876100D01*
X92696404Y-60876100D01*
X90053707Y-60876100D01*
X89986668Y-60856415D01*
X89953389Y-60824986D01*
X89941117Y-60808095D01*
X89853829Y-60687954D01*
X89714647Y-60548772D01*
X89555406Y-60433076D01*
X89540425Y-60425443D01*
X89380030Y-60343717D01*
X89203462Y-60286346D01*
X89145787Y-60246908D01*
X89118589Y-60182549D01*
X89130504Y-60113703D01*
X89177749Y-60062227D01*
X89203469Y-60050482D01*
X89208391Y-60048882D01*
X89366729Y-59968204D01*
X89510488Y-59863758D01*
X89510493Y-59863754D01*
X89636155Y-59738092D01*
X89636159Y-59738087D01*
X89740605Y-59594328D01*
X89821284Y-59435990D01*
X89876201Y-59266975D01*
X89897959Y-59129600D01*
X89133609Y-59129600D01*
X89150001Y-59068426D01*
X89150001Y-58936774D01*
X89133609Y-58875600D01*
X89897959Y-58875600D01*
X89876201Y-58738224D01*
X89821284Y-58569209D01*
X89740605Y-58410871D01*
X89636159Y-58267112D01*
X89636155Y-58267107D01*
X89510493Y-58141445D01*
X89510488Y-58141441D01*
X89366729Y-58036995D01*
X89208391Y-57956316D01*
X89039376Y-57901400D01*
X88863854Y-57873600D01*
X88777001Y-57873600D01*
X88777001Y-58518991D01*
X88715827Y-58502600D01*
X88584175Y-58502600D01*
X88523001Y-58518991D01*
X88523001Y-57873600D01*
X88436148Y-57873600D01*
X88260625Y-57901400D01*
X88091610Y-57956316D01*
X87933272Y-58036995D01*
X87789513Y-58141441D01*
X87789508Y-58141445D01*
X87663846Y-58267107D01*
X87663842Y-58267112D01*
X87559396Y-58410871D01*
X87478717Y-58569209D01*
X87423800Y-58738224D01*
X87402043Y-58875600D01*
X88166393Y-58875600D01*
X88150001Y-58936774D01*
X88150001Y-59068426D01*
X88166393Y-59129600D01*
X87402043Y-59129600D01*
X87423800Y-59266975D01*
X87478717Y-59435990D01*
X87559396Y-59594328D01*
X87663842Y-59738087D01*
X87663846Y-59738092D01*
X87789508Y-59863754D01*
X87789513Y-59863758D01*
X87933272Y-59968204D01*
X88091611Y-60048883D01*
X88096535Y-60050483D01*
X88154212Y-60089919D01*
X88181411Y-60154277D01*
X88169499Y-60223124D01*
X88122256Y-60274601D01*
X88096539Y-60286346D01*
X87919971Y-60343717D01*
X87744595Y-60433076D01*
X87677053Y-60482149D01*
X87585355Y-60548772D01*
X87585353Y-60548774D01*
X87585352Y-60548774D01*
X87446175Y-60687951D01*
X87446175Y-60687952D01*
X87446173Y-60687954D01*
X87412370Y-60734480D01*
X87330477Y-60847194D01*
X87241118Y-61022570D01*
X87180291Y-61209773D01*
X87149501Y-61404177D01*
X87149501Y-61601022D01*
X87180291Y-61795426D01*
X87241118Y-61982629D01*
X87301383Y-62100905D01*
X87330477Y-62158005D01*
X87446173Y-62317246D01*
X87446175Y-62317248D01*
X87573067Y-62444140D01*
X87606552Y-62505463D01*
X87601568Y-62575155D01*
X87559696Y-62631088D01*
X87558277Y-62632135D01*
X87541790Y-62644114D01*
X87541784Y-62644119D01*
X87416520Y-62769383D01*
X87416520Y-62769384D01*
X87416518Y-62769386D01*
X87392671Y-62802209D01*
X87312387Y-62912709D01*
X87231958Y-63070557D01*
X87231957Y-63070560D01*
X87177215Y-63239043D01*
X87157975Y-63360519D01*
X87149501Y-63414021D01*
X87149501Y-63591179D01*
X87154891Y-63625209D01*
X87177215Y-63766156D01*
X87231957Y-63934639D01*
X87231958Y-63934642D01*
X87287273Y-64043202D01*
X87312387Y-64092490D01*
X87416518Y-64235814D01*
X87541787Y-64361083D01*
X87685111Y-64465214D01*
X87842959Y-64545642D01*
X87870689Y-64554652D01*
X87928364Y-64594088D01*
X87955563Y-64658446D01*
X87943650Y-64727292D01*
X87896407Y-64778769D01*
X87888668Y-64783067D01*
X87804084Y-64826165D01*
X87764928Y-64854614D01*
X87628923Y-64953428D01*
X87628921Y-64953430D01*
X87628920Y-64953430D01*
X87475831Y-65106519D01*
X87475831Y-65106520D01*
X87475829Y-65106522D01*
X87421175Y-65181745D01*
X87348568Y-65281680D01*
X87250274Y-65474590D01*
X87250273Y-65474593D01*
X87183371Y-65680501D01*
X87159395Y-65831881D01*
X87149501Y-65894346D01*
X87149501Y-66110854D01*
X87156375Y-66154256D01*
X87183371Y-66324698D01*
X87250273Y-66530606D01*
X87250274Y-66530609D01*
X87305567Y-66639126D01*
X87348568Y-66723519D01*
X87475829Y-66898678D01*
X87475831Y-66898680D01*
X87581415Y-67004264D01*
X87614900Y-67065587D01*
X87609916Y-67135279D01*
X87568044Y-67191212D01*
X87502580Y-67215629D01*
X87437439Y-67202430D01*
X87413974Y-67190473D01*
X87226247Y-67129476D01*
X87031298Y-67098600D01*
X86459601Y-67098600D01*
X86459601Y-67852600D01*
X86205601Y-67852600D01*
X86205601Y-67098600D01*
X85633904Y-67098600D01*
X85438954Y-67129476D01*
X85251227Y-67190473D01*
X85075358Y-67280085D01*
X84915681Y-67396096D01*
X84915676Y-67396100D01*
X84776101Y-67535675D01*
X84776097Y-67535680D01*
X84660084Y-67695359D01*
X84622585Y-67768955D01*
X84574611Y-67819750D01*
X84506790Y-67836545D01*
X84440655Y-67814007D01*
X84397204Y-67759292D01*
X84388101Y-67712659D01*
X84388101Y-64673753D01*
X85532101Y-64673753D01*
X85532101Y-64831446D01*
X85562862Y-64986089D01*
X85562865Y-64986101D01*
X85623203Y-65131772D01*
X85623210Y-65131785D01*
X85710811Y-65262888D01*
X85710814Y-65262892D01*
X85822308Y-65374386D01*
X85822312Y-65374389D01*
X85953415Y-65461990D01*
X85953428Y-65461997D01*
X86047350Y-65500900D01*
X86099104Y-65522337D01*
X86190903Y-65540597D01*
X86253754Y-65553099D01*
X86253757Y-65553100D01*
X86253759Y-65553100D01*
X86411445Y-65553100D01*
X86411446Y-65553099D01*
X86566098Y-65522337D01*
X86711780Y-65461994D01*
X86842890Y-65374389D01*
X86954390Y-65262889D01*
X87041995Y-65131779D01*
X87102338Y-64986097D01*
X87133101Y-64831442D01*
X87133101Y-64673758D01*
X87133101Y-64673755D01*
X87133100Y-64673753D01*
X87124019Y-64628100D01*
X87102338Y-64519103D01*
X87069375Y-64439523D01*
X87041998Y-64373427D01*
X87041991Y-64373414D01*
X86954390Y-64242311D01*
X86954387Y-64242307D01*
X86842893Y-64130813D01*
X86842889Y-64130810D01*
X86711786Y-64043209D01*
X86711773Y-64043202D01*
X86566102Y-63982864D01*
X86566090Y-63982861D01*
X86411446Y-63952100D01*
X86411443Y-63952100D01*
X86253759Y-63952100D01*
X86253756Y-63952100D01*
X86099111Y-63982861D01*
X86099099Y-63982864D01*
X85953428Y-64043202D01*
X85953415Y-64043209D01*
X85822312Y-64130810D01*
X85822308Y-64130813D01*
X85710814Y-64242307D01*
X85710811Y-64242311D01*
X85623210Y-64373414D01*
X85623203Y-64373427D01*
X85562865Y-64519098D01*
X85562862Y-64519110D01*
X85532101Y-64673753D01*
X84388101Y-64673753D01*
X84388101Y-60173753D01*
X85532101Y-60173753D01*
X85532101Y-60331446D01*
X85562862Y-60486089D01*
X85562865Y-60486101D01*
X85623203Y-60631772D01*
X85623210Y-60631785D01*
X85710811Y-60762888D01*
X85710814Y-60762892D01*
X85822308Y-60874386D01*
X85822312Y-60874389D01*
X85953415Y-60961990D01*
X85953428Y-60961997D01*
X86084261Y-61016189D01*
X86099104Y-61022337D01*
X86253754Y-61053099D01*
X86253757Y-61053100D01*
X86253759Y-61053100D01*
X86411445Y-61053100D01*
X86411446Y-61053099D01*
X86566098Y-61022337D01*
X86711780Y-60961994D01*
X86842890Y-60874389D01*
X86954390Y-60762889D01*
X87041995Y-60631779D01*
X87102338Y-60486097D01*
X87133101Y-60331442D01*
X87133101Y-60173758D01*
X87133101Y-60173755D01*
X87133100Y-60173753D01*
X87125869Y-60137399D01*
X87102338Y-60019103D01*
X87074792Y-59952600D01*
X87041998Y-59873427D01*
X87041991Y-59873414D01*
X86954390Y-59742311D01*
X86954387Y-59742307D01*
X86842893Y-59630813D01*
X86842889Y-59630810D01*
X86711786Y-59543209D01*
X86711773Y-59543202D01*
X86566102Y-59482864D01*
X86566090Y-59482861D01*
X86411446Y-59452100D01*
X86411443Y-59452100D01*
X86253759Y-59452100D01*
X86253756Y-59452100D01*
X86099111Y-59482861D01*
X86099099Y-59482864D01*
X85953428Y-59543202D01*
X85953415Y-59543209D01*
X85822312Y-59630810D01*
X85822308Y-59630813D01*
X85710814Y-59742307D01*
X85710811Y-59742311D01*
X85623210Y-59873414D01*
X85623203Y-59873427D01*
X85562865Y-60019098D01*
X85562862Y-60019110D01*
X85532101Y-60173753D01*
X84388101Y-60173753D01*
X84388101Y-57292540D01*
X84407786Y-57225501D01*
X84460590Y-57179746D01*
X84529748Y-57169802D01*
X84593304Y-57198827D01*
X84622586Y-57236245D01*
X84660086Y-57309842D01*
X84776097Y-57469519D01*
X84776101Y-57469524D01*
X84915676Y-57609099D01*
X84915681Y-57609103D01*
X85075358Y-57725114D01*
X85251227Y-57814726D01*
X85438954Y-57875723D01*
X85633904Y-57906600D01*
X86205601Y-57906600D01*
X86205601Y-57152600D01*
X86459601Y-57152600D01*
X86459601Y-57906600D01*
X87031298Y-57906600D01*
X87226247Y-57875723D01*
X87413974Y-57814726D01*
X87589843Y-57725114D01*
X87749520Y-57609103D01*
X87749525Y-57609099D01*
X87889100Y-57469524D01*
X87889104Y-57469519D01*
X88005115Y-57309842D01*
X88094727Y-57133973D01*
X88155724Y-56946246D01*
X88182118Y-56779600D01*
X87566209Y-56779600D01*
X87582601Y-56718426D01*
X87582601Y-56586774D01*
X87566209Y-56525600D01*
X88182118Y-56525600D01*
X88155724Y-56358953D01*
X88094727Y-56171226D01*
X88005115Y-55995357D01*
X87889104Y-55835680D01*
X87889100Y-55835675D01*
X87749525Y-55696100D01*
X87749520Y-55696096D01*
X87589843Y-55580085D01*
X87413974Y-55490473D01*
X87226247Y-55429476D01*
X87031298Y-55398600D01*
X86459601Y-55398600D01*
X86459601Y-56152600D01*
X86205601Y-56152600D01*
X86205601Y-55398600D01*
X85633904Y-55398600D01*
X85438954Y-55429476D01*
X85251227Y-55490473D01*
X85075358Y-55580085D01*
X84915681Y-55696096D01*
X84915676Y-55696100D01*
X84776101Y-55835675D01*
X84776097Y-55835680D01*
X84660084Y-55995359D01*
X84622585Y-56068955D01*
X84574611Y-56119750D01*
X84506790Y-56136545D01*
X84440655Y-56114007D01*
X84397204Y-56059292D01*
X84388101Y-56012659D01*
X84388101Y-54365100D01*
X84407786Y-54298061D01*
X84460590Y-54252306D01*
X84512101Y-54241100D01*
X92879081Y-54241100D01*
X92946120Y-54260785D01*
G37*
G04 #@! TD.AperFunction*
G04 #@! TA.AperFunction,Conductor*
G36*
X104260552Y-62193047D02*
G01*
X104299688Y-62209258D01*
X104299692Y-62209258D01*
X104299693Y-62209259D01*
X104444680Y-62238100D01*
X104444683Y-62238100D01*
X106260683Y-62238100D01*
X106260684Y-62238100D01*
X106408518Y-62238100D01*
X113241101Y-62238100D01*
X113308140Y-62257785D01*
X113353895Y-62310589D01*
X113365101Y-62362100D01*
X113365101Y-63151100D01*
X113345416Y-63218139D01*
X113292612Y-63263894D01*
X113241101Y-63275100D01*
X111239677Y-63275100D01*
X111210843Y-63280834D01*
X111210844Y-63280835D01*
X111094693Y-63303939D01*
X111094687Y-63303941D01*
X111032096Y-63329868D01*
X110958109Y-63360514D01*
X110958100Y-63360519D01*
X110913839Y-63390094D01*
X110835183Y-63442649D01*
X110835180Y-63442652D01*
X110282650Y-63995181D01*
X110282646Y-63995185D01*
X110242253Y-64055642D01*
X110242252Y-64055644D01*
X110200520Y-64118099D01*
X110200513Y-64118111D01*
X110143944Y-64254682D01*
X110143941Y-64254692D01*
X110115101Y-64399679D01*
X110115101Y-64945152D01*
X110095416Y-65012191D01*
X110042612Y-65057946D01*
X109991106Y-65069152D01*
X109969234Y-65069152D01*
X109969222Y-65069153D01*
X109920850Y-65074353D01*
X109894347Y-65074353D01*
X109845973Y-65069152D01*
X109845964Y-65069152D01*
X109319229Y-65069152D01*
X109319223Y-65069153D01*
X109270854Y-65074353D01*
X109244349Y-65074353D01*
X109195975Y-65069152D01*
X109195966Y-65069152D01*
X108669231Y-65069152D01*
X108669225Y-65069153D01*
X108609618Y-65075560D01*
X108474773Y-65125854D01*
X108474766Y-65125858D01*
X108356913Y-65214084D01*
X108291449Y-65238502D01*
X108223176Y-65223651D01*
X108208291Y-65214084D01*
X108090437Y-65125858D01*
X108090430Y-65125854D01*
X107955588Y-65075562D01*
X107955587Y-65075561D01*
X107955585Y-65075561D01*
X107895975Y-65069152D01*
X107895965Y-65069152D01*
X107369231Y-65069152D01*
X107369225Y-65069153D01*
X107320853Y-65074353D01*
X107294348Y-65074353D01*
X107245974Y-65069152D01*
X107245965Y-65069152D01*
X106719230Y-65069152D01*
X106719224Y-65069153D01*
X106670853Y-65074353D01*
X106644349Y-65074353D01*
X106595975Y-65069152D01*
X106595966Y-65069152D01*
X106069231Y-65069152D01*
X106069225Y-65069153D01*
X106020853Y-65074353D01*
X105994348Y-65074353D01*
X105945974Y-65069152D01*
X105945965Y-65069152D01*
X105419230Y-65069152D01*
X105419224Y-65069153D01*
X105359617Y-65075560D01*
X105224772Y-65125854D01*
X105224765Y-65125858D01*
X105109556Y-65212104D01*
X105109553Y-65212107D01*
X105023307Y-65327316D01*
X105023303Y-65327323D01*
X104973009Y-65462169D01*
X104966602Y-65521768D01*
X104966601Y-65521787D01*
X104966601Y-66007100D01*
X104946916Y-66074139D01*
X104894112Y-66119894D01*
X104842601Y-66131100D01*
X104721210Y-66131100D01*
X104690555Y-66137615D01*
X104546334Y-66168270D01*
X104546329Y-66168272D01*
X104383009Y-66240987D01*
X104238369Y-66346075D01*
X104118741Y-66478936D01*
X104029351Y-66633764D01*
X104026705Y-66639708D01*
X104024197Y-66638591D01*
X103991583Y-66686275D01*
X103927221Y-66713465D01*
X103858376Y-66701543D01*
X103806906Y-66654293D01*
X103789101Y-66590272D01*
X103789101Y-65913134D01*
X103808786Y-65846095D01*
X103825420Y-65825453D01*
X103879873Y-65771000D01*
X103937882Y-65712991D01*
X104026150Y-65569887D01*
X104079037Y-65410285D01*
X104089101Y-65311774D01*
X104089101Y-64778426D01*
X104079037Y-64679915D01*
X104026150Y-64520313D01*
X104026146Y-64520307D01*
X104026145Y-64520304D01*
X103937884Y-64377212D01*
X103937881Y-64377208D01*
X103905954Y-64345281D01*
X103872469Y-64283958D01*
X103877453Y-64214266D01*
X103905954Y-64169919D01*
X103921091Y-64154782D01*
X103937882Y-64137991D01*
X104026150Y-63994887D01*
X104079037Y-63835285D01*
X104089101Y-63736774D01*
X104089101Y-63203426D01*
X104079037Y-63104915D01*
X104026150Y-62945313D01*
X104026146Y-62945307D01*
X104026145Y-62945304D01*
X103954985Y-62829937D01*
X103936544Y-62762545D01*
X103954407Y-62700690D01*
X104032079Y-62572206D01*
X104082687Y-62409796D01*
X104089101Y-62339216D01*
X104089101Y-62307609D01*
X104108786Y-62240570D01*
X104161590Y-62194815D01*
X104230748Y-62184871D01*
X104260552Y-62193047D01*
G37*
G04 #@! TD.AperFunction*
G04 #@! TA.AperFunction,Conductor*
G36*
X125302365Y-63612080D02*
G01*
X125317842Y-63625209D01*
X125385321Y-63692688D01*
X125418806Y-63754011D01*
X125421111Y-63768927D01*
X125436727Y-63937449D01*
X125436727Y-63937451D01*
X125436728Y-63937454D01*
X125453153Y-63995181D01*
X125493028Y-64135330D01*
X125493032Y-64135340D01*
X125583961Y-64317949D01*
X125584731Y-64319496D01*
X125595835Y-64334200D01*
X125708713Y-64483676D01*
X125860747Y-64622272D01*
X125860752Y-64622276D01*
X126035663Y-64730576D01*
X126035664Y-64730576D01*
X126035667Y-64730578D01*
X126183374Y-64787800D01*
X126238774Y-64830372D01*
X126262365Y-64896139D01*
X126246654Y-64964219D01*
X126196630Y-65012998D01*
X126170673Y-65023201D01*
X126086109Y-65045859D01*
X126086103Y-65045861D01*
X125879868Y-65142031D01*
X125879866Y-65142032D01*
X125693459Y-65272554D01*
X125532555Y-65433458D01*
X125402033Y-65619865D01*
X125402032Y-65619867D01*
X125374983Y-65677875D01*
X125328810Y-65730314D01*
X125261617Y-65749466D01*
X125194736Y-65729250D01*
X125150219Y-65677875D01*
X125135410Y-65646117D01*
X125123169Y-65619866D01*
X124992648Y-65433461D01*
X124992646Y-65433458D01*
X124831742Y-65272554D01*
X124645335Y-65142032D01*
X124645333Y-65142031D01*
X124439098Y-65045861D01*
X124439089Y-65045858D01*
X124354529Y-65023201D01*
X124294868Y-64986836D01*
X124264339Y-64923989D01*
X124272634Y-64854614D01*
X124317119Y-64800736D01*
X124341823Y-64787801D01*
X124489535Y-64730578D01*
X124664452Y-64622274D01*
X124761797Y-64533533D01*
X124816488Y-64483676D01*
X124816490Y-64483674D01*
X124940471Y-64319496D01*
X125032173Y-64135332D01*
X125088474Y-63937454D01*
X125107457Y-63732600D01*
X125106691Y-63724337D01*
X125120102Y-63655768D01*
X125168456Y-63605333D01*
X125236401Y-63589047D01*
X125302365Y-63612080D01*
G37*
G04 #@! TD.AperFunction*
G04 #@! TA.AperFunction,Conductor*
G36*
X127433988Y-64511114D02*
G01*
X127487928Y-64555523D01*
X127509296Y-64622046D01*
X127505909Y-64654117D01*
X127469671Y-64805058D01*
X127450190Y-65052601D01*
X127452457Y-65081411D01*
X127438092Y-65149788D01*
X127389040Y-65199544D01*
X127320874Y-65214882D01*
X127257717Y-65192714D01*
X127242063Y-65181753D01*
X127185335Y-65142032D01*
X127185333Y-65142031D01*
X126979098Y-65045861D01*
X126979089Y-65045858D01*
X126894529Y-65023201D01*
X126834868Y-64986836D01*
X126804339Y-64923989D01*
X126812634Y-64854614D01*
X126857119Y-64800736D01*
X126881823Y-64787801D01*
X127029535Y-64730578D01*
X127204452Y-64622274D01*
X127301797Y-64533533D01*
X127364601Y-64502916D01*
X127433988Y-64511114D01*
G37*
G04 #@! TD.AperFunction*
G04 #@! TA.AperFunction,Conductor*
G36*
X130469276Y-60807607D02*
G01*
X130508302Y-60865562D01*
X130514101Y-60903039D01*
X130514101Y-64022060D01*
X130494416Y-64089099D01*
X130441612Y-64134854D01*
X130372454Y-64144798D01*
X130308898Y-64115773D01*
X130295811Y-64102592D01*
X130217219Y-64010573D01*
X130151535Y-63933666D01*
X129987483Y-63793553D01*
X129962721Y-63772404D01*
X129962716Y-63772400D01*
X129751000Y-63642660D01*
X129750997Y-63642658D01*
X129521593Y-63547637D01*
X129280141Y-63489670D01*
X129280142Y-63489670D01*
X129032601Y-63470189D01*
X128785060Y-63489670D01*
X128543608Y-63547637D01*
X128543607Y-63547637D01*
X128314204Y-63642658D01*
X128314201Y-63642660D01*
X128102485Y-63772400D01*
X128102480Y-63772404D01*
X127913667Y-63933666D01*
X127847982Y-64010573D01*
X127789475Y-64048766D01*
X127719607Y-64049264D01*
X127660561Y-64011910D01*
X127631083Y-63948563D01*
X127630221Y-63918599D01*
X127634324Y-63874323D01*
X127647457Y-63732600D01*
X127628474Y-63527746D01*
X127572173Y-63329868D01*
X127480471Y-63145704D01*
X127356490Y-62981526D01*
X127356488Y-62981523D01*
X127204454Y-62842927D01*
X127204449Y-62842923D01*
X127029538Y-62734623D01*
X127029532Y-62734621D01*
X126837696Y-62660303D01*
X126635467Y-62622500D01*
X126635465Y-62622500D01*
X126489231Y-62622500D01*
X126422192Y-62602815D01*
X126401550Y-62586181D01*
X126329078Y-62513709D01*
X126295593Y-62452386D01*
X126300577Y-62382694D01*
X126342449Y-62326761D01*
X126407913Y-62302344D01*
X126428214Y-62302558D01*
X126429725Y-62302698D01*
X126429735Y-62302700D01*
X126429745Y-62302700D01*
X126635465Y-62302700D01*
X126635467Y-62302700D01*
X126837696Y-62264897D01*
X127029535Y-62190578D01*
X127204452Y-62082274D01*
X127313758Y-61982629D01*
X127356488Y-61943676D01*
X127356490Y-61943674D01*
X127480471Y-61779496D01*
X127572173Y-61595332D01*
X127628474Y-61397454D01*
X127647457Y-61192600D01*
X127630938Y-61014342D01*
X127644353Y-60945775D01*
X127692709Y-60895343D01*
X127760655Y-60879060D01*
X127826618Y-60902097D01*
X127848697Y-60922369D01*
X127947338Y-61037863D01*
X128078066Y-61149515D01*
X128130474Y-61194276D01*
X128130477Y-61194277D01*
X128335818Y-61320111D01*
X128395295Y-61344747D01*
X128558324Y-61412276D01*
X128792506Y-61468498D01*
X129032601Y-61487394D01*
X129272696Y-61468498D01*
X129506878Y-61412276D01*
X129729383Y-61320111D01*
X129934730Y-61194274D01*
X130117864Y-61037863D01*
X130274275Y-60854729D01*
X130284373Y-60838249D01*
X130336183Y-60791375D01*
X130405113Y-60779951D01*
X130469276Y-60807607D01*
G37*
G04 #@! TD.AperFunction*
G04 #@! TA.AperFunction,Conductor*
G36*
X109909615Y-60475739D02*
G01*
X109909619Y-60475741D01*
X109969229Y-60482150D01*
X110495974Y-60482149D01*
X110495976Y-60482148D01*
X110495989Y-60482148D01*
X110526038Y-60478917D01*
X110544347Y-60476949D01*
X110570853Y-60476949D01*
X110619227Y-60482150D01*
X111145972Y-60482149D01*
X111145974Y-60482148D01*
X111145988Y-60482148D01*
X111185637Y-60477885D01*
X111194345Y-60476949D01*
X111220855Y-60476949D01*
X111269229Y-60482150D01*
X111795974Y-60482149D01*
X111795976Y-60482148D01*
X111795989Y-60482148D01*
X111826038Y-60478917D01*
X111844347Y-60476949D01*
X111870853Y-60476949D01*
X111919227Y-60482150D01*
X112445972Y-60482149D01*
X112493797Y-60477008D01*
X112494346Y-60476949D01*
X112520854Y-60476949D01*
X112569228Y-60482150D01*
X113095973Y-60482149D01*
X113095975Y-60482148D01*
X113095989Y-60482148D01*
X113135638Y-60477885D01*
X113144346Y-60476949D01*
X113170853Y-60476949D01*
X113219227Y-60482150D01*
X113665472Y-60482149D01*
X113732511Y-60501833D01*
X113778266Y-60554637D01*
X113788210Y-60623796D01*
X113759185Y-60687352D01*
X113715908Y-60719428D01*
X113700296Y-60726379D01*
X113649860Y-60737100D01*
X109879987Y-60737100D01*
X109812948Y-60717415D01*
X109767193Y-60664611D01*
X109756666Y-60600146D01*
X109757430Y-60592864D01*
X109758403Y-60583608D01*
X109784983Y-60518994D01*
X109842278Y-60479005D01*
X109901759Y-60476277D01*
X109901906Y-60474911D01*
X109909615Y-60475739D01*
G37*
G04 #@! TD.AperFunction*
G04 #@! TA.AperFunction,Conductor*
G36*
X127448747Y-59687217D02*
G01*
X127496560Y-59738165D01*
X127509514Y-59803837D01*
X127508392Y-59818101D01*
X127498938Y-59938235D01*
X127497807Y-59952600D01*
X127516703Y-60192695D01*
X127516704Y-60192699D01*
X127543818Y-60305642D01*
X127540327Y-60375424D01*
X127499663Y-60432241D01*
X127434736Y-60458054D01*
X127366161Y-60444668D01*
X127339706Y-60426225D01*
X127204454Y-60302927D01*
X127204449Y-60302923D01*
X127029538Y-60194623D01*
X127029532Y-60194620D01*
X126881828Y-60137400D01*
X126826427Y-60094827D01*
X126802836Y-60029060D01*
X126818547Y-59960980D01*
X126868571Y-59912201D01*
X126894525Y-59901999D01*
X126947675Y-59887758D01*
X126979087Y-59879342D01*
X126979090Y-59879340D01*
X126979097Y-59879339D01*
X127185335Y-59783168D01*
X127314775Y-59692533D01*
X127380980Y-59670207D01*
X127448747Y-59687217D01*
G37*
G04 #@! TD.AperFunction*
G04 #@! TA.AperFunction,Conductor*
G36*
X103386872Y-54260785D02*
G01*
X103432627Y-54313589D01*
X103442571Y-54382747D01*
X103433390Y-54414906D01*
X103430223Y-54422128D01*
X103386537Y-54521721D01*
X103325493Y-54762775D01*
X103325491Y-54762787D01*
X103304958Y-55010594D01*
X103304958Y-55010605D01*
X103325491Y-55258412D01*
X103325493Y-55258424D01*
X103386537Y-55499481D01*
X103486427Y-55727206D01*
X103622434Y-55935382D01*
X103633547Y-55947454D01*
X103790857Y-56118338D01*
X103987092Y-56271074D01*
X103987094Y-56271075D01*
X104183851Y-56377555D01*
X104205791Y-56389428D01*
X104440987Y-56470171D01*
X104686266Y-56511100D01*
X104934936Y-56511100D01*
X105180215Y-56470171D01*
X105257782Y-56443541D01*
X105327577Y-56440391D01*
X105385724Y-56473142D01*
X106293550Y-57380968D01*
X106338440Y-57425858D01*
X106380955Y-57468373D01*
X106380957Y-57468374D01*
X106483717Y-57537036D01*
X106483719Y-57537037D01*
X106483728Y-57537043D01*
X106508303Y-57547222D01*
X106508304Y-57547223D01*
X106508305Y-57547223D01*
X106598272Y-57584489D01*
X106652675Y-57628330D01*
X106674740Y-57694625D01*
X106657460Y-57762324D01*
X106606323Y-57809934D01*
X106550819Y-57823050D01*
X106069231Y-57823050D01*
X106069225Y-57823051D01*
X106020855Y-57828251D01*
X105994350Y-57828251D01*
X105945976Y-57823050D01*
X105945970Y-57823050D01*
X105894832Y-57823050D01*
X105827793Y-57803365D01*
X105807151Y-57786731D01*
X105591612Y-57571191D01*
X105591611Y-57571190D01*
X105566826Y-57554630D01*
X105542375Y-57538292D01*
X105488834Y-57502517D01*
X105488827Y-57502513D01*
X105445058Y-57484384D01*
X105374636Y-57455214D01*
X105374628Y-57455212D01*
X105253408Y-57431100D01*
X105253404Y-57431100D01*
X103110601Y-57431100D01*
X103043562Y-57411415D01*
X102997807Y-57358611D01*
X102986601Y-57307100D01*
X102986601Y-57177940D01*
X103240601Y-57177940D01*
X103842601Y-57177940D01*
X103842601Y-57034120D01*
X103842600Y-57034103D01*
X103836467Y-56977072D01*
X103836466Y-56977067D01*
X103788333Y-56848018D01*
X103788331Y-56848015D01*
X103705789Y-56737754D01*
X103705786Y-56737751D01*
X103595525Y-56655209D01*
X103595522Y-56655207D01*
X103466473Y-56607074D01*
X103466468Y-56607073D01*
X103409437Y-56600940D01*
X103240601Y-56600940D01*
X103240601Y-57177940D01*
X102986601Y-57177940D01*
X102986601Y-56600940D01*
X102817764Y-56600940D01*
X102760733Y-56607073D01*
X102760728Y-56607074D01*
X102631679Y-56655207D01*
X102631676Y-56655209D01*
X102521415Y-56737751D01*
X102521412Y-56737754D01*
X102438870Y-56848015D01*
X102438869Y-56848017D01*
X102413361Y-56916406D01*
X102371489Y-56972339D01*
X102306024Y-56996755D01*
X102237752Y-56981902D01*
X102188347Y-56932496D01*
X102178794Y-56909960D01*
X102177687Y-56906408D01*
X102177687Y-56906404D01*
X102127079Y-56743994D01*
X102039073Y-56598415D01*
X102039071Y-56598413D01*
X102039070Y-56598411D01*
X101918789Y-56478130D01*
X101905623Y-56470171D01*
X101773207Y-56390122D01*
X101610797Y-56339514D01*
X101610791Y-56339513D01*
X101610787Y-56339512D01*
X101609903Y-56339336D01*
X101609431Y-56339089D01*
X101604533Y-56337563D01*
X101604810Y-56336671D01*
X101547993Y-56306948D01*
X101513422Y-56246231D01*
X101510100Y-56217720D01*
X101510100Y-55704795D01*
X101510099Y-55704794D01*
X101502645Y-55667317D01*
X101485986Y-55583565D01*
X101445047Y-55484730D01*
X101445047Y-55484729D01*
X101438686Y-55469372D01*
X101438679Y-55469359D01*
X101370012Y-55366592D01*
X101337941Y-55334521D01*
X101282608Y-55279188D01*
X101088088Y-55084668D01*
X100780612Y-54777191D01*
X100780611Y-54777190D01*
X100769754Y-54769936D01*
X100759043Y-54762779D01*
X100720172Y-54736806D01*
X100677840Y-54708520D01*
X100677827Y-54708513D01*
X100628288Y-54687994D01*
X100563636Y-54661214D01*
X100563628Y-54661212D01*
X100442408Y-54637100D01*
X100442404Y-54637100D01*
X96165249Y-54637100D01*
X96098210Y-54617415D01*
X96059132Y-54577250D01*
X96038075Y-54542418D01*
X96038074Y-54542417D01*
X96038073Y-54542415D01*
X95948439Y-54452781D01*
X95914955Y-54391457D01*
X95919939Y-54321766D01*
X95961811Y-54265832D01*
X96027276Y-54241416D01*
X96036121Y-54241100D01*
X103319833Y-54241100D01*
X103386872Y-54260785D01*
G37*
G04 #@! TD.AperFunction*
G04 #@! TA.AperFunction,Conductor*
G36*
X117924541Y-55847784D02*
G01*
X117945183Y-55864418D01*
X118170781Y-56090016D01*
X118204266Y-56151339D01*
X118207100Y-56177697D01*
X118207100Y-56636080D01*
X118187415Y-56703119D01*
X118170781Y-56723761D01*
X118070281Y-56824261D01*
X118008958Y-56857746D01*
X117939266Y-56852762D01*
X117894919Y-56824261D01*
X117792788Y-56722130D01*
X117760655Y-56702705D01*
X117647206Y-56634122D01*
X117484796Y-56583514D01*
X117484794Y-56583513D01*
X117484792Y-56583513D01*
X117435378Y-56579023D01*
X117414216Y-56577100D01*
X117414213Y-56577100D01*
X117206697Y-56577100D01*
X117139658Y-56557415D01*
X117093903Y-56504611D01*
X117083959Y-56435453D01*
X117112984Y-56371897D01*
X117119016Y-56365419D01*
X117620016Y-55864418D01*
X117681339Y-55830933D01*
X117707697Y-55828099D01*
X117857502Y-55828099D01*
X117924541Y-55847784D01*
G37*
G04 #@! TD.AperFunction*
M02*
