M48
; DRILL file {KiCad 8.0.3} date 2024-07-26T08:12:41+0200
; FORMAT={-:-/ absolute / metric / decimal}
; #@! TF.CreationDate,2024-07-26T08:12:41+02:00
; #@! TF.GenerationSoftware,Kicad,Pcbnew,8.0.3
; #@! TF.FileFunction,Plated,1,2,PTH
FMAT,2
METRIC
; #@! TA.AperFunction,Plated,PTH,ViaDrill
T1C0.400
; #@! TA.AperFunction,Plated,PTH,ViaDrill
T2C0.500
; #@! TA.AperFunction,Plated,PTH,ViaDrill
T3C0.711
; #@! TA.AperFunction,Plated,PTH,ComponentDrill
T4C0.711
; #@! TA.AperFunction,Plated,PTH,ComponentDrill
T5C0.800
; #@! TA.AperFunction,Plated,PTH,ComponentDrill
T6C1.000
%
G90
G05
T1
X94.143Y-66.004
X104.519Y-59.71
X104.811Y-66.982
X107.422Y-60.599
X108.916Y-60.466
X111.669Y-56.408
X113.083Y-69.453
X114.082Y-61.488
X116.114Y-69.117
X122.006Y-57.369
T2
X85.133Y-55.053
X85.133Y-59.053
X85.133Y-63.053
X89.133Y-55.053
X90.133Y-57.053
X90.133Y-69.053
X90.183Y-63.454
X91.133Y-55.053
X91.133Y-59.053
X91.133Y-67.053
X94.133Y-69.053
X95.133Y-67.053
X96.133Y-65.053
X96.133Y-69.053
X97.133Y-59.053
X97.133Y-63.053
X98.133Y-57.053
X98.133Y-69.053
X103.133Y-55.053
X105.133Y-63.053
X106.983Y-64.853
X111.483Y-60.553
X112.283Y-68.653
X113.133Y-63.053
X115.183Y-64.353
X115.283Y-59.553
X117.583Y-61.353
X117.583Y-63.153
X117.583Y-64.753
X117.683Y-56.153
X118.083Y-59.553
X119.983Y-59.953
X120.083Y-64.853
X120.133Y-57.053
X120.133Y-69.053
X121.133Y-55.053
X122.133Y-69.053
X122.583Y-59.953
X123.133Y-55.053
X124.133Y-69.053
X125.133Y-55.053
X125.283Y-64.853
X126.133Y-57.053
X126.133Y-69.053
X126.983Y-64.953
X127.133Y-55.053
X127.183Y-60.053
X128.133Y-57.053
X129.133Y-55.053
X130.133Y-57.053
X130.133Y-69.053
X130.183Y-61.453
X130.183Y-63.553
T3
X109.891Y-55.011
T4
X123.993Y-61.193
X123.993Y-63.733
X126.533Y-61.193
X126.533Y-63.733
T5
X123.993Y-58.653
X123.993Y-66.273
X126.533Y-58.653
X126.533Y-66.273
T6
X88.65Y-59.003
X88.65Y-61.503
X88.65Y-63.503
X88.65Y-66.003
X93.127Y-57.877
X95.667Y-57.877
T6
X87.083Y-56.653G85X85.583Y-56.653
G05
X87.083Y-68.353G85X85.583Y-68.353
G05
M30
