G04 #@! TF.GenerationSoftware,KiCad,Pcbnew,8.0.4*
G04 #@! TF.CreationDate,2024-10-03T21:35:34+02:00*
G04 #@! TF.ProjectId,Midi Stick,4d696469-2053-4746-9963-6b2e6b696361,2.0*
G04 #@! TF.SameCoordinates,Original*
G04 #@! TF.FileFunction,Paste,Top*
G04 #@! TF.FilePolarity,Positive*
%FSLAX46Y46*%
G04 Gerber Fmt 4.6, Leading zero omitted, Abs format (unit mm)*
G04 Created by KiCad (PCBNEW 8.0.4) date 2024-10-03 21:35:34*
%MOMM*%
%LPD*%
G01*
G04 APERTURE LIST*
G04 Aperture macros list*
%AMRoundRect*
0 Rectangle with rounded corners*
0 $1 Rounding radius*
0 $2 $3 $4 $5 $6 $7 $8 $9 X,Y pos of 4 corners*
0 Add a 4 corners polygon primitive as box body*
4,1,4,$2,$3,$4,$5,$6,$7,$8,$9,$2,$3,0*
0 Add four circle primitives for the rounded corners*
1,1,$1+$1,$2,$3*
1,1,$1+$1,$4,$5*
1,1,$1+$1,$6,$7*
1,1,$1+$1,$8,$9*
0 Add four rect primitives between the rounded corners*
20,1,$1+$1,$2,$3,$4,$5,0*
20,1,$1+$1,$4,$5,$6,$7,0*
20,1,$1+$1,$6,$7,$8,$9,0*
20,1,$1+$1,$8,$9,$2,$3,0*%
%AMFreePoly0*
4,1,18,-0.437500,0.050000,-0.433694,0.069134,-0.422855,0.085355,-0.406634,0.096194,-0.387500,0.100000,0.387500,0.100000,0.437500,0.050000,0.437500,-0.050000,0.433694,-0.069134,0.422855,-0.085355,0.406634,-0.096194,0.387500,-0.100000,-0.387500,-0.100000,-0.406634,-0.096194,-0.422855,-0.085355,-0.433694,-0.069134,-0.437500,-0.050000,-0.437500,0.050000,-0.437500,0.050000,$1*%
%AMFreePoly1*
4,1,18,-0.437500,0.050000,-0.433694,0.069134,-0.422855,0.085355,-0.406634,0.096194,-0.387500,0.100000,0.387500,0.100000,0.406634,0.096194,0.422855,0.085355,0.433694,0.069134,0.437500,0.050000,0.437500,-0.050000,0.387500,-0.100000,-0.387500,-0.100000,-0.406634,-0.096194,-0.422855,-0.085355,-0.433694,-0.069134,-0.437500,-0.050000,-0.437500,0.050000,-0.437500,0.050000,$1*%
%AMFreePoly2*
4,1,18,-0.100000,0.387500,-0.050000,0.437500,0.050000,0.437500,0.069134,0.433694,0.085355,0.422855,0.096194,0.406634,0.100000,0.387500,0.100000,-0.387500,0.096194,-0.406634,0.085355,-0.422855,0.069134,-0.433694,0.050000,-0.437500,-0.050000,-0.437500,-0.069134,-0.433694,-0.085355,-0.422855,-0.096194,-0.406634,-0.100000,-0.387500,-0.100000,0.387500,-0.100000,0.387500,$1*%
%AMFreePoly3*
4,1,18,-0.100000,0.387500,-0.096194,0.406634,-0.085355,0.422855,-0.069134,0.433694,-0.050000,0.437500,0.050000,0.437500,0.100000,0.387500,0.100000,-0.387500,0.096194,-0.406634,0.085355,-0.422855,0.069134,-0.433694,0.050000,-0.437500,-0.050000,-0.437500,-0.069134,-0.433694,-0.085355,-0.422855,-0.096194,-0.406634,-0.100000,-0.387500,-0.100000,0.387500,-0.100000,0.387500,$1*%
%AMFreePoly4*
4,1,18,-0.437500,0.050000,-0.433694,0.069134,-0.422855,0.085355,-0.406634,0.096194,-0.387500,0.100000,0.387500,0.100000,0.406634,0.096194,0.422855,0.085355,0.433694,0.069134,0.437500,0.050000,0.437500,-0.050000,0.433694,-0.069134,0.422855,-0.085355,0.406634,-0.096194,0.387500,-0.100000,-0.387500,-0.100000,-0.437500,-0.050000,-0.437500,0.050000,-0.437500,0.050000,$1*%
%AMFreePoly5*
4,1,18,-0.437500,0.050000,-0.387500,0.100000,0.387500,0.100000,0.406634,0.096194,0.422855,0.085355,0.433694,0.069134,0.437500,0.050000,0.437500,-0.050000,0.433694,-0.069134,0.422855,-0.085355,0.406634,-0.096194,0.387500,-0.100000,-0.387500,-0.100000,-0.406634,-0.096194,-0.422855,-0.085355,-0.433694,-0.069134,-0.437500,-0.050000,-0.437500,0.050000,-0.437500,0.050000,$1*%
%AMFreePoly6*
4,1,18,-0.100000,0.387500,-0.096194,0.406634,-0.085355,0.422855,-0.069134,0.433694,-0.050000,0.437500,0.050000,0.437500,0.069134,0.433694,0.085355,0.422855,0.096194,0.406634,0.100000,0.387500,0.100000,-0.387500,0.050000,-0.437500,-0.050000,-0.437500,-0.069134,-0.433694,-0.085355,-0.422855,-0.096194,-0.406634,-0.100000,-0.387500,-0.100000,0.387500,-0.100000,0.387500,$1*%
%AMFreePoly7*
4,1,18,-0.100000,0.387500,-0.096194,0.406634,-0.085355,0.422855,-0.069134,0.433694,-0.050000,0.437500,0.050000,0.437500,0.069134,0.433694,0.085355,0.422855,0.096194,0.406634,0.100000,0.387500,0.100000,-0.387500,0.096194,-0.406634,0.085355,-0.422855,0.069134,-0.433694,0.050000,-0.437500,-0.050000,-0.437500,-0.100000,-0.387500,-0.100000,0.387500,-0.100000,0.387500,$1*%
G04 Aperture macros list end*
%ADD10RoundRect,0.140000X-0.140000X-0.170000X0.140000X-0.170000X0.140000X0.170000X-0.140000X0.170000X0*%
%ADD11RoundRect,0.140000X0.170000X-0.140000X0.170000X0.140000X-0.170000X0.140000X-0.170000X-0.140000X0*%
%ADD12R,1.050000X0.600000*%
%ADD13RoundRect,0.250000X0.250000X0.475000X-0.250000X0.475000X-0.250000X-0.475000X0.250000X-0.475000X0*%
%ADD14RoundRect,0.135000X-0.185000X0.135000X-0.185000X-0.135000X0.185000X-0.135000X0.185000X0.135000X0*%
%ADD15RoundRect,0.135000X-0.135000X-0.185000X0.135000X-0.185000X0.135000X0.185000X-0.135000X0.185000X0*%
%ADD16RoundRect,0.135000X0.135000X0.185000X-0.135000X0.185000X-0.135000X-0.185000X0.135000X-0.185000X0*%
%ADD17RoundRect,0.135000X0.185000X-0.135000X0.185000X0.135000X-0.185000X0.135000X-0.185000X-0.135000X0*%
%ADD18RoundRect,0.250000X0.475000X-0.250000X0.475000X0.250000X-0.475000X0.250000X-0.475000X-0.250000X0*%
%ADD19RoundRect,0.150000X0.650000X0.150000X-0.650000X0.150000X-0.650000X-0.150000X0.650000X-0.150000X0*%
%ADD20R,1.200000X1.400000*%
%ADD21RoundRect,0.140000X0.140000X0.170000X-0.140000X0.170000X-0.140000X-0.170000X0.140000X-0.170000X0*%
%ADD22RoundRect,0.218750X0.256250X-0.218750X0.256250X0.218750X-0.256250X0.218750X-0.256250X-0.218750X0*%
%ADD23RoundRect,0.250000X0.300000X0.300000X-0.300000X0.300000X-0.300000X-0.300000X0.300000X-0.300000X0*%
%ADD24RoundRect,0.140000X-0.170000X0.140000X-0.170000X-0.140000X0.170000X-0.140000X0.170000X0.140000X0*%
%ADD25RoundRect,0.150000X-0.587500X-0.150000X0.587500X-0.150000X0.587500X0.150000X-0.587500X0.150000X0*%
%ADD26RoundRect,0.250000X0.350000X-0.350000X0.350000X0.350000X-0.350000X0.350000X-0.350000X-0.350000X0*%
%ADD27FreePoly0,90.000000*%
%ADD28RoundRect,0.050000X0.050000X-0.387500X0.050000X0.387500X-0.050000X0.387500X-0.050000X-0.387500X0*%
%ADD29FreePoly1,90.000000*%
%ADD30FreePoly2,90.000000*%
%ADD31RoundRect,0.050000X0.387500X-0.050000X0.387500X0.050000X-0.387500X0.050000X-0.387500X-0.050000X0*%
%ADD32FreePoly3,90.000000*%
%ADD33FreePoly4,90.000000*%
%ADD34FreePoly5,90.000000*%
%ADD35FreePoly6,90.000000*%
%ADD36FreePoly7,90.000000*%
%ADD37R,1.050000X0.650000*%
%ADD38C,1.700000*%
%ADD39O,1.700000X1.700000*%
%ADD40R,0.700000X1.700000*%
%ADD41RoundRect,0.150000X-0.425000X0.150000X-0.425000X-0.150000X0.425000X-0.150000X0.425000X0.150000X0*%
%ADD42RoundRect,0.075000X-0.500000X0.075000X-0.500000X-0.075000X0.500000X-0.075000X0.500000X0.075000X0*%
%ADD43O,2.100000X1.000000*%
%ADD44O,1.800000X1.000000*%
%ADD45RoundRect,0.375000X-0.625000X-0.375000X0.625000X-0.375000X0.625000X0.375000X-0.625000X0.375000X0*%
%ADD46RoundRect,0.500000X-0.500000X-1.400000X0.500000X-1.400000X0.500000X1.400000X-0.500000X1.400000X0*%
G04 APERTURE END LIST*
D10*
X124502600Y-71152600D03*
X125462600Y-71152600D03*
D11*
X96902600Y-58602600D03*
X96902600Y-57642600D03*
D12*
X84452600Y-62742600D03*
X84452600Y-64642600D03*
X86652600Y-63692600D03*
D10*
X107002600Y-67477600D03*
X107962600Y-67477600D03*
D13*
X114532600Y-70577600D03*
X112632600Y-70577600D03*
D14*
X106107600Y-69157600D03*
X106107600Y-70177600D03*
D15*
X97267600Y-61052600D03*
X98287600Y-61052600D03*
D16*
X121992600Y-71152600D03*
X120972600Y-71152600D03*
D17*
X94502600Y-58632600D03*
X94502600Y-57612600D03*
D15*
X117322600Y-66252600D03*
X118342600Y-66252600D03*
D18*
X84007600Y-71852600D03*
X84007600Y-69952600D03*
D10*
X113052600Y-66202600D03*
X114012600Y-66202600D03*
D19*
X102882600Y-72052600D03*
X102882600Y-70782600D03*
X102882600Y-69512600D03*
X102882600Y-68242600D03*
X95682600Y-68242600D03*
X95682600Y-69512600D03*
X95682600Y-70782600D03*
X95682600Y-72052600D03*
D17*
X89132600Y-59870100D03*
X89132600Y-58850100D03*
D20*
X118986241Y-60902600D03*
X118986241Y-58702600D03*
X117286241Y-58702600D03*
X117286241Y-60902600D03*
D14*
X119157600Y-64267600D03*
X119157600Y-65287600D03*
D10*
X110627600Y-63627600D03*
X111587600Y-63627600D03*
D21*
X114012600Y-68702600D03*
X113052600Y-68702600D03*
D22*
X92942600Y-57202600D03*
X92942600Y-55627600D03*
D21*
X114012600Y-67452600D03*
X113052600Y-67452600D03*
D23*
X81457600Y-71252600D03*
X78657600Y-71252600D03*
D22*
X91037600Y-57202600D03*
X91037600Y-55627600D03*
D10*
X113052600Y-63752600D03*
X114012600Y-63752600D03*
D24*
X95702600Y-57617600D03*
X95702600Y-58577600D03*
D10*
X108727600Y-57927600D03*
X109687600Y-57927600D03*
D25*
X117020100Y-67877600D03*
X117020100Y-69777600D03*
X118895100Y-68827600D03*
D22*
X89132600Y-57202600D03*
X89132600Y-55627600D03*
D26*
X103382600Y-62952600D03*
X104782600Y-62952600D03*
X103382600Y-61552600D03*
X104782600Y-61552600D03*
D27*
X101282600Y-65690100D03*
D28*
X101682600Y-65690100D03*
X102082600Y-65690100D03*
X102482600Y-65690100D03*
X102882600Y-65690100D03*
X103282600Y-65690100D03*
X103682600Y-65690100D03*
X104082600Y-65690100D03*
X104482600Y-65690100D03*
X104882600Y-65690100D03*
X105282600Y-65690100D03*
X105682600Y-65690100D03*
X106082600Y-65690100D03*
X106482600Y-65690100D03*
D29*
X106882600Y-65690100D03*
D30*
X107520100Y-65052600D03*
D31*
X107520100Y-64652600D03*
X107520100Y-64252600D03*
X107520100Y-63852600D03*
X107520100Y-63452600D03*
X107520100Y-63052600D03*
X107520100Y-62652600D03*
X107520100Y-62252600D03*
X107520100Y-61852600D03*
X107520100Y-61452600D03*
X107520100Y-61052600D03*
X107520100Y-60652600D03*
X107520100Y-60252600D03*
X107520100Y-59852600D03*
D32*
X107520100Y-59452600D03*
D33*
X106882600Y-58815100D03*
D28*
X106482600Y-58815100D03*
X106082600Y-58815100D03*
X105682600Y-58815100D03*
X105282600Y-58815100D03*
X104882600Y-58815100D03*
X104482600Y-58815100D03*
X104082600Y-58815100D03*
X103682600Y-58815100D03*
X103282600Y-58815100D03*
X102882600Y-58815100D03*
X102482600Y-58815100D03*
X102082600Y-58815100D03*
X101682600Y-58815100D03*
D34*
X101282600Y-58815100D03*
D35*
X100645100Y-59452600D03*
D31*
X100645100Y-59852600D03*
X100645100Y-60252600D03*
X100645100Y-60652600D03*
X100645100Y-61052600D03*
X100645100Y-61452600D03*
X100645100Y-61852600D03*
X100645100Y-62252600D03*
X100645100Y-62652600D03*
X100645100Y-63052600D03*
X100645100Y-63452600D03*
X100645100Y-63852600D03*
X100645100Y-64252600D03*
X100645100Y-64652600D03*
D36*
X100645100Y-65052600D03*
D37*
X78007600Y-55277600D03*
X82157600Y-55277600D03*
X78007600Y-57427600D03*
X82132600Y-57427600D03*
D10*
X113052600Y-64977600D03*
X114012600Y-64977600D03*
D16*
X84917600Y-57102600D03*
X83897600Y-57102600D03*
D21*
X110362600Y-64952600D03*
X109402600Y-64952600D03*
D17*
X92982600Y-59870100D03*
X92982600Y-58850100D03*
D38*
X120042600Y-55502600D03*
D39*
X117502600Y-55502600D03*
X114962600Y-55502600D03*
X112422600Y-55502600D03*
X109882600Y-55502600D03*
X107342600Y-55502600D03*
X104802600Y-55502600D03*
D24*
X114857600Y-60702600D03*
X114857600Y-61662600D03*
D40*
X101482600Y-57052600D03*
X100082600Y-57052600D03*
D13*
X111107600Y-69277600D03*
X109207600Y-69277600D03*
D21*
X110412600Y-66202600D03*
X109452600Y-66202600D03*
D11*
X98102600Y-58577600D03*
X98102600Y-57617600D03*
D15*
X84197600Y-58427600D03*
X85217600Y-58427600D03*
X112147600Y-61402600D03*
X113167600Y-61402600D03*
D11*
X114882600Y-58707600D03*
X114882600Y-57747600D03*
D16*
X106617600Y-71727600D03*
X105597600Y-71727600D03*
D41*
X82582600Y-60496714D03*
X82582600Y-61296714D03*
D42*
X82582600Y-62446714D03*
X82582600Y-63446714D03*
X82582600Y-63946714D03*
X82582600Y-64946714D03*
D41*
X82582600Y-66096714D03*
X82582600Y-66896714D03*
X82582600Y-66896714D03*
X82582600Y-66096714D03*
D42*
X82582600Y-65446714D03*
X82582600Y-64446714D03*
X82582600Y-62946714D03*
X82582600Y-61946714D03*
D41*
X82582600Y-61296714D03*
X82582600Y-60496714D03*
D43*
X82007600Y-59376714D03*
D44*
X77827600Y-59376714D03*
D43*
X82007600Y-68016714D03*
D44*
X77827600Y-68016714D03*
D21*
X110437600Y-67502600D03*
X109477600Y-67502600D03*
D15*
X97267600Y-62152600D03*
X98287600Y-62152600D03*
X78172600Y-69552600D03*
X79192600Y-69552600D03*
D14*
X105157600Y-69167600D03*
X105157600Y-70187600D03*
D21*
X94037600Y-62327600D03*
X93077600Y-62327600D03*
D45*
X86332600Y-66752600D03*
X86332600Y-69052600D03*
D46*
X92632600Y-69052600D03*
D45*
X86332600Y-71352600D03*
D17*
X91057600Y-59870100D03*
X91057600Y-58850100D03*
M02*
