M48
; DRILL file {KiCad 8.0.4} date 2024-10-03T21:35:56+0200
; FORMAT={-:-/ absolute / metric / decimal}
; #@! TF.CreationDate,2024-10-03T21:35:56+02:00
; #@! TF.GenerationSoftware,Kicad,Pcbnew,8.0.4
; #@! TF.FileFunction,Plated,1,2,PTH
FMAT,2
METRIC
; #@! TA.AperFunction,Plated,PTH,ViaDrill
T1C0.250
; #@! TA.AperFunction,Plated,PTH,ComponentDrill
T2C0.250
; #@! TA.AperFunction,Plated,PTH,ViaDrill
T3C0.300
; #@! TA.AperFunction,Plated,PTH,ComponentDrill
T4C0.600
; #@! TA.AperFunction,Plated,PTH,ViaDrill
T5C0.711
; #@! TA.AperFunction,Plated,PTH,ComponentDrill
T6C0.813
; #@! TA.AperFunction,Plated,PTH,ComponentDrill
T7C1.000
%
G90
G05
T1
X101.483Y-57.553
X101.933Y-61.453
X103.783Y-57.753
X104.283Y-64.402
X104.57Y-60.103
X106.232Y-61.853
X115.933Y-61.178
X122.408Y-55.528
T2
X102.708Y-60.878
X102.708Y-62.253
X102.708Y-63.628
X104.083Y-60.878
X104.083Y-62.253
X104.083Y-63.628
X105.458Y-60.878
X105.458Y-62.253
X105.458Y-63.628
T3
X76.958Y-56.203
X77.133Y-72.478
X77.258Y-63.803
X77.333Y-69.903
X77.533Y-61.253
X77.533Y-62.578
X78.408Y-66.228
X79.158Y-65.378
X79.283Y-56.178
X80.033Y-71.353
X80.183Y-67.903
X80.358Y-68.953
X80.708Y-60.103
X80.733Y-67.078
X81.433Y-69.178
X82.683Y-70.678
X83.533Y-67.203
X83.683Y-59.953
X83.683Y-61.303
X83.683Y-66.103
X84.583Y-68.803
X84.883Y-60.428
X85.133Y-63.693
X85.783Y-63.693
X86.158Y-54.903
X87.308Y-55.928
X88.208Y-71.428
X88.433Y-66.753
X88.733Y-62.328
X89.333Y-72.153
X89.408Y-65.003
X89.458Y-60.903
X90.133Y-62.328
X90.158Y-71.378
X90.333Y-66.753
X92.183Y-65.203
X92.708Y-60.878
X93.808Y-70.228
X93.883Y-64.953
X93.883Y-65.603
X93.883Y-66.253
X93.883Y-70.878
X93.883Y-71.553
X94.398Y-61.968
X94.458Y-59.953
X95.508Y-64.253
X95.658Y-60.628
X96.158Y-59.828
X96.458Y-63.303
X96.883Y-56.553
X97.258Y-66.678
X97.758Y-68.278
X97.758Y-70.003
X97.859Y-60.302
X98.083Y-56.603
X98.103Y-58.578
X99.408Y-68.278
X99.408Y-70.028
X99.658Y-62.453
X99.733Y-58.853
X100.633Y-66.328
X101.058Y-70.078
X101.458Y-68.253
X101.598Y-66.643
X102.398Y-66.627
X103.308Y-66.643
X105.233Y-57.403
X105.983Y-57.403
X106.083Y-54.378
X106.958Y-70.228
X107.358Y-57.078
X107.708Y-65.903
X107.733Y-69.178
X108.083Y-68.403
X108.728Y-57.928
X108.733Y-60.453
X108.783Y-67.878
X108.858Y-64.078
X109.273Y-62.068
X109.383Y-63.603
X109.558Y-58.828
X109.583Y-59.827
X109.688Y-57.928
X110.083Y-68.303
X110.333Y-58.203
X110.383Y-59.853
X110.62Y-63.065
X111.108Y-71.003
X111.386Y-67.39
X111.433Y-65.953
X111.783Y-64.978
X112.033Y-59.828
X112.033Y-60.528
X112.308Y-62.878
X112.483Y-64.978
X114.108Y-57.878
X114.933Y-65.703
X115.508Y-63.028
X115.558Y-68.678
X115.683Y-57.953
X116.833Y-71.228
X117.208Y-62.653
X118.333Y-65.528
X118.383Y-67.328
X118.833Y-71.203
X118.908Y-54.553
X118.983Y-56.728
X121.058Y-68.128
X121.433Y-64.078
X121.458Y-65.753
X121.633Y-54.603
X121.733Y-57.503
X121.837Y-62.432
X122.658Y-60.778
X122.708Y-62.432
X123.383Y-69.528
X126.233Y-54.541
X126.883Y-69.603
X127.758Y-57.128
X128.133Y-62.428
X128.883Y-64.603
X128.933Y-62.428
X129.133Y-59.228
X129.183Y-70.878
X129.208Y-67.678
X130.958Y-65.628
X130.983Y-57.303
X131.033Y-60.578
X131.333Y-69.253
T5
X104.808Y-55.528
X107.333Y-55.503
X109.883Y-55.503
X112.423Y-55.503
X114.963Y-55.503
X117.503Y-55.503
X120.043Y-55.503
T6
X124.01Y-59.892
X124.01Y-62.432
X124.01Y-64.972
X124.01Y-67.512
X126.55Y-59.892
X126.55Y-62.432
X126.55Y-64.972
X126.55Y-67.512
T7
X124.783Y-55.403
T4
X78.228Y-59.377G85X77.428Y-59.377
G05
X78.228Y-68.017G85X77.428Y-68.017
G05
X82.558Y-59.377G85X81.458Y-59.377
G05
X82.558Y-68.017G85X81.458Y-68.017
G05
M30
