G04 #@! TF.GenerationSoftware,KiCad,Pcbnew,8.0.4*
G04 #@! TF.CreationDate,2024-10-03T21:35:34+02:00*
G04 #@! TF.ProjectId,Midi Stick,4d696469-2053-4746-9963-6b2e6b696361,2.0*
G04 #@! TF.SameCoordinates,Original*
G04 #@! TF.FileFunction,Copper,L2,Bot*
G04 #@! TF.FilePolarity,Positive*
%FSLAX46Y46*%
G04 Gerber Fmt 4.6, Leading zero omitted, Abs format (unit mm)*
G04 Created by KiCad (PCBNEW 8.0.4) date 2024-10-03 21:35:34*
%MOMM*%
%LPD*%
G01*
G04 APERTURE LIST*
G04 #@! TA.AperFunction,ComponentPad*
%ADD10C,1.700000*%
G04 #@! TD*
G04 #@! TA.AperFunction,ComponentPad*
%ADD11C,1.320800*%
G04 #@! TD*
G04 #@! TA.AperFunction,ComponentPad*
%ADD12C,0.600000*%
G04 #@! TD*
G04 #@! TA.AperFunction,ComponentPad*
%ADD13O,2.100000X1.000000*%
G04 #@! TD*
G04 #@! TA.AperFunction,ComponentPad*
%ADD14O,1.800000X1.000000*%
G04 #@! TD*
G04 #@! TA.AperFunction,ViaPad*
%ADD15C,0.600000*%
G04 #@! TD*
G04 #@! TA.AperFunction,ViaPad*
%ADD16C,1.270000*%
G04 #@! TD*
G04 #@! TA.AperFunction,Conductor*
%ADD17C,0.300000*%
G04 #@! TD*
G04 #@! TA.AperFunction,Conductor*
%ADD18C,0.200000*%
G04 #@! TD*
G04 #@! TA.AperFunction,Conductor*
%ADD19C,0.500000*%
G04 #@! TD*
G04 #@! TA.AperFunction,Conductor*
%ADD20C,1.000000*%
G04 #@! TD*
G04 #@! TA.AperFunction,Conductor*
%ADD21C,0.750000*%
G04 #@! TD*
G04 #@! TA.AperFunction,Conductor*
%ADD22C,0.175000*%
G04 #@! TD*
G04 #@! TA.AperFunction,Conductor*
%ADD23C,0.600000*%
G04 #@! TD*
G04 APERTURE END LIST*
D10*
X124782600Y-55402600D03*
D11*
X124010100Y-59892485D03*
X124010100Y-62432485D03*
X124010100Y-64972485D03*
X124010100Y-67512485D03*
X126550100Y-67512485D03*
X126550100Y-64972485D03*
X126550100Y-62432485D03*
X126550100Y-59892485D03*
D12*
X102707600Y-63627600D03*
X104082600Y-63627600D03*
X105457600Y-63627600D03*
X102707600Y-62252600D03*
X104082600Y-62252600D03*
X105457600Y-62252600D03*
X102707600Y-60877600D03*
X104082600Y-60877600D03*
X105457600Y-60877600D03*
D13*
X82007600Y-59376714D03*
D14*
X77827600Y-59376714D03*
D13*
X82007600Y-68016714D03*
D14*
X77827600Y-68016714D03*
D15*
X118982600Y-56727600D03*
X116832600Y-71227600D03*
X130957600Y-65627600D03*
X99407600Y-70027600D03*
X121457600Y-65752600D03*
X121732600Y-57502600D03*
X105232600Y-57402600D03*
X79157600Y-65377600D03*
X114932600Y-65702600D03*
X77332600Y-69902600D03*
X115932600Y-61177600D03*
X112307600Y-62877600D03*
X118332600Y-65527600D03*
X89457600Y-60902600D03*
X128882600Y-64602600D03*
X77257600Y-63802600D03*
X109687600Y-57927600D03*
X99732600Y-58852600D03*
X122657600Y-60777600D03*
X112032600Y-59827600D03*
X97757600Y-70002600D03*
D16*
X120042600Y-55502600D03*
D15*
X90157600Y-71377600D03*
X95657600Y-60627600D03*
X118907600Y-54552600D03*
X89332600Y-72152600D03*
X83532600Y-67202600D03*
X77532600Y-61252600D03*
X109557600Y-58827600D03*
X90332600Y-66752600D03*
X80032600Y-71352600D03*
X118382600Y-67327600D03*
X108857600Y-64077600D03*
X97757600Y-68277600D03*
X110332600Y-58202600D03*
X77532600Y-62577600D03*
X115507600Y-63027600D03*
X88432600Y-66752600D03*
X106082600Y-54377600D03*
X127757600Y-57127600D03*
X122407600Y-55527600D03*
X129207600Y-67677600D03*
X80707600Y-60102600D03*
X108732600Y-60452600D03*
X115682600Y-57952600D03*
X107357600Y-57077600D03*
X88207600Y-71427600D03*
X129182600Y-70877600D03*
X89407600Y-65002600D03*
X129132600Y-59227600D03*
X96882600Y-56552600D03*
X96157600Y-59827600D03*
X95507600Y-64252600D03*
X84882600Y-60427600D03*
X90132600Y-62327600D03*
X84582600Y-68802600D03*
X83682600Y-59952600D03*
X76957600Y-56202600D03*
X126232599Y-54540947D03*
X80357600Y-68952600D03*
X111385759Y-67390100D03*
X92182600Y-65202600D03*
X82682600Y-70677600D03*
X131332600Y-69252600D03*
X79282600Y-56177600D03*
X108082600Y-68402600D03*
X115557600Y-68677600D03*
X107732600Y-69177600D03*
X118832600Y-71202600D03*
X88732600Y-62327600D03*
X126882600Y-69602600D03*
X80732600Y-67077600D03*
X105982600Y-57402600D03*
X86157600Y-54902600D03*
X101057600Y-70077600D03*
X114107600Y-57877600D03*
X97257600Y-66677600D03*
X77132600Y-72477600D03*
X110082600Y-68302600D03*
X111432600Y-65952600D03*
X78407600Y-66227600D03*
X99407600Y-68277600D03*
X80182600Y-67902600D03*
X108782600Y-67877600D03*
X112032600Y-60527600D03*
X85132600Y-63692600D03*
X92707600Y-60877600D03*
X121057600Y-68127600D03*
X109382600Y-63602600D03*
X81432600Y-69177600D03*
X96457600Y-63302600D03*
X98082600Y-56602600D03*
X85782600Y-63692600D03*
X123382600Y-69527600D03*
X87307600Y-55927600D03*
X107707600Y-65902600D03*
X130982600Y-57302600D03*
X101457600Y-68252600D03*
X117207600Y-62652600D03*
X131032600Y-60577600D03*
X121632600Y-54602600D03*
X121432600Y-64077600D03*
X83682600Y-61302600D03*
D16*
X107332600Y-55502600D03*
D15*
X128132600Y-62427600D03*
X121837485Y-62432485D03*
X122707600Y-62432485D03*
X83682600Y-66102600D03*
X128932600Y-62427600D03*
X93882600Y-71552600D03*
X100632600Y-66327600D03*
X93882600Y-70877600D03*
X94397600Y-61967600D03*
X94457600Y-59952600D03*
X111107600Y-71002600D03*
X93882600Y-65602600D03*
X93807600Y-70227600D03*
X93882600Y-66252600D03*
X98102600Y-58577600D03*
X111782600Y-64977600D03*
X93882600Y-64952600D03*
X112482603Y-64977600D03*
D16*
X104807600Y-55527600D03*
D15*
X99657600Y-62452600D03*
X101482600Y-57552600D03*
X104570370Y-60103100D03*
X110620100Y-63065100D03*
X108727600Y-57927600D03*
X103307600Y-66642600D03*
X103782600Y-57752600D03*
X106232100Y-61852600D03*
X104282600Y-64402100D03*
X97858856Y-60302386D03*
X109273026Y-62068026D03*
X101933100Y-61452600D03*
D16*
X114962600Y-55502600D03*
X117502600Y-55502600D03*
D15*
X106957600Y-70227600D03*
D16*
X109882600Y-55502600D03*
D15*
X101598450Y-66642600D03*
X110382600Y-59852600D03*
X102398295Y-66626736D03*
X109583014Y-59826807D03*
D16*
X112422600Y-55502600D03*
D17*
X112307600Y-63621749D02*
X108782600Y-67146749D01*
D18*
X105332600Y-54402600D02*
X100282600Y-54402600D01*
X105232600Y-57402600D02*
X106032600Y-56602600D01*
X82007600Y-59376714D02*
X87043837Y-54340477D01*
X95820477Y-54340477D02*
X98082600Y-56602600D01*
X104682600Y-56852600D02*
X101334071Y-56852600D01*
D17*
X112307600Y-62877600D02*
X112307600Y-63621749D01*
D18*
X87043837Y-54340477D02*
X95820477Y-54340477D01*
X100282600Y-54402600D02*
X98082600Y-56602600D01*
X105232600Y-57402600D02*
X104682600Y-56852600D01*
D17*
X108782600Y-67146749D02*
X108782600Y-67877600D01*
D18*
X101334071Y-56852600D02*
X99732600Y-58454071D01*
X106032600Y-56602600D02*
X106032600Y-55102600D01*
X106032600Y-55102600D02*
X105332600Y-54402600D01*
X99732600Y-58454071D02*
X99732600Y-58852600D01*
D19*
X82232600Y-61302600D02*
X83682600Y-61302600D01*
X82932600Y-65352600D02*
X81482600Y-65352600D01*
D20*
X113482603Y-59283389D02*
X113482603Y-71552514D01*
X116250600Y-56845600D02*
X121837485Y-62432485D01*
X87968386Y-70052600D02*
X83682600Y-65766814D01*
X121837485Y-62432485D02*
X122707600Y-62432485D01*
D19*
X80582600Y-64452600D02*
X80582600Y-62952600D01*
D20*
X90696814Y-70052600D02*
X87968386Y-70052600D01*
X116250600Y-56845600D02*
X108675600Y-56845600D01*
X107332600Y-55502600D02*
X108757600Y-56927600D01*
X122712485Y-62427600D02*
X122707600Y-62432485D01*
D19*
X83682600Y-66102600D02*
X82932600Y-65352600D01*
X81482600Y-65352600D02*
X80582600Y-64452600D01*
D20*
X128932600Y-62427600D02*
X122712485Y-62427600D01*
X111126814Y-56927600D02*
X113482603Y-59283389D01*
X112382600Y-72652517D02*
X112308927Y-72652517D01*
D19*
X80582600Y-62952600D02*
X82232600Y-61302600D01*
D20*
X93296654Y-72652440D02*
X90696814Y-70052600D01*
X108675600Y-56845600D02*
X107232600Y-55402600D01*
X83682600Y-65766814D02*
X83682600Y-61302600D01*
X112308927Y-72652517D02*
X93296654Y-72652440D01*
X108757600Y-56927600D02*
X111126814Y-56927600D01*
X113482603Y-71552514D02*
X112382600Y-72652517D01*
D21*
X93882600Y-66252600D02*
X93882600Y-65602600D01*
X94457600Y-59952600D02*
X94457600Y-61907600D01*
D20*
X104807600Y-55527600D02*
X101152600Y-55527600D01*
D21*
X94457600Y-58627600D02*
X94457600Y-59952600D01*
X93882600Y-64952600D02*
X93882600Y-62482600D01*
X94457600Y-61907600D02*
X94397600Y-61967600D01*
D19*
X93807600Y-70227600D02*
X93807600Y-70802600D01*
D22*
X101357600Y-63077600D02*
X100732600Y-62452600D01*
D19*
X112457600Y-69652600D02*
X111107600Y-71002600D01*
D22*
X100732600Y-62452600D02*
X99657600Y-62452600D01*
D19*
X93882600Y-70877600D02*
X93882600Y-71552600D01*
X111082600Y-71027600D02*
X111107600Y-71002600D01*
X109657600Y-71027600D02*
X109632600Y-71052600D01*
X93807600Y-70802600D02*
X93882600Y-70877600D01*
X112482603Y-64977600D02*
X112457600Y-65002603D01*
D21*
X98052600Y-58627600D02*
X94457600Y-58627600D01*
X93882600Y-65602600D02*
X93882600Y-64952600D01*
D19*
X109632600Y-71052600D02*
X94057600Y-71052600D01*
D22*
X100632600Y-66327600D02*
X101357600Y-65602600D01*
D20*
X98357207Y-58322993D02*
X98102600Y-58577600D01*
D19*
X109657600Y-71027600D02*
X111082600Y-71027600D01*
D21*
X98102600Y-58577600D02*
X98052600Y-58627600D01*
D22*
X101357600Y-65602600D02*
X101357600Y-63077600D01*
D19*
X94057600Y-71052600D02*
X93882600Y-70877600D01*
X111782600Y-64977600D02*
X112482603Y-64977600D01*
D20*
X101152600Y-55527600D02*
X98357207Y-58322993D01*
D19*
X112457600Y-65002603D02*
X112457600Y-69652600D01*
D21*
X93882600Y-62482600D02*
X94397600Y-61967600D01*
D19*
X104558100Y-60103100D02*
X103782600Y-59327600D01*
D23*
X106745870Y-57927600D02*
X104582600Y-60090870D01*
D19*
X103582600Y-57552600D02*
X103782600Y-57752600D01*
D23*
X108727600Y-57927600D02*
X106745870Y-57927600D01*
X97858856Y-60302386D02*
X99009070Y-61452600D01*
D19*
X103782600Y-59327600D02*
X103782600Y-57752600D01*
D23*
X103307600Y-66642600D02*
X104282600Y-65667600D01*
X109057600Y-61852600D02*
X106232100Y-61852600D01*
X109273026Y-62068026D02*
X109057600Y-61852600D01*
X109273026Y-62068026D02*
X109623026Y-62068026D01*
D19*
X101482600Y-57552600D02*
X103582600Y-57552600D01*
D23*
X104282600Y-65667600D02*
X104282600Y-64402100D01*
X109623026Y-62068026D02*
X110620100Y-63065100D01*
X99009070Y-61452600D02*
X101933100Y-61452600D01*
D19*
X104570370Y-60103100D02*
X104558100Y-60103100D01*
D22*
X110382600Y-61466420D02*
X111582599Y-62666419D01*
X107418780Y-67627600D02*
X111582599Y-63463781D01*
X107418780Y-67627600D02*
X102568308Y-67627600D01*
X110382600Y-59852600D02*
X110382600Y-61466420D01*
X111582599Y-62666419D02*
X111582599Y-63463781D01*
X107418780Y-67627600D02*
X106957600Y-68088780D01*
X102568308Y-67627600D02*
X101598450Y-66657742D01*
X106957600Y-68088780D02*
X106957600Y-70227600D01*
X101598450Y-66657742D02*
X101598450Y-66642600D01*
X109607600Y-61221750D02*
X111207599Y-62821749D01*
X109607600Y-59827600D02*
X109607600Y-61221750D01*
X110857601Y-63652599D02*
X107257600Y-67252600D01*
X107257600Y-67252600D02*
X103024159Y-67252600D01*
X111207599Y-63308451D02*
X110863451Y-63652599D01*
X111207599Y-62821749D02*
X111207599Y-63308451D01*
X110863451Y-63652599D02*
X110857601Y-63652599D01*
X103024159Y-67252600D02*
X102398295Y-66626736D01*
G04 #@! TA.AperFunction,Conductor*
G36*
X123734539Y-54241404D02*
G01*
X123801578Y-54261090D01*
X123847332Y-54313894D01*
X123857275Y-54383053D01*
X123828249Y-54446608D01*
X123822218Y-54453085D01*
X123744105Y-54531197D01*
X123608565Y-54724769D01*
X123608564Y-54724771D01*
X123508698Y-54938935D01*
X123508694Y-54938944D01*
X123447538Y-55167186D01*
X123447536Y-55167196D01*
X123426941Y-55402599D01*
X123426941Y-55402600D01*
X123447536Y-55638003D01*
X123447538Y-55638013D01*
X123508694Y-55866255D01*
X123508696Y-55866259D01*
X123508697Y-55866263D01*
X123608565Y-56080430D01*
X123608567Y-56080434D01*
X123641821Y-56127925D01*
X123744105Y-56274001D01*
X123911199Y-56441095D01*
X124007984Y-56508865D01*
X124104765Y-56576632D01*
X124104767Y-56576633D01*
X124104770Y-56576635D01*
X124318937Y-56676503D01*
X124547192Y-56737663D01*
X124735518Y-56754139D01*
X124782599Y-56758259D01*
X124782600Y-56758259D01*
X124782601Y-56758259D01*
X124821834Y-56754826D01*
X125018008Y-56737663D01*
X125246263Y-56676503D01*
X125460430Y-56576635D01*
X125654001Y-56441095D01*
X125821095Y-56274001D01*
X125956635Y-56080430D01*
X126056503Y-55866263D01*
X126117663Y-55638008D01*
X126138259Y-55402600D01*
X126117663Y-55167192D01*
X126056503Y-54938937D01*
X125956635Y-54724771D01*
X125897955Y-54640966D01*
X125821094Y-54531197D01*
X125743017Y-54453120D01*
X125709532Y-54391797D01*
X125714516Y-54322105D01*
X125756388Y-54266172D01*
X125821852Y-54241755D01*
X125830674Y-54241439D01*
X132265384Y-54241547D01*
X132332420Y-54261233D01*
X132378174Y-54314037D01*
X132389379Y-54365594D01*
X132382334Y-73028143D01*
X132362624Y-73095175D01*
X132309803Y-73140910D01*
X132258334Y-73152096D01*
X113597376Y-73152021D01*
X113530336Y-73132336D01*
X113484581Y-73079532D01*
X113474638Y-73010373D01*
X113503663Y-72946818D01*
X113509681Y-72940354D01*
X114120381Y-72329655D01*
X114120385Y-72329653D01*
X114259742Y-72190296D01*
X114369235Y-72026428D01*
X114431800Y-71875381D01*
X114444654Y-71844350D01*
X114468542Y-71724258D01*
X114482912Y-71652015D01*
X114483103Y-71651057D01*
X114483103Y-59184845D01*
X114461670Y-59077100D01*
X114444654Y-58991553D01*
X114399679Y-58882974D01*
X114385540Y-58848838D01*
X114369238Y-58809481D01*
X114369236Y-58809477D01*
X114369235Y-58809475D01*
X114287022Y-58686435D01*
X114259743Y-58645608D01*
X113671916Y-58057781D01*
X113638431Y-57996458D01*
X113643415Y-57926766D01*
X113685287Y-57870833D01*
X113750751Y-57846416D01*
X113759597Y-57846100D01*
X115784818Y-57846100D01*
X115851857Y-57865785D01*
X115872499Y-57882419D01*
X121199700Y-63209622D01*
X121199704Y-63209625D01*
X121363564Y-63319113D01*
X121363570Y-63319116D01*
X121363571Y-63319117D01*
X121545650Y-63394537D01*
X121714382Y-63428100D01*
X121738940Y-63432985D01*
X121738943Y-63432986D01*
X121738945Y-63432986D01*
X121942140Y-63432986D01*
X121942160Y-63432985D01*
X122806141Y-63432985D01*
X122818720Y-63430482D01*
X122842912Y-63428100D01*
X123377570Y-63428100D01*
X123442848Y-63446673D01*
X123490426Y-63476132D01*
X123691044Y-63553852D01*
X123834115Y-63580596D01*
X123896395Y-63612264D01*
X123931668Y-63672577D01*
X123928734Y-63742385D01*
X123888525Y-63799525D01*
X123834115Y-63824373D01*
X123691044Y-63851118D01*
X123565291Y-63899835D01*
X123490428Y-63928837D01*
X123490427Y-63928837D01*
X123307502Y-64042099D01*
X123148514Y-64187035D01*
X123148507Y-64187043D01*
X123018860Y-64358724D01*
X123018851Y-64358738D01*
X122922960Y-64551312D01*
X122922955Y-64551325D01*
X122864077Y-64758256D01*
X122844227Y-64972484D01*
X122844227Y-64972485D01*
X122864077Y-65186713D01*
X122922955Y-65393644D01*
X122922960Y-65393657D01*
X123018851Y-65586231D01*
X123018853Y-65586234D01*
X123018855Y-65586238D01*
X123148509Y-65757929D01*
X123148512Y-65757931D01*
X123148514Y-65757934D01*
X123307502Y-65902870D01*
X123307504Y-65902871D01*
X123307505Y-65902872D01*
X123490426Y-66016132D01*
X123691044Y-66093852D01*
X123834115Y-66120596D01*
X123896395Y-66152264D01*
X123931668Y-66212577D01*
X123928734Y-66282385D01*
X123888525Y-66339525D01*
X123834115Y-66364373D01*
X123691044Y-66391118D01*
X123564175Y-66440267D01*
X123490428Y-66468837D01*
X123490427Y-66468837D01*
X123307502Y-66582099D01*
X123148514Y-66727035D01*
X123148507Y-66727043D01*
X123018860Y-66898724D01*
X123018851Y-66898738D01*
X122922960Y-67091312D01*
X122922955Y-67091325D01*
X122864077Y-67298256D01*
X122844227Y-67512484D01*
X122844227Y-67512485D01*
X122864077Y-67726713D01*
X122922955Y-67933644D01*
X122922960Y-67933657D01*
X123018851Y-68126231D01*
X123018853Y-68126234D01*
X123018855Y-68126238D01*
X123018858Y-68126242D01*
X123018860Y-68126245D01*
X123075251Y-68200919D01*
X123148509Y-68297929D01*
X123148512Y-68297931D01*
X123148514Y-68297934D01*
X123307502Y-68442870D01*
X123307504Y-68442871D01*
X123307505Y-68442872D01*
X123490426Y-68556132D01*
X123691044Y-68633852D01*
X123902527Y-68673385D01*
X123902529Y-68673385D01*
X124117671Y-68673385D01*
X124117673Y-68673385D01*
X124329156Y-68633852D01*
X124529774Y-68556132D01*
X124712695Y-68442872D01*
X124871691Y-68297929D01*
X125001345Y-68126238D01*
X125097244Y-67933647D01*
X125156122Y-67726714D01*
X125156629Y-67721243D01*
X125182415Y-67656305D01*
X125239215Y-67615617D01*
X125308996Y-67612097D01*
X125369603Y-67646862D01*
X125401793Y-67708874D01*
X125403571Y-67721243D01*
X125404077Y-67726712D01*
X125462955Y-67933644D01*
X125462960Y-67933657D01*
X125558851Y-68126231D01*
X125558853Y-68126234D01*
X125558855Y-68126238D01*
X125558858Y-68126242D01*
X125558860Y-68126245D01*
X125615251Y-68200919D01*
X125688509Y-68297929D01*
X125688512Y-68297931D01*
X125688514Y-68297934D01*
X125847502Y-68442870D01*
X125847504Y-68442871D01*
X125847505Y-68442872D01*
X126030426Y-68556132D01*
X126231044Y-68633852D01*
X126442527Y-68673385D01*
X126442529Y-68673385D01*
X126657671Y-68673385D01*
X126657673Y-68673385D01*
X126869156Y-68633852D01*
X127069774Y-68556132D01*
X127252695Y-68442872D01*
X127411691Y-68297929D01*
X127541345Y-68126238D01*
X127637244Y-67933647D01*
X127696122Y-67726714D01*
X127715973Y-67512485D01*
X127696122Y-67298256D01*
X127637244Y-67091323D01*
X127618746Y-67054175D01*
X127541348Y-66898738D01*
X127541347Y-66898737D01*
X127541345Y-66898732D01*
X127411691Y-66727041D01*
X127411687Y-66727037D01*
X127411685Y-66727035D01*
X127252697Y-66582099D01*
X127212911Y-66557464D01*
X127069774Y-66468838D01*
X126869156Y-66391118D01*
X126726083Y-66364373D01*
X126663804Y-66332706D01*
X126628531Y-66272393D01*
X126631465Y-66202585D01*
X126671674Y-66145445D01*
X126726082Y-66120596D01*
X126869156Y-66093852D01*
X127069774Y-66016132D01*
X127252695Y-65902872D01*
X127411691Y-65757929D01*
X127541345Y-65586238D01*
X127637244Y-65393647D01*
X127696122Y-65186714D01*
X127715973Y-64972485D01*
X127696122Y-64758256D01*
X127637244Y-64551323D01*
X127600783Y-64478100D01*
X127541348Y-64358738D01*
X127541347Y-64358737D01*
X127541345Y-64358732D01*
X127411691Y-64187041D01*
X127411687Y-64187037D01*
X127411685Y-64187035D01*
X127252697Y-64042099D01*
X127212911Y-64017464D01*
X127069774Y-63928838D01*
X126869156Y-63851118D01*
X126726083Y-63824373D01*
X126663804Y-63792706D01*
X126628531Y-63732393D01*
X126631465Y-63662585D01*
X126671674Y-63605445D01*
X126726082Y-63580596D01*
X126869156Y-63553852D01*
X127069774Y-63476132D01*
X127117352Y-63446673D01*
X127182630Y-63428100D01*
X129031143Y-63428100D01*
X129161182Y-63402232D01*
X129224435Y-63389651D01*
X129365255Y-63331321D01*
X129406507Y-63314235D01*
X129406507Y-63314234D01*
X129406514Y-63314232D01*
X129570382Y-63204739D01*
X129709739Y-63065382D01*
X129819232Y-62901514D01*
X129820365Y-62898780D01*
X129866533Y-62787319D01*
X129894651Y-62719435D01*
X129913965Y-62622337D01*
X129933100Y-62526143D01*
X129933100Y-62329056D01*
X129894652Y-62135770D01*
X129894651Y-62135769D01*
X129894651Y-62135765D01*
X129869229Y-62074390D01*
X129819235Y-61953692D01*
X129819228Y-61953679D01*
X129709739Y-61789818D01*
X129709736Y-61789814D01*
X129570385Y-61650463D01*
X129570381Y-61650460D01*
X129406520Y-61540971D01*
X129406507Y-61540964D01*
X129224439Y-61465550D01*
X129224429Y-61465547D01*
X129031143Y-61427100D01*
X129031141Y-61427100D01*
X127166851Y-61427100D01*
X127101573Y-61408527D01*
X127069775Y-61388838D01*
X127069773Y-61388837D01*
X126981191Y-61354520D01*
X126869156Y-61311118D01*
X126726083Y-61284373D01*
X126663804Y-61252706D01*
X126628531Y-61192393D01*
X126631465Y-61122585D01*
X126671674Y-61065445D01*
X126726082Y-61040596D01*
X126869156Y-61013852D01*
X127069774Y-60936132D01*
X127252695Y-60822872D01*
X127411691Y-60677929D01*
X127541345Y-60506238D01*
X127637244Y-60313647D01*
X127696122Y-60106714D01*
X127715973Y-59892485D01*
X127712277Y-59852603D01*
X127696122Y-59678256D01*
X127662492Y-59560061D01*
X127637244Y-59471323D01*
X127633714Y-59464234D01*
X127541348Y-59278738D01*
X127541347Y-59278737D01*
X127541345Y-59278732D01*
X127411691Y-59107041D01*
X127411687Y-59107037D01*
X127411685Y-59107035D01*
X127252697Y-58962099D01*
X127146051Y-58896067D01*
X127069774Y-58848838D01*
X126869156Y-58771118D01*
X126657673Y-58731585D01*
X126442527Y-58731585D01*
X126231044Y-58771118D01*
X126132018Y-58809481D01*
X126030428Y-58848837D01*
X126030427Y-58848837D01*
X125847502Y-58962099D01*
X125688514Y-59107035D01*
X125688507Y-59107043D01*
X125558860Y-59278724D01*
X125558851Y-59278738D01*
X125462960Y-59471312D01*
X125462955Y-59471325D01*
X125404078Y-59678256D01*
X125403571Y-59683728D01*
X125377785Y-59748665D01*
X125320984Y-59789352D01*
X125251203Y-59792872D01*
X125190597Y-59758107D01*
X125158407Y-59696094D01*
X125156629Y-59683728D01*
X125156570Y-59683093D01*
X125156122Y-59678256D01*
X125097244Y-59471323D01*
X125093714Y-59464234D01*
X125001348Y-59278738D01*
X125001347Y-59278737D01*
X125001345Y-59278732D01*
X124871691Y-59107041D01*
X124871687Y-59107037D01*
X124871685Y-59107035D01*
X124712697Y-58962099D01*
X124606051Y-58896067D01*
X124529774Y-58848838D01*
X124329156Y-58771118D01*
X124117673Y-58731585D01*
X123902527Y-58731585D01*
X123691044Y-58771118D01*
X123592018Y-58809481D01*
X123490428Y-58848837D01*
X123490427Y-58848837D01*
X123307502Y-58962099D01*
X123148514Y-59107035D01*
X123148507Y-59107043D01*
X123018860Y-59278724D01*
X123018851Y-59278738D01*
X122922960Y-59471312D01*
X122922955Y-59471325D01*
X122864077Y-59678256D01*
X122844227Y-59892484D01*
X122844227Y-59892485D01*
X122864077Y-60106713D01*
X122922955Y-60313644D01*
X122922960Y-60313657D01*
X123018851Y-60506231D01*
X123018853Y-60506234D01*
X123018855Y-60506238D01*
X123018858Y-60506242D01*
X123018860Y-60506245D01*
X123052858Y-60551266D01*
X123148509Y-60677929D01*
X123148512Y-60677931D01*
X123148514Y-60677934D01*
X123307502Y-60822870D01*
X123307504Y-60822871D01*
X123307505Y-60822872D01*
X123490426Y-60936132D01*
X123691044Y-61013852D01*
X123834115Y-61040596D01*
X123896395Y-61072264D01*
X123931668Y-61132577D01*
X123928734Y-61202385D01*
X123888525Y-61259525D01*
X123834115Y-61284373D01*
X123691044Y-61311118D01*
X123657041Y-61324291D01*
X123490426Y-61388837D01*
X123490424Y-61388838D01*
X123458627Y-61408527D01*
X123393349Y-61427100D01*
X122811025Y-61427100D01*
X122613944Y-61427100D01*
X122601364Y-61429602D01*
X122577173Y-61431985D01*
X122303268Y-61431985D01*
X122236229Y-61412300D01*
X122215587Y-61395666D01*
X119940380Y-59120459D01*
X117647954Y-56828034D01*
X117614470Y-56766712D01*
X117619454Y-56697020D01*
X117661326Y-56641087D01*
X117712847Y-56618467D01*
X117814676Y-56599432D01*
X118010904Y-56523413D01*
X118189823Y-56412631D01*
X118345340Y-56270859D01*
X118472158Y-56102925D01*
X118565959Y-55914547D01*
X118623548Y-55712142D01*
X118642965Y-55502600D01*
X118623548Y-55293058D01*
X118565959Y-55090653D01*
X118472158Y-54902275D01*
X118345340Y-54734341D01*
X118189823Y-54592569D01*
X118189821Y-54592567D01*
X118010907Y-54481788D01*
X118010892Y-54481781D01*
X118008700Y-54480932D01*
X118007804Y-54480243D01*
X118005767Y-54479229D01*
X118005965Y-54478830D01*
X117953301Y-54438357D01*
X117929714Y-54372589D01*
X117945428Y-54304509D01*
X117995455Y-54255733D01*
X118053500Y-54241308D01*
X123734539Y-54241404D01*
G37*
G04 #@! TD.AperFunction*
G04 #@! TA.AperFunction,Conductor*
G36*
X104321832Y-54241077D02*
G01*
X104388870Y-54260763D01*
X104434624Y-54313567D01*
X104444567Y-54382726D01*
X104415541Y-54446281D01*
X104366623Y-54480703D01*
X104299307Y-54506781D01*
X104299293Y-54506788D01*
X104296489Y-54508525D01*
X104294896Y-54508978D01*
X104294170Y-54509340D01*
X104294102Y-54509204D01*
X104231209Y-54527100D01*
X101054054Y-54527100D01*
X101021991Y-54533476D01*
X101021992Y-54533477D01*
X100860770Y-54565546D01*
X100860764Y-54565548D01*
X100678688Y-54640966D01*
X100678679Y-54640971D01*
X100514819Y-54750459D01*
X100514815Y-54750462D01*
X97719428Y-57545851D01*
X97719426Y-57545853D01*
X97549499Y-57715781D01*
X97488176Y-57749266D01*
X97461818Y-57752100D01*
X94371368Y-57752100D01*
X94202233Y-57785743D01*
X94202221Y-57785746D01*
X94042901Y-57851738D01*
X94042888Y-57851745D01*
X93899501Y-57947554D01*
X93899497Y-57947557D01*
X93777557Y-58069497D01*
X93777554Y-58069501D01*
X93681745Y-58212888D01*
X93681738Y-58212901D01*
X93615746Y-58372221D01*
X93615743Y-58372233D01*
X93582100Y-58541366D01*
X93582100Y-61493594D01*
X93562415Y-61560633D01*
X93545781Y-61581275D01*
X93324501Y-61802555D01*
X93274458Y-61852598D01*
X93202553Y-61924502D01*
X93106745Y-62067888D01*
X93106738Y-62067901D01*
X93040746Y-62227221D01*
X93040743Y-62227233D01*
X93007100Y-62396366D01*
X93007100Y-66338833D01*
X93040743Y-66507966D01*
X93040746Y-66507978D01*
X93106738Y-66667298D01*
X93106745Y-66667311D01*
X93202554Y-66810698D01*
X93202557Y-66810702D01*
X93324497Y-66932642D01*
X93324501Y-66932645D01*
X93467888Y-67028454D01*
X93467901Y-67028461D01*
X93627221Y-67094453D01*
X93627226Y-67094455D01*
X93796366Y-67128099D01*
X93796369Y-67128100D01*
X93796371Y-67128100D01*
X93968831Y-67128100D01*
X93968832Y-67128099D01*
X94137974Y-67094455D01*
X94297305Y-67028458D01*
X94440699Y-66932645D01*
X94562645Y-66810699D01*
X94658458Y-66667305D01*
X94659579Y-66664600D01*
X94693752Y-66582098D01*
X94724455Y-66507974D01*
X94758100Y-66338829D01*
X94758100Y-65516371D01*
X94758100Y-64866371D01*
X94758100Y-62896606D01*
X94777785Y-62829567D01*
X94794419Y-62808925D01*
X95077645Y-62525699D01*
X95137645Y-62465699D01*
X95233458Y-62322305D01*
X95299455Y-62162974D01*
X95333100Y-61993829D01*
X95333100Y-61821371D01*
X95333100Y-59866371D01*
X95333100Y-59627100D01*
X95352785Y-59560061D01*
X95405589Y-59514306D01*
X95457100Y-59503100D01*
X97226702Y-59503100D01*
X97293741Y-59522785D01*
X97339496Y-59575589D01*
X97349440Y-59644747D01*
X97320415Y-59708303D01*
X97314383Y-59714781D01*
X97229042Y-59800121D01*
X97229036Y-59800128D01*
X97187948Y-59865518D01*
X97186060Y-59868433D01*
X97149460Y-59923210D01*
X97149456Y-59923218D01*
X97149122Y-59924025D01*
X97139569Y-59942513D01*
X97133068Y-59952860D01*
X97133066Y-59952863D01*
X97111838Y-60013526D01*
X97109360Y-60020017D01*
X97089120Y-60068882D01*
X97089119Y-60068888D01*
X97086406Y-60082526D01*
X97081831Y-60099284D01*
X97073490Y-60123121D01*
X97073488Y-60123128D01*
X97067746Y-60174082D01*
X97066144Y-60184380D01*
X97058356Y-60223538D01*
X97058356Y-60250471D01*
X97057576Y-60264354D01*
X97053291Y-60302386D01*
X97056297Y-60329069D01*
X97057576Y-60340415D01*
X97058356Y-60354300D01*
X97058356Y-60381230D01*
X97066144Y-60420389D01*
X97067746Y-60430689D01*
X97073488Y-60481638D01*
X97073489Y-60481646D01*
X97081832Y-60505490D01*
X97086406Y-60522246D01*
X97089118Y-60535882D01*
X97109365Y-60584763D01*
X97111842Y-60591253D01*
X97132861Y-60651320D01*
X97133068Y-60651910D01*
X97139565Y-60662251D01*
X97149124Y-60680751D01*
X97149459Y-60681559D01*
X97149461Y-60681565D01*
X97186079Y-60736368D01*
X97187970Y-60739286D01*
X97229036Y-60804643D01*
X97229038Y-60804646D01*
X97229040Y-60804648D01*
X97237067Y-60812675D01*
X98387281Y-61962889D01*
X98456244Y-62031852D01*
X98498782Y-62074390D01*
X98629887Y-62161992D01*
X98629889Y-62161992D01*
X98629891Y-62161994D01*
X98765721Y-62218256D01*
X98775573Y-62222337D01*
X98775579Y-62222338D01*
X98775811Y-62222409D01*
X98775920Y-62222480D01*
X98781205Y-62224670D01*
X98780789Y-62225671D01*
X98834250Y-62260707D01*
X98862706Y-62324519D01*
X98863036Y-62354953D01*
X98852035Y-62452595D01*
X98852035Y-62452603D01*
X98872230Y-62631849D01*
X98872231Y-62631854D01*
X98931811Y-62802123D01*
X98975223Y-62871212D01*
X99027784Y-62954862D01*
X99155338Y-63082416D01*
X99308078Y-63178389D01*
X99447423Y-63227148D01*
X99478345Y-63237968D01*
X99478350Y-63237969D01*
X99657596Y-63258165D01*
X99657600Y-63258165D01*
X99657604Y-63258165D01*
X99836849Y-63237969D01*
X99836852Y-63237968D01*
X99836855Y-63237968D01*
X100007122Y-63178389D01*
X100159862Y-63082416D01*
X100165359Y-63076919D01*
X100226682Y-63043434D01*
X100253040Y-63040600D01*
X100437681Y-63040600D01*
X100504720Y-63060285D01*
X100525362Y-63076919D01*
X100733281Y-63284838D01*
X100766766Y-63346161D01*
X100769600Y-63372519D01*
X100769600Y-65307679D01*
X100749915Y-65374718D01*
X100733281Y-65395360D01*
X100633987Y-65494654D01*
X100572664Y-65528139D01*
X100560189Y-65530193D01*
X100453350Y-65542230D01*
X100283078Y-65601810D01*
X100130337Y-65697784D01*
X100002784Y-65825337D01*
X99906811Y-65978076D01*
X99847231Y-66148345D01*
X99847230Y-66148350D01*
X99827035Y-66327596D01*
X99827035Y-66327603D01*
X99847230Y-66506849D01*
X99847231Y-66506854D01*
X99906811Y-66677123D01*
X99989581Y-66808849D01*
X100002784Y-66829862D01*
X100130338Y-66957416D01*
X100220680Y-67014182D01*
X100282420Y-67052976D01*
X100283078Y-67053389D01*
X100370468Y-67083968D01*
X100453345Y-67112968D01*
X100453350Y-67112969D01*
X100632596Y-67133165D01*
X100632600Y-67133165D01*
X100632604Y-67133165D01*
X100811848Y-67112969D01*
X100811848Y-67112968D01*
X100811855Y-67112968D01*
X100831499Y-67106093D01*
X100901275Y-67102531D01*
X100961903Y-67137259D01*
X100968034Y-67144262D01*
X100968634Y-67144862D01*
X101096188Y-67272416D01*
X101248928Y-67368389D01*
X101419195Y-67427968D01*
X101508977Y-67438083D01*
X101573388Y-67465148D01*
X101582773Y-67473622D01*
X102093450Y-67984299D01*
X102093460Y-67984310D01*
X102097790Y-67988640D01*
X102097791Y-67988641D01*
X102207267Y-68098117D01*
X102341348Y-68175529D01*
X102490896Y-68215600D01*
X102490897Y-68215600D01*
X102645719Y-68215600D01*
X106245600Y-68215600D01*
X106312639Y-68235285D01*
X106358394Y-68288089D01*
X106369600Y-68339600D01*
X106369600Y-69632160D01*
X106349915Y-69699199D01*
X106333281Y-69719841D01*
X106327784Y-69725337D01*
X106231811Y-69878076D01*
X106172231Y-70048345D01*
X106172230Y-70048350D01*
X106156048Y-70191983D01*
X106128982Y-70256397D01*
X106071387Y-70295952D01*
X106032828Y-70302100D01*
X94732372Y-70302100D01*
X94665333Y-70282415D01*
X94619578Y-70229611D01*
X94609152Y-70191983D01*
X94592969Y-70048350D01*
X94592968Y-70048345D01*
X94533388Y-69878076D01*
X94437415Y-69725337D01*
X94309862Y-69597784D01*
X94157123Y-69501811D01*
X93986854Y-69442231D01*
X93986849Y-69442230D01*
X93807604Y-69422035D01*
X93807596Y-69422035D01*
X93628350Y-69442230D01*
X93628345Y-69442231D01*
X93458076Y-69501811D01*
X93305337Y-69597784D01*
X93177784Y-69725337D01*
X93081811Y-69878076D01*
X93022231Y-70048345D01*
X93022230Y-70048350D01*
X93002035Y-70227596D01*
X93002035Y-70227603D01*
X93022230Y-70406849D01*
X93022231Y-70406854D01*
X93050142Y-70486617D01*
X93057100Y-70527572D01*
X93057100Y-70698604D01*
X93037415Y-70765643D01*
X92984611Y-70811398D01*
X92915453Y-70821342D01*
X92851897Y-70792317D01*
X92845419Y-70786285D01*
X91478293Y-69419159D01*
X91478273Y-69419137D01*
X91334599Y-69275463D01*
X91334595Y-69275460D01*
X91170734Y-69165971D01*
X91170725Y-69165966D01*
X91087497Y-69131492D01*
X91041979Y-69112638D01*
X91015314Y-69101593D01*
X90988651Y-69090549D01*
X90988647Y-69090548D01*
X90883579Y-69069649D01*
X90854171Y-69063799D01*
X90795357Y-69052100D01*
X90795355Y-69052100D01*
X88434169Y-69052100D01*
X88367130Y-69032415D01*
X88346488Y-69015781D01*
X84719419Y-65388712D01*
X84685934Y-65327389D01*
X84683100Y-65301031D01*
X84683100Y-61204056D01*
X84644652Y-61010770D01*
X84644651Y-61010769D01*
X84644651Y-61010765D01*
X84613737Y-60936132D01*
X84569235Y-60828692D01*
X84569228Y-60828679D01*
X84459739Y-60664818D01*
X84459736Y-60664814D01*
X84320385Y-60525463D01*
X84320381Y-60525460D01*
X84156520Y-60415971D01*
X84156507Y-60415964D01*
X83974439Y-60340550D01*
X83974429Y-60340547D01*
X83781143Y-60302100D01*
X83781141Y-60302100D01*
X83584059Y-60302100D01*
X83584057Y-60302100D01*
X83390770Y-60340547D01*
X83390760Y-60340550D01*
X83208692Y-60415964D01*
X83208679Y-60415971D01*
X83039753Y-60528845D01*
X83038732Y-60527317D01*
X82982345Y-60551266D01*
X82967990Y-60552100D01*
X82158677Y-60552100D01*
X82126036Y-60558593D01*
X82056445Y-60552366D01*
X82001267Y-60509503D01*
X81994458Y-60498976D01*
X81984448Y-60481638D01*
X81968115Y-60453349D01*
X81860965Y-60346199D01*
X81855218Y-60340452D01*
X81856457Y-60339212D01*
X81821115Y-60290797D01*
X81816970Y-60221051D01*
X81850129Y-60161183D01*
X81880600Y-60130712D01*
X81880600Y-59676714D01*
X82134600Y-59676714D01*
X82134600Y-60130714D01*
X82631864Y-60130714D01*
X82631866Y-60130713D01*
X82777526Y-60101739D01*
X82777534Y-60101737D01*
X82914750Y-60044901D01*
X82914759Y-60044896D01*
X83038246Y-59962384D01*
X83038250Y-59962381D01*
X83143267Y-59857364D01*
X83143270Y-59857360D01*
X83225782Y-59733873D01*
X83225787Y-59733864D01*
X83282623Y-59596648D01*
X83282625Y-59596640D01*
X83301110Y-59503714D01*
X82830687Y-59503714D01*
X82837156Y-59492510D01*
X82857600Y-59416210D01*
X82857600Y-59337218D01*
X82837156Y-59260918D01*
X82830687Y-59249714D01*
X83301110Y-59249714D01*
X83301110Y-59249713D01*
X83282625Y-59156787D01*
X83282623Y-59156779D01*
X83225787Y-59019563D01*
X83225782Y-59019554D01*
X83143270Y-58896067D01*
X83143267Y-58896063D01*
X83038250Y-58791046D01*
X83038246Y-58791043D01*
X82914759Y-58708531D01*
X82914750Y-58708526D01*
X82777534Y-58651690D01*
X82777526Y-58651688D01*
X82631865Y-58622714D01*
X82134600Y-58622714D01*
X82134600Y-59076714D01*
X81880600Y-59076714D01*
X81880600Y-58622714D01*
X81383335Y-58622714D01*
X81237673Y-58651688D01*
X81237665Y-58651690D01*
X81100449Y-58708526D01*
X81100440Y-58708531D01*
X80976953Y-58791043D01*
X80976949Y-58791046D01*
X80871932Y-58896063D01*
X80871929Y-58896067D01*
X80789417Y-59019554D01*
X80789412Y-59019563D01*
X80732576Y-59156779D01*
X80732574Y-59156787D01*
X80714089Y-59249713D01*
X80714090Y-59249714D01*
X81184513Y-59249714D01*
X81178044Y-59260918D01*
X81157600Y-59337218D01*
X81157600Y-59416210D01*
X81178044Y-59492510D01*
X81184513Y-59503714D01*
X80714090Y-59503714D01*
X80732574Y-59596640D01*
X80732576Y-59596648D01*
X80789412Y-59733864D01*
X80789417Y-59733873D01*
X80871929Y-59857360D01*
X80871932Y-59857364D01*
X80976949Y-59962381D01*
X80976953Y-59962384D01*
X81100440Y-60044896D01*
X81100452Y-60044903D01*
X81203320Y-60087511D01*
X81257724Y-60131351D01*
X81279789Y-60197645D01*
X81262510Y-60265345D01*
X81217870Y-60309458D01*
X81154238Y-60346197D01*
X81154232Y-60346201D01*
X81047087Y-60453346D01*
X81047085Y-60453349D01*
X80971319Y-60584577D01*
X80945332Y-60681565D01*
X80932100Y-60730948D01*
X80932100Y-60882480D01*
X80933705Y-60888469D01*
X80971319Y-61028850D01*
X80998296Y-61075575D01*
X81047085Y-61160079D01*
X81047087Y-61160081D01*
X81092738Y-61205732D01*
X81126223Y-61267055D01*
X81121239Y-61336747D01*
X81092738Y-61381094D01*
X79999648Y-62474183D01*
X79980935Y-62502190D01*
X79962346Y-62530012D01*
X79917519Y-62597099D01*
X79917512Y-62597111D01*
X79860943Y-62733682D01*
X79860940Y-62733692D01*
X79832100Y-62878679D01*
X79832100Y-62878682D01*
X79832100Y-64526518D01*
X79832100Y-64526520D01*
X79832099Y-64526520D01*
X79860940Y-64671507D01*
X79860943Y-64671517D01*
X79917514Y-64808092D01*
X79917515Y-64808094D01*
X79917516Y-64808095D01*
X79937569Y-64838107D01*
X79950412Y-64857327D01*
X79950413Y-64857330D01*
X79999646Y-64931014D01*
X79999652Y-64931021D01*
X81004180Y-65935548D01*
X81004183Y-65935551D01*
X81082787Y-65988072D01*
X81127592Y-66041684D01*
X81136299Y-66111009D01*
X81106145Y-66174036D01*
X81101579Y-66178854D01*
X81047085Y-66233349D01*
X80971319Y-66364577D01*
X80945913Y-66459397D01*
X80932100Y-66510948D01*
X80932100Y-66662480D01*
X80936023Y-66677122D01*
X80971319Y-66808850D01*
X81009202Y-66874464D01*
X81047085Y-66940079D01*
X81154235Y-67047229D01*
X81217869Y-67083968D01*
X81266084Y-67134535D01*
X81279306Y-67203143D01*
X81253338Y-67268007D01*
X81203321Y-67305916D01*
X81100449Y-67348526D01*
X81100440Y-67348531D01*
X80976953Y-67431043D01*
X80976949Y-67431046D01*
X80871932Y-67536063D01*
X80871929Y-67536067D01*
X80789417Y-67659554D01*
X80789412Y-67659563D01*
X80732576Y-67796779D01*
X80732574Y-67796787D01*
X80714089Y-67889713D01*
X80714090Y-67889714D01*
X81184513Y-67889714D01*
X81178044Y-67900918D01*
X81157600Y-67977218D01*
X81157600Y-68056210D01*
X81178044Y-68132510D01*
X81184513Y-68143714D01*
X80714090Y-68143714D01*
X80732574Y-68236640D01*
X80732576Y-68236648D01*
X80789412Y-68373864D01*
X80789417Y-68373873D01*
X80871929Y-68497360D01*
X80871932Y-68497364D01*
X80976949Y-68602381D01*
X80976953Y-68602384D01*
X81100440Y-68684896D01*
X81100449Y-68684901D01*
X81237665Y-68741737D01*
X81237673Y-68741739D01*
X81383333Y-68770713D01*
X81383336Y-68770714D01*
X81880600Y-68770714D01*
X81880600Y-68316714D01*
X82134600Y-68316714D01*
X82134600Y-68770714D01*
X82631864Y-68770714D01*
X82631866Y-68770713D01*
X82777526Y-68741739D01*
X82777534Y-68741737D01*
X82914750Y-68684901D01*
X82914759Y-68684896D01*
X83038246Y-68602384D01*
X83038250Y-68602381D01*
X83143267Y-68497364D01*
X83143270Y-68497360D01*
X83225782Y-68373873D01*
X83225787Y-68373864D01*
X83282623Y-68236648D01*
X83282625Y-68236640D01*
X83301110Y-68143714D01*
X82830687Y-68143714D01*
X82837156Y-68132510D01*
X82857600Y-68056210D01*
X82857600Y-67977218D01*
X82837156Y-67900918D01*
X82830687Y-67889714D01*
X83301110Y-67889714D01*
X83301110Y-67889713D01*
X83282625Y-67796787D01*
X83282623Y-67796779D01*
X83225787Y-67659563D01*
X83225782Y-67659554D01*
X83143270Y-67536067D01*
X83143267Y-67536063D01*
X83038250Y-67431046D01*
X83038246Y-67431043D01*
X82914759Y-67348531D01*
X82914750Y-67348526D01*
X82777534Y-67291690D01*
X82777526Y-67291688D01*
X82631865Y-67262714D01*
X82134600Y-67262714D01*
X82134600Y-67716714D01*
X81880600Y-67716714D01*
X81880600Y-67262714D01*
X81850129Y-67232243D01*
X81816644Y-67170920D01*
X81821628Y-67101228D01*
X81856417Y-67054175D01*
X81855218Y-67052976D01*
X81879740Y-67028454D01*
X81968115Y-66940079D01*
X82043881Y-66808849D01*
X82083100Y-66662480D01*
X82083100Y-66510948D01*
X82043881Y-66364579D01*
X82000302Y-66289099D01*
X81983830Y-66221201D01*
X82006682Y-66155174D01*
X82061603Y-66111983D01*
X82107690Y-66103100D01*
X82570370Y-66103100D01*
X82637409Y-66122785D01*
X82658051Y-66139419D01*
X82861044Y-66342412D01*
X82876464Y-66361200D01*
X82905461Y-66404596D01*
X82905464Y-66404599D01*
X82905466Y-66404602D01*
X82953394Y-66452529D01*
X82970708Y-66474239D01*
X83052784Y-66604862D01*
X83180338Y-66732416D01*
X83310964Y-66814493D01*
X83332671Y-66831805D01*
X87330601Y-70829737D01*
X87330605Y-70829740D01*
X87494465Y-70939228D01*
X87494471Y-70939231D01*
X87494472Y-70939232D01*
X87676551Y-71014652D01*
X87837775Y-71046721D01*
X87869843Y-71053099D01*
X87869844Y-71053100D01*
X87869845Y-71053100D01*
X87869846Y-71053100D01*
X88066927Y-71053100D01*
X90231032Y-71053100D01*
X90298071Y-71072785D01*
X90318713Y-71089419D01*
X92169547Y-72940253D01*
X92203032Y-73001576D01*
X92198048Y-73071268D01*
X92156176Y-73127201D01*
X92090712Y-73151618D01*
X92081866Y-73151934D01*
X76557100Y-73151872D01*
X76490060Y-73132187D01*
X76444305Y-73079383D01*
X76433100Y-73027872D01*
X76433100Y-68140895D01*
X76436883Y-68128010D01*
X76434879Y-68123916D01*
X76433100Y-68102989D01*
X76433100Y-67930438D01*
X76437826Y-67914341D01*
X76433594Y-67903584D01*
X76433100Y-67892532D01*
X76433100Y-67889713D01*
X76684089Y-67889713D01*
X76684090Y-67889714D01*
X77154513Y-67889714D01*
X77148044Y-67900918D01*
X77127600Y-67977218D01*
X77127600Y-68056210D01*
X77148044Y-68132510D01*
X77154513Y-68143714D01*
X76684090Y-68143714D01*
X76702574Y-68236640D01*
X76702576Y-68236648D01*
X76759412Y-68373864D01*
X76759417Y-68373873D01*
X76841929Y-68497360D01*
X76841932Y-68497364D01*
X76946949Y-68602381D01*
X76946953Y-68602384D01*
X77070440Y-68684896D01*
X77070449Y-68684901D01*
X77207665Y-68741737D01*
X77207673Y-68741739D01*
X77353333Y-68770713D01*
X77353336Y-68770714D01*
X77700600Y-68770714D01*
X77700600Y-68316714D01*
X77954600Y-68316714D01*
X77954600Y-68770714D01*
X78301864Y-68770714D01*
X78301866Y-68770713D01*
X78447526Y-68741739D01*
X78447534Y-68741737D01*
X78584750Y-68684901D01*
X78584759Y-68684896D01*
X78708246Y-68602384D01*
X78708250Y-68602381D01*
X78813267Y-68497364D01*
X78813270Y-68497360D01*
X78895782Y-68373873D01*
X78895787Y-68373864D01*
X78952623Y-68236648D01*
X78952625Y-68236640D01*
X78971110Y-68143714D01*
X78500687Y-68143714D01*
X78507156Y-68132510D01*
X78527600Y-68056210D01*
X78527600Y-67977218D01*
X78507156Y-67900918D01*
X78500687Y-67889714D01*
X78971110Y-67889714D01*
X78971110Y-67889713D01*
X78952625Y-67796787D01*
X78952623Y-67796779D01*
X78895787Y-67659563D01*
X78895782Y-67659554D01*
X78813270Y-67536067D01*
X78813267Y-67536063D01*
X78708250Y-67431046D01*
X78708246Y-67431043D01*
X78584759Y-67348531D01*
X78584750Y-67348526D01*
X78447534Y-67291690D01*
X78447526Y-67291688D01*
X78301865Y-67262714D01*
X77954600Y-67262714D01*
X77954600Y-67716714D01*
X77700600Y-67716714D01*
X77700600Y-67262714D01*
X77353335Y-67262714D01*
X77207673Y-67291688D01*
X77207665Y-67291690D01*
X77070449Y-67348526D01*
X77070440Y-67348531D01*
X76946953Y-67431043D01*
X76946949Y-67431046D01*
X76841932Y-67536063D01*
X76841929Y-67536067D01*
X76759417Y-67659554D01*
X76759412Y-67659563D01*
X76702576Y-67796779D01*
X76702574Y-67796785D01*
X76684089Y-67889713D01*
X76433100Y-67889713D01*
X76433100Y-59500895D01*
X76436883Y-59488010D01*
X76434879Y-59483916D01*
X76433100Y-59462989D01*
X76433100Y-59290438D01*
X76437826Y-59274341D01*
X76433594Y-59263584D01*
X76433100Y-59252532D01*
X76433100Y-59249713D01*
X76684089Y-59249713D01*
X76684090Y-59249714D01*
X77154513Y-59249714D01*
X77148044Y-59260918D01*
X77127600Y-59337218D01*
X77127600Y-59416210D01*
X77148044Y-59492510D01*
X77154513Y-59503714D01*
X76684090Y-59503714D01*
X76702574Y-59596640D01*
X76702576Y-59596648D01*
X76759412Y-59733864D01*
X76759417Y-59733873D01*
X76841929Y-59857360D01*
X76841932Y-59857364D01*
X76946949Y-59962381D01*
X76946953Y-59962384D01*
X77070440Y-60044896D01*
X77070449Y-60044901D01*
X77207665Y-60101737D01*
X77207673Y-60101739D01*
X77353333Y-60130713D01*
X77353336Y-60130714D01*
X77700600Y-60130714D01*
X77700600Y-59676714D01*
X77954600Y-59676714D01*
X77954600Y-60130714D01*
X78301864Y-60130714D01*
X78301866Y-60130713D01*
X78447526Y-60101739D01*
X78447534Y-60101737D01*
X78584750Y-60044901D01*
X78584759Y-60044896D01*
X78708246Y-59962384D01*
X78708250Y-59962381D01*
X78813267Y-59857364D01*
X78813270Y-59857360D01*
X78895782Y-59733873D01*
X78895787Y-59733864D01*
X78952623Y-59596648D01*
X78952625Y-59596640D01*
X78971110Y-59503714D01*
X78500687Y-59503714D01*
X78507156Y-59492510D01*
X78527600Y-59416210D01*
X78527600Y-59337218D01*
X78507156Y-59260918D01*
X78500687Y-59249714D01*
X78971110Y-59249714D01*
X78971110Y-59249713D01*
X78952625Y-59156787D01*
X78952623Y-59156779D01*
X78895787Y-59019563D01*
X78895782Y-59019554D01*
X78813270Y-58896067D01*
X78813267Y-58896063D01*
X78708250Y-58791046D01*
X78708246Y-58791043D01*
X78584759Y-58708531D01*
X78584750Y-58708526D01*
X78447534Y-58651690D01*
X78447526Y-58651688D01*
X78301865Y-58622714D01*
X77954600Y-58622714D01*
X77954600Y-59076714D01*
X77700600Y-59076714D01*
X77700600Y-58622714D01*
X77353335Y-58622714D01*
X77207673Y-58651688D01*
X77207665Y-58651690D01*
X77070449Y-58708526D01*
X77070440Y-58708531D01*
X76946953Y-58791043D01*
X76946949Y-58791046D01*
X76841932Y-58896063D01*
X76841929Y-58896067D01*
X76759417Y-59019554D01*
X76759412Y-59019563D01*
X76702576Y-59156779D01*
X76702574Y-59156785D01*
X76684089Y-59249713D01*
X76433100Y-59249713D01*
X76433100Y-54364610D01*
X76452785Y-54297571D01*
X76505589Y-54251816D01*
X76557101Y-54240610D01*
X104321832Y-54241077D01*
G37*
G04 #@! TD.AperFunction*
G04 #@! TA.AperFunction,Conductor*
G36*
X110918282Y-65062167D02*
G01*
X110974215Y-65104039D01*
X110995838Y-65150753D01*
X110997228Y-65156846D01*
X111056811Y-65327123D01*
X111152784Y-65479862D01*
X111280338Y-65607416D01*
X111370680Y-65664182D01*
X111424157Y-65697784D01*
X111433078Y-65703389D01*
X111556122Y-65746444D01*
X111603345Y-65762968D01*
X111610132Y-65764517D01*
X111609446Y-65767522D01*
X111661249Y-65789197D01*
X111700893Y-65846731D01*
X111707100Y-65885471D01*
X111707100Y-69290369D01*
X111687415Y-69357408D01*
X111670781Y-69378050D01*
X110808050Y-70240781D01*
X110746727Y-70274266D01*
X110720369Y-70277100D01*
X109583680Y-70277100D01*
X109469982Y-70299717D01*
X109445790Y-70302100D01*
X107882372Y-70302100D01*
X107815333Y-70282415D01*
X107769578Y-70229611D01*
X107759152Y-70191983D01*
X107742969Y-70048350D01*
X107742968Y-70048345D01*
X107683388Y-69878076D01*
X107587415Y-69725337D01*
X107581919Y-69719841D01*
X107548434Y-69658518D01*
X107545600Y-69632160D01*
X107545600Y-68383698D01*
X107565285Y-68316659D01*
X107581915Y-68296021D01*
X107769611Y-68108324D01*
X107769616Y-68108321D01*
X107779819Y-68098117D01*
X107779821Y-68098117D01*
X107889297Y-67988641D01*
X107889297Y-67988639D01*
X107899501Y-67978436D01*
X107899505Y-67978431D01*
X110787269Y-65090666D01*
X110848590Y-65057183D01*
X110918282Y-65062167D01*
G37*
G04 #@! TD.AperFunction*
G04 #@! TA.AperFunction,Conductor*
G36*
X100612356Y-57585277D02*
G01*
X100668289Y-57627149D01*
X100692242Y-57687575D01*
X100697230Y-57731850D01*
X100697231Y-57731854D01*
X100756811Y-57902123D01*
X100825611Y-58011617D01*
X100852784Y-58054862D01*
X100980338Y-58182416D01*
X101024184Y-58209966D01*
X101131061Y-58277122D01*
X101133078Y-58278389D01*
X101303345Y-58337968D01*
X101303350Y-58337969D01*
X101482596Y-58358165D01*
X101482600Y-58358165D01*
X101482604Y-58358165D01*
X101661849Y-58337969D01*
X101661852Y-58337968D01*
X101661855Y-58337968D01*
X101741617Y-58310057D01*
X101782572Y-58303100D01*
X102908100Y-58303100D01*
X102975139Y-58322785D01*
X103020894Y-58375589D01*
X103032100Y-58427100D01*
X103032100Y-59401518D01*
X103032100Y-59401520D01*
X103032099Y-59401520D01*
X103060940Y-59546507D01*
X103060943Y-59546517D01*
X103117514Y-59683093D01*
X103126956Y-59697223D01*
X103126957Y-59697226D01*
X103199646Y-59806014D01*
X103199652Y-59806021D01*
X103831870Y-60438237D01*
X103849182Y-60459945D01*
X103940554Y-60605362D01*
X104068108Y-60732916D01*
X104158450Y-60789682D01*
X104220513Y-60828679D01*
X104220848Y-60828889D01*
X104374002Y-60882480D01*
X104391115Y-60888468D01*
X104391120Y-60888469D01*
X104570366Y-60908665D01*
X104570370Y-60908665D01*
X104570374Y-60908665D01*
X104749619Y-60888469D01*
X104749622Y-60888468D01*
X104749625Y-60888468D01*
X104919892Y-60828889D01*
X105072632Y-60732916D01*
X105200186Y-60605362D01*
X107041129Y-58764419D01*
X107102452Y-58730934D01*
X107128810Y-58728100D01*
X108675685Y-58728100D01*
X108689569Y-58728880D01*
X108727598Y-58733165D01*
X108727600Y-58733165D01*
X108727602Y-58733165D01*
X108765631Y-58728880D01*
X108779515Y-58728100D01*
X108806441Y-58728100D01*
X108806442Y-58728100D01*
X108845617Y-58720307D01*
X108855883Y-58718710D01*
X108906855Y-58712968D01*
X108930700Y-58704623D01*
X108947462Y-58700048D01*
X108961097Y-58697337D01*
X109009989Y-58677084D01*
X109016437Y-58674623D01*
X109077122Y-58653389D01*
X109087468Y-58646887D01*
X109105990Y-58637320D01*
X109106779Y-58636994D01*
X109161587Y-58600371D01*
X109164425Y-58598531D01*
X109229862Y-58557416D01*
X109357416Y-58429862D01*
X109398531Y-58364425D01*
X109400377Y-58361579D01*
X109436989Y-58306786D01*
X109436994Y-58306779D01*
X109437320Y-58305990D01*
X109446887Y-58287468D01*
X109453389Y-58277122D01*
X109474623Y-58216437D01*
X109477084Y-58209989D01*
X109497337Y-58161097D01*
X109500048Y-58147462D01*
X109504623Y-58130700D01*
X109512968Y-58106855D01*
X109518710Y-58055883D01*
X109520307Y-58045617D01*
X109523830Y-58027903D01*
X109556218Y-57965995D01*
X109616935Y-57931423D01*
X109645447Y-57928100D01*
X110661032Y-57928100D01*
X110728071Y-57947785D01*
X110748713Y-57964419D01*
X112445784Y-59661490D01*
X112479269Y-59722813D01*
X112482103Y-59749171D01*
X112482103Y-64061277D01*
X112462418Y-64128316D01*
X112409614Y-64174071D01*
X112371987Y-64184497D01*
X112303352Y-64192230D01*
X112223584Y-64220142D01*
X112182631Y-64227100D01*
X112082572Y-64227100D01*
X112041617Y-64220142D01*
X111961846Y-64192228D01*
X111955753Y-64190838D01*
X111894775Y-64156728D01*
X111861920Y-64095065D01*
X111867617Y-64025428D01*
X111895666Y-63982269D01*
X111933430Y-63944506D01*
X111933435Y-63944502D01*
X111943638Y-63934298D01*
X111943640Y-63934298D01*
X112053116Y-63824822D01*
X112130528Y-63690741D01*
X112170599Y-63541193D01*
X112170599Y-62589007D01*
X112130528Y-62439459D01*
X112053116Y-62305378D01*
X111943640Y-62195902D01*
X111943639Y-62195901D01*
X111939309Y-62191571D01*
X111939298Y-62191561D01*
X111006919Y-61259182D01*
X110973434Y-61197859D01*
X110970600Y-61171501D01*
X110970600Y-60448040D01*
X110990285Y-60381001D01*
X111006919Y-60360359D01*
X111008126Y-60359152D01*
X111012416Y-60354862D01*
X111108389Y-60202122D01*
X111167968Y-60031855D01*
X111169302Y-60020017D01*
X111188165Y-59852603D01*
X111188165Y-59852596D01*
X111167969Y-59673350D01*
X111167968Y-59673345D01*
X111148173Y-59616774D01*
X111108389Y-59503078D01*
X111107017Y-59500895D01*
X111044576Y-59401520D01*
X111012416Y-59350338D01*
X110884862Y-59222784D01*
X110836680Y-59192509D01*
X110732123Y-59126811D01*
X110561854Y-59067231D01*
X110561849Y-59067230D01*
X110382604Y-59047035D01*
X110382596Y-59047035D01*
X110203350Y-59067230D01*
X110203342Y-59067232D01*
X110051228Y-59120459D01*
X109981449Y-59124020D01*
X109944304Y-59108412D01*
X109932533Y-59101016D01*
X109762276Y-59041440D01*
X109762263Y-59041437D01*
X109583018Y-59021242D01*
X109583010Y-59021242D01*
X109403764Y-59041437D01*
X109403759Y-59041438D01*
X109233490Y-59101018D01*
X109080751Y-59196991D01*
X108953198Y-59324544D01*
X108857225Y-59477283D01*
X108797645Y-59647552D01*
X108797644Y-59647557D01*
X108777449Y-59826803D01*
X108777449Y-59826810D01*
X108797644Y-60006056D01*
X108797645Y-60006061D01*
X108857225Y-60176330D01*
X108953198Y-60329069D01*
X108983281Y-60359152D01*
X109016766Y-60420475D01*
X109019600Y-60446833D01*
X109019600Y-60928100D01*
X108999915Y-60995139D01*
X108947111Y-61040894D01*
X108895600Y-61052100D01*
X106284015Y-61052100D01*
X106270131Y-61051320D01*
X106232102Y-61047035D01*
X106232098Y-61047035D01*
X106194069Y-61051320D01*
X106180185Y-61052100D01*
X106153252Y-61052100D01*
X106114094Y-61059888D01*
X106103796Y-61061490D01*
X106052842Y-61067232D01*
X106052835Y-61067234D01*
X106028998Y-61075575D01*
X106012240Y-61080150D01*
X105998602Y-61082863D01*
X105998596Y-61082864D01*
X105949731Y-61103104D01*
X105943240Y-61105582D01*
X105882577Y-61126810D01*
X105882574Y-61126812D01*
X105872227Y-61133313D01*
X105853739Y-61142866D01*
X105852932Y-61143200D01*
X105852924Y-61143204D01*
X105852921Y-61143205D01*
X105852921Y-61143206D01*
X105810574Y-61171501D01*
X105798147Y-61179804D01*
X105795232Y-61181692D01*
X105729842Y-61222780D01*
X105729835Y-61222786D01*
X105602286Y-61350335D01*
X105602280Y-61350342D01*
X105561192Y-61415732D01*
X105559304Y-61418647D01*
X105522704Y-61473424D01*
X105522700Y-61473432D01*
X105522366Y-61474239D01*
X105512813Y-61492727D01*
X105506312Y-61503074D01*
X105506310Y-61503077D01*
X105485082Y-61563740D01*
X105482604Y-61570231D01*
X105462364Y-61619096D01*
X105462363Y-61619102D01*
X105459650Y-61632740D01*
X105455075Y-61649498D01*
X105446734Y-61673335D01*
X105446732Y-61673342D01*
X105440990Y-61724296D01*
X105439388Y-61734594D01*
X105431600Y-61773752D01*
X105431600Y-61800685D01*
X105430820Y-61814569D01*
X105426535Y-61852598D01*
X105426535Y-61852601D01*
X105430820Y-61890629D01*
X105431600Y-61904514D01*
X105431600Y-61931444D01*
X105439388Y-61970603D01*
X105440990Y-61980903D01*
X105446732Y-62031852D01*
X105446733Y-62031860D01*
X105455076Y-62055704D01*
X105459650Y-62072460D01*
X105462362Y-62086096D01*
X105482609Y-62134977D01*
X105485086Y-62141467D01*
X105506301Y-62202094D01*
X105506312Y-62202124D01*
X105512809Y-62212465D01*
X105522368Y-62230965D01*
X105522703Y-62231773D01*
X105522705Y-62231779D01*
X105559323Y-62286582D01*
X105561214Y-62289500D01*
X105602280Y-62354857D01*
X105602282Y-62354860D01*
X105602284Y-62354862D01*
X105729838Y-62482416D01*
X105795231Y-62523505D01*
X105798140Y-62525390D01*
X105852921Y-62561994D01*
X105853706Y-62562319D01*
X105872234Y-62571889D01*
X105882578Y-62578389D01*
X105943275Y-62599628D01*
X105949707Y-62602084D01*
X105978121Y-62613853D01*
X105998597Y-62622335D01*
X105998598Y-62622335D01*
X105998603Y-62622337D01*
X106012239Y-62625049D01*
X106028998Y-62629623D01*
X106052845Y-62637968D01*
X106103814Y-62643710D01*
X106114092Y-62645309D01*
X106141240Y-62650709D01*
X106153257Y-62653100D01*
X106153258Y-62653100D01*
X106180185Y-62653100D01*
X106194069Y-62653880D01*
X106232098Y-62658165D01*
X106232100Y-62658165D01*
X106232102Y-62658165D01*
X106270131Y-62653880D01*
X106284015Y-62653100D01*
X108674660Y-62653100D01*
X108741699Y-62672785D01*
X108762341Y-62689419D01*
X108770764Y-62697842D01*
X108827803Y-62733682D01*
X108836157Y-62738931D01*
X108839066Y-62740816D01*
X108893847Y-62777420D01*
X108894632Y-62777745D01*
X108913160Y-62787315D01*
X108923504Y-62793815D01*
X108966687Y-62808925D01*
X108984166Y-62815041D01*
X108990634Y-62817509D01*
X109039528Y-62837763D01*
X109053163Y-62840475D01*
X109069923Y-62845050D01*
X109087213Y-62851099D01*
X109093771Y-62853394D01*
X109144749Y-62859137D01*
X109155002Y-62860732D01*
X109194183Y-62868526D01*
X109194184Y-62868526D01*
X109221112Y-62868526D01*
X109234994Y-62869306D01*
X109243360Y-62870248D01*
X109256377Y-62871715D01*
X109320791Y-62898780D01*
X109330176Y-62907254D01*
X109963101Y-63540179D01*
X109996586Y-63601502D01*
X109991602Y-63671194D01*
X109963101Y-63715541D01*
X107050362Y-66628281D01*
X106989039Y-66661766D01*
X106962681Y-66664600D01*
X104717040Y-66664600D01*
X104650001Y-66644915D01*
X104604246Y-66592111D01*
X104594302Y-66522953D01*
X104623327Y-66459397D01*
X104629359Y-66452919D01*
X104904387Y-66177891D01*
X104904389Y-66177889D01*
X104922670Y-66150529D01*
X104991994Y-66046779D01*
X105052337Y-65901097D01*
X105073550Y-65794455D01*
X105083100Y-65746443D01*
X105083100Y-65588758D01*
X105083100Y-64454014D01*
X105083880Y-64440129D01*
X105088165Y-64402101D01*
X105088165Y-64402098D01*
X105083880Y-64364069D01*
X105083100Y-64350185D01*
X105083100Y-64323257D01*
X105075311Y-64284103D01*
X105073710Y-64273814D01*
X105067968Y-64222845D01*
X105059623Y-64198998D01*
X105055049Y-64182239D01*
X105052337Y-64168603D01*
X105052334Y-64168596D01*
X105041207Y-64141732D01*
X105032084Y-64119707D01*
X105029628Y-64113275D01*
X105008389Y-64052578D01*
X105001889Y-64042234D01*
X104992319Y-64023706D01*
X104991994Y-64022921D01*
X104955390Y-63968140D01*
X104953505Y-63965231D01*
X104934069Y-63934299D01*
X104912416Y-63899838D01*
X104784862Y-63772284D01*
X104784860Y-63772282D01*
X104784857Y-63772280D01*
X104726672Y-63735720D01*
X104719494Y-63731210D01*
X104716582Y-63729323D01*
X104661779Y-63692705D01*
X104661773Y-63692703D01*
X104660965Y-63692368D01*
X104642465Y-63682809D01*
X104632124Y-63676312D01*
X104632123Y-63676311D01*
X104632122Y-63676311D01*
X104571467Y-63655086D01*
X104564977Y-63652609D01*
X104516096Y-63632362D01*
X104502460Y-63629650D01*
X104485704Y-63625076D01*
X104461860Y-63616733D01*
X104461856Y-63616732D01*
X104461855Y-63616732D01*
X104441175Y-63614401D01*
X104410903Y-63610990D01*
X104400603Y-63609388D01*
X104361444Y-63601600D01*
X104361442Y-63601600D01*
X104334515Y-63601600D01*
X104320631Y-63600820D01*
X104282602Y-63596535D01*
X104282598Y-63596535D01*
X104244569Y-63600820D01*
X104230685Y-63601600D01*
X104203752Y-63601600D01*
X104164594Y-63609388D01*
X104154296Y-63610990D01*
X104103342Y-63616732D01*
X104103335Y-63616734D01*
X104079498Y-63625075D01*
X104062740Y-63629650D01*
X104049102Y-63632363D01*
X104049096Y-63632364D01*
X104000231Y-63652604D01*
X103993740Y-63655082D01*
X103933077Y-63676310D01*
X103933074Y-63676312D01*
X103922727Y-63682813D01*
X103904239Y-63692366D01*
X103903432Y-63692700D01*
X103903424Y-63692704D01*
X103848647Y-63729304D01*
X103845732Y-63731192D01*
X103780342Y-63772280D01*
X103780335Y-63772286D01*
X103652786Y-63899835D01*
X103652780Y-63899842D01*
X103611692Y-63965232D01*
X103609809Y-63968138D01*
X103573208Y-64022918D01*
X103573204Y-64022924D01*
X103573200Y-64022932D01*
X103572866Y-64023739D01*
X103563313Y-64042227D01*
X103556812Y-64052574D01*
X103556810Y-64052577D01*
X103535582Y-64113240D01*
X103533104Y-64119731D01*
X103512864Y-64168596D01*
X103512863Y-64168602D01*
X103510150Y-64182240D01*
X103505575Y-64198998D01*
X103497234Y-64222835D01*
X103497232Y-64222842D01*
X103491490Y-64273796D01*
X103489888Y-64284094D01*
X103482100Y-64323252D01*
X103482100Y-64350185D01*
X103481320Y-64364069D01*
X103477035Y-64402098D01*
X103477035Y-64402101D01*
X103481320Y-64440129D01*
X103482100Y-64454014D01*
X103482100Y-65284659D01*
X103462415Y-65351698D01*
X103445781Y-65372340D01*
X102921746Y-65896374D01*
X102860423Y-65929859D01*
X102790731Y-65924875D01*
X102768095Y-65913688D01*
X102747814Y-65900945D01*
X102577557Y-65841369D01*
X102577544Y-65841366D01*
X102398299Y-65821171D01*
X102398291Y-65821171D01*
X102219045Y-65841366D01*
X102219040Y-65841367D01*
X102091055Y-65886152D01*
X102021276Y-65889713D01*
X101960649Y-65854984D01*
X101928421Y-65792991D01*
X101930324Y-65737019D01*
X101945600Y-65680012D01*
X101945600Y-63000188D01*
X101905529Y-62850640D01*
X101828117Y-62716559D01*
X101718641Y-62607083D01*
X101718640Y-62607082D01*
X101576339Y-62464781D01*
X101542854Y-62403458D01*
X101547838Y-62333766D01*
X101589710Y-62277833D01*
X101655174Y-62253416D01*
X101664020Y-62253100D01*
X101881185Y-62253100D01*
X101895069Y-62253880D01*
X101933098Y-62258165D01*
X101933100Y-62258165D01*
X101933102Y-62258165D01*
X101971131Y-62253880D01*
X101985015Y-62253100D01*
X102011941Y-62253100D01*
X102011942Y-62253100D01*
X102051117Y-62245307D01*
X102061383Y-62243710D01*
X102112355Y-62237968D01*
X102136200Y-62229623D01*
X102152962Y-62225048D01*
X102166597Y-62222337D01*
X102215489Y-62202084D01*
X102221937Y-62199623D01*
X102282622Y-62178389D01*
X102292968Y-62171887D01*
X102311490Y-62162320D01*
X102312279Y-62161994D01*
X102367087Y-62125371D01*
X102369925Y-62123531D01*
X102435362Y-62082416D01*
X102562916Y-61954862D01*
X102604031Y-61889425D01*
X102605877Y-61886579D01*
X102628581Y-61852601D01*
X102642494Y-61831779D01*
X102642820Y-61830990D01*
X102652387Y-61812468D01*
X102658889Y-61802122D01*
X102680123Y-61741437D01*
X102682584Y-61734989D01*
X102702837Y-61686097D01*
X102705548Y-61672462D01*
X102710123Y-61655700D01*
X102718468Y-61631855D01*
X102724210Y-61580883D01*
X102725807Y-61570617D01*
X102733600Y-61531442D01*
X102733600Y-61504514D01*
X102734380Y-61490629D01*
X102735141Y-61483880D01*
X102738665Y-61452600D01*
X102734379Y-61414568D01*
X102733600Y-61400685D01*
X102733600Y-61373757D01*
X102725811Y-61334603D01*
X102724210Y-61324314D01*
X102718468Y-61273345D01*
X102710123Y-61249498D01*
X102705549Y-61232739D01*
X102702837Y-61219103D01*
X102696604Y-61204056D01*
X102694038Y-61197859D01*
X102682584Y-61170207D01*
X102680128Y-61163775D01*
X102658889Y-61103078D01*
X102652389Y-61092734D01*
X102642819Y-61074206D01*
X102642494Y-61073421D01*
X102605890Y-61018640D01*
X102604005Y-61015731D01*
X102562916Y-60950338D01*
X102435362Y-60822784D01*
X102435360Y-60822782D01*
X102435357Y-60822780D01*
X102370000Y-60781714D01*
X102367082Y-60779823D01*
X102312279Y-60743205D01*
X102312273Y-60743203D01*
X102311465Y-60742868D01*
X102292965Y-60733309D01*
X102282624Y-60726812D01*
X102282623Y-60726811D01*
X102282622Y-60726811D01*
X102221967Y-60705586D01*
X102215477Y-60703109D01*
X102166596Y-60682862D01*
X102152960Y-60680150D01*
X102136204Y-60675576D01*
X102112360Y-60667233D01*
X102112356Y-60667232D01*
X102112355Y-60667232D01*
X102090897Y-60664814D01*
X102061403Y-60661490D01*
X102051103Y-60659888D01*
X102011944Y-60652100D01*
X102011942Y-60652100D01*
X101985015Y-60652100D01*
X101971131Y-60651320D01*
X101933102Y-60647035D01*
X101933098Y-60647035D01*
X101895069Y-60651320D01*
X101881185Y-60652100D01*
X99392010Y-60652100D01*
X99324971Y-60632415D01*
X99304329Y-60615781D01*
X98408112Y-59719564D01*
X98374627Y-59658241D01*
X98379611Y-59588549D01*
X98421483Y-59532616D01*
X98448337Y-59517324D01*
X98576514Y-59464231D01*
X98740381Y-59354739D01*
X99134347Y-58960774D01*
X99134347Y-58960772D01*
X99144551Y-58950569D01*
X99144554Y-58950564D01*
X100481342Y-57613776D01*
X100542664Y-57580293D01*
X100612356Y-57585277D01*
G37*
G04 #@! TD.AperFunction*
G04 #@! TA.AperFunction,Conductor*
G36*
X106782194Y-54241118D02*
G01*
X106849231Y-54260804D01*
X106894985Y-54313608D01*
X106904928Y-54382767D01*
X106875902Y-54446322D01*
X106829350Y-54479083D01*
X106829425Y-54479233D01*
X106828441Y-54479722D01*
X106826996Y-54480740D01*
X106824299Y-54481784D01*
X106824292Y-54481788D01*
X106798654Y-54497662D01*
X106780838Y-54506792D01*
X106758689Y-54515967D01*
X106594816Y-54625462D01*
X106455463Y-54764815D01*
X106455460Y-54764819D01*
X106370013Y-54892699D01*
X106365876Y-54898520D01*
X106363044Y-54902271D01*
X106360027Y-54907143D01*
X106359947Y-54907093D01*
X106356991Y-54912187D01*
X106345969Y-54928685D01*
X106328203Y-54971573D01*
X106324644Y-54979388D01*
X106269241Y-55090653D01*
X106269240Y-55090654D01*
X106211651Y-55293062D01*
X106192412Y-55500682D01*
X106188940Y-55509424D01*
X106192951Y-55517151D01*
X106194729Y-55529517D01*
X106211651Y-55712137D01*
X106211651Y-55712139D01*
X106211652Y-55712142D01*
X106269241Y-55914547D01*
X106269242Y-55914550D01*
X106363042Y-56102925D01*
X106489861Y-56270860D01*
X106645376Y-56412630D01*
X106645378Y-56412632D01*
X106747715Y-56475996D01*
X106824296Y-56523413D01*
X106986320Y-56586180D01*
X107029206Y-56614126D01*
X107330498Y-56915419D01*
X107363983Y-56976742D01*
X107358999Y-57046434D01*
X107317127Y-57102367D01*
X107251663Y-57126784D01*
X107242817Y-57127100D01*
X106667023Y-57127100D01*
X106512380Y-57157860D01*
X106512372Y-57157862D01*
X106366694Y-57218204D01*
X106366684Y-57218209D01*
X106235581Y-57305810D01*
X106235577Y-57305813D01*
X104744781Y-58796610D01*
X104683458Y-58830095D01*
X104613766Y-58825111D01*
X104557833Y-58783239D01*
X104533416Y-58717775D01*
X104533100Y-58708929D01*
X104533100Y-58052572D01*
X104540058Y-58011617D01*
X104562394Y-57947785D01*
X104567968Y-57931855D01*
X104568391Y-57928100D01*
X104588165Y-57752603D01*
X104588165Y-57752596D01*
X104567969Y-57573350D01*
X104567968Y-57573345D01*
X104508388Y-57403076D01*
X104412415Y-57250337D01*
X104284862Y-57122784D01*
X104132116Y-57026807D01*
X104125847Y-57023788D01*
X104126729Y-57021956D01*
X104090660Y-56999292D01*
X104061016Y-56969648D01*
X104061015Y-56969647D01*
X104061014Y-56969646D01*
X103987329Y-56920412D01*
X103987329Y-56920413D01*
X103938091Y-56887513D01*
X103801517Y-56830943D01*
X103801507Y-56830940D01*
X103656520Y-56802100D01*
X103656518Y-56802100D01*
X101782572Y-56802100D01*
X101741618Y-56795142D01*
X101667314Y-56769142D01*
X101610537Y-56728420D01*
X101584790Y-56663467D01*
X101598246Y-56594906D01*
X101646633Y-56544503D01*
X101708268Y-56528100D01*
X104231209Y-56528100D01*
X104294102Y-56545995D01*
X104294170Y-56545860D01*
X104294896Y-56546221D01*
X104296489Y-56546675D01*
X104299293Y-56548411D01*
X104299298Y-56548414D01*
X104340868Y-56564518D01*
X104495524Y-56624432D01*
X104702380Y-56663100D01*
X104702382Y-56663100D01*
X104912818Y-56663100D01*
X104912820Y-56663100D01*
X105119676Y-56624432D01*
X105315904Y-56548413D01*
X105494823Y-56437631D01*
X105650340Y-56295859D01*
X105777158Y-56127925D01*
X105870959Y-55939547D01*
X105928548Y-55737142D01*
X105947787Y-55529517D01*
X105951259Y-55520774D01*
X105947248Y-55513047D01*
X105945471Y-55500692D01*
X105928548Y-55318058D01*
X105870959Y-55115653D01*
X105777158Y-54927275D01*
X105650340Y-54759341D01*
X105612418Y-54724771D01*
X105494823Y-54617569D01*
X105494821Y-54617567D01*
X105315907Y-54506788D01*
X105315895Y-54506782D01*
X105248618Y-54480719D01*
X105193217Y-54438146D01*
X105169627Y-54372379D01*
X105185339Y-54304299D01*
X105235363Y-54255520D01*
X105293412Y-54241093D01*
X106782194Y-54241118D01*
G37*
G04 #@! TD.AperFunction*
M02*
