G04 #@! TF.GenerationSoftware,KiCad,Pcbnew,8.0.3*
G04 #@! TF.CreationDate,2024-07-16T08:53:46+02:00*
G04 #@! TF.ProjectId,Midi Stick,4d696469-2053-4746-9963-6b2e6b696361,1.3*
G04 #@! TF.SameCoordinates,Original*
G04 #@! TF.FileFunction,Copper,L2,Bot*
G04 #@! TF.FilePolarity,Positive*
%FSLAX46Y46*%
G04 Gerber Fmt 4.6, Leading zero omitted, Abs format (unit mm)*
G04 Created by KiCad (PCBNEW 8.0.3) date 2024-07-16 08:53:46*
%MOMM*%
%LPD*%
G01*
G04 APERTURE LIST*
G04 Aperture macros list*
%AMRoundRect*
0 Rectangle with rounded corners*
0 $1 Rounding radius*
0 $2 $3 $4 $5 $6 $7 $8 $9 X,Y pos of 4 corners*
0 Add a 4 corners polygon primitive as box body*
4,1,4,$2,$3,$4,$5,$6,$7,$8,$9,$2,$3,0*
0 Add four circle primitives for the rounded corners*
1,1,$1+$1,$2,$3*
1,1,$1+$1,$4,$5*
1,1,$1+$1,$6,$7*
1,1,$1+$1,$8,$9*
0 Add four rect primitives between the rounded corners*
20,1,$1+$1,$2,$3,$4,$5,0*
20,1,$1+$1,$4,$5,$6,$7,0*
20,1,$1+$1,$6,$7,$8,$9,0*
20,1,$1+$1,$8,$9,$2,$3,0*%
G04 Aperture macros list end*
G04 #@! TA.AperFunction,ComponentPad*
%ADD10R,1.700000X1.700000*%
G04 #@! TD*
G04 #@! TA.AperFunction,ComponentPad*
%ADD11O,1.700000X1.700000*%
G04 #@! TD*
G04 #@! TA.AperFunction,ComponentPad*
%ADD12C,1.600000*%
G04 #@! TD*
G04 #@! TA.AperFunction,ComponentPad*
%ADD13C,1.219200*%
G04 #@! TD*
G04 #@! TA.AperFunction,ComponentPad*
%ADD14O,2.000000X1.750000*%
G04 #@! TD*
G04 #@! TA.AperFunction,ComponentPad*
%ADD15O,2.000000X1.250000*%
G04 #@! TD*
G04 #@! TA.AperFunction,ComponentPad*
%ADD16O,2.000000X1.500000*%
G04 #@! TD*
G04 #@! TA.AperFunction,ComponentPad*
%ADD17O,3.200000X2.000000*%
G04 #@! TD*
G04 #@! TA.AperFunction,SMDPad,CuDef*
%ADD18R,1.050000X0.600000*%
G04 #@! TD*
G04 #@! TA.AperFunction,SMDPad,CuDef*
%ADD19RoundRect,0.225000X0.250000X-0.225000X0.250000X0.225000X-0.250000X0.225000X-0.250000X-0.225000X0*%
G04 #@! TD*
G04 #@! TA.AperFunction,SMDPad,CuDef*
%ADD20RoundRect,0.200000X0.275000X-0.200000X0.275000X0.200000X-0.275000X0.200000X-0.275000X-0.200000X0*%
G04 #@! TD*
G04 #@! TA.AperFunction,SMDPad,CuDef*
%ADD21RoundRect,0.225000X0.225000X0.250000X-0.225000X0.250000X-0.225000X-0.250000X0.225000X-0.250000X0*%
G04 #@! TD*
G04 #@! TA.AperFunction,SMDPad,CuDef*
%ADD22RoundRect,0.200000X-0.200000X-0.275000X0.200000X-0.275000X0.200000X0.275000X-0.200000X0.275000X0*%
G04 #@! TD*
G04 #@! TA.AperFunction,SMDPad,CuDef*
%ADD23R,1.200000X1.400000*%
G04 #@! TD*
G04 #@! TA.AperFunction,SMDPad,CuDef*
%ADD24RoundRect,0.069750X0.395250X-0.585250X0.395250X0.585250X-0.395250X0.585250X-0.395250X-0.585250X0*%
G04 #@! TD*
G04 #@! TA.AperFunction,SMDPad,CuDef*
%ADD25RoundRect,0.098250X1.521750X-0.556750X1.521750X0.556750X-1.521750X0.556750X-1.521750X-0.556750X0*%
G04 #@! TD*
G04 #@! TA.AperFunction,SMDPad,CuDef*
%ADD26RoundRect,0.225000X-0.225000X-0.250000X0.225000X-0.250000X0.225000X0.250000X-0.225000X0.250000X0*%
G04 #@! TD*
G04 #@! TA.AperFunction,SMDPad,CuDef*
%ADD27RoundRect,0.073750X0.221250X-0.546250X0.221250X0.546250X-0.221250X0.546250X-0.221250X-0.546250X0*%
G04 #@! TD*
G04 #@! TA.AperFunction,ViaPad*
%ADD28C,0.700000*%
G04 #@! TD*
G04 #@! TA.AperFunction,ViaPad*
%ADD29C,1.270000*%
G04 #@! TD*
G04 #@! TA.AperFunction,Conductor*
%ADD30C,0.254000*%
G04 #@! TD*
G04 #@! TA.AperFunction,Conductor*
%ADD31C,0.500000*%
G04 #@! TD*
G04 #@! TA.AperFunction,Conductor*
%ADD32C,0.300000*%
G04 #@! TD*
G04 APERTURE END LIST*
D10*
X95666601Y-57876740D03*
D11*
X93126601Y-57876740D03*
D12*
X123992601Y-58652600D03*
D13*
X123992601Y-61192600D03*
X123992601Y-63732600D03*
D12*
X123992601Y-66272600D03*
X126532601Y-66272600D03*
D13*
X126532601Y-63732600D03*
X126532601Y-61192600D03*
D12*
X126532601Y-58652600D03*
D14*
X88650001Y-66002600D03*
D15*
X88650001Y-63502600D03*
D16*
X88650001Y-61502600D03*
D14*
X88650001Y-59002600D03*
D17*
X86332601Y-68352600D03*
X86332601Y-56652600D03*
D18*
X93032601Y-63452600D03*
X93032601Y-61552600D03*
X95232601Y-62502600D03*
D19*
X106632601Y-63727600D03*
X106632601Y-62177600D03*
D20*
X115032601Y-69177600D03*
X115032601Y-67527600D03*
D21*
X100607601Y-69752600D03*
X99057601Y-69752600D03*
D19*
X112032601Y-63627600D03*
X112032601Y-62077600D03*
D22*
X120207601Y-66252600D03*
X121857601Y-66252600D03*
D23*
X108452601Y-63952600D03*
X108452601Y-61752600D03*
X110212601Y-61752600D03*
X110212601Y-63952600D03*
D21*
X100607601Y-68052600D03*
X99057601Y-68052600D03*
D22*
X120307601Y-58652600D03*
X121957601Y-58652600D03*
D19*
X104532601Y-65527600D03*
X104532601Y-63977600D03*
D21*
X129507601Y-62552600D03*
X127957601Y-62552600D03*
D24*
X102132601Y-65952600D03*
X99842601Y-65952600D03*
X97552601Y-65952600D03*
D25*
X99842601Y-59262600D03*
D26*
X103357601Y-68152600D03*
X104907601Y-68152600D03*
D27*
X118782601Y-69162600D03*
X116882601Y-69162600D03*
X117832601Y-67052600D03*
D28*
X130182600Y-61452600D03*
X127182600Y-60052600D03*
X89132641Y-55052560D03*
X98132651Y-57052560D03*
X122582600Y-59952600D03*
X129132661Y-55052560D03*
X91132641Y-59052560D03*
X117582600Y-61352600D03*
X96132641Y-69052560D03*
X130182600Y-63552600D03*
X112282600Y-68652600D03*
X96132641Y-65052560D03*
X124132661Y-69052560D03*
X97132651Y-59052560D03*
X120082600Y-64852600D03*
X91132641Y-67052560D03*
X125282600Y-64852600D03*
X117682600Y-56152600D03*
X120132661Y-57052560D03*
D29*
X109890601Y-55010600D03*
D28*
X117582600Y-63152600D03*
X120132661Y-69052560D03*
X85132641Y-59052560D03*
X105132651Y-63052560D03*
X128132661Y-57052560D03*
X126132661Y-57052560D03*
X119982600Y-59952600D03*
X94132641Y-69052560D03*
X115282600Y-59552600D03*
X98132651Y-69052560D03*
X130132661Y-57052560D03*
X95132641Y-67052560D03*
X85132641Y-55052560D03*
X97132651Y-63052560D03*
X122132661Y-69052560D03*
X130132661Y-69052560D03*
X127132661Y-55052560D03*
X90132641Y-57052560D03*
X125132661Y-55052560D03*
X90132641Y-69052560D03*
X123132661Y-55052560D03*
X126132661Y-69052560D03*
X111482600Y-60552600D03*
X117582600Y-64752600D03*
X103132651Y-55052560D03*
X126982600Y-64952600D03*
X113132651Y-63052560D03*
X85132641Y-63052560D03*
X115182600Y-64352600D03*
X106982600Y-64852600D03*
X121132661Y-55052560D03*
X91132641Y-55052560D03*
X118082600Y-59552600D03*
X116113601Y-69117160D03*
X94142601Y-66003600D03*
X104810601Y-66981600D03*
X104518601Y-59709600D03*
X111668601Y-56407600D03*
X114081601Y-61487600D03*
X108915601Y-60465800D03*
X107421601Y-60598600D03*
X90182600Y-63453600D03*
X113082600Y-69452600D03*
X122005661Y-57369420D03*
D30*
X116113601Y-69117160D02*
X116116161Y-69114600D01*
X116116161Y-69114600D02*
X116941601Y-69114600D01*
D31*
X128036601Y-63915600D02*
X128036601Y-62503600D01*
X99207601Y-69742600D02*
X99207601Y-68091600D01*
X104810601Y-70377600D02*
X126695121Y-70377600D01*
X98206601Y-68091600D02*
X99207601Y-68091600D01*
X127797601Y-64154600D02*
X128036601Y-63915600D01*
X127797601Y-65693600D02*
X127797601Y-64154600D01*
X127797601Y-65693600D02*
X128432601Y-66328600D01*
X104484231Y-70885600D02*
X104810601Y-70559220D01*
X127416601Y-61233600D02*
X128036601Y-61853600D01*
X104810601Y-70559220D02*
X104810601Y-70377600D01*
D30*
X104810601Y-70377600D02*
X104810601Y-66981600D01*
D31*
X94142601Y-66003600D02*
X97109601Y-66003600D01*
X123860601Y-61233600D02*
X123987601Y-61233600D01*
X123987601Y-61233600D02*
X126527601Y-61233600D01*
X128432601Y-68640120D02*
X128432601Y-66328600D01*
X99207601Y-70616600D02*
X99476601Y-70885600D01*
X99207601Y-70616600D02*
X99207601Y-69742600D01*
X126695121Y-70377600D02*
X128432601Y-68640120D01*
X128036601Y-62503600D02*
X128036601Y-61853600D01*
X99476601Y-70885600D02*
X104484231Y-70885600D01*
X88887601Y-66003600D02*
X94142601Y-66003600D01*
X126527601Y-61233600D02*
X127416601Y-61233600D01*
X97557601Y-67442600D02*
X98206601Y-68091600D01*
X97557601Y-67442600D02*
X97557601Y-65555600D01*
D30*
X97109601Y-66003600D02*
X97557601Y-65555600D01*
X99984601Y-65428600D02*
X99984601Y-63773600D01*
X99857601Y-65555600D02*
X99984601Y-65428600D01*
D31*
X111668601Y-56407600D02*
X114081601Y-58820600D01*
X104514601Y-59705600D02*
X104518601Y-59709600D01*
D30*
X103936601Y-63519600D02*
X103936601Y-60291600D01*
X99984601Y-63773600D02*
X100238601Y-63519600D01*
X103936601Y-63519600D02*
X104556601Y-64139600D01*
D31*
X99857601Y-59705600D02*
X104514601Y-59705600D01*
D30*
X100238601Y-63519600D02*
X103936601Y-63519600D01*
X103936601Y-60291600D02*
X104518601Y-59709600D01*
D31*
X114081601Y-58820600D02*
X114081601Y-61487600D01*
D30*
X110111601Y-61784600D02*
X110561601Y-62234600D01*
X109288761Y-60465800D02*
X110359581Y-61536620D01*
X110561601Y-62234600D02*
X111978601Y-62234600D01*
X108915601Y-60465800D02*
X109288761Y-60465800D01*
X110111601Y-61784600D02*
X110359581Y-61536620D01*
X106644601Y-62234600D02*
X107167601Y-62757600D01*
X106644601Y-62234600D02*
X106644601Y-61375600D01*
X107477601Y-62757600D02*
X108511601Y-63791600D01*
X107167601Y-62757600D02*
X107477601Y-62757600D01*
X108511601Y-63984600D02*
X108511601Y-63791600D01*
X106644601Y-61375600D02*
X107421601Y-60598600D01*
X88887601Y-63503600D02*
X88937601Y-63453600D01*
X88937601Y-63453600D02*
X92992601Y-63453600D01*
X92942601Y-61503600D02*
X92992601Y-61553600D01*
X88887601Y-61503600D02*
X92942601Y-61503600D01*
X114712600Y-67822600D02*
X115097601Y-67822600D01*
D32*
X115097601Y-67822600D02*
X116606601Y-67822600D01*
X116606601Y-67822600D02*
X116875601Y-68091600D01*
D30*
X113082600Y-69452600D02*
X114712600Y-67822600D01*
D32*
X116875601Y-68091600D02*
X118526601Y-68091600D01*
X118841601Y-69114600D02*
X118841601Y-68406600D01*
X118526601Y-68091600D02*
X118841601Y-68406600D01*
D31*
X118907601Y-66328600D02*
X118907601Y-59095750D01*
X118377601Y-66328600D02*
X118907601Y-66328600D01*
X119309751Y-58693600D02*
X120177601Y-58693600D01*
X117891601Y-66814600D02*
X118377601Y-66328600D01*
X118907601Y-59095750D02*
X119309751Y-58693600D01*
X118907601Y-66328600D02*
X120177601Y-66328600D01*
X122027601Y-65733600D02*
X123987601Y-63773600D01*
X122027601Y-66328600D02*
X122027601Y-65733600D01*
X121955601Y-58621600D02*
X122027601Y-58693600D01*
X122005661Y-57369420D02*
X122027601Y-57391360D01*
X122027601Y-58693600D02*
X122027601Y-57391360D01*
G04 #@! TA.AperFunction,Conductor*
G36*
X93761294Y-66764819D02*
G01*
X93878334Y-66816929D01*
X94053210Y-66854100D01*
X94053211Y-66854100D01*
X94231990Y-66854100D01*
X94231992Y-66854100D01*
X94406868Y-66816929D01*
X94523907Y-66764819D01*
X94574342Y-66754100D01*
X96546836Y-66754100D01*
X96613875Y-66773785D01*
X96653412Y-66819413D01*
X96655174Y-66818397D01*
X96659235Y-66825431D01*
X96659236Y-66825432D01*
X96659238Y-66825436D01*
X96750644Y-66944557D01*
X96758587Y-66950652D01*
X96799789Y-67007076D01*
X96807101Y-67049027D01*
X96807101Y-67516518D01*
X96807101Y-67516520D01*
X96807100Y-67516520D01*
X96835941Y-67661507D01*
X96835944Y-67661517D01*
X96892515Y-67798092D01*
X96892516Y-67798094D01*
X96892517Y-67798095D01*
X96918208Y-67836545D01*
X96925413Y-67847327D01*
X96925414Y-67847330D01*
X96974647Y-67921014D01*
X96974653Y-67921021D01*
X97623650Y-68570016D01*
X97728185Y-68674551D01*
X97728188Y-68674553D01*
X97728189Y-68674554D01*
X97851095Y-68756677D01*
X97851099Y-68756679D01*
X97851106Y-68756684D01*
X97900395Y-68777100D01*
X97987689Y-68813259D01*
X98103842Y-68836363D01*
X98123069Y-68840187D01*
X98132682Y-68842100D01*
X98132683Y-68842100D01*
X98132684Y-68842100D01*
X98167727Y-68842100D01*
X98234766Y-68861785D01*
X98280521Y-68914589D01*
X98290465Y-68983747D01*
X98263292Y-69043245D01*
X98264111Y-69043893D01*
X98261474Y-69047226D01*
X98261440Y-69047303D01*
X98261271Y-69047483D01*
X98259630Y-69049559D01*
X98170602Y-69193894D01*
X98170597Y-69193905D01*
X98117252Y-69354890D01*
X98107101Y-69454247D01*
X98107101Y-70050937D01*
X98107102Y-70050955D01*
X98117251Y-70150307D01*
X98117252Y-70150310D01*
X98170597Y-70311294D01*
X98170602Y-70311305D01*
X98259630Y-70455640D01*
X98259633Y-70455644D01*
X98358408Y-70554419D01*
X98391893Y-70615742D01*
X98386909Y-70685434D01*
X98345037Y-70741367D01*
X98279573Y-70765784D01*
X98270727Y-70766100D01*
X84512101Y-70766100D01*
X84445062Y-70746415D01*
X84399307Y-70693611D01*
X84388101Y-70642100D01*
X84388101Y-68992540D01*
X84407786Y-68925501D01*
X84460590Y-68879746D01*
X84529748Y-68869802D01*
X84593304Y-68898827D01*
X84622586Y-68936245D01*
X84660086Y-69009842D01*
X84776097Y-69169519D01*
X84776101Y-69169524D01*
X84915676Y-69309099D01*
X84915681Y-69309103D01*
X85075358Y-69425114D01*
X85251227Y-69514726D01*
X85438954Y-69575723D01*
X85633904Y-69606600D01*
X86205601Y-69606600D01*
X86205601Y-68852600D01*
X86459601Y-68852600D01*
X86459601Y-69606600D01*
X87031298Y-69606600D01*
X87226247Y-69575723D01*
X87413974Y-69514726D01*
X87589843Y-69425114D01*
X87749520Y-69309103D01*
X87749525Y-69309099D01*
X87889100Y-69169524D01*
X87889104Y-69169519D01*
X88005115Y-69009842D01*
X88094727Y-68833973D01*
X88155724Y-68646246D01*
X88182118Y-68479600D01*
X87566209Y-68479600D01*
X87582601Y-68418426D01*
X87582601Y-68286774D01*
X87566209Y-68225600D01*
X88182118Y-68225600D01*
X88155724Y-68058953D01*
X88094727Y-67871226D01*
X88005115Y-67695357D01*
X87889104Y-67535680D01*
X87889100Y-67535675D01*
X87803881Y-67450456D01*
X87770396Y-67389133D01*
X87775380Y-67319441D01*
X87817252Y-67263508D01*
X87882716Y-67239091D01*
X87947858Y-67252291D01*
X87996987Y-67277324D01*
X87996994Y-67277327D01*
X88099948Y-67310778D01*
X88202904Y-67344230D01*
X88416747Y-67378100D01*
X88416748Y-67378100D01*
X88883254Y-67378100D01*
X88883255Y-67378100D01*
X89097098Y-67344230D01*
X89303010Y-67277326D01*
X89495920Y-67179033D01*
X89671079Y-67051772D01*
X89824173Y-66898678D01*
X89892079Y-66805213D01*
X89947410Y-66762549D01*
X89992397Y-66754100D01*
X93710860Y-66754100D01*
X93761294Y-66764819D01*
G37*
G04 #@! TD.AperFunction*
G04 #@! TA.AperFunction,Conductor*
G36*
X130483232Y-66001269D02*
G01*
X130512710Y-66064616D01*
X130514101Y-66083139D01*
X130514101Y-70642100D01*
X130494416Y-70709139D01*
X130441612Y-70754894D01*
X130390101Y-70766100D01*
X127667351Y-70766100D01*
X127600312Y-70746415D01*
X127554557Y-70693611D01*
X127544613Y-70624453D01*
X127573638Y-70560897D01*
X127579670Y-70554419D01*
X129015548Y-69118541D01*
X129015553Y-69118536D01*
X129082762Y-69017949D01*
X129097685Y-68995615D01*
X129154259Y-68859033D01*
X129165878Y-68800621D01*
X129183101Y-68714040D01*
X129183101Y-66736580D01*
X129202786Y-66669541D01*
X129255590Y-66623786D01*
X129278154Y-66616006D01*
X129280138Y-66615529D01*
X129280145Y-66615529D01*
X129521593Y-66557562D01*
X129521594Y-66557562D01*
X129750997Y-66462541D01*
X129750998Y-66462540D01*
X129751001Y-66462539D01*
X129962719Y-66332797D01*
X130151535Y-66171534D01*
X130295811Y-66002607D01*
X130354317Y-65964414D01*
X130424185Y-65963915D01*
X130483232Y-66001269D01*
G37*
G04 #@! TD.AperFunction*
G04 #@! TA.AperFunction,Conductor*
G36*
X130457140Y-54260785D02*
G01*
X130502895Y-54313589D01*
X130514101Y-54365100D01*
X130514101Y-59002160D01*
X130494416Y-59069199D01*
X130441612Y-59114954D01*
X130372454Y-59124898D01*
X130308898Y-59095873D01*
X130284374Y-59066950D01*
X130274278Y-59050476D01*
X130274277Y-59050473D01*
X130202133Y-58966004D01*
X130117864Y-58867337D01*
X129982534Y-58751754D01*
X129934727Y-58710923D01*
X129934724Y-58710922D01*
X129729383Y-58585088D01*
X129506873Y-58492922D01*
X129272699Y-58436702D01*
X129032601Y-58417806D01*
X128792502Y-58436702D01*
X128558328Y-58492922D01*
X128335818Y-58585088D01*
X128130477Y-58710922D01*
X128130475Y-58710923D01*
X128039416Y-58788695D01*
X127975655Y-58817265D01*
X127906569Y-58806827D01*
X127854093Y-58760697D01*
X127834888Y-58693518D01*
X127835357Y-58683596D01*
X127838069Y-58652600D01*
X127838069Y-58652598D01*
X127829493Y-58554574D01*
X127818236Y-58425908D01*
X127759340Y-58206104D01*
X127663169Y-57999866D01*
X127532648Y-57813461D01*
X127532646Y-57813458D01*
X127371742Y-57652554D01*
X127185335Y-57522032D01*
X127185333Y-57522031D01*
X126979098Y-57425861D01*
X126979089Y-57425858D01*
X126759298Y-57366966D01*
X126759294Y-57366965D01*
X126759293Y-57366965D01*
X126759292Y-57366964D01*
X126759287Y-57366964D01*
X126532603Y-57347132D01*
X126532599Y-57347132D01*
X126305914Y-57366964D01*
X126305903Y-57366966D01*
X126086112Y-57425858D01*
X126086103Y-57425861D01*
X125879868Y-57522031D01*
X125879866Y-57522032D01*
X125693459Y-57652554D01*
X125532555Y-57813458D01*
X125402033Y-57999865D01*
X125402032Y-57999867D01*
X125374983Y-58057875D01*
X125328810Y-58110314D01*
X125261617Y-58129466D01*
X125194736Y-58109250D01*
X125150219Y-58057875D01*
X125146539Y-58049983D01*
X125123169Y-57999866D01*
X124992648Y-57813461D01*
X124992646Y-57813458D01*
X124831742Y-57652554D01*
X124645335Y-57522032D01*
X124645333Y-57522031D01*
X124439098Y-57425861D01*
X124439089Y-57425858D01*
X124219298Y-57366966D01*
X124219294Y-57366965D01*
X124219293Y-57366965D01*
X124219292Y-57366964D01*
X124219287Y-57366964D01*
X123992603Y-57347132D01*
X123992599Y-57347132D01*
X123765914Y-57366964D01*
X123765903Y-57366966D01*
X123546112Y-57425858D01*
X123546103Y-57425861D01*
X123339868Y-57522031D01*
X123339866Y-57522032D01*
X123153463Y-57652551D01*
X123006848Y-57799166D01*
X122945525Y-57832650D01*
X122875833Y-57827666D01*
X122819900Y-57785794D01*
X122795483Y-57720330D01*
X122801235Y-57673168D01*
X122842158Y-57547223D01*
X122860846Y-57369420D01*
X122842158Y-57191617D01*
X122786911Y-57021585D01*
X122697520Y-56866755D01*
X122650664Y-56814716D01*
X122577896Y-56733898D01*
X122577893Y-56733896D01*
X122577892Y-56733895D01*
X122577891Y-56733894D01*
X122433254Y-56628808D01*
X122269928Y-56556091D01*
X122269926Y-56556090D01*
X122126479Y-56525600D01*
X122095052Y-56518920D01*
X121916270Y-56518920D01*
X121885615Y-56525435D01*
X121741394Y-56556090D01*
X121741389Y-56556092D01*
X121578069Y-56628807D01*
X121433429Y-56733895D01*
X121313801Y-56866756D01*
X121224411Y-57021584D01*
X121224408Y-57021590D01*
X121169165Y-57191612D01*
X121169164Y-57191614D01*
X121150476Y-57369420D01*
X121169164Y-57547225D01*
X121169165Y-57547227D01*
X121224408Y-57717249D01*
X121224411Y-57717255D01*
X121251095Y-57763473D01*
X121267568Y-57831374D01*
X121244715Y-57897400D01*
X121231389Y-57913154D01*
X121220282Y-57924261D01*
X121158959Y-57957746D01*
X121089267Y-57952762D01*
X121044920Y-57924261D01*
X120942789Y-57822130D01*
X120930541Y-57814726D01*
X120797207Y-57734122D01*
X120634797Y-57683514D01*
X120634795Y-57683513D01*
X120634793Y-57683513D01*
X120585379Y-57679023D01*
X120564217Y-57677100D01*
X120050985Y-57677100D01*
X120031746Y-57678848D01*
X119980408Y-57683513D01*
X119817994Y-57734122D01*
X119672414Y-57822129D01*
X119630089Y-57864455D01*
X119587761Y-57906782D01*
X119526441Y-57940266D01*
X119500082Y-57943100D01*
X119235831Y-57943100D01*
X119090843Y-57971940D01*
X119090833Y-57971943D01*
X118954262Y-58028512D01*
X118954250Y-58028519D01*
X118912460Y-58056443D01*
X118912459Y-58056444D01*
X118831333Y-58110649D01*
X118324646Y-58617336D01*
X118291731Y-58666601D01*
X118291729Y-58666604D01*
X118242520Y-58740249D01*
X118242513Y-58740261D01*
X118185944Y-58876832D01*
X118185941Y-58876842D01*
X118157101Y-59021829D01*
X118157101Y-65524744D01*
X118137416Y-65591783D01*
X118084612Y-65637538D01*
X118080555Y-65639305D01*
X118022106Y-65663516D01*
X118022099Y-65663519D01*
X117985473Y-65687993D01*
X117985472Y-65687993D01*
X117899190Y-65745644D01*
X117899187Y-65745646D01*
X117749050Y-65895782D01*
X117687726Y-65929266D01*
X117661370Y-65932100D01*
X117573713Y-65932100D01*
X117461449Y-65946879D01*
X117461438Y-65946882D01*
X117321750Y-66004742D01*
X117201791Y-66096790D01*
X117109743Y-66216749D01*
X117051883Y-66356437D01*
X117051882Y-66356441D01*
X117037101Y-66468705D01*
X117037101Y-67111244D01*
X117017416Y-67178283D01*
X116964612Y-67224038D01*
X116895454Y-67233982D01*
X116865649Y-67225805D01*
X116796349Y-67197100D01*
X116796339Y-67197097D01*
X116670672Y-67172100D01*
X116670670Y-67172100D01*
X116084109Y-67172100D01*
X116017070Y-67152415D01*
X115971315Y-67099611D01*
X115965724Y-67084990D01*
X115951080Y-67037997D01*
X115951079Y-67037996D01*
X115951079Y-67037994D01*
X115863073Y-66892415D01*
X115863071Y-66892413D01*
X115863070Y-66892411D01*
X115742789Y-66772130D01*
X115597207Y-66684122D01*
X115550414Y-66669541D01*
X115434797Y-66633514D01*
X115434795Y-66633513D01*
X115434793Y-66633513D01*
X115385379Y-66629023D01*
X115364217Y-66627100D01*
X114700985Y-66627100D01*
X114681746Y-66628848D01*
X114630408Y-66633513D01*
X114467994Y-66684122D01*
X114322412Y-66772130D01*
X114202131Y-66892411D01*
X114114123Y-67037993D01*
X114063514Y-67200407D01*
X114057101Y-67270986D01*
X114057101Y-67539318D01*
X114037416Y-67606357D01*
X114020782Y-67626999D01*
X113082000Y-68565781D01*
X113020677Y-68599266D01*
X112994319Y-68602100D01*
X112993209Y-68602100D01*
X112962554Y-68608615D01*
X112818333Y-68639270D01*
X112818328Y-68639272D01*
X112655008Y-68711987D01*
X112510368Y-68817075D01*
X112390740Y-68949936D01*
X112301350Y-69104764D01*
X112301347Y-69104770D01*
X112246104Y-69274792D01*
X112246103Y-69274794D01*
X112232972Y-69399727D01*
X112227415Y-69452600D01*
X112231360Y-69490139D01*
X112218792Y-69558868D01*
X112171060Y-69609892D01*
X112108040Y-69627100D01*
X105562101Y-69627100D01*
X105495062Y-69607415D01*
X105449307Y-69554611D01*
X105438101Y-69503100D01*
X105438101Y-69135781D01*
X105457786Y-69068742D01*
X105497001Y-69030244D01*
X105585645Y-68975568D01*
X105705569Y-68855644D01*
X105794604Y-68711297D01*
X105847950Y-68550308D01*
X105858101Y-68450945D01*
X105858100Y-67854256D01*
X105857392Y-67847329D01*
X105847950Y-67754892D01*
X105847949Y-67754889D01*
X105820043Y-67670675D01*
X105794604Y-67593903D01*
X105794600Y-67593897D01*
X105794599Y-67593894D01*
X105705571Y-67449559D01*
X105705568Y-67449555D01*
X105644012Y-67387999D01*
X105610527Y-67326676D01*
X105613762Y-67262000D01*
X105618917Y-67246135D01*
X105647098Y-67159403D01*
X105665786Y-66981600D01*
X105647098Y-66803797D01*
X105608213Y-66684122D01*
X105591853Y-66633770D01*
X105591850Y-66633764D01*
X105591706Y-66633514D01*
X105502460Y-66478935D01*
X105438243Y-66407615D01*
X105382836Y-66346078D01*
X105382833Y-66346076D01*
X105382832Y-66346075D01*
X105382831Y-66346074D01*
X105238194Y-66240988D01*
X105212998Y-66229770D01*
X105159761Y-66184519D01*
X105139441Y-66117670D01*
X105158487Y-66050446D01*
X105164169Y-66042179D01*
X105207333Y-65984520D01*
X105255466Y-65855472D01*
X105255467Y-65855467D01*
X105261600Y-65798436D01*
X105261601Y-65798419D01*
X105261601Y-65654600D01*
X103803601Y-65654600D01*
X103803601Y-65798436D01*
X103809734Y-65855467D01*
X103809735Y-65855472D01*
X103857868Y-65984521D01*
X103857870Y-65984524D01*
X103940412Y-66094785D01*
X103940415Y-66094788D01*
X104050675Y-66177329D01*
X104134142Y-66208461D01*
X104190075Y-66250333D01*
X104214492Y-66315797D01*
X104199640Y-66384070D01*
X104182958Y-66407615D01*
X104118741Y-66478935D01*
X104029351Y-66633764D01*
X104029348Y-66633770D01*
X103974105Y-66803792D01*
X103974104Y-66803794D01*
X103955416Y-66981600D01*
X103974104Y-67159405D01*
X103974105Y-67159407D01*
X104029351Y-67329436D01*
X104041519Y-67350512D01*
X104057992Y-67418413D01*
X104035139Y-67484439D01*
X103980218Y-67527630D01*
X103910664Y-67534271D01*
X103859821Y-67511779D01*
X103814520Y-67477867D01*
X103814522Y-67477867D01*
X103685473Y-67429734D01*
X103685468Y-67429733D01*
X103628437Y-67423600D01*
X103484601Y-67423600D01*
X103484601Y-68881600D01*
X103628421Y-68881600D01*
X103628437Y-68881599D01*
X103685468Y-68875466D01*
X103685473Y-68875465D01*
X103814521Y-68827332D01*
X103895844Y-68766453D01*
X103961308Y-68742035D01*
X104029581Y-68756886D01*
X104075694Y-68800621D01*
X104109632Y-68855643D01*
X104146782Y-68892793D01*
X104180267Y-68954116D01*
X104183101Y-68980474D01*
X104183101Y-69928241D01*
X104163416Y-69995280D01*
X104162204Y-69997131D01*
X104145515Y-70022108D01*
X104130420Y-70058552D01*
X104086580Y-70112956D01*
X104020286Y-70135021D01*
X104015859Y-70135100D01*
X101435601Y-70135100D01*
X101368562Y-70115415D01*
X101322807Y-70062611D01*
X101311601Y-70011100D01*
X101311601Y-69879600D01*
X100604601Y-69879600D01*
X100537562Y-69859915D01*
X100491807Y-69807111D01*
X100480601Y-69755600D01*
X100480601Y-69749600D01*
X100500286Y-69682561D01*
X100553090Y-69636806D01*
X100604601Y-69625600D01*
X101311601Y-69625600D01*
X101311601Y-69456780D01*
X101311600Y-69456763D01*
X101305467Y-69399732D01*
X101305466Y-69399727D01*
X101257333Y-69270678D01*
X101257331Y-69270675D01*
X101174789Y-69160414D01*
X101174786Y-69160411D01*
X101064525Y-69077869D01*
X101064522Y-69077867D01*
X100935473Y-69029734D01*
X100935468Y-69029733D01*
X100899717Y-69025889D01*
X100835166Y-68999151D01*
X100795318Y-68941758D01*
X100792825Y-68871933D01*
X100828478Y-68811844D01*
X100890958Y-68780570D01*
X100899717Y-68779311D01*
X100935468Y-68775466D01*
X100935473Y-68775465D01*
X101064522Y-68727332D01*
X101064525Y-68727330D01*
X101174786Y-68644788D01*
X101174789Y-68644785D01*
X101257331Y-68534524D01*
X101257333Y-68534521D01*
X101289441Y-68448436D01*
X102653601Y-68448436D01*
X102659734Y-68505467D01*
X102659735Y-68505472D01*
X102707868Y-68634521D01*
X102707870Y-68634524D01*
X102790412Y-68744785D01*
X102790415Y-68744788D01*
X102900676Y-68827330D01*
X102900679Y-68827332D01*
X103029728Y-68875465D01*
X103029733Y-68875466D01*
X103086764Y-68881599D01*
X103086781Y-68881600D01*
X103230601Y-68881600D01*
X103230601Y-68279600D01*
X102653601Y-68279600D01*
X102653601Y-68448436D01*
X101289441Y-68448436D01*
X101305466Y-68405472D01*
X101305467Y-68405467D01*
X101311600Y-68348436D01*
X101311601Y-68348419D01*
X101311601Y-68179600D01*
X100604601Y-68179600D01*
X100537562Y-68159915D01*
X100491807Y-68107111D01*
X100480601Y-68055600D01*
X100480601Y-67925600D01*
X100734601Y-67925600D01*
X101311601Y-67925600D01*
X101311601Y-67856763D01*
X102653601Y-67856763D01*
X102653601Y-68025600D01*
X103230601Y-68025600D01*
X103230601Y-67423600D01*
X103086764Y-67423600D01*
X103029733Y-67429733D01*
X103029728Y-67429734D01*
X102900679Y-67477867D01*
X102900676Y-67477869D01*
X102790415Y-67560411D01*
X102790412Y-67560414D01*
X102707870Y-67670675D01*
X102707868Y-67670678D01*
X102659735Y-67799727D01*
X102659734Y-67799732D01*
X102653601Y-67856763D01*
X101311601Y-67856763D01*
X101311601Y-67756780D01*
X101311600Y-67756763D01*
X101305467Y-67699732D01*
X101305466Y-67699727D01*
X101257333Y-67570678D01*
X101257331Y-67570675D01*
X101174789Y-67460414D01*
X101174786Y-67460411D01*
X101064525Y-67377869D01*
X101064522Y-67377867D01*
X100935473Y-67329734D01*
X100935468Y-67329733D01*
X100878437Y-67323600D01*
X100734601Y-67323600D01*
X100734601Y-67925600D01*
X100480601Y-67925600D01*
X100480601Y-67323600D01*
X100454409Y-67323600D01*
X100387370Y-67303915D01*
X100341615Y-67251111D01*
X100331671Y-67181953D01*
X100360696Y-67118397D01*
X100406957Y-67085039D01*
X100525432Y-67035965D01*
X100525433Y-67035965D01*
X100525433Y-67035964D01*
X100525437Y-67035963D01*
X100644558Y-66944557D01*
X100735964Y-66825436D01*
X100793424Y-66686715D01*
X100808029Y-66575775D01*
X101413601Y-66575775D01*
X101413602Y-66575791D01*
X101419808Y-66622933D01*
X101419808Y-66622935D01*
X101468059Y-66726409D01*
X101548791Y-66807141D01*
X101652266Y-66855392D01*
X101699409Y-66861598D01*
X101699426Y-66861600D01*
X102005601Y-66861600D01*
X102259601Y-66861600D01*
X102565776Y-66861600D01*
X102565792Y-66861598D01*
X102612934Y-66855392D01*
X102612936Y-66855392D01*
X102716410Y-66807141D01*
X102797142Y-66726409D01*
X102845393Y-66622935D01*
X102845393Y-66622933D01*
X102851599Y-66575791D01*
X102851601Y-66575775D01*
X102851601Y-66079600D01*
X102259601Y-66079600D01*
X102259601Y-66861600D01*
X102005601Y-66861600D01*
X102005601Y-66079600D01*
X101413601Y-66079600D01*
X101413601Y-66575775D01*
X100808029Y-66575775D01*
X100808101Y-66575230D01*
X100808101Y-65329970D01*
X100808029Y-65329424D01*
X101413601Y-65329424D01*
X101413601Y-65825600D01*
X102005601Y-65825600D01*
X102259601Y-65825600D01*
X102851601Y-65825600D01*
X102851601Y-65329424D01*
X102851599Y-65329408D01*
X102845393Y-65282266D01*
X102845393Y-65282264D01*
X102797142Y-65178790D01*
X102716410Y-65098058D01*
X102612935Y-65049807D01*
X102565792Y-65043601D01*
X102565776Y-65043600D01*
X102259601Y-65043600D01*
X102259601Y-65825600D01*
X102005601Y-65825600D01*
X102005601Y-65043600D01*
X101699426Y-65043600D01*
X101699409Y-65043601D01*
X101652267Y-65049807D01*
X101652265Y-65049807D01*
X101548791Y-65098058D01*
X101468059Y-65178790D01*
X101419808Y-65282264D01*
X101419808Y-65282266D01*
X101413602Y-65329408D01*
X101413601Y-65329424D01*
X100808029Y-65329424D01*
X100804504Y-65302651D01*
X100799270Y-65262888D01*
X100793424Y-65218485D01*
X100735965Y-65079767D01*
X100735963Y-65079762D01*
X100639611Y-64954196D01*
X100641851Y-64952476D01*
X100614935Y-64903182D01*
X100612101Y-64876824D01*
X100612101Y-64271100D01*
X100631786Y-64204061D01*
X100684590Y-64158306D01*
X100736101Y-64147100D01*
X103434516Y-64147100D01*
X103501555Y-64166785D01*
X103547310Y-64219589D01*
X103557873Y-64258497D01*
X103561581Y-64294788D01*
X103567252Y-64350308D01*
X103567252Y-64350310D01*
X103620597Y-64511294D01*
X103620602Y-64511305D01*
X103709630Y-64655640D01*
X103709633Y-64655644D01*
X103829556Y-64775567D01*
X103829560Y-64775570D01*
X103884578Y-64809506D01*
X103931303Y-64861454D01*
X103942524Y-64930416D01*
X103918748Y-64989355D01*
X103857868Y-65070679D01*
X103809735Y-65199727D01*
X103809734Y-65199732D01*
X103803601Y-65256763D01*
X103803601Y-65400600D01*
X105261601Y-65400600D01*
X105261601Y-65256780D01*
X105261600Y-65256763D01*
X105255467Y-65199732D01*
X105255466Y-65199727D01*
X105207333Y-65070679D01*
X105146454Y-64989356D01*
X105122036Y-64923892D01*
X105136887Y-64855618D01*
X105180622Y-64809506D01*
X105235645Y-64775568D01*
X105355569Y-64655644D01*
X105444604Y-64511297D01*
X105497950Y-64350308D01*
X105508101Y-64250945D01*
X105508101Y-63998436D01*
X105903601Y-63998436D01*
X105909734Y-64055467D01*
X105909735Y-64055472D01*
X105957868Y-64184521D01*
X105957870Y-64184524D01*
X106040412Y-64294785D01*
X106040415Y-64294788D01*
X106150676Y-64377330D01*
X106150679Y-64377332D01*
X106279728Y-64425465D01*
X106279733Y-64425466D01*
X106336764Y-64431599D01*
X106336781Y-64431600D01*
X106505601Y-64431600D01*
X106505601Y-63854600D01*
X105903601Y-63854600D01*
X105903601Y-63998436D01*
X105508101Y-63998436D01*
X105508100Y-63704256D01*
X105497950Y-63604892D01*
X105444604Y-63443903D01*
X105444600Y-63443897D01*
X105444599Y-63443894D01*
X105355571Y-63299559D01*
X105355568Y-63299555D01*
X105235645Y-63179632D01*
X105235641Y-63179629D01*
X105091306Y-63090601D01*
X105091300Y-63090598D01*
X105091298Y-63090597D01*
X105012853Y-63064603D01*
X104930310Y-63037251D01*
X104830953Y-63027100D01*
X104830946Y-63027100D01*
X104688101Y-63027100D01*
X104621062Y-63007415D01*
X104575307Y-62954611D01*
X104564101Y-62903100D01*
X104564101Y-61904247D01*
X105657101Y-61904247D01*
X105657101Y-62450937D01*
X105657102Y-62450955D01*
X105667251Y-62550307D01*
X105667252Y-62550310D01*
X105720597Y-62711294D01*
X105720602Y-62711305D01*
X105809630Y-62855640D01*
X105809633Y-62855644D01*
X105929556Y-62975567D01*
X105929560Y-62975570D01*
X105984578Y-63009506D01*
X106031303Y-63061454D01*
X106042524Y-63130416D01*
X106018748Y-63189355D01*
X105957868Y-63270679D01*
X105909735Y-63399727D01*
X105909734Y-63399732D01*
X105903601Y-63456763D01*
X105903601Y-63600600D01*
X106635601Y-63600600D01*
X106702640Y-63620285D01*
X106748395Y-63673089D01*
X106759601Y-63724600D01*
X106759601Y-64431600D01*
X106928421Y-64431600D01*
X106928437Y-64431599D01*
X106985468Y-64425466D01*
X106985473Y-64425465D01*
X107114521Y-64377332D01*
X107153789Y-64347936D01*
X107219253Y-64323518D01*
X107287526Y-64338369D01*
X107336932Y-64387773D01*
X107352101Y-64447202D01*
X107352101Y-64700469D01*
X107352102Y-64700476D01*
X107358509Y-64760083D01*
X107408803Y-64894928D01*
X107408807Y-64894935D01*
X107495053Y-65010144D01*
X107495056Y-65010147D01*
X107610265Y-65096393D01*
X107610272Y-65096397D01*
X107745118Y-65146691D01*
X107745117Y-65146691D01*
X107752045Y-65147435D01*
X107804728Y-65153100D01*
X109100473Y-65153099D01*
X109160084Y-65146691D01*
X109289270Y-65098507D01*
X109358959Y-65093524D01*
X109375923Y-65098504D01*
X109505118Y-65146691D01*
X109564728Y-65153100D01*
X110860473Y-65153099D01*
X110920084Y-65146691D01*
X111054932Y-65096396D01*
X111170147Y-65010146D01*
X111256397Y-64894931D01*
X111306692Y-64760083D01*
X111313101Y-64700473D01*
X111313100Y-64347199D01*
X111332784Y-64280163D01*
X111385588Y-64234408D01*
X111454747Y-64224464D01*
X111511411Y-64247936D01*
X111550676Y-64277330D01*
X111550679Y-64277332D01*
X111679728Y-64325465D01*
X111679733Y-64325466D01*
X111736764Y-64331599D01*
X111736781Y-64331600D01*
X111905601Y-64331600D01*
X112159601Y-64331600D01*
X112328421Y-64331600D01*
X112328437Y-64331599D01*
X112385468Y-64325466D01*
X112385473Y-64325465D01*
X112514522Y-64277332D01*
X112514525Y-64277330D01*
X112624786Y-64194788D01*
X112624789Y-64194785D01*
X112707331Y-64084524D01*
X112707333Y-64084521D01*
X112755466Y-63955472D01*
X112755467Y-63955467D01*
X112761600Y-63898436D01*
X112761601Y-63898419D01*
X112761601Y-63754600D01*
X112159601Y-63754600D01*
X112159601Y-64331600D01*
X111905601Y-64331600D01*
X111905601Y-63624600D01*
X111925286Y-63557561D01*
X111978090Y-63511806D01*
X112029601Y-63500600D01*
X112761601Y-63500600D01*
X112761601Y-63356780D01*
X112761600Y-63356763D01*
X112755467Y-63299732D01*
X112755466Y-63299727D01*
X112707333Y-63170679D01*
X112646454Y-63089356D01*
X112622036Y-63023892D01*
X112636887Y-62955618D01*
X112680622Y-62909506D01*
X112735645Y-62875568D01*
X112855569Y-62755644D01*
X112944604Y-62611297D01*
X112997950Y-62450308D01*
X113008101Y-62350945D01*
X113008100Y-61804256D01*
X113005589Y-61779679D01*
X112997950Y-61704892D01*
X112997949Y-61704889D01*
X112977737Y-61643894D01*
X112944604Y-61543903D01*
X112944600Y-61543897D01*
X112944599Y-61543894D01*
X112855571Y-61399559D01*
X112855568Y-61399555D01*
X112735645Y-61279632D01*
X112735641Y-61279629D01*
X112591306Y-61190601D01*
X112591300Y-61190598D01*
X112591298Y-61190597D01*
X112488514Y-61156538D01*
X112430310Y-61137251D01*
X112330947Y-61127100D01*
X111734263Y-61127100D01*
X111734245Y-61127101D01*
X111634893Y-61137250D01*
X111634890Y-61137251D01*
X111476104Y-61189868D01*
X111406275Y-61192270D01*
X111346234Y-61156538D01*
X111315041Y-61094017D01*
X111313100Y-61072162D01*
X111313100Y-61004729D01*
X111313099Y-61004723D01*
X111308506Y-60961997D01*
X111306692Y-60945117D01*
X111296098Y-60916714D01*
X111256398Y-60810271D01*
X111256394Y-60810264D01*
X111170148Y-60695055D01*
X111170145Y-60695052D01*
X111054936Y-60608806D01*
X111054929Y-60608802D01*
X110920083Y-60558508D01*
X110920084Y-60558508D01*
X110860484Y-60552101D01*
X110860482Y-60552100D01*
X110860474Y-60552100D01*
X110860466Y-60552100D01*
X110313842Y-60552100D01*
X110246803Y-60532415D01*
X110226161Y-60515781D01*
X109688772Y-59978391D01*
X109688771Y-59978390D01*
X109665848Y-59963074D01*
X109650173Y-59952600D01*
X109589712Y-59912201D01*
X109585999Y-59909720D01*
X109585996Y-59909718D01*
X109585994Y-59909717D01*
X109569440Y-59902860D01*
X109524746Y-59871272D01*
X109487831Y-59830274D01*
X109343194Y-59725188D01*
X109179868Y-59652471D01*
X109179866Y-59652470D01*
X109039966Y-59622734D01*
X109004992Y-59615300D01*
X108826210Y-59615300D01*
X108796166Y-59621686D01*
X108651334Y-59652470D01*
X108651329Y-59652472D01*
X108488009Y-59725187D01*
X108343369Y-59830275D01*
X108223740Y-59963136D01*
X108219272Y-59970876D01*
X108168703Y-60019090D01*
X108100095Y-60032310D01*
X108035231Y-60006340D01*
X108019738Y-59991845D01*
X107993837Y-59963079D01*
X107993833Y-59963076D01*
X107993832Y-59963075D01*
X107993831Y-59963074D01*
X107849194Y-59857988D01*
X107685868Y-59785271D01*
X107685866Y-59785270D01*
X107558195Y-59758133D01*
X107510992Y-59748100D01*
X107332210Y-59748100D01*
X107301555Y-59754615D01*
X107157334Y-59785270D01*
X107157329Y-59785272D01*
X106994009Y-59857987D01*
X106849369Y-59963075D01*
X106729741Y-60095936D01*
X106640351Y-60250764D01*
X106640348Y-60250770D01*
X106585105Y-60420792D01*
X106585104Y-60420794D01*
X106574791Y-60518911D01*
X106548205Y-60583526D01*
X106539151Y-60593629D01*
X106244593Y-60888189D01*
X106216068Y-60916714D01*
X106157188Y-60975593D01*
X106088521Y-61078360D01*
X106088514Y-61078373D01*
X106079008Y-61101325D01*
X106079008Y-61101326D01*
X106041215Y-61192564D01*
X106041214Y-61192569D01*
X106024955Y-61274304D01*
X105992569Y-61336214D01*
X105968438Y-61355648D01*
X105929558Y-61379630D01*
X105809630Y-61499559D01*
X105720602Y-61643894D01*
X105720597Y-61643905D01*
X105667252Y-61804890D01*
X105657101Y-61904247D01*
X104564101Y-61904247D01*
X104564101Y-60669842D01*
X104583786Y-60602803D01*
X104636590Y-60557048D01*
X104662317Y-60548552D01*
X104782868Y-60522929D01*
X104946194Y-60450212D01*
X105090831Y-60345126D01*
X105093325Y-60342357D01*
X105116749Y-60316341D01*
X105210460Y-60212265D01*
X105299851Y-60057435D01*
X105355098Y-59887403D01*
X105373786Y-59709600D01*
X105355098Y-59531797D01*
X105319922Y-59423537D01*
X105299853Y-59361770D01*
X105299850Y-59361764D01*
X105294466Y-59352438D01*
X105210460Y-59206935D01*
X105159774Y-59150643D01*
X105090836Y-59074078D01*
X105090833Y-59074076D01*
X105090832Y-59074075D01*
X105090831Y-59074074D01*
X104946194Y-58968988D01*
X104782868Y-58896271D01*
X104782866Y-58896270D01*
X104646744Y-58867337D01*
X104607992Y-58859100D01*
X104429210Y-58859100D01*
X104398555Y-58865615D01*
X104254334Y-58896270D01*
X104146279Y-58944380D01*
X104095844Y-58955100D01*
X102087100Y-58955100D01*
X102020061Y-58935415D01*
X101974306Y-58882611D01*
X101963100Y-58831100D01*
X101963100Y-58666601D01*
X101947691Y-58549552D01*
X101947690Y-58549551D01*
X101947690Y-58549545D01*
X101887358Y-58403891D01*
X101887357Y-58403890D01*
X101887357Y-58403889D01*
X101840378Y-58342665D01*
X101791385Y-58278816D01*
X101696634Y-58206111D01*
X101666311Y-58182843D01*
X101593483Y-58152677D01*
X101520656Y-58122511D01*
X101403598Y-58107100D01*
X98281602Y-58107100D01*
X98164553Y-58122509D01*
X98164545Y-58122511D01*
X98018890Y-58182843D01*
X97893817Y-58278816D01*
X97797844Y-58403889D01*
X97737512Y-58549544D01*
X97737512Y-58549545D01*
X97722101Y-58666595D01*
X97722101Y-59858598D01*
X97737510Y-59975647D01*
X97737512Y-59975655D01*
X97797844Y-60121310D01*
X97838087Y-60173755D01*
X97893817Y-60246384D01*
X97967504Y-60302926D01*
X98018890Y-60342356D01*
X98018891Y-60342356D01*
X98018892Y-60342357D01*
X98164546Y-60402689D01*
X98281604Y-60418100D01*
X99591910Y-60418099D01*
X99632644Y-60426200D01*
X99632860Y-60425490D01*
X99638686Y-60427257D01*
X99638688Y-60427258D01*
X99638690Y-60427258D01*
X99638692Y-60427259D01*
X99783680Y-60456100D01*
X99783683Y-60456100D01*
X103185101Y-60456100D01*
X103252140Y-60475785D01*
X103297895Y-60528589D01*
X103309101Y-60580100D01*
X103309101Y-62768100D01*
X103289416Y-62835139D01*
X103236612Y-62880894D01*
X103185101Y-62892100D01*
X100176796Y-62892100D01*
X100055571Y-62916213D01*
X100055561Y-62916216D01*
X99941374Y-62963513D01*
X99941361Y-62963520D01*
X99838593Y-63032188D01*
X99838589Y-63032191D01*
X99643452Y-63227330D01*
X99584593Y-63286189D01*
X99558513Y-63312269D01*
X99497188Y-63373593D01*
X99428521Y-63476360D01*
X99428516Y-63476369D01*
X99421062Y-63494367D01*
X99381216Y-63590562D01*
X99381213Y-63590572D01*
X99370852Y-63642662D01*
X99357101Y-63711792D01*
X99357101Y-64704643D01*
X99337416Y-64771682D01*
X99284612Y-64817437D01*
X99280554Y-64819204D01*
X99159768Y-64869235D01*
X99159765Y-64869236D01*
X99159765Y-64869237D01*
X99126275Y-64894935D01*
X99040644Y-64960643D01*
X98949235Y-65079767D01*
X98949235Y-65079768D01*
X98891779Y-65218481D01*
X98891777Y-65218486D01*
X98877101Y-65329969D01*
X98877101Y-66575230D01*
X98891777Y-66686713D01*
X98891779Y-66686718D01*
X98949235Y-66825431D01*
X98949238Y-66825437D01*
X98989275Y-66877613D01*
X99014470Y-66942782D01*
X99000432Y-67011227D01*
X98951618Y-67061217D01*
X98890901Y-67077100D01*
X98784264Y-67077100D01*
X98784245Y-67077101D01*
X98684893Y-67087250D01*
X98684890Y-67087251D01*
X98523906Y-67140596D01*
X98523899Y-67140600D01*
X98497196Y-67157070D01*
X98429803Y-67175509D01*
X98363140Y-67154585D01*
X98318371Y-67100942D01*
X98308101Y-67051530D01*
X98308101Y-67041354D01*
X98327786Y-66974315D01*
X98349369Y-66950854D01*
X98348815Y-66950300D01*
X98354555Y-66944560D01*
X98354556Y-66944558D01*
X98354558Y-66944557D01*
X98445964Y-66825436D01*
X98503424Y-66686715D01*
X98518101Y-66575230D01*
X98518101Y-65329970D01*
X98514504Y-65302651D01*
X98509270Y-65262888D01*
X98503424Y-65218485D01*
X98445966Y-65079768D01*
X98445966Y-65079767D01*
X98444281Y-65077571D01*
X98354558Y-64960643D01*
X98235437Y-64869237D01*
X98235434Y-64869236D01*
X98235432Y-64869234D01*
X98096719Y-64811778D01*
X98096714Y-64811776D01*
X97985232Y-64797100D01*
X97985231Y-64797100D01*
X97119971Y-64797100D01*
X97119970Y-64797100D01*
X97008487Y-64811776D01*
X97008482Y-64811778D01*
X96869769Y-64869234D01*
X96869768Y-64869234D01*
X96750644Y-64960643D01*
X96659235Y-65079767D01*
X96659235Y-65079768D01*
X96619147Y-65176552D01*
X96575307Y-65230956D01*
X96509013Y-65253021D01*
X96504586Y-65253100D01*
X94574342Y-65253100D01*
X94523907Y-65242380D01*
X94406868Y-65190271D01*
X94406866Y-65190270D01*
X94279195Y-65163133D01*
X94231992Y-65153100D01*
X94053210Y-65153100D01*
X94022555Y-65159615D01*
X93878334Y-65190270D01*
X93761295Y-65242380D01*
X93710860Y-65253100D01*
X89993850Y-65253100D01*
X89926811Y-65233415D01*
X89893532Y-65201986D01*
X89893410Y-65201818D01*
X89824173Y-65106522D01*
X89671079Y-64953428D01*
X89495920Y-64826167D01*
X89481642Y-64818892D01*
X89411334Y-64783068D01*
X89360538Y-64735093D01*
X89343743Y-64667272D01*
X89366281Y-64601137D01*
X89420996Y-64557686D01*
X89429299Y-64554656D01*
X89457043Y-64545642D01*
X89614891Y-64465214D01*
X89758215Y-64361083D01*
X89816326Y-64302971D01*
X89877646Y-64269487D01*
X89929784Y-64269363D01*
X90093209Y-64304100D01*
X90093210Y-64304100D01*
X90271989Y-64304100D01*
X90271991Y-64304100D01*
X90446867Y-64266929D01*
X90610193Y-64194212D01*
X90718154Y-64115773D01*
X90733282Y-64104782D01*
X90799089Y-64081302D01*
X90806168Y-64081100D01*
X92069983Y-64081100D01*
X92137022Y-64100785D01*
X92144294Y-64105833D01*
X92150054Y-64110145D01*
X92150055Y-64110146D01*
X92249407Y-64184521D01*
X92265270Y-64196396D01*
X92265272Y-64196397D01*
X92400118Y-64246691D01*
X92400117Y-64246691D01*
X92407045Y-64247435D01*
X92459728Y-64253100D01*
X93605473Y-64253099D01*
X93665084Y-64246691D01*
X93799932Y-64196396D01*
X93915147Y-64110146D01*
X94001397Y-63994931D01*
X94051692Y-63860083D01*
X94058101Y-63800473D01*
X94058100Y-63104728D01*
X94051692Y-63045117D01*
X94050478Y-63041863D01*
X94001398Y-62910271D01*
X94001394Y-62910264D01*
X93939522Y-62827614D01*
X94453602Y-62827614D01*
X94468338Y-62901706D01*
X94468339Y-62901709D01*
X94524477Y-62985723D01*
X94608496Y-63041863D01*
X94608497Y-63041864D01*
X94682581Y-63056599D01*
X95105600Y-63056599D01*
X95359601Y-63056599D01*
X95782616Y-63056599D01*
X95856707Y-63041862D01*
X95856710Y-63041861D01*
X95940724Y-62985723D01*
X95996864Y-62901704D01*
X95996865Y-62901703D01*
X96011600Y-62827621D01*
X96011601Y-62827618D01*
X96011601Y-62629600D01*
X95359601Y-62629600D01*
X95359601Y-63056599D01*
X95105600Y-63056599D01*
X95105601Y-63056598D01*
X95105601Y-62629600D01*
X94453602Y-62629600D01*
X94453602Y-62827614D01*
X93939522Y-62827614D01*
X93915148Y-62795055D01*
X93915145Y-62795052D01*
X93799936Y-62708806D01*
X93799929Y-62708802D01*
X93665083Y-62658508D01*
X93665084Y-62658508D01*
X93605484Y-62652101D01*
X93605482Y-62652100D01*
X93605474Y-62652100D01*
X93605465Y-62652100D01*
X92459730Y-62652100D01*
X92459724Y-62652101D01*
X92400117Y-62658508D01*
X92265272Y-62708802D01*
X92265265Y-62708806D01*
X92142956Y-62800368D01*
X92140920Y-62797648D01*
X92094005Y-62823266D01*
X92067647Y-62826100D01*
X90806168Y-62826100D01*
X90739129Y-62806415D01*
X90733282Y-62802418D01*
X90610194Y-62712989D01*
X90610193Y-62712988D01*
X90446867Y-62640271D01*
X90446865Y-62640270D01*
X90313636Y-62611952D01*
X90271991Y-62603100D01*
X90093209Y-62603100D01*
X90062554Y-62609615D01*
X89918333Y-62640270D01*
X89918332Y-62640270D01*
X89881170Y-62656816D01*
X89811920Y-62666099D01*
X89757849Y-62643851D01*
X89741727Y-62632137D01*
X89699063Y-62576806D01*
X89693085Y-62507192D01*
X89725693Y-62445398D01*
X89726796Y-62444278D01*
X89853829Y-62317246D01*
X89951936Y-62182213D01*
X90007267Y-62139549D01*
X90052254Y-62131100D01*
X92028811Y-62131100D01*
X92095850Y-62150785D01*
X92128077Y-62180788D01*
X92135406Y-62190578D01*
X92150055Y-62210146D01*
X92150058Y-62210148D01*
X92265265Y-62296393D01*
X92265272Y-62296397D01*
X92400118Y-62346691D01*
X92400117Y-62346691D01*
X92407045Y-62347435D01*
X92459728Y-62353100D01*
X93605473Y-62353099D01*
X93665084Y-62346691D01*
X93799932Y-62296396D01*
X93915147Y-62210146D01*
X93939527Y-62177578D01*
X94453601Y-62177578D01*
X94453601Y-62375600D01*
X95105601Y-62375600D01*
X95359601Y-62375600D01*
X96011600Y-62375600D01*
X96011600Y-62177585D01*
X95996863Y-62103493D01*
X95996862Y-62103490D01*
X95940724Y-62019476D01*
X95856705Y-61963336D01*
X95856704Y-61963335D01*
X95782622Y-61948600D01*
X95359601Y-61948600D01*
X95359601Y-62375600D01*
X95105601Y-62375600D01*
X95105601Y-61948600D01*
X94682586Y-61948600D01*
X94608494Y-61963337D01*
X94608491Y-61963338D01*
X94524477Y-62019476D01*
X94468337Y-62103495D01*
X94468336Y-62103496D01*
X94453601Y-62177578D01*
X93939527Y-62177578D01*
X94001397Y-62094931D01*
X94051692Y-61960083D01*
X94058101Y-61900473D01*
X94058100Y-61204728D01*
X94051692Y-61145117D01*
X94048758Y-61137251D01*
X94001398Y-61010271D01*
X94001394Y-61010264D01*
X93915148Y-60895055D01*
X93915145Y-60895052D01*
X93799936Y-60808806D01*
X93799929Y-60808802D01*
X93665083Y-60758508D01*
X93665084Y-60758508D01*
X93605484Y-60752101D01*
X93605482Y-60752100D01*
X93605474Y-60752100D01*
X93605465Y-60752100D01*
X92459730Y-60752100D01*
X92459724Y-60752101D01*
X92400117Y-60758508D01*
X92265272Y-60808802D01*
X92265269Y-60808804D01*
X92208413Y-60851367D01*
X92142949Y-60875784D01*
X92134102Y-60876100D01*
X90053707Y-60876100D01*
X89986668Y-60856415D01*
X89953389Y-60824986D01*
X89942698Y-60810271D01*
X89853829Y-60687954D01*
X89714647Y-60548772D01*
X89555406Y-60433076D01*
X89553767Y-60432241D01*
X89380030Y-60343717D01*
X89203462Y-60286346D01*
X89145787Y-60246908D01*
X89118589Y-60182549D01*
X89130504Y-60113703D01*
X89177749Y-60062227D01*
X89203469Y-60050482D01*
X89208391Y-60048882D01*
X89366729Y-59968204D01*
X89510488Y-59863758D01*
X89510493Y-59863754D01*
X89636155Y-59738092D01*
X89636159Y-59738087D01*
X89740605Y-59594328D01*
X89821284Y-59435990D01*
X89876201Y-59266975D01*
X89897959Y-59129600D01*
X89133609Y-59129600D01*
X89150001Y-59068426D01*
X89150001Y-58936774D01*
X89133609Y-58875600D01*
X89897959Y-58875600D01*
X89876201Y-58738224D01*
X89821284Y-58569209D01*
X89740605Y-58410871D01*
X89636159Y-58267112D01*
X89636155Y-58267107D01*
X89510493Y-58141445D01*
X89510488Y-58141441D01*
X89366729Y-58036995D01*
X89208391Y-57956316D01*
X89039376Y-57901400D01*
X88883673Y-57876739D01*
X91770942Y-57876739D01*
X91770942Y-57876740D01*
X91791537Y-58112143D01*
X91791539Y-58112153D01*
X91852695Y-58340395D01*
X91852697Y-58340399D01*
X91852698Y-58340403D01*
X91927815Y-58501492D01*
X91952566Y-58554570D01*
X91952568Y-58554574D01*
X92051311Y-58695593D01*
X92088106Y-58748141D01*
X92255200Y-58915235D01*
X92312133Y-58955100D01*
X92448766Y-59050772D01*
X92448768Y-59050773D01*
X92448771Y-59050775D01*
X92662938Y-59150643D01*
X92662944Y-59150644D01*
X92662945Y-59150645D01*
X92717886Y-59165366D01*
X92891193Y-59211803D01*
X93079519Y-59228279D01*
X93126600Y-59232399D01*
X93126601Y-59232399D01*
X93126602Y-59232399D01*
X93165835Y-59228966D01*
X93362009Y-59211803D01*
X93590264Y-59150643D01*
X93804431Y-59050775D01*
X93998002Y-58915235D01*
X94165096Y-58748141D01*
X94300636Y-58554570D01*
X94326221Y-58499702D01*
X94372390Y-58447266D01*
X94439583Y-58428113D01*
X94506464Y-58448328D01*
X94551800Y-58501492D01*
X94562601Y-58552108D01*
X94562601Y-58751754D01*
X94577338Y-58825846D01*
X94577339Y-58825849D01*
X94633477Y-58909863D01*
X94717496Y-58966003D01*
X94717497Y-58966004D01*
X94791581Y-58980739D01*
X95539600Y-58980739D01*
X95539601Y-58980738D01*
X95539601Y-58360348D01*
X95600775Y-58376740D01*
X95732427Y-58376740D01*
X95793601Y-58360348D01*
X95793601Y-58980739D01*
X96541616Y-58980739D01*
X96615707Y-58966002D01*
X96615710Y-58966001D01*
X96699724Y-58909863D01*
X96755864Y-58825844D01*
X96755865Y-58825843D01*
X96770600Y-58751761D01*
X96770601Y-58751758D01*
X96770601Y-58003740D01*
X96150209Y-58003740D01*
X96166601Y-57942566D01*
X96166601Y-57810914D01*
X96150209Y-57749740D01*
X96770600Y-57749740D01*
X96770600Y-57001725D01*
X96755863Y-56927633D01*
X96755862Y-56927630D01*
X96699724Y-56843616D01*
X96615705Y-56787476D01*
X96615704Y-56787475D01*
X96541622Y-56772740D01*
X95793601Y-56772740D01*
X95793601Y-57393131D01*
X95732427Y-57376740D01*
X95600775Y-57376740D01*
X95539601Y-57393131D01*
X95539601Y-56772740D01*
X94791586Y-56772740D01*
X94717494Y-56787477D01*
X94717491Y-56787478D01*
X94633477Y-56843616D01*
X94577337Y-56927635D01*
X94577336Y-56927636D01*
X94562601Y-57001718D01*
X94562601Y-57201368D01*
X94542916Y-57268407D01*
X94490112Y-57314162D01*
X94420954Y-57324106D01*
X94357398Y-57295081D01*
X94326219Y-57253773D01*
X94300636Y-57198911D01*
X94300635Y-57198909D01*
X94165095Y-57005337D01*
X93998003Y-56838246D01*
X93997996Y-56838241D01*
X93804435Y-56702707D01*
X93804431Y-56702705D01*
X93804429Y-56702704D01*
X93590264Y-56602837D01*
X93590260Y-56602836D01*
X93590256Y-56602834D01*
X93362014Y-56541678D01*
X93362004Y-56541676D01*
X93126602Y-56521081D01*
X93126600Y-56521081D01*
X92891197Y-56541676D01*
X92891187Y-56541678D01*
X92662945Y-56602834D01*
X92662936Y-56602838D01*
X92448772Y-56702704D01*
X92448770Y-56702705D01*
X92255198Y-56838245D01*
X92088106Y-57005337D01*
X91952566Y-57198909D01*
X91952565Y-57198911D01*
X91852699Y-57413075D01*
X91852695Y-57413084D01*
X91791539Y-57641326D01*
X91791537Y-57641336D01*
X91770942Y-57876739D01*
X88883673Y-57876739D01*
X88863854Y-57873600D01*
X88777001Y-57873600D01*
X88777001Y-58518991D01*
X88715827Y-58502600D01*
X88584175Y-58502600D01*
X88523001Y-58518991D01*
X88523001Y-57873600D01*
X88436148Y-57873600D01*
X88260625Y-57901400D01*
X88091610Y-57956316D01*
X87933272Y-58036995D01*
X87789513Y-58141441D01*
X87789508Y-58141445D01*
X87663846Y-58267107D01*
X87663842Y-58267112D01*
X87559396Y-58410871D01*
X87478717Y-58569209D01*
X87423800Y-58738224D01*
X87402043Y-58875600D01*
X88166393Y-58875600D01*
X88150001Y-58936774D01*
X88150001Y-59068426D01*
X88166393Y-59129600D01*
X87402043Y-59129600D01*
X87423800Y-59266975D01*
X87478717Y-59435990D01*
X87559396Y-59594328D01*
X87663842Y-59738087D01*
X87663846Y-59738092D01*
X87789508Y-59863754D01*
X87789513Y-59863758D01*
X87933272Y-59968204D01*
X88091611Y-60048883D01*
X88096535Y-60050483D01*
X88154212Y-60089919D01*
X88181411Y-60154277D01*
X88169499Y-60223124D01*
X88122256Y-60274601D01*
X88096539Y-60286346D01*
X87919971Y-60343717D01*
X87744595Y-60433076D01*
X87685812Y-60475785D01*
X87585355Y-60548772D01*
X87585353Y-60548774D01*
X87585352Y-60548774D01*
X87446175Y-60687951D01*
X87446175Y-60687952D01*
X87446173Y-60687954D01*
X87405091Y-60744498D01*
X87330477Y-60847194D01*
X87241118Y-61022570D01*
X87180291Y-61209773D01*
X87149501Y-61404177D01*
X87149501Y-61601022D01*
X87180291Y-61795426D01*
X87241118Y-61982629D01*
X87302700Y-62103490D01*
X87330477Y-62158005D01*
X87446173Y-62317246D01*
X87446175Y-62317248D01*
X87573067Y-62444140D01*
X87606552Y-62505463D01*
X87601568Y-62575155D01*
X87559696Y-62631088D01*
X87558277Y-62632135D01*
X87541790Y-62644114D01*
X87541784Y-62644119D01*
X87416520Y-62769383D01*
X87416520Y-62769384D01*
X87416518Y-62769386D01*
X87392519Y-62802418D01*
X87312387Y-62912709D01*
X87231958Y-63070557D01*
X87231957Y-63070560D01*
X87177215Y-63239043D01*
X87162389Y-63332648D01*
X87149501Y-63414021D01*
X87149501Y-63591179D01*
X87157474Y-63641517D01*
X87177215Y-63766156D01*
X87231957Y-63934639D01*
X87231958Y-63934642D01*
X87287273Y-64043202D01*
X87312387Y-64092490D01*
X87416518Y-64235814D01*
X87541787Y-64361083D01*
X87685111Y-64465214D01*
X87842959Y-64545642D01*
X87870689Y-64554652D01*
X87928364Y-64594088D01*
X87955563Y-64658446D01*
X87943650Y-64727292D01*
X87896407Y-64778769D01*
X87888668Y-64783067D01*
X87804084Y-64826165D01*
X87744804Y-64869235D01*
X87628923Y-64953428D01*
X87628921Y-64953430D01*
X87628920Y-64953430D01*
X87475831Y-65106519D01*
X87475831Y-65106520D01*
X87475829Y-65106522D01*
X87441989Y-65153099D01*
X87348568Y-65281680D01*
X87250274Y-65474590D01*
X87250273Y-65474593D01*
X87183371Y-65680501D01*
X87149501Y-65894346D01*
X87149501Y-66110853D01*
X87183371Y-66324698D01*
X87250273Y-66530606D01*
X87250274Y-66530609D01*
X87328494Y-66684122D01*
X87348568Y-66723519D01*
X87475829Y-66898678D01*
X87475831Y-66898680D01*
X87581415Y-67004264D01*
X87614900Y-67065587D01*
X87609916Y-67135279D01*
X87568044Y-67191212D01*
X87502580Y-67215629D01*
X87437439Y-67202430D01*
X87413974Y-67190473D01*
X87226247Y-67129476D01*
X87031298Y-67098600D01*
X86459601Y-67098600D01*
X86459601Y-67852600D01*
X86205601Y-67852600D01*
X86205601Y-67098600D01*
X85633904Y-67098600D01*
X85438954Y-67129476D01*
X85251227Y-67190473D01*
X85075358Y-67280085D01*
X84915681Y-67396096D01*
X84915676Y-67396100D01*
X84776101Y-67535675D01*
X84776097Y-67535680D01*
X84660084Y-67695359D01*
X84622585Y-67768955D01*
X84574611Y-67819750D01*
X84506790Y-67836545D01*
X84440655Y-67814007D01*
X84397204Y-67759292D01*
X84388101Y-67712659D01*
X84388101Y-64673753D01*
X85532101Y-64673753D01*
X85532101Y-64831446D01*
X85562862Y-64986089D01*
X85562865Y-64986101D01*
X85623203Y-65131772D01*
X85623210Y-65131785D01*
X85710811Y-65262888D01*
X85710814Y-65262892D01*
X85822308Y-65374386D01*
X85822312Y-65374389D01*
X85953415Y-65461990D01*
X85953428Y-65461997D01*
X86099099Y-65522335D01*
X86099104Y-65522337D01*
X86247686Y-65551892D01*
X86253754Y-65553099D01*
X86253757Y-65553100D01*
X86253759Y-65553100D01*
X86411445Y-65553100D01*
X86411446Y-65553099D01*
X86566098Y-65522337D01*
X86711780Y-65461994D01*
X86842890Y-65374389D01*
X86954390Y-65262889D01*
X87041995Y-65131779D01*
X87102338Y-64986097D01*
X87133101Y-64831442D01*
X87133101Y-64673758D01*
X87133101Y-64673755D01*
X87133100Y-64673753D01*
X87124019Y-64628100D01*
X87102338Y-64519103D01*
X87099105Y-64511297D01*
X87041998Y-64373427D01*
X87041991Y-64373414D01*
X86954390Y-64242311D01*
X86954387Y-64242307D01*
X86842893Y-64130813D01*
X86842889Y-64130810D01*
X86711786Y-64043209D01*
X86711773Y-64043202D01*
X86566102Y-63982864D01*
X86566090Y-63982861D01*
X86411446Y-63952100D01*
X86411443Y-63952100D01*
X86253759Y-63952100D01*
X86253756Y-63952100D01*
X86099111Y-63982861D01*
X86099099Y-63982864D01*
X85953428Y-64043202D01*
X85953415Y-64043209D01*
X85822312Y-64130810D01*
X85822308Y-64130813D01*
X85710814Y-64242307D01*
X85710811Y-64242311D01*
X85623210Y-64373414D01*
X85623203Y-64373427D01*
X85562865Y-64519098D01*
X85562862Y-64519110D01*
X85532101Y-64673753D01*
X84388101Y-64673753D01*
X84388101Y-60173753D01*
X85532101Y-60173753D01*
X85532101Y-60331446D01*
X85562862Y-60486089D01*
X85562865Y-60486101D01*
X85623203Y-60631772D01*
X85623210Y-60631785D01*
X85710811Y-60762888D01*
X85710814Y-60762892D01*
X85822308Y-60874386D01*
X85822312Y-60874389D01*
X85953415Y-60961990D01*
X85953428Y-60961997D01*
X86099099Y-61022335D01*
X86099104Y-61022337D01*
X86253754Y-61053099D01*
X86253757Y-61053100D01*
X86253759Y-61053100D01*
X86411445Y-61053100D01*
X86411446Y-61053099D01*
X86566098Y-61022337D01*
X86711780Y-60961994D01*
X86842890Y-60874389D01*
X86954390Y-60762889D01*
X87041995Y-60631779D01*
X87051512Y-60608804D01*
X87072344Y-60558509D01*
X87102338Y-60486097D01*
X87133101Y-60331442D01*
X87133101Y-60173758D01*
X87133101Y-60173755D01*
X87133100Y-60173753D01*
X87125869Y-60137399D01*
X87102338Y-60019103D01*
X87102333Y-60019090D01*
X87041998Y-59873427D01*
X87041991Y-59873414D01*
X86954390Y-59742311D01*
X86954387Y-59742307D01*
X86842893Y-59630813D01*
X86842889Y-59630810D01*
X86711786Y-59543209D01*
X86711773Y-59543202D01*
X86566102Y-59482864D01*
X86566090Y-59482861D01*
X86411446Y-59452100D01*
X86411443Y-59452100D01*
X86253759Y-59452100D01*
X86253756Y-59452100D01*
X86099111Y-59482861D01*
X86099099Y-59482864D01*
X85953428Y-59543202D01*
X85953415Y-59543209D01*
X85822312Y-59630810D01*
X85822308Y-59630813D01*
X85710814Y-59742307D01*
X85710811Y-59742311D01*
X85623210Y-59873414D01*
X85623203Y-59873427D01*
X85562865Y-60019098D01*
X85562862Y-60019110D01*
X85532101Y-60173753D01*
X84388101Y-60173753D01*
X84388101Y-57292540D01*
X84407786Y-57225501D01*
X84460590Y-57179746D01*
X84529748Y-57169802D01*
X84593304Y-57198827D01*
X84622586Y-57236245D01*
X84660086Y-57309842D01*
X84776097Y-57469519D01*
X84776101Y-57469524D01*
X84915676Y-57609099D01*
X84915681Y-57609103D01*
X85075358Y-57725114D01*
X85251227Y-57814726D01*
X85438954Y-57875723D01*
X85633904Y-57906600D01*
X86205601Y-57906600D01*
X86205601Y-57152600D01*
X86459601Y-57152600D01*
X86459601Y-57906600D01*
X87031298Y-57906600D01*
X87226247Y-57875723D01*
X87413974Y-57814726D01*
X87589843Y-57725114D01*
X87749520Y-57609103D01*
X87749525Y-57609099D01*
X87889100Y-57469524D01*
X87889104Y-57469519D01*
X88005115Y-57309842D01*
X88094727Y-57133973D01*
X88155724Y-56946246D01*
X88182118Y-56779600D01*
X87566209Y-56779600D01*
X87582601Y-56718426D01*
X87582601Y-56586774D01*
X87566209Y-56525600D01*
X88182118Y-56525600D01*
X88163429Y-56407600D01*
X110813416Y-56407600D01*
X110832104Y-56585405D01*
X110832105Y-56585407D01*
X110887348Y-56755429D01*
X110887351Y-56755435D01*
X110976742Y-56910265D01*
X110992383Y-56927636D01*
X111096365Y-57043121D01*
X111096368Y-57043123D01*
X111096371Y-57043126D01*
X111241008Y-57148212D01*
X111404334Y-57220929D01*
X111404335Y-57220929D01*
X111410271Y-57223572D01*
X111409491Y-57225323D01*
X111449423Y-57249790D01*
X113294782Y-59095148D01*
X113328267Y-59156471D01*
X113331101Y-59182829D01*
X113331101Y-61053278D01*
X113314488Y-61115278D01*
X113300351Y-61139763D01*
X113245105Y-61309792D01*
X113245104Y-61309794D01*
X113226416Y-61487600D01*
X113245104Y-61665405D01*
X113245105Y-61665407D01*
X113300348Y-61835429D01*
X113300351Y-61835435D01*
X113389742Y-61990265D01*
X113393018Y-61993903D01*
X113509365Y-62123121D01*
X113509368Y-62123123D01*
X113509371Y-62123126D01*
X113654008Y-62228212D01*
X113817334Y-62300929D01*
X113992210Y-62338100D01*
X113992211Y-62338100D01*
X114170990Y-62338100D01*
X114170992Y-62338100D01*
X114345868Y-62300929D01*
X114509194Y-62228212D01*
X114653831Y-62123126D01*
X114671512Y-62103490D01*
X114679749Y-62094341D01*
X114773460Y-61990265D01*
X114862851Y-61835435D01*
X114918098Y-61665403D01*
X114936786Y-61487600D01*
X114918098Y-61309797D01*
X114862851Y-61139765D01*
X114861399Y-61137250D01*
X114848714Y-61115278D01*
X114832101Y-61053278D01*
X114832101Y-58746679D01*
X114803260Y-58601692D01*
X114803259Y-58601691D01*
X114803259Y-58601687D01*
X114796384Y-58585089D01*
X114746688Y-58465111D01*
X114746681Y-58465098D01*
X114664553Y-58342185D01*
X114662763Y-58340395D01*
X114560017Y-58237649D01*
X113543297Y-57220929D01*
X112503493Y-56181124D01*
X112473243Y-56131760D01*
X112449851Y-56059765D01*
X112449849Y-56059761D01*
X112412665Y-55995357D01*
X112360460Y-55904935D01*
X112240836Y-55772078D01*
X112240833Y-55772076D01*
X112240832Y-55772075D01*
X112240831Y-55772074D01*
X112096194Y-55666988D01*
X111932868Y-55594271D01*
X111932866Y-55594270D01*
X111805195Y-55567133D01*
X111757992Y-55557100D01*
X111579210Y-55557100D01*
X111548555Y-55563615D01*
X111404334Y-55594270D01*
X111404329Y-55594272D01*
X111241009Y-55666987D01*
X111096369Y-55772075D01*
X110976741Y-55904936D01*
X110887351Y-56059764D01*
X110887348Y-56059770D01*
X110832105Y-56229792D01*
X110832104Y-56229794D01*
X110813416Y-56407600D01*
X88163429Y-56407600D01*
X88155724Y-56358953D01*
X88094727Y-56171226D01*
X88005115Y-55995357D01*
X87889104Y-55835680D01*
X87889100Y-55835675D01*
X87749525Y-55696100D01*
X87749520Y-55696096D01*
X87589843Y-55580085D01*
X87413974Y-55490473D01*
X87226247Y-55429476D01*
X87031298Y-55398600D01*
X86459601Y-55398600D01*
X86459601Y-56152600D01*
X86205601Y-56152600D01*
X86205601Y-55398600D01*
X85633904Y-55398600D01*
X85438954Y-55429476D01*
X85251227Y-55490473D01*
X85075358Y-55580085D01*
X84915681Y-55696096D01*
X84915676Y-55696100D01*
X84776101Y-55835675D01*
X84776097Y-55835680D01*
X84660084Y-55995359D01*
X84622585Y-56068955D01*
X84574611Y-56119750D01*
X84506790Y-56136545D01*
X84440655Y-56114007D01*
X84397204Y-56059292D01*
X84388101Y-56012659D01*
X84388101Y-54365100D01*
X84407786Y-54298061D01*
X84460590Y-54252306D01*
X84512101Y-54241100D01*
X130390101Y-54241100D01*
X130457140Y-54260785D01*
G37*
G04 #@! TD.AperFunction*
G04 #@! TA.AperFunction,Conductor*
G36*
X116030140Y-68492785D02*
G01*
X116075895Y-68545589D01*
X116087101Y-68597100D01*
X116087101Y-69077869D01*
X116087102Y-69503100D01*
X116067418Y-69570139D01*
X116014614Y-69615894D01*
X115963102Y-69627100D01*
X115876051Y-69627100D01*
X115809012Y-69607415D01*
X115763257Y-69554611D01*
X115753313Y-69485453D01*
X115757997Y-69466286D01*
X115758725Y-69462952D01*
X115761601Y-69432290D01*
X115761601Y-69304600D01*
X115029601Y-69304600D01*
X114962562Y-69284915D01*
X114916807Y-69232111D01*
X114905601Y-69180600D01*
X114905601Y-69174600D01*
X114925286Y-69107561D01*
X114978090Y-69061806D01*
X115029601Y-69050600D01*
X115761601Y-69050600D01*
X115761601Y-68922909D01*
X115758725Y-68892247D01*
X115758723Y-68892235D01*
X115713523Y-68763065D01*
X115645380Y-68670733D01*
X115621410Y-68605104D01*
X115636726Y-68536934D01*
X115686466Y-68487866D01*
X115745151Y-68473100D01*
X115963101Y-68473100D01*
X116030140Y-68492785D01*
G37*
G04 #@! TD.AperFunction*
G04 #@! TA.AperFunction,Conductor*
G36*
X125330466Y-66815948D02*
G01*
X125374983Y-66867325D01*
X125402030Y-66925328D01*
X125402033Y-66925334D01*
X125532555Y-67111741D01*
X125693459Y-67272645D01*
X125700144Y-67277326D01*
X125879867Y-67403168D01*
X126086105Y-67499339D01*
X126305909Y-67558235D01*
X126467831Y-67572401D01*
X126532599Y-67578068D01*
X126532601Y-67578068D01*
X126532603Y-67578068D01*
X126589274Y-67573109D01*
X126759293Y-67558235D01*
X126979097Y-67499339D01*
X127185335Y-67403168D01*
X127371740Y-67272647D01*
X127420349Y-67224038D01*
X127470420Y-67173968D01*
X127531743Y-67140483D01*
X127601435Y-67145467D01*
X127657368Y-67187339D01*
X127681785Y-67252803D01*
X127682101Y-67261649D01*
X127682101Y-68277890D01*
X127662416Y-68344929D01*
X127645782Y-68365571D01*
X126420572Y-69590781D01*
X126359249Y-69624266D01*
X126332891Y-69627100D01*
X119702101Y-69627100D01*
X119635062Y-69607415D01*
X119589307Y-69554611D01*
X119578101Y-69503100D01*
X119578100Y-68578711D01*
X119563321Y-68466448D01*
X119563320Y-68466447D01*
X119563320Y-68466441D01*
X119534388Y-68396594D01*
X119505459Y-68326751D01*
X119505457Y-68326748D01*
X119505457Y-68326747D01*
X119500790Y-68320665D01*
X119477547Y-68269371D01*
X119467102Y-68216856D01*
X119418066Y-68098473D01*
X119418065Y-68098472D01*
X119418061Y-68098464D01*
X119390276Y-68056882D01*
X119390274Y-68056880D01*
X119389419Y-68055600D01*
X119346877Y-67991930D01*
X119346875Y-67991928D01*
X119346873Y-67991925D01*
X118941274Y-67586326D01*
X118917855Y-67570678D01*
X118834728Y-67515135D01*
X118826626Y-67511779D01*
X118716341Y-67466097D01*
X118716092Y-67466022D01*
X118715977Y-67465946D01*
X118710717Y-67463768D01*
X118711130Y-67462769D01*
X118657658Y-67427718D01*
X118629208Y-67363903D01*
X118628100Y-67347365D01*
X118628100Y-67203100D01*
X118647785Y-67136061D01*
X118700589Y-67090306D01*
X118752100Y-67079100D01*
X118833683Y-67079100D01*
X119531278Y-67079100D01*
X119595427Y-67096982D01*
X119717995Y-67171078D01*
X119880405Y-67221686D01*
X119950985Y-67228100D01*
X119950988Y-67228100D01*
X120464214Y-67228100D01*
X120464217Y-67228100D01*
X120534797Y-67221686D01*
X120697207Y-67171078D01*
X120842786Y-67083072D01*
X120889895Y-67035963D01*
X120944920Y-66980939D01*
X121006243Y-66947454D01*
X121075935Y-66952438D01*
X121120282Y-66980939D01*
X121222412Y-67083069D01*
X121222414Y-67083070D01*
X121222416Y-67083072D01*
X121367995Y-67171078D01*
X121530405Y-67221686D01*
X121600985Y-67228100D01*
X121600988Y-67228100D01*
X122114214Y-67228100D01*
X122114217Y-67228100D01*
X122184797Y-67221686D01*
X122347207Y-67171078D01*
X122492786Y-67083072D01*
X122613073Y-66962785D01*
X122643221Y-66912913D01*
X122694748Y-66865727D01*
X122763607Y-66853889D01*
X122827936Y-66881158D01*
X122858824Y-66920932D01*
X122859325Y-66920643D01*
X122861427Y-66924285D01*
X122861719Y-66924660D01*
X122862032Y-66925332D01*
X122862033Y-66925334D01*
X122992555Y-67111741D01*
X123153459Y-67272645D01*
X123160144Y-67277326D01*
X123339867Y-67403168D01*
X123546105Y-67499339D01*
X123765909Y-67558235D01*
X123927831Y-67572401D01*
X123992599Y-67578068D01*
X123992601Y-67578068D01*
X123992603Y-67578068D01*
X124049274Y-67573109D01*
X124219293Y-67558235D01*
X124439097Y-67499339D01*
X124645335Y-67403168D01*
X124831740Y-67272647D01*
X124992648Y-67111739D01*
X125123169Y-66925334D01*
X125150219Y-66867324D01*
X125196391Y-66814885D01*
X125263584Y-66795733D01*
X125330466Y-66815948D01*
G37*
G04 #@! TD.AperFunction*
G04 #@! TA.AperFunction,Conductor*
G36*
X125772059Y-62003785D02*
G01*
X125788558Y-62016463D01*
X125860749Y-62082273D01*
X125860751Y-62082275D01*
X126035663Y-62190576D01*
X126035664Y-62190576D01*
X126035667Y-62190578D01*
X126227506Y-62264897D01*
X126429735Y-62302700D01*
X126429737Y-62302700D01*
X126635465Y-62302700D01*
X126635467Y-62302700D01*
X126837696Y-62264897D01*
X126838305Y-62264660D01*
X126838614Y-62264634D01*
X126843207Y-62263328D01*
X126843462Y-62264226D01*
X126907926Y-62258796D01*
X126969667Y-62291504D01*
X127003924Y-62352399D01*
X127007101Y-62380286D01*
X127007101Y-62544913D01*
X126987416Y-62611952D01*
X126934612Y-62657707D01*
X126865454Y-62667651D01*
X126843219Y-62661827D01*
X126843207Y-62661872D01*
X126841086Y-62661268D01*
X126838320Y-62660544D01*
X126837710Y-62660308D01*
X126837705Y-62660306D01*
X126837696Y-62660303D01*
X126635467Y-62622500D01*
X126429735Y-62622500D01*
X126227506Y-62660303D01*
X126106189Y-62707301D01*
X126035669Y-62734621D01*
X126035663Y-62734623D01*
X125860752Y-62842923D01*
X125860747Y-62842927D01*
X125708713Y-62981523D01*
X125584730Y-63145705D01*
X125493032Y-63329859D01*
X125493028Y-63329869D01*
X125436727Y-63527750D01*
X125417745Y-63732600D01*
X125436727Y-63937449D01*
X125436727Y-63937451D01*
X125436728Y-63937454D01*
X125449648Y-63982863D01*
X125493028Y-64135330D01*
X125493032Y-64135340D01*
X125567231Y-64284351D01*
X125584731Y-64319496D01*
X125605145Y-64346528D01*
X125708713Y-64483676D01*
X125860747Y-64622272D01*
X125860752Y-64622276D01*
X126035663Y-64730576D01*
X126035664Y-64730576D01*
X126035667Y-64730578D01*
X126183374Y-64787800D01*
X126238774Y-64830372D01*
X126262365Y-64896139D01*
X126246654Y-64964219D01*
X126196630Y-65012998D01*
X126170673Y-65023201D01*
X126086109Y-65045859D01*
X126086103Y-65045861D01*
X125879868Y-65142031D01*
X125879866Y-65142032D01*
X125693459Y-65272554D01*
X125532555Y-65433458D01*
X125402033Y-65619865D01*
X125402032Y-65619867D01*
X125374983Y-65677875D01*
X125328810Y-65730314D01*
X125261617Y-65749466D01*
X125194736Y-65729250D01*
X125150219Y-65677875D01*
X125139366Y-65654600D01*
X125123169Y-65619866D01*
X124992648Y-65433461D01*
X124992646Y-65433458D01*
X124831742Y-65272554D01*
X124645335Y-65142032D01*
X124645333Y-65142031D01*
X124439098Y-65045861D01*
X124439089Y-65045858D01*
X124354529Y-65023201D01*
X124294868Y-64986836D01*
X124264339Y-64923989D01*
X124272634Y-64854614D01*
X124317119Y-64800736D01*
X124341823Y-64787801D01*
X124489535Y-64730578D01*
X124664452Y-64622274D01*
X124777626Y-64519103D01*
X124816488Y-64483676D01*
X124816490Y-64483674D01*
X124940471Y-64319496D01*
X125032173Y-64135332D01*
X125088474Y-63937454D01*
X125107457Y-63732600D01*
X125088474Y-63527746D01*
X125032173Y-63329868D01*
X125017167Y-63299732D01*
X124957363Y-63179629D01*
X124940471Y-63145704D01*
X124838196Y-63010269D01*
X124816488Y-62981523D01*
X124664454Y-62842927D01*
X124664449Y-62842923D01*
X124489538Y-62734623D01*
X124489532Y-62734621D01*
X124297696Y-62660303D01*
X124095467Y-62622500D01*
X123889735Y-62622500D01*
X123889733Y-62622500D01*
X123863686Y-62627369D01*
X123794171Y-62620337D01*
X123739493Y-62576839D01*
X123717169Y-62513592D01*
X123714724Y-62476303D01*
X123711477Y-62426765D01*
X123726733Y-62358583D01*
X123776431Y-62309472D01*
X123844791Y-62295026D01*
X123857993Y-62296766D01*
X123889735Y-62302700D01*
X123889736Y-62302700D01*
X124095465Y-62302700D01*
X124095467Y-62302700D01*
X124297696Y-62264897D01*
X124489535Y-62190578D01*
X124664452Y-62082274D01*
X124711037Y-62039806D01*
X124736644Y-62016463D01*
X124799448Y-61985846D01*
X124820182Y-61984100D01*
X125705020Y-61984100D01*
X125772059Y-62003785D01*
G37*
G04 #@! TD.AperFunction*
G04 #@! TA.AperFunction,Conductor*
G36*
X119863304Y-64190638D02*
G01*
X119863860Y-64191123D01*
X119914822Y-64235815D01*
X120041068Y-64346530D01*
X120246318Y-64483674D01*
X120289682Y-64512649D01*
X120557844Y-64644892D01*
X120557854Y-64644896D01*
X120721580Y-64700473D01*
X120840981Y-64741004D01*
X121134239Y-64799336D01*
X121155599Y-64800736D01*
X121432594Y-64818892D01*
X121432601Y-64818892D01*
X121432608Y-64818892D01*
X121583632Y-64808993D01*
X121651815Y-64824250D01*
X121700926Y-64873948D01*
X121715371Y-64942309D01*
X121690565Y-65007627D01*
X121679423Y-65020408D01*
X121444649Y-65255182D01*
X121421951Y-65289152D01*
X121374072Y-65329676D01*
X121374414Y-65330242D01*
X121370878Y-65332379D01*
X121369760Y-65333326D01*
X121368006Y-65334115D01*
X121222412Y-65422130D01*
X121222411Y-65422131D01*
X121120282Y-65524261D01*
X121058959Y-65557746D01*
X120989267Y-65552762D01*
X120944920Y-65524261D01*
X120842789Y-65422130D01*
X120807174Y-65400600D01*
X120697207Y-65334122D01*
X120534797Y-65283514D01*
X120534795Y-65283513D01*
X120534793Y-65283513D01*
X120485379Y-65279023D01*
X120464217Y-65277100D01*
X119950985Y-65277100D01*
X119898050Y-65281910D01*
X119880404Y-65283514D01*
X119818989Y-65302651D01*
X119749129Y-65303801D01*
X119689737Y-65266999D01*
X119659670Y-65203930D01*
X119658101Y-65184265D01*
X119658101Y-64284351D01*
X119677786Y-64217312D01*
X119730590Y-64171557D01*
X119799748Y-64161613D01*
X119863304Y-64190638D01*
G37*
G04 #@! TD.AperFunction*
G04 #@! TA.AperFunction,Conductor*
G36*
X130469276Y-60807607D02*
G01*
X130508302Y-60865562D01*
X130514101Y-60903039D01*
X130514101Y-64022060D01*
X130494416Y-64089099D01*
X130441612Y-64134854D01*
X130372454Y-64144798D01*
X130308898Y-64115773D01*
X130295811Y-64102592D01*
X130203863Y-63994935D01*
X130151535Y-63933666D01*
X129995585Y-63800473D01*
X129962721Y-63772404D01*
X129962716Y-63772400D01*
X129751000Y-63642660D01*
X129750997Y-63642658D01*
X129521595Y-63547638D01*
X129408663Y-63520525D01*
X129348071Y-63485734D01*
X129315908Y-63423707D01*
X129322384Y-63354138D01*
X129349930Y-63312269D01*
X129380599Y-63281600D01*
X129634601Y-63281600D01*
X129778421Y-63281600D01*
X129778437Y-63281599D01*
X129835468Y-63275466D01*
X129835473Y-63275465D01*
X129964522Y-63227332D01*
X129964525Y-63227330D01*
X130074786Y-63144788D01*
X130074789Y-63144785D01*
X130157331Y-63034524D01*
X130157333Y-63034521D01*
X130205466Y-62905472D01*
X130205467Y-62905467D01*
X130211600Y-62848436D01*
X130211601Y-62848419D01*
X130211601Y-62679600D01*
X129634601Y-62679600D01*
X129634601Y-63281600D01*
X129380599Y-63281600D01*
X129380601Y-63281598D01*
X129380601Y-62425600D01*
X129634601Y-62425600D01*
X130211601Y-62425600D01*
X130211601Y-62256780D01*
X130211600Y-62256763D01*
X130205467Y-62199732D01*
X130205466Y-62199727D01*
X130157333Y-62070678D01*
X130157331Y-62070675D01*
X130074789Y-61960414D01*
X130074786Y-61960411D01*
X129964525Y-61877869D01*
X129964522Y-61877867D01*
X129835473Y-61829734D01*
X129835468Y-61829733D01*
X129778437Y-61823600D01*
X129634601Y-61823600D01*
X129634601Y-62425600D01*
X129380601Y-62425600D01*
X129380601Y-61823600D01*
X129236764Y-61823600D01*
X129179733Y-61829733D01*
X129179728Y-61829734D01*
X129050679Y-61877867D01*
X129050677Y-61877869D01*
X128985411Y-61926727D01*
X128919947Y-61951144D01*
X128851674Y-61936292D01*
X128802269Y-61886887D01*
X128787101Y-61827460D01*
X128787101Y-61779679D01*
X128757071Y-61628713D01*
X128758456Y-61628437D01*
X128757890Y-61565685D01*
X128795133Y-61506569D01*
X128858424Y-61476971D01*
X128886902Y-61475927D01*
X129032601Y-61487394D01*
X129272696Y-61468498D01*
X129506878Y-61412276D01*
X129729383Y-61320111D01*
X129934730Y-61194274D01*
X130117864Y-61037863D01*
X130274275Y-60854729D01*
X130284373Y-60838249D01*
X130336183Y-60791375D01*
X130405113Y-60779951D01*
X130469276Y-60807607D01*
G37*
G04 #@! TD.AperFunction*
G04 #@! TA.AperFunction,Conductor*
G36*
X122896943Y-59357711D02*
G01*
X122908957Y-59372349D01*
X122992555Y-59491741D01*
X123153459Y-59652645D01*
X123200294Y-59685439D01*
X123339867Y-59783168D01*
X123546105Y-59879339D01*
X123546107Y-59879339D01*
X123546114Y-59879342D01*
X123603785Y-59894794D01*
X123630671Y-59901998D01*
X123690332Y-59938362D01*
X123720862Y-60001209D01*
X123712568Y-60070584D01*
X123668083Y-60124463D01*
X123643373Y-60137399D01*
X123495678Y-60194616D01*
X123495663Y-60194623D01*
X123320752Y-60302923D01*
X123320747Y-60302927D01*
X123168713Y-60441523D01*
X123044731Y-60605703D01*
X123009807Y-60675840D01*
X122962304Y-60727077D01*
X122894641Y-60744498D01*
X122828301Y-60722572D01*
X122824652Y-60719914D01*
X122575519Y-60553448D01*
X122307357Y-60421205D01*
X122307347Y-60421201D01*
X122024234Y-60325098D01*
X122024228Y-60325096D01*
X122024221Y-60325094D01*
X121730963Y-60266762D01*
X121730956Y-60266761D01*
X121730946Y-60266760D01*
X121432608Y-60247206D01*
X121432594Y-60247206D01*
X121134255Y-60266760D01*
X121134243Y-60266761D01*
X121134239Y-60266762D01*
X121134231Y-60266763D01*
X121134228Y-60266764D01*
X120840986Y-60325093D01*
X120840972Y-60325096D01*
X120557851Y-60421203D01*
X120557830Y-60421212D01*
X120289687Y-60553446D01*
X120289680Y-60553451D01*
X120041069Y-60719566D01*
X119863860Y-60874974D01*
X119800478Y-60904377D01*
X119731261Y-60894845D01*
X119678186Y-60849405D01*
X119658103Y-60782483D01*
X119658101Y-60781746D01*
X119658101Y-59689773D01*
X119677786Y-59622734D01*
X119730590Y-59576979D01*
X119799748Y-59567035D01*
X119818975Y-59571383D01*
X119980405Y-59621686D01*
X120050985Y-59628100D01*
X120050988Y-59628100D01*
X120564214Y-59628100D01*
X120564217Y-59628100D01*
X120634797Y-59621686D01*
X120797207Y-59571078D01*
X120942786Y-59483072D01*
X120989868Y-59435990D01*
X121044920Y-59380939D01*
X121106243Y-59347454D01*
X121175935Y-59352438D01*
X121220282Y-59380939D01*
X121322412Y-59483069D01*
X121322414Y-59483070D01*
X121322416Y-59483072D01*
X121467995Y-59571078D01*
X121630405Y-59621686D01*
X121700985Y-59628100D01*
X121700988Y-59628100D01*
X122214214Y-59628100D01*
X122214217Y-59628100D01*
X122284797Y-59621686D01*
X122447207Y-59571078D01*
X122592786Y-59483072D01*
X122652321Y-59423537D01*
X122718377Y-59357482D01*
X122720343Y-59359448D01*
X122766576Y-59326379D01*
X122836359Y-59322905D01*
X122896943Y-59357711D01*
G37*
G04 #@! TD.AperFunction*
G04 #@! TA.AperFunction,Conductor*
G36*
X127448747Y-59687217D02*
G01*
X127496560Y-59738165D01*
X127509515Y-59803838D01*
X127498938Y-59938235D01*
X127497807Y-59952600D01*
X127516703Y-60192695D01*
X127516704Y-60192699D01*
X127543818Y-60305642D01*
X127540327Y-60375424D01*
X127499663Y-60432241D01*
X127434736Y-60458054D01*
X127366161Y-60444668D01*
X127339706Y-60426225D01*
X127204454Y-60302927D01*
X127204449Y-60302923D01*
X127029538Y-60194623D01*
X127029532Y-60194620D01*
X126881828Y-60137400D01*
X126826427Y-60094827D01*
X126802836Y-60029060D01*
X126818547Y-59960980D01*
X126868571Y-59912201D01*
X126894525Y-59901999D01*
X126949002Y-59887403D01*
X126979087Y-59879342D01*
X126979090Y-59879340D01*
X126979097Y-59879339D01*
X127185335Y-59783168D01*
X127314775Y-59692533D01*
X127380980Y-59670207D01*
X127448747Y-59687217D01*
G37*
G04 #@! TD.AperFunction*
M02*
